<svg xmlns="http://www.w3.org/2000/svg" viewBox="0 0 16 16"><defs><style>.cls-1{isolation:isolate;}.cls-2{fill:#1d1d1b;mix-blend-mode:screen;}.cls-3{fill:#fff;}</style></defs><title>Asset 4</title><g class="cls-1"><g id="Layer_2" data-name="Layer 2"><g id="Layer_1-2" data-name="Layer 1"><circle class="cls-2" cx="8" cy="8" r="8"/><path class="cls-3" d="M8.56,6.78,10,5.53a.23.23,0,0,0,.08-.17V3.29h.69a.23.23,0,1,0,0-.46H5.24a.23.23,0,0,0,0,.46h.69V5.36A.23.23,0,0,0,6,5.53L7.44,6.78a3.22,3.22,0,0,0-1.1,5.93H5.7a.23.23,0,0,0,0,.46h4.6a.23.23,0,0,0,0-.46H9.66a3.22,3.22,0,0,0-1.1-5.93Zm.13-2.57V6.06L8,6.66l-.69-.6V4.21ZM7.31,3.75V3.29H8.69v.46Zm1.84,1.9V4.21h.46v1Zm.46-1.9H9.15V3.29h.46ZM6.85,3.29v.46H6.39V3.29Zm-.46.92h.46V5.65l-.46-.4ZM8,12.71A2.76,2.76,0,1,1,10.76,10,2.77,2.77,0,0,1,8,12.71Z"/><path class="cls-3" d="M8,7.66A2.3,2.3,0,1,0,10.3,10,2.3,2.3,0,0,0,8,7.66Zm0,4.13A1.84,1.84,0,1,1,9.84,10,1.84,1.84,0,0,1,8,11.79Z"/><path class="cls-3" d="M8.89,9.46H8.34l-.16-.52a.19.19,0,0,0-.36,0l-.16.52H7.11a.17.17,0,0,0-.17.13A.19.19,0,0,0,7,9.8l.44.31-.16.52a.19.19,0,0,0,.06.21.22.22,0,0,0,.22,0L8,10.52l.44.32a.22.22,0,0,0,.22,0,.19.19,0,0,0,.06-.21l-.16-.52L9,9.8a.19.19,0,0,0,.06-.21A.17.17,0,0,0,8.89,9.46Zm-.66.43a.19.19,0,0,0-.07.21l0,.1-.08-.06a.18.18,0,0,0-.22,0l-.08.06,0-.1a.19.19,0,0,0-.07-.21l-.08-.06h.1A.19.19,0,0,0,8,9.7l0-.1,0,.1a.19.19,0,0,0,.18.13h.1Z"/><path class="cls-3" d="M3.86,6.51a.69.69,0,1,0,.69.69A.69.69,0,0,0,3.86,6.51Zm0,.92a.24.24,0,0,1-.23-.23A.23.23,0,0,1,3.86,7a.23.23,0,0,1,.23.23A.23.23,0,0,1,3.86,7.43Z"/><path class="cls-3" d="M12,11.33a.58.58,0,1,0,.58.58A.58.58,0,0,0,12,11.33ZM12,12a.11.11,0,0,1-.11-.11.11.11,0,0,1,.11-.12.12.12,0,0,1,.12.12A.11.11,0,0,1,12,12Z"/><path class="cls-3" d="M12,6.51a.81.81,0,1,0-.8-.81A.81.81,0,0,0,12,6.51Zm0-1.15a.35.35,0,0,1,.35.34.35.35,0,0,1-.35.35.35.35,0,0,1-.34-.35A.34.34,0,0,1,12,5.36Z"/><path class="cls-3" d="M11.45,4.21A.24.24,0,0,0,11.68,4a.23.23,0,0,0-.23-.23.23.23,0,0,0-.23.23A.23.23,0,0,0,11.45,4.21Z"/><path class="cls-3" d="M12.37,7.89a.23.23,0,1,0,0,.45.23.23,0,1,0,0-.45Z"/><path class="cls-3" d="M11,12.71a.23.23,0,1,0,.23.23A.23.23,0,0,0,11,12.71Z"/><path class="cls-3" d="M5,12.71a.23.23,0,1,0,.23.23A.23.23,0,0,0,5,12.71Z"/><path class="cls-3" d="M5,5.13a.23.23,0,0,0-.23-.23.23.23,0,0,0-.23.23.24.24,0,0,0,.23.23A.23.23,0,0,0,5,5.13Z"/><path class="cls-3" d="M3.86,10.64a.24.24,0,0,0-.23.23.23.23,0,0,0,.23.23.23.23,0,0,0,.23-.23A.23.23,0,0,0,3.86,10.64Z"/></g></g></g></svg>