<?xml version="1.0" encoding="utf-8"?>
<!-- Generator: Adobe Illustrator 24.0.2, SVG Export Plug-In . SVG Version: 6.00 Build 0)  -->
<svg version="1.1" id="Layer_1" xmlns="http://www.w3.org/2000/svg" xmlns:xlink="http://www.w3.org/1999/xlink" x="0px" y="0px"
	 viewBox="0 0 365 365" style="enable-background:new 0 0 365 365;" xml:space="preserve">
<style type="text/css">
	.st0{fill:#F63728;}
	.st1{fill:#260600;}
</style>
<g id="XMLID_21_">
	<rect id="XMLID_23_" class="st0" width="365" height="365"/>
	<rect id="XMLID_24_" x="16.1" y="16.1" class="st1" width="332.9" height="332.9"/>
	<path id="XMLID_27_" class="st0" d="M105.5,209.1l-13.1,44.7c-0.2,1.5-0.9,2-2.2,2h-22c-1.5,0-2-0.8-1.5-2.6
		c11.7-39.3,31.3-104.9,45.1-149.4c0.7-2.6,1.3-5.1,1.8-14.2c0-1,0.7-1.5,1.3-1.5h29.6c1.1,0,1.3,0.3,1.8,1.3
		c16,52.7,33.5,110.8,49.9,164c0.4,1.5,0,2.3-1.3,2.3h-24.2c-1.1,0-1.5-0.5-2-1.5l-13.8-45.3h-49.4V209.1z M149.1,184
		c-4.3-17.2-14.9-52-19.2-69.9h-0.2c-3.2,16.9-12.1,46.1-18.5,69.9H149.1z"/>
	<path id="XMLID_28_" class="st0" d="M207.9,160.5c0-8.8,0.4-16.2-0.1-21.3c0-1.3,0.2-2,1.5-2c0,0,34-10.4,54.4-8.8
		c16.3,1.3,34.8,10.5,34.8,52.2v73.3c0,1.3-0.7,2-1.7,2h-22c-1.2,0-1.9-0.8-1.9-2.3v-73.3c0-16.7-6.9-28.2-19.6-28.2
		c-7.9,0-11.5,1.2-19.8,5.3v96.5c0,1.5-0.4,2-1.7,2h-22.3c-1.1,0-1.5-0.5-1.5-2.3v-93.1H207.9z"/>
</g>
</svg>
