<svg id="Layer_1" data-name="Layer 1" xmlns="http://www.w3.org/2000/svg" xmlns:xlink="http://www.w3.org/1999/xlink" viewBox="0 0 348.58 101.61"><defs><style>.cls-1{fill:#fff;}.cls-2{fill:#1b1e51;}.cls-3{fill:url(#linear-gradient);}.cls-4{fill:none;}</style><linearGradient id="linear-gradient" x1="45.18" y1="89.84" x2="45.18" y2="29.28" gradientUnits="userSpaceOnUse"><stop offset="0" stop-color="#ed8a22"/><stop offset="0.15" stop-color="#ef9920"/><stop offset="0.49" stop-color="#f4b71c"/><stop offset="0.79" stop-color="#f7c91a"/><stop offset="1" stop-color="#f8d019"/></linearGradient></defs><title>ATEC-logo</title><rect class="cls-1" width="348.58" height="101.33"/><polygon class="cls-2" points="79.95 20.76 69.86 40.95 69.85 40.96 57.03 52.21 58.84 33.37 49.16 48.6 44.26 26.66 39.87 48.47 29.55 33.76 32.13 52.21 20.51 42.28 10 20.7 38.7 20.7 44.53 10 49.46 20.76 79.95 20.76"/><polygon class="cls-3" points="69.85 40.96 44.53 91.61 20.51 42.28 32.13 52.21 29.55 33.76 39.87 48.47 44.26 26.66 49.16 48.6 58.84 33.37 57.03 52.21 69.85 40.96"/><path class="cls-2" d="M132.2,20.55H112.78l-31.16,69h20.69L108.19,76H134.5l4.85,13.54h20.43ZM113,64l9.18-23,7.92,23Z"/><polygon class="cls-4" points="130.14 63.99 113.04 63.99 122.22 40.98 130.14 63.99"/><polygon class="cls-4" points="130.14 63.99 113.04 63.99 122.22 40.98 130.14 63.99"/><polygon class="cls-2" points="179.19 89.52 179.19 35.12 155.95 35.12 155.95 20.56 218.53 20.56 218.53 35.12 196.56 35.12 196.56 89.52 179.19 89.52"/><polygon class="cls-2" points="224.4 89.52 224.4 20.56 269.61 20.56 269.61 35.37 242.03 35.37 242.03 48.4 269.61 48.4 269.61 60.15 242.28 60.15 242.28 78.03 269.61 78.03 269.61 89.52 224.4 89.52"/><path class="cls-2" d="M338.58,40.27V23.15a52.19,52.19,0,0,0-23-4.59c-10,.4-26.34,1.11-35,17.72a40.1,40.1,0,0,0-.94,35.33c4.6,9.86,14.29,19.87,34.64,17.7,0,0,8.43.26,24.27-5.87V66.32s-8.17,6.9-22.48,9.45c0,0-20.94,0-20.94-21.7,0,0,0-21,20.94-21C316.1,33.12,329.9,31.84,338.58,40.27Z"/></svg>