<svg id="Layer_1" data-name="Layer 1" xmlns="http://www.w3.org/2000/svg" viewBox="0 0 130.18 130.18"><defs><style>.cls-1{fill:#feb71d;}.cls-2{fill:#d75836;}.cls-3{fill:#fe794c;}.cls-4{fill:#fefefe;}.cls-5{fill:#030203;}.cls-6{fill:#8a9fe7;}.cls-7{fill:#eb7780;}.cls-8{fill:#ae90bc;}.cls-9{fill:#d0829d;}.cls-10{fill:#a694c6;}.cls-11{fill:#b58eb6;}.cls-12{fill:#d68097;}.cls-13{fill:#ca85a3;}.cls-14{fill:#c385a2;}.cls-15{fill:#9596ce;}.cls-16{fill:#949bdb;}.cls-17{fill:#919ad9;}.cls-18{fill:#e47a87;}.cls-19{fill:#9297d1;}.cls-20{fill:#8f94cb;}.cls-21{fill:#a794c5;}.cls-22{fill:#a893c4;}.cls-23{fill:#e07b8c;}.cls-24{fill:#d87f94;}.cls-25{fill:#d58098;}.cls-26{fill:#d97f94;}.cls-27{fill:#b58db6;}.cls-28{fill:#c587a7;}.cls-29{fill:#c786a5;}.cls-30{fill:#ac91bf;}.cls-31{fill:#c986a4;}.cls-32{fill:#cc84a1;}.cls-33{fill:#929cde;}.cls-34{fill:#b68db5;}.cls-35{fill:#b78db5;}.cls-36{fill:#e57986;}.cls-37{fill:#b38eb8;}.cls-38{fill:#b48eb7;}.cls-39{fill:#e67986;}.cls-40{fill:#909de1;}.cls-41{fill:#919de0;}</style></defs><title>ATEC-logo</title><path class="cls-1" d="M0,126.32c0-6,0-12,0-17.93V4.58a12.64,12.64,0,0,1,0-1.74.68.68,0,0,1,.4-.49A6.8,6.8,0,0,1,2.49.6a12.51,12.51,0,0,1,4-.6H124.47a8.46,8.46,0,0,1,4.11,1.17l1.11,1.37a.73.73,0,0,1,.39.49c.21,2.8-.05,5.6.09,8.4-.1,12.77,0,25.54,0,38.31q0,3.66,0,7.32c.14,1.94-.08,3.88,0,5.82s-.08,3.83,0,5.74c.08,1.28,0,2.56,0,3.84.09,1.46,0,2.93,0,4.39s0,2.68,0,4c.05,1.71-.09,3.43,0,5.14a23.71,23.71,0,0,1,0,2.92c0,1.15,0,2.31,0,3.46a19.06,19.06,0,0,1,0,2.39q0,4.31,0,8.61c0,.42,0,.84,0,1.27,0,1.51-.11,3,0,4.52v0c.13,2.11-.12,4.22,0,6.33.08,1.73-.09,3.46,0,5.2s0,3.21,0,4.81c0,.32,0,.63,0,1a2.65,2.65,0,0,1-.83,2c-.13.13-.28.26-.43.39a5.41,5.41,0,0,1-1.06.6,8.47,8.47,0,0,1-3.41.67,35.6,35.6,0,0,0-4,0c-1.63,0-3.27,0-4.91,0a33,33,0,0,0-3.85,0c-1.63,0-3.26,0-4.89,0a33,33,0,0,0-3.85,0c-1.63,0-3.25,0-4.88,0a33.14,33.14,0,0,0-3.86,0c-1.62,0-3.25,0-4.88,0a33,33,0,0,0-3.85,0c-1.63,0-3.26,0-4.88,0a33.14,33.14,0,0,0-3.86,0c-1.18,0-2.36,0-3.54,0-.45,0-.89,0-1.34,0a33,33,0,0,0-3.85,0h-.11c-1.59,0-3.19,0-4.78,0a33,33,0,0,0-3.85,0c-1.63,0-3.25,0-4.88,0a33.14,33.14,0,0,0-3.86,0c-1.62,0-3.25,0-4.88,0-.57,0-1.14,0-1.71,0s-1.43,0-2.14,0c-1.63,0-3.26,0-4.89,0h-.13a35.51,35.51,0,0,0-3.72,0c-1.63,0-3.25,0-4.88,0a33.14,33.14,0,0,0-3.86,0c-1.62,0-3.25,0-4.88,0a35.32,35.32,0,0,0-3.85,0c-1.77,0-3.54.05-5.31,0-1.36,0-2.72,0-4.07,0C2.37,130.35,0,128.82,0,126.32Z"/><path class="cls-2" d="M25.76,100.13c0-10.94,17.18-19.55,37.36-20,23.48-.53,41.27,9,41.3,19.93,0,11.22-17,20-38.61,20.24C43.55,120.52,25.61,111.37,25.76,100.13Z"/><path class="cls-3" d="M82.25,86.4a7,7,0,0,1,3.54.76A55.79,55.79,0,0,1,91.19,90c1.41,1,1.17,2.16-.49,3L51.18,113.21a7.77,7.77,0,0,1-6.91,0c-1.58-.81-3.17-1.61-4.73-2.42-2.14-1.12-2.12-2.44,0-3.53l29.33-15L79,87.11A6.28,6.28,0,0,1,82.25,86.4Z"/><path class="cls-4" d="M64.92,69.14c-15.77,0-31.54,0-47.3,0-1.33,0-1.59-.36-1.59-1.48q.06-27.24,0-54.48c0-1,.34-1.24,1.4-1.24q47.61,0,95.22,0c1.11,0,1.47.2,1.47,1.31q-.06,27.09,0,54.17c0,1.69,0,1.69-1.91,1.69Z"/><path class="cls-5" d="M75.81,39.3C72.57,39,69.44,39,66.31,39a150,150,0,0,0-30,3c-.66.13-1,0-1.11-.64q-1.77-7.79-3.62-15.56c-.21-.85.25-.92.93-1.05a179.67,179.67,0,0,1,68.4,0c1,.19,1.22.49,1,1.36q-1.82,7.59-3.53,15.18c-.18.79-.51.86-1.29.7a166.3,166.3,0,0,0-16.5-2.36,1.51,1.51,0,0,0-1.81,1C75,48.8,71.17,57,67.34,65.17c-.06.13-.1.26-.15.38-.45,1-1.17,1.64-2.36,1.17s-1.18-1.41-.73-2.38l4-8.46C70.64,50.4,73.19,44.91,75.81,39.3Z"/><path class="cls-6" d="M82.2,23.76A114.27,114.27,0,0,1,95,25.21c1.42.2,2.83.52,4.26.71.76.1.92.32.75,1-1,4.08-1.89,8.17-2.83,12.26-.14.61-.26,1.15-1.27.94a121.66,121.66,0,0,0-14.75-2c-1-.08-1-.41-.69-1,.63-1.34,1.27-2.69,1.93-4a1.66,1.66,0,0,0-.85-2.58c-.79-.13-.87-.63-.83-1.27s.5-.59,1-.59c.18,0,.32-.18.47-.28.57-.11,0-.36.07-.53a2.39,2.39,0,0,0-.3-1.16C82.29,25.49,80.79,25,80.8,24,81.17,23.42,81.7,23.67,82.2,23.76Z"/><path class="cls-7" d="M48.63,38.46c-3.58.51-7.19.86-10.72,1.66-.84.19-1.3.06-1.5-.85q-1.29-6-2.75-12c-.23-.92-.07-1.17,1-1.37,4.27-.78,8.56-1.37,12.87-1.84.43,0,.87,0,1.3,0,.75-.08.38.29.26.55s-.62.18-.4.5.48,0,.73,0c.88.87.62,1.81.17,2.75-.28.16-.38-.12-.56-.2,0,.3-.73-.09-.5.47s.49.95.24,1.49c-.39.34-.55.67-.19,1.14a2.26,2.26,0,0,1,.25,2.15,3.58,3.58,0,0,0-.34,1.27c-.2.76-.54.39-.82,0a2.61,2.61,0,0,1,0-.64,1.43,1.43,0,0,0,.07.65c.32.38.11.9.4,1.29,1,.45.82,1.35,1,2.12a1.5,1.5,0,0,1,0,.37A.55.55,0,0,1,48.63,38.46Z"/><path class="cls-8" d="M77.24,36.15c-.25,1.34-1,1.74-2.53,1.57-3.53-.4-7.09-.18-10.64-.29a2.9,2.9,0,0,1,.27-3c.79-.83,1.33-1.71.7-2.84a4.47,4.47,0,0,0-.29-1.73c.26-.85-.17-1.7,0-2.55a2.46,2.46,0,0,0-.18-1.17c0-.28.21-.42.42-.55s.11-.4.15-.61c-.07.19,0,.42-.14.59l-.11.09c-.73,0-.78-.61-1-1.06a2.34,2.34,0,0,1,.2-1.62c4.79-.16,9.57.05,14.35.28.2,0,.38,0,.47.22-.1.52-.56,1-.39,1.54-.16.39.09.62.39.83.75.55,0,1.25.24,1.88a16.32,16.32,0,0,1,.61,2.48.65.65,0,0,1-.37.62c-1-.08-1.48.2-.9,1.17.23.58-.21,1.11-.16,1.68a.65.65,0,0,1-.23.62c-.32,0-.3.25-.26.47s0,.47-.3.6C77.05,35.54,77.23,35.87,77.24,36.15Z"/><path class="cls-9" d="M49.51,27.81c-.06-.9.47-1.85-.3-2.69a.54.54,0,0,1-.29-.53c0-.2.31-.43-.1-.56a1.51,1.51,0,0,1,1.26-.2c.34.62.61.37.86-.06a98.19,98.19,0,0,1,11.37-.72,2.16,2.16,0,0,1,1.17,1.49c.25.62-.62,1.27.07,1.88A.76.76,0,0,1,64,27a2.21,2.21,0,0,1-.11.72,1,1,0,0,1-.5.74c-.15.07-.65-.15-.33.33a.85.85,0,0,1,.05.35.87.87,0,0,1-.43.51.63.63,0,0,0-.2.95c.18.22.51-.37.84-.07a19.29,19.29,0,0,0,.2,2.73c.08.43.35,1.08-.65,1.28-.26,0-.48,1-.55,1.64A2.61,2.61,0,0,1,62,37.45l-11.92.81c-.14-.26,0-.47.13-.68a1.67,1.67,0,0,0,0-1.9c-.33-.58.07-1.25-.27-1.84a1.41,1.41,0,0,0-.21-.8,2.3,2.3,0,0,1-.15-.32,3.82,3.82,0,0,1,0-1.39,1.68,1.68,0,0,1,.09-.32.36.36,0,0,0-.15-.41,1.36,1.36,0,0,1-.24-.24.81.81,0,0,1,.08-.82A2.8,2.8,0,0,0,49.51,27.81Z"/><path class="cls-10" d="M78.34,25.13c-1-.87.2-1.12.55-1.61l.9,0c.26.23.83.17.76.7.07.2-.27.41,0,.6a1.35,1.35,0,0,1,.39-.49,2,2,0,0,1,1.18,2.41.61.61,0,0,1,0,.66c-.22.38.1.66.24,1-.34.36-.44,1.31-1.33.36,0,.67-.38,1.35.46,1.76l-.88,0c-.25-.67-.73-.34-1.16-.22-.58-.93-.39-2.07-1-3-.15-.26.79-.76.07-1.25C78.46,25.7,78.5,25.39,78.34,25.13Z"/><path class="cls-11" d="M62,37.45a3,3,0,0,1,.65-3.17A1.33,1.33,0,0,0,63,32.62a3,3,0,0,1,.14-2.11.94.94,0,0,1,.26-.84c.58-.1.59.37.77.66a1.53,1.53,0,0,1,.07.36c-.37.93.13,1,1,.88,1,1.18.37,2.1-.59,3-.88-.27-.22-.9-.4-1.35-.17.44.2,1-.24,1.37-.63-.11-.24-.61-.39-.88a2.76,2.76,0,0,0,.07.75c.45.5.14,1,.08,1.55,0,.11-.07.23-.11.34-.16.37-.09.83-.46,1.13h-.3c-.19-.11-.08-.36-.23-.48,0,.25-.12.39-.33.5Z"/><path class="cls-12" d="M50.08,33.72c.64.55.06,1.26.3,1.87a4.06,4.06,0,0,1,0,2.16l-.29.51-1.46.2.29-.72c.33-.43,0-.93.2-1.37,0-.19-.32.07-.14,0a1.86,1.86,0,0,1-.06,1.37c-.56-.63,0-1.8-1.17-2.14.3-.47.36-1.19,1.3-.94.24.06,0-.14.07-.22C49.31,34,49.44,33.59,50.08,33.72Z"/><path class="cls-13" d="M63.77,34.52c.55-.43.13-1.07.4-1.65.43.53-.12,1.24.47,1.65a6.53,6.53,0,0,0-.57,2.91h-.3c-.41-.37-.25-.85-.29-1.29l.29-1.62Z"/><path class="cls-14" d="M63.19,24.59c.05-.68-.87-.89-.88-1.54l1.76,0c.25.53,0,1.05,0,1.57l-.15.05C63.69,24.44,63.43,24.69,63.19,24.59Z"/><path class="cls-15" d="M78.31,33.72a2.47,2.47,0,0,1,0-1.61c.07-.55.18-1.07.9-1.2a.41.41,0,0,1,.37.16A10.48,10.48,0,0,1,78.31,33.72Z"/><path class="cls-16" d="M80.36,24.31c.06-.42-.42-.51-.57-.81a6.11,6.11,0,0,1,2.41.26c-.45.11-1.12-.19-1.25.55,0,.3.06.62-.28.83A.66.66,0,0,1,80.36,24.31Z"/><path class="cls-17" d="M79.6,31.07l-.4,0c-.08-.06-.11-.12-.08-.18s.06-.09.09-.09a.56.56,0,0,0,.29-.53c.11-.5.71-.47,1-.5s.1.47.18.72Z"/><path class="cls-9" d="M62.33,37.45c.25-.45.1-.92.05-1.56.7.5.44,1.06.51,1.54Z"/><path class="cls-18" d="M50.94,23.77c0,.35,0,.8-.45.83s-.37-.46-.41-.77Z"/><path class="cls-19" d="M77.24,36.15c-.35-.14-.35-.36-.18-.62s.19-.45.46-.12Z"/><path class="cls-8" d="M63.48,36.14c.48.35.22.85.29,1.29h-.29a1.36,1.36,0,0,1,0-1.3Z"/><path class="cls-9" d="M63.48,36.13v1.3h-.29C63.26,37,63,36.49,63.48,36.13Z"/><path class="cls-20" d="M77.82,34.81c-.23-.1-.38-.25-.23-.48s.33-.27.49,0Z"/><path class="cls-21" d="M81.69,37.31c-.46-.44-.48-.82-.06-1.22C82.21,36.42,82.13,36.82,81.69,37.31Z"/><path class="cls-6" d="M82.41,28.35c-.34-.29-1.07-.39-.6-1.06a.92.92,0,0,1,.6.52C82.43,28,82.73,28.17,82.41,28.35Z"/><path class="cls-22" d="M82.41,27.81l-.6-.52a.61.61,0,0,0,.32-.57A.75.75,0,0,1,82.41,27.81Z"/><path class="cls-21" d="M83.08,26.29c.13.09.28.14.32.24s-.08.34-.28.34a.36.36,0,0,1-.26-.25C82.84,26.53,83,26.42,83.08,26.29Z"/><path class="cls-23" d="M50.08,33.72,47.75,35.6c-.42-.45-.14-.9,0-1.35h0c.21,0,.58.37.47-.23-.07-.4-.25-.9.39-1.11l.14-.11h.18a2.43,2.43,0,0,0,.85.11C50.27,33.06,50.32,33.35,50.08,33.72Z"/><path class="cls-24" d="M49.51,27.81c.78.63.5,1.26,0,1.88-.24.11-.5-.15-.72,0l-.15,0a2.92,2.92,0,0,0-.44-1.39c-.17-.4.08-.73.3-1.05C48.76,27.54,49.37,27.32,49.51,27.81Z"/><path class="cls-25" d="M48.92,32.91h-.3c0-.85.2-1.72-.63-2.43-.14-.11-.58-1.21.64-.79h0c.22.33.38.73.87.81h0c.23.12.45.25.29.55h0a2.45,2.45,0,0,0,0,1.88h0q-.43.81-.87,0c.33-.43,0-.94.2-1.37,0-.19-.32.07-.14,0A1.88,1.88,0,0,1,48.92,32.91Z"/><path class="cls-26" d="M48.92,24.59a.51.51,0,0,1,.29.53c0,.71-.65,0-.81.34-.09-.23-.29-.49-.25-.7C48.25,24.32,48.62,24.47,48.92,24.59Z"/><path class="cls-25" d="M47.59,25.26c.09.06.25.12.28.21a.44.44,0,0,1-.28.53,1.1,1.1,0,0,1-.23-.3C47.26,25.5,47.36,25.37,47.59,25.26Z"/><path class="cls-9" d="M47.75,34.25c-.45-.39-.3-.85,0-1.32v1.32Z"/><path class="cls-12" d="M47.54,37c.13.09.28.14.32.23s-.06.33-.26.34-.24-.14-.26-.24S47.45,37.17,47.54,37Z"/><path class="cls-27" d="M64.93,27.27c0,.89.61,1.78,0,2.68.23.42.26.85-.28,1.06s-.38-.35-.6-.52h0c-.22-.5-.15-1.06-.41-1.55a1,1,0,0,1,.19-.68c.15-.26.24-.55.41-.8S64.64,27.14,64.93,27.27Z"/><path class="cls-28" d="M64.06,30.49c.25,0,.3.53.65.29s.21-.54.23-.83c.39.49.69,1,.29,1.62-.5.05-.64.93-1.26.54C63.13,31.58,64.18,31.05,64.06,30.49Z"/><path class="cls-29" d="M63.78,27l-.3-.55c-.33-.76.09-1.32.58-1.87h0c.43.26.27.94.88,1.07h0l-.29.53a.71.71,0,0,1-.49.94A.46.46,0,0,1,63.78,27Z"/><path class="cls-30" d="M79.21,30.76V31l-.87,1.08c-.07-.07-.19-.13-.19-.19,0-.53-1-.9-.45-1.38S78.68,30.71,79.21,30.76Z"/><path class="cls-31" d="M64.05,27l.6-.82c.4.29.56.64.28,1.08l-.57.27C64.09,27.44,63.93,27.3,64.05,27Z"/><path class="cls-32" d="M64.94,25.66a1.51,1.51,0,0,1,.11-1.38c.4.5.46,1-.11,1.38Z"/><path class="cls-33" d="M78.34,25.13c.5.16.49.46.28.82C78.18,25.78,78.07,25.51,78.34,25.13Z"/><path class="cls-34" d="M63.48,29.68c0,.31.05.63-.31.83-.45-.21-.34,1-1,.32-.49-.55-.56-1.11.18-1.51.22-.12.57-.05.51-.44.45-.11.55.21.69.47A.32.32,0,0,1,63.48,29.68Z"/><path class="cls-35" d="M64.06,24.59c.06.69-.55,1.21-.58,1.87-.14.12-.3.35-.4.33a.38.38,0,0,1-.27-.59,3.8,3.8,0,0,0,.38-1.61C63.48,24,63.77,24,64.06,24.59Z"/><path class="cls-36" d="M50.38,37.75a3.7,3.7,0,0,1,0-2.16A1.41,1.41,0,0,1,50.38,37.75Z"/><path class="cls-13" d="M63.47,29.43l-.58-.55h0c-.16-.29.05-.42.28-.54s.29-.51.3-.81c.69,0,.52.46.57.81l-.28.53C64,29.2,64,29.43,63.47,29.43Z"/><path class="cls-36" d="M49.5,30.5q-1.24.34-.87-.81c.29-.58.58-.62.87,0A.69.69,0,0,0,49.5,30.5Z"/><path class="cls-37" d="M64.05,28.35l-.57-.81.3-.53h.27l.31.53C64.34,27.84,64.4,28.16,64.05,28.35Z"/><path class="cls-7" d="M49.8,32.91a1.45,1.45,0,0,1,0-1.88Z"/><path class="cls-37" d="M61.86,32.35c.15.28.47.56.16.9a.28.28,0,0,1-.24,0C61.36,33,61.78,32.67,61.86,32.35Z"/><path class="cls-38" d="M63.18,28.35l-.28.54c-.41-.16-.61-.43-.29-.76S63,28.36,63.18,28.35Z"/><path class="cls-39" d="M51.15,26.27c-.1.12-.15.26-.25.3a.25.25,0,0,1-.37-.24c0-.08.15-.23.26-.25S51,26.19,51.15,26.27Z"/><path class="cls-39" d="M49.79,31l-.29-.55c.21,0,.46-.27.64,0S50,30.91,49.79,31Z"/><path class="cls-40" d="M80.36,24.31l.31.83c-.15.2-.36.57-.59.29S80.05,24.64,80.36,24.31Z"/><path class="cls-41" d="M79.67,28.47c-.22,0-.36-.15-.3-.34a1.77,1.77,0,0,1,.3-.39,2.44,2.44,0,0,1,.23.33C80,28.28,79.87,28.4,79.67,28.47Z"/><path class="cls-32" d="M63.47,29.43a.55.55,0,0,0,.3-.55c.74.44.22,1.07.29,1.62-.19-.27-.38-.55-.58-.82A2.09,2.09,0,0,0,63.47,29.43Z"/><path class="cls-9" d="M63.77,34.52c-.51-.49-.22-1,0-1.59v1.59Z"/><path class="cls-7" d="M48.92,37.74V36.19c.23.52.51,1.06,0,1.55Z"/><path class="cls-7" d="M49.8,36.24l-.09,1.55C49.46,37,49.42,36.57,49.8,36.24Z"/><path class="cls-7" d="M48.92,32.91V31.35c.23.53.51,1.06,0,1.56Z"/></svg>