<svg id="svg8" xmlns="http://www.w3.org/2000/svg" xmlns:xlink="http://www.w3.org/1999/xlink" viewBox="0 0 448 82"><defs><style>.cls-1,.cls-4{fill:#fff;}.cls-2,.cls-6{fill:none;stroke:#fff;}.cls-2{stroke-miterlimit:10;}.cls-3{clip-path:url(#clip-path);}.cls-4{fill-rule:evenodd;}.cls-5{clip-path:url(#clip-path-2);}.cls-6{stroke-miterlimit:5.15;stroke-width:1.63px;}</style><clipPath id="clip-path"><rect id="SVGID" class="cls-1" x="50.41" y="0.42" width="12" height="11.14"/></clipPath><clipPath id="clip-path-2"><rect id="SVGID-2" data-name="SVGID" class="cls-2" x="128.11" y="38.93" width="317.83" height="3.96"/></clipPath></defs><title>AUSGOV_logo</title><path id="path58595" class="cls-1" d="M38.68,65.48a.89.89,0,0,1-.29.29"/><path id="path58597" class="cls-1" d="M41.26,45.2a.54.54,0,0,0,.55-.54.55.55,0,1,0-.55.54"/><path id="path58599" class="cls-1" d="M65.84,33.3H59.9V22.83h5.94Zm0,5a3.38,3.38,0,0,1-1.27,2.6L59.9,43.67V33.84h5.94Zm-6.48-5H53.88V22.83h5.48Zm0,10.69-2.15,1.29h0a.94.94,0,0,1-.57.2.87.87,0,0,1-.57-.21L53.88,44V33.84h5.48Zm-7.7-14.52h1.68V33.3H51.66Zm1.68,14.2-4.67-2.79a3.34,3.34,0,0,1-1.27-2.6V33.84h5.94Zm-3.89-16.8H47.4V22.82h2.05ZM50,24.34l.24-.24-.15-.28.31,0,.19-.34.19.33.32,0-.15.27.24.25-.31.06v.34l-.29-.22-.28.22V24.4Zm1.45,4.23c0-.11-.15-.13-.21-.13s-.25.3-.4.31-.2,0-.2-.12.23-.19.32-.28c-1.26,0-1.29.58-1.49.58s.28-.61.45-.79c-.25,0-.4-.35-.68-.51.13-.19.21-.11.37,0,0-.14.1-.29.4-.29.57,0,.4.55.5.55s0-.55.37-.55c.56,0,1.26,1.44.63,1.44-.27,0,0-.2-.06-.24m-1.36,3.08.31,0,.19-.33.19.33.32,0-.15.27.24.25-.31.06v.34l-.29-.22-.29.22v-.34l-.3-.06.24-.25Zm-2.32-3.9.32,0,.19-.33.18.32.32,0L48.6,28l.24.25-.31.06v.34l-.28-.22-.29.22v-.34l-.31-.06.24-.25Zm-.34,1.72h2.05v3.83H47.4Zm4.72-1.19.24-.25-.15-.28.31,0,.19-.33.19.33.32,0-.15.27.24.25-.31.06v.34l-.29-.22-.28.22v-.34Zm1.22-1.41H51.65V22.83h1.69Zm13-4.57H46.85V38.09a3.58,3.58,0,0,0,1.54,3.26l7.52,4.49a.89.89,0,0,0,.68.31.93.93,0,0,0,.61-.24l7.63-4.56a3.57,3.57,0,0,0,1.53-3.26l0-15.78Z"/><path id="path58601" class="cls-1" d="M53,37.45c0-.06-.74.24-.54.22,0-.21.42-.64.59-.8,0-.25-.35,0-.68.15,1.11-1.59.4-.94-.22-.83,1-1.07.73-1,0-.72.57-.45.69-1,.61-1.15-.55.72-1,.6-1,1.27a2.6,2.6,0,0,1-.39,1.4c-.29.32-.06-1.17-.82-1.17-.25,0-.83,0-1,.27.16,0,.39.4.39.56s.14.59-.12.59-.56-.55-.56-.81,0-.2,0-.58a2.13,2.13,0,0,0-1.44-1.52c0,.44.57.55.57,1.11-.24,0-.59-.45-.59-.17s.37.33.37.58-.42-.09-.42.17.23.19.28.42c-.17,0-.32,0-.35.05s.05.18.18.25c-.06.06-.11.19-.11.56,0,1.24.77,1.82,1.35,1.82.41,0,.35-.28.39-.42,0,.21.22-.11.22.26s-.39.22-.39.55.63,0,.63.48a5.2,5.2,0,0,1-.08.81c0,.15.65-.22.61-.29.16.06.15.52.45.51s.22-.47.38-.51c-.09,0,.59.44.59.23,0-.58-.24-.34-.24-.73s.8-.3.68-.49-.19-.06-.27-.34c0,.06-.63-.92.14-.41s.89-1.23.85-1.32"/><path id="path58603" class="cls-1" d="M73.87,41.58a.61.61,0,0,0,.64-.57.61.61,0,0,0-.64-.56.57.57,0,1,0,0,1.13"/><path id="path58605" class="cls-1" d="M71.27,43.12a.57.57,0,1,0-.64-.56.61.61,0,0,0,.64.56"/><path id="path58607" class="cls-1" d="M40.4,46.68a.57.57,0,1,0,0-1.13.62.62,0,0,0-.65.57.61.61,0,0,0,.65.56"/><path id="path58609" class="cls-1" d="M42.4,46.85a.57.57,0,1,0-.65-.56.61.61,0,0,0,.65.56"/><path id="path58611" class="cls-1" d="M98,19.91a4,4,0,0,1,.48,4.26c-.37,0-.3-.52-.37-.79a5.14,5.14,0,0,1-.62-4.33c.45.07.27.62.51.86"/><path id="path58613" class="cls-1" d="M16.42,21.45a6,6,0,0,0,0,2.72c-.18.17-.14-.17-.31-.14-1.33-1-.71-2.85-1.06-4.18a.25.25,0,0,1,.34-.07,2.44,2.44,0,0,1,1,1.67"/><path id="path58615" class="cls-1" d="M100.92,21.56c.2.38-.18.75-.45.93a.91.91,0,0,1-.85-.38.8.8,0,0,1,.41-.9.91.91,0,0,1,.89.35"/><path id="path58617" class="cls-1" d="M14.34,23.07a1,1,0,0,1-.44.75c-.21,0-.52,0-.65-.17a.62.62,0,0,1-.14-.72.85.85,0,0,1,.65-.31c.24.11.47.18.58.45"/><path id="path58619" class="cls-1" d="M102.24,23.65a.75.75,0,0,1,0,.55.77.77,0,0,1-.92.31.93.93,0,0,1-.37-.58,1,1,0,0,1,.58-.62,1.09,1.09,0,0,1,.71.34"/><path id="path58621" class="cls-1" d="M100.3,23.69c.27.13.07.48,0,.68s-.41.45-.72.34-.37-.17-.44-.41a.75.75,0,0,1,.48-.78c.27-.08.44.06.64.17"/><path id="path58623" class="cls-1" d="M97.81,24.2c0,.38,0,.86-.4.93a.65.65,0,0,1-.79-.48.82.82,0,0,1,.51-.83.88.88,0,0,1,.68.38"/><path id="path58625" class="cls-1" d="M18.05,24.37c.1.34-.24.55-.44.72a.67.67,0,0,1-.68-.38c-.24-.23.06-.44.13-.65a.64.64,0,0,1,1,.31"/><path id="path58627" class="cls-1" d="M16,24.47a.7.7,0,0,1-.37.66.62.62,0,0,1-.68-.31.58.58,0,0,1,.31-.79c.37-.14.61.2.74.44"/><path id="path58629" class="cls-1" d="M89.57,24.61a7.21,7.21,0,0,1,.68,2.47c-.14.66.1,1.51-.38,2-.47-.17-.51-.75-.81-1.07-.62-1.19-.07-2.6.13-3.77.28-.1.28.24.38.41"/><path id="path58631" class="cls-1" d="M14.41,25c.09.41-.21.61-.45.85a.79.79,0,0,1-.85-.48.86.86,0,0,1,.44-.82.89.89,0,0,1,.86.45"/><path id="path58633" class="cls-1" d="M95,26a4.94,4.94,0,0,1,.17,3.29l-.2.18a13.42,13.42,0,0,1-1.4-2.78,4.65,4.65,0,0,1,.41-2c.24-.17.38,0,.48.24A1.36,1.36,0,0,0,95,26"/><path id="path58635" class="cls-1" d="M99.24,25.4a.86.86,0,0,1-.51.82.6.6,0,0,1-.78-.41.74.74,0,0,1,.37-.82c.38-.21.75.14.92.41"/><path id="path58637" class="cls-1" d="M16,26.46a.74.74,0,0,1-.51.66c-.27.2-.47-.14-.71-.24a.8.8,0,0,1,0-.79c.1-.21.34-.21.54-.28.31.17.61.32.68.65"/><path id="path58639" class="cls-1" d="M17.54,26.3c.14.34-.24.51-.37.68-.42.14-.62-.17-.79-.41s.13-.55.37-.76c.42-.1.62.17.79.49"/><path id="path58641" class="cls-1" d="M100.2,26.19c0,.45-.72.89-.78,1.34a3.5,3.5,0,0,1-2.12,1.92,1.57,1.57,0,0,1-.78.45c-.07-.69.55-1.31.92-1.93a5.09,5.09,0,0,1,2.76-1.78"/><path id="path58643" class="cls-1" d="M15.36,27.63a12.5,12.5,0,0,0,1.4,1.62.29.29,0,0,1-.25.34c-1.66-.1-2.79-1.82-3.6-3,.1-.38.54-.07.78-.11.58.45,1.23.59,1.67,1.17"/><path id="path58645" class="cls-1" d="M100.68,28.12a4.41,4.41,0,0,1-2.12,3.7c-.37.14-.78.51-1.15.27a16.81,16.81,0,0,1,3-4Z"/><path id="path58647" class="cls-1" d="M94.13,29.11a.85.85,0,0,1-.57,1c-.38,0-.62-.28-.79-.56a.71.71,0,0,1,.48-.75.58.58,0,0,1,.41-.1c.2.07.3.24.47.41"/><path id="path58649" class="cls-1" d="M13.48,29.42A21.09,21.09,0,0,1,15.33,31c-.45.31-1,0-1.5,0-1.16-.41-1.95-1.41-3.14-1.75,0-.37.48-.24.72-.34a6.19,6.19,0,0,1,2.07.44"/><path id="path58651" class="cls-1" d="M50,19.26c-1.91-.75-3.17,1.24-5.12,1-.23.13-.16.37-.3.54s-.27,0-.38,0c-.1-.82-.37-1.58-.47-2.36-.21-.35-.11-.83-.27-1.17-1.1-3,2.65-.73,3.4-2.47.65-1.51-1.26-1.68-1.84-2.74v-.45c-.54-.56-1.12-.73-1.46-1.45a4.94,4.94,0,0,0,.1-2.64c0-.2-.17-.48-.48-.38C42.52,8,42,8.72,41.43,9.58a17,17,0,0,0-2-1.51c-.52-.08-1-.59-1.57-.38a.45.45,0,0,0,.1.51,5,5,0,0,0,1.67,3.37l.1.51c-.61,1.41-.44,3-.61,4.53A25.15,25.15,0,0,1,31.71,27c-1.94,2.2-4.26,4.32-4.56,7.34-.1.48.07,1.07-.31,1.41a11.74,11.74,0,0,1-3.17-1.68c-1.56-1.1-3.81-1-4.84-3-.4-.78.11-1.57.48-2.16,1.16-1.09,1-3.05.38-4.39-.14,0-.18.14-.27.17-.11,2-1.71,3.43-1.1,5.66.14.65.48,1.07.65,1.69a4.46,4.46,0,0,1-.78-.18,8.35,8.35,0,0,0-2.28-.3c-1.57.71-3.72-.18-5,1.27-.21,0-.48.06-.41.37.75,0,1.47.2,2.21.17,1.2.2,2-.79,2.8-1.23h.2c.34-.35.93-.14,1.37-.21a13.82,13.82,0,0,1,5.59,2.33v.14c-.69.31-1.47.51-2.15.89a4.62,4.62,0,0,0-1.91,2.31c-.55.85.17,1.61.51,2.32,0,.35.07.76.37.9,1.1-1.17.07-2.61.24-3.95A2.78,2.78,0,0,1,22,35.14c1.94-.83,3.34.75,4.9,1.65a23.07,23.07,0,0,1-.16,4.63,4.2,4.2,0,0,1-1.61.23c-2.69.21-4.8,1.69-7.22,2.51-1.09.38-2.39.34-3.48.76A8.65,8.65,0,0,0,17,44.81c3.34-.48,5.89-3.05,9.51-2.6l.06.09A8.17,8.17,0,0,1,25,44.54c-.1-.38-.13-.69-.48-.9a.64.64,0,0,0-.78.28.47.47,0,0,0,0,.51,1.12,1.12,0,0,0,.75.48c-.07.31-.44.45-.65.73-.95,1.61-2.89,1-4,2.09-.17.24-.78.38-.51.75a5.07,5.07,0,0,0,3.51-.89c1.26-1.41,2.59-2.74,3.85-4.08a4.08,4.08,0,0,1-.75,3.12,3.74,3.74,0,0,0-.92-.51.82.82,0,0,0-.61.68,2,2,0,0,0,.51.69c-1.16.82-2.63.89-3.95,1.27a70.8,70.8,0,0,1-7.43.55c-1.19-.07-2.56.34-3.68,0-1.29.24-2.69-.17-3.75.55-.13.17,0,.34,0,.51,1.57,1,3.72.2,5.49.52H25a6.16,6.16,0,0,0,2.76-.52c1.74-1,2.7-2.78,3.58-4.53a7.2,7.2,0,0,0,.72-2.06,3,3,0,0,1,2.55-2.09,15.58,15.58,0,0,1-.57,5.21c-.21,1.1-.93,2.16-.48,3.33.1.55.68.55,1.12.62,4.13-.07,8.25-.24,12.61.07a10.22,10.22,0,0,0,2.31.34c.08-.1.31-.14.21-.34A1.29,1.29,0,0,0,49,50c-.07-.21-.37-.14-.48-.28-2.17-1.23-4.8-.58-7.35-.54-1.33.13-2.66.37-3.79-.38-.51-.62-.13-2.58-.13-2.58a49.42,49.42,0,0,1,2.11-6.62,5.8,5.8,0,0,0,.2-1.58,6.45,6.45,0,0,0,.21-2.33,16,16,0,0,1,1.05-3.2c.21-.51.38-1.06.58-1.57a5.14,5.14,0,0,1,.69-1.79c1.11.71,2.19.69,2.73,1.95l.47,2.86c0,.17.14.51.37.31.89-.59.61-1.89.61-2.78.21-1.06-.54-1.58-.84-2.51a4,4,0,0,1-.63-1c-.15-.76-1.8-1.27-1.42-2.2a2.8,2.8,0,0,1,1.16-2,.38.38,0,0,1,.17.25l.41-.29,0-2.87c1.1,0,2.75.14,3.87.14.31.1.55.34.89.37l.27-.37L53,20.46c-1.18.13-1.89-1.21-3-1.21"/><path id="path58653" class="cls-1" d="M53,20.48a2.21,2.21,0,0,0,.25-.05Z"/><path id="path58655" class="cls-1" d="M23.3,30a.75.75,0,0,1-.51.78.94.94,0,0,1-.65-.41c-.14-.37.2-.65.47-.79.28.07.62.1.69.42"/><path id="path58657" class="cls-1" d="M21.08,30a.73.73,0,0,1,.14.78c-.24.21-.62.38-.82.11s-.41-.45-.24-.72.65-.45.92-.17"/><path id="path58659" class="cls-1" d="M68.51,30.41s0,0,0,.06"/><path id="path58661" class="cls-1" d="M94.47,31c.14.38-.17.65-.44.79-.34-.11-.78-.17-.78-.62a.66.66,0,0,1,.51-.52.65.65,0,0,1,.71.35"/><path id="path58663" class="cls-1" d="M96.28,30.93c.1.17.34.45.07.61a1.34,1.34,0,0,0-.34.28.66.66,0,0,1-.82-.41c-.07-.38.24-.55.51-.72s.41.1.58.24"/><path id="path58665" class="cls-1" d="M12.53,31.34a.68.68,0,0,1-.92.45,1.63,1.63,0,0,1-.27-.45c0-.24.1-.48.37-.58a.81.81,0,0,1,.82.58"/><path id="path58667" class="cls-1" d="M24,31.92c0,.28-.34.52-.57.65a.84.84,0,0,1-.75-.47c0-.28.13-.62.4-.69a.76.76,0,0,1,.92.51"/><path id="path58669" class="cls-1" d="M22,31.68a.52.52,0,0,1,.11.55c-.21.17-.52.48-.86.28s-.44-.31-.37-.66a1.59,1.59,0,0,1,.51-.41c.27-.06.41.1.61.24"/><path id="path58671" class="cls-1" d="M101.49,32.09a.93.93,0,0,1-.44.66.68.68,0,0,1-.75-.17c-.2-.07-.13-.35-.13-.52a.7.7,0,0,1,1.32,0"/><path id="path58673" class="cls-1" d="M103.68,32.4A.87.87,0,0,1,103,33c-.21,0-.58-.1-.52-.41a.63.63,0,0,1,.31-.55.61.61,0,0,1,.86.34"/><path id="path58675" class="cls-1" d="M16.42,32.89a.67.67,0,0,1-.41.82c-.24.14-.48,0-.65-.17a.59.59,0,0,1-.17-.69c.06-.3.37-.24.58-.38a.85.85,0,0,1,.65.42"/><path id="path58677" class="cls-1" d="M18.09,33.19c.1.28-.21.38-.28.59a.58.58,0,0,1-.61.07c-.24-.21-.51-.52-.27-.83.27-.51,1-.24,1.16.17"/><path id="path58679" class="cls-1" d="M99.48,33c0,.35-.27.59-.48.79a.57.57,0,0,1-.67-.41.69.69,0,0,1,.37-.65.73.73,0,0,1,.78.27"/><path id="path58681" class="cls-1" d="M102.28,33.57c-.07.3,0,.65-.38.86a.92.92,0,0,1-.81-.14.62.62,0,0,1-.14-.72.79.79,0,0,1,.81-.41c.24.13.31.31.52.41"/><path id="path58683" class="cls-1" d="M15.12,34.29c.13.27-.17.34-.27.48a.66.66,0,0,1-.68-.07c-.24-.14-.14-.48-.11-.65.31-.58.92-.17,1.06.24"/><path id="path58685" class="cls-1" d="M100.13,34.94c.13,0,.07.24,0,.31a2.57,2.57,0,0,1-2.76-.14A10.1,10.1,0,0,0,96,34.36c.17-.45.79-.41,1.23-.52,1,.14,1.77,1.07,2.86,1.1"/><path id="path58687" class="cls-1" d="M16.75,34.64c.07.27-.13.37-.2.58s-.4.14-.58.07a.63.63,0,0,1-.24-.86.61.61,0,0,1,1,.21"/><path id="path58689" class="cls-1" d="M19.75,34.84c.14.31-.06.58-.33.75s-.45-.06-.66-.1c-.16-.24-.47-.52-.16-.79.3-.51.91-.24,1.15.14"/><path id="path58691" class="cls-1" d="M59.15,36.29c-.07.69-1.2-.1-1,.81A5.52,5.52,0,0,0,58.79,39c.32.45.16,1.17.13,1.73a3.07,3.07,0,0,1-1.3,1.11c-1-.1-2.39.48-2.84-.72a4.78,4.78,0,0,1-.56-1.63c.11-.07.23-.07.33-.17s-.26-.35-.22-.58c1.1-.2-.46-1.18.48-1.24.78.81,2,.55,2.72,1.43a2.9,2.9,0,0,0,.49.43c-.14-.82-.52-1.63-.66-2.51a1.17,1.17,0,0,1,.39-1.15c.59-.45,1.07.2,1.4.56"/><path id="path58693" class="cls-1" d="M22.75,36.07c.11.35-.17.56-.37.73s-.48-.21-.62-.38c-.1-.35.14-.52.34-.69a.76.76,0,0,1,.65.34"/><path id="path58695" class="cls-1" d="M43.78,36.42a4.74,4.74,0,0,1-.41,3.84c0,.28.07.72-.31.69-.92-1.27-.24-3.05.14-4.4.06-.34.47-.48.58-.13"/><path id="path58697" class="cls-1" d="M72.94,37.07A3.86,3.86,0,0,1,73,40.26l-.27.28A7.93,7.93,0,0,1,72,38.1a8.13,8.13,0,0,0,.41-1.82c.48-.1.45.52.58.79"/><path id="path58699" class="cls-1" d="M25.41,37.45c-.2.41-.78.51-1.16.79a4,4,0,0,1-3,.58,3.69,3.69,0,0,1,3.88-1.61c.07.14.24.07.31.24"/><path id="path58701" class="cls-1" d="M11.41,38.68c1.26.89,1.6,2.13,2.35,3.37.1.13.44.17.31.44-.28.21-.55-.2-.93-.14a3.75,3.75,0,0,1-2.07-3.53c0-.14.2-.14.34-.14"/><path id="path58703" class="cls-1" d="M71.61,39.75c0,.34,0,.68-.3.79a.62.62,0,0,1-.78-.41c-.11-.24.09-.38.16-.56a.61.61,0,0,1,.92.18"/><path id="path58705" class="cls-1" d="M86,41.56a16.36,16.36,0,0,1,.24-1.88,1.23,1.23,0,0,0,.13-.72c.82-1.1,2.49-.76,3.78-.66a6.81,6.81,0,0,0,1.71.38,1.28,1.28,0,0,1,.85-.17c1.1-.58.38-1.85.44-2.85l-.4-1a3.46,3.46,0,0,1-.28-.68c-.2-.24-.34-.69-.54-.93-.58-1.51-1.7-2.37-2.66-3.56-1.73-2.27-4.46-3.54-7.19-4.43s-5.41.27-7.84,1.13a2,2,0,0,1-1.32-1.44,6.79,6.79,0,0,1,.65-3.64,13.11,13.11,0,0,1,.91-2.3,24.3,24.3,0,0,0,1.4-5.9A3.1,3.1,0,0,0,74,10.17a1.86,1.86,0,0,0-1.87.37,5,5,0,0,1-2.22,2c-.07.59.65.21.89.41.75.14,1.6-.1,2.22.38a5.88,5.88,0,0,1-1.44,3.54,27.73,27.73,0,0,0-3.1,5.35l-.14-.14.17,8.39C69.63,32.27,71,34.33,73,35c1.09.89,2.45,2,3.92,1.17.78-.24.85.86,1.23,1.31.4,1.26-.52,2.15-.58,3.32l-.89,1.89a24.4,24.4,0,0,1-3.51,5.8c-.51,0-.82.55-1.33.58-.27.38-.82.11-1.16.25-1.06.44-2.56.17-3.27,1.16a.46.46,0,0,0,.27.17c2.08,0,4.4.17,6.61.07a.81.81,0,0,0,.55-.66c-.31-.57.1-1.1.37-1.54.18-.82.72-1.34,1-2.13.71-1.4,1.53-2.77,2.31-4.18l1.06-1.72a12.39,12.39,0,0,1,1.06-1.92,4.9,4.9,0,0,0,.61-.92c0-.35-.14-.49-.34-.73.24-.24.61-.17.92-.24A3.88,3.88,0,0,1,83.71,39l.3.89.14.41-.07,1.13.14,1.07a25.1,25.1,0,0,1-.3,5c-.59,2-2.87,1.79-4.5,2.23-.42.28-1.2.14-1.2.83a31,31,0,0,0,6.41.14c.34-.14.41-.45.58-.76s.51-.82.37-1.3c-.37-.48,0-1.24-.13-1.89a1.19,1.19,0,0,0,0-.65c.27-1,.2-2.2.4-3.16Z"/><path id="path58707" class="cls-1" d="M102.75,40.23c-1.08,1.54-2.25,3.29-4.15,3.84-.14,0-.27.07-.35-.1,1.17-1.24,1.78-3.16,3.58-3.6a1.1,1.1,0,0,1,.92-.14"/><path id="path58709" class="cls-1" d="M9.74,41.91c-.17.14,0,.45-.35.48a.55.55,0,0,1-.71-.31.63.63,0,0,1,.44-.76c.27.14.55.24.62.59"/><path id="path58711" class="cls-1" d="M19.55,42.39c.1.31-.24.31-.41.38a3.72,3.72,0,0,1-3.92-1c0-.14,0-.27.14-.31,1.39.34,3,.07,4.19.93"/><path id="path58713" class="cls-1" d="M11.61,41.94a.94.94,0,0,1,.07.52.77.77,0,0,1-.85.31,1.14,1.14,0,0,1-.45-.45.81.81,0,0,1,.58-.65,1,1,0,0,1,.65.27"/><path id="path58715" class="cls-1" d="M43.54,42.12c.06.3-.21.51-.41.65a.69.69,0,0,1-.72-.28.49.49,0,0,1,.24-.65c.31-.07.79,0,.89.28"/><path id="path58717" class="cls-1" d="M104.05,42.25c.1.34-.2.52-.44.73a.77.77,0,0,1-.65-.11c0-.17-.24-.31-.17-.55a.72.72,0,0,1,.78-.41,4.71,4.71,0,0,1,.48.34"/><path id="path58719" class="cls-1" d="M106.3,42.12c.2.3,0,.54-.14.79a.46.46,0,0,1-.61.2c-.21-.2-.48-.3-.51-.62s.3-.48.51-.58.48.21.75.21"/><path id="path58721" class="cls-1" d="M8.31,43.11c0,.24-.18.37-.24.58s-.34.21-.55.14A1,1,0,0,1,7,43.28a.91.91,0,0,1,.61-.68.87.87,0,0,1,.69.51"/><path id="path58723" class="cls-1" d="M80.06,43.11a1,1,0,0,1,0,.45c-.21.27-.48.51-.82.34s-.44-.41-.34-.72a.66.66,0,0,1,1.12-.07"/><path id="path58725" class="cls-1" d="M13.79,43.63c-.07.23-.17.48-.47.51s-.41-.24-.59-.38c0-.3,0-.62.28-.78a.61.61,0,0,1,.78.65"/><path id="path58727" class="cls-1" d="M10.52,43.69a.73.73,0,0,1-.34.76A.8.8,0,0,1,9.26,44a1,1,0,0,1,.61-.79c.31,0,.48.34.65.51"/><path id="path58729" class="cls-1" d="M82.31,43.63a.68.68,0,0,1-.37.82c-.41.13-.75-.21-.93-.48.18-.28.21-.66.62-.72a.76.76,0,0,1,.68.38"/><path id="path58731" class="cls-1" d="M12.12,43.76c.1.24-.1.35-.17.52-.17,0-.27.2-.48.13s-.4-.24-.44-.48.21-.51.44-.65a.62.62,0,0,1,.65.48"/><path id="path58733" class="cls-1" d="M102.18,44a1,1,0,0,1-.59.54c-.27.07-.44-.17-.64-.27s-.1-.44,0-.62a.69.69,0,0,1,1.26.35"/><path id="path58735" class="cls-1" d="M104.76,44.17a.87.87,0,0,1-.81.59c-.31-.14-.65-.38-.41-.79.14-.14.2-.28.41-.31a.64.64,0,0,1,.81.51"/><path id="path58737" class="cls-1" d="M88.58,44.41c.17.45-.24.59-.51.79a1.61,1.61,0,0,1-.65-.27A.79.79,0,0,1,87.9,44a.82.82,0,0,1,.68.37"/><path id="path58739" class="cls-1" d="M79.21,44.82c.17.07.1.32.07.42-.2.14-.48.48-.79.27a.56.56,0,0,1-.33-.65.64.64,0,0,1,1,0"/><path id="path58741" class="cls-1" d="M81.12,45.07a.48.48,0,0,1-.27.55c-.24.23-.52,0-.76-.11a.57.57,0,0,1,0-.51.73.73,0,0,1,.45-.27c.23.06.51.06.61.34"/><path id="path58743" class="cls-1" d="M23.3,45.1c.2.21,0,.45-.07.65a.65.65,0,0,1-.85.17c-.34-.14-.31-.58-.24-.86.2-.07.2-.3.47-.3a1.19,1.19,0,0,1,.69.34"/><path id="path58745" class="cls-1" d="M92.23,45.24c.07.34-.28.48-.51.55-.41.13-.62-.17-.79-.45,0-.2.2-.34.27-.52.48-.2.79.14,1,.42"/><path id="path58747" class="cls-1" d="M90.38,45.24c.14.34-.23.51-.37.68a.7.7,0,0,1-.75-.13c-.17-.11-.17-.31-.17-.52.21-.17.31-.37.54-.45a.86.86,0,0,1,.75.42"/><path id="path58749" class="cls-1" d="M105.75,45.65c.07.48-.54.24-.78.38-1.43.86-3.27.2-4.63-.31.1-.45.61-.28.88-.45,1.47-.92,3,.21,4.43.28Z"/><path id="path58751" class="cls-1" d="M12.5,45.24l-.14.24A5.53,5.53,0,0,1,8,46.27l-.14-.21a6.2,6.2,0,0,1,4.57-.92Z"/><path id="path58753" class="cls-1" d="M95.7,45.48a.77.77,0,0,1-.34.65.69.69,0,0,1-.89-.38c-.1-.27.17-.55.45-.65s.65,0,.78.38"/><path id="path58755" class="cls-1" d="M18.6,45.62c-.14.27-.07.54-.41.68a.73.73,0,0,1-.85-.45c-.11-.37.16-.47.34-.65.41-.2.71.11.92.41"/><path id="path58757" class="cls-1" d="M16.18,45.79c.1.24-.1.37-.17.54a.64.64,0,0,1-.68.11c-.24-.21-.48-.45-.38-.82a2,2,0,0,1,.54-.38.76.76,0,0,1,.69.55"/><path id="path58759" class="cls-1" d="M98.09,46.57a.73.73,0,0,1-.55.62.74.74,0,0,1-.64-.34A.53.53,0,0,1,97,46.2c.07-.11.31-.11.44-.18a.75.75,0,0,1,.62.55"/><path id="path58761" class="cls-1" d="M13.66,46.2c.1.27-.14.37-.18.58a4.81,4.81,0,0,1-.75,1.48c-.64.79-1.56.79-2.48,1L10.11,49a9,9,0,0,1,3.44-2.88Z"/><path id="path58763" class="cls-1" d="M96.38,47c.07.42-.27.48-.51.66a.79.79,0,0,1-.68-.42c-.1-.37.24-.51.44-.68a.69.69,0,0,1,.75.44"/><path id="path58765" class="cls-1" d="M17.57,47c0,.07,0,.14.11.17,0,.38-.31.48-.51.66a.91.91,0,0,1-.75-.35.57.57,0,0,1,.33-.79c.31,0,.72,0,.82.31"/><path id="path58767" class="cls-1" d="M102.66,48c.33,0,.4-.45.78-.52a.83.83,0,0,1,.81.37c.14.42-.17.62-.44.8s-.75-.21-.72.23a1.09,1.09,0,0,1,.48.69c-.07.14-.31.1-.4,0a4.32,4.32,0,0,1-2.46-2.13c-.14-.31-.78-.55-.41-.82A3.16,3.16,0,0,1,102.66,48"/><path id="path58769" class="cls-1" d="M105.92,46.92a.51.51,0,0,1,0,.65c-.17.34-.68.21-1,.17s-.34-.34-.27-.62a1.1,1.1,0,0,1,.51-.44.92.92,0,0,1,.78.23"/><path id="path58771" class="cls-1" d="M93.56,48.77a5.18,5.18,0,0,1,.75,1.38c-.08.1-.24.06-.31.06-1.16-.65-2.66-1.37-3.1-2.74-.1-.14-.38-.31-.34-.55a3.18,3.18,0,0,1,2.35,1,4.13,4.13,0,0,1,.65.89"/><path id="path58773" class="cls-1" d="M15.67,47.47c.13.31-.14.55-.31.69a.8.8,0,0,1-.78-.28c-.24-.38.2-.69.47-.82s.44.24.62.41"/><path id="path58775" class="cls-1" d="M97.81,48.26c0,.2-.23.34-.34.48-.27,0-.54.14-.78-.11-.07-.17-.24-.44,0-.61.38-.48.93-.11,1.16.23"/><path id="path58777" class="cls-1" d="M106.3,48.74a.8.8,0,0,1-.48.85c-.34.11-.61-.13-.82-.3s0-.41,0-.65a.85.85,0,0,1,.89-.24,1.76,1.76,0,0,1,.41.34"/><path id="path58779" class="cls-1" d="M82.72,53.48c0,.41-.75.3-1,.61a7.25,7.25,0,0,1-3.58.51v-.2a5,5,0,0,1,4.63-.93"/><path id="path58781" class="cls-1" d="M33,55a.66.66,0,0,1-.51.58.65.65,0,0,1-.58-.34c-.14-.41.2-.59.44-.76A.81.81,0,0,1,33,55"/><path id="path58783" class="cls-1" d="M82.14,55.33a1,1,0,0,1-.51.79,1.06,1.06,0,0,1-.75-.24c-.17-.14-.07-.38-.1-.55a.73.73,0,0,1,1.36,0"/><path id="path58785" class="cls-1" d="M88.92,55.46A5.59,5.59,0,0,1,86,56.67l-1.84,0L84,56.49c1.12-1.37,3.17-1.37,4.94-1.23Z"/><path id="path58787" class="cls-1" d="M23.67,56.29a.61.61,0,1,1-.88-.45c.37-.24.75.18.88.45"/><path id="path58789" class="cls-1" d="M25.37,56.63c.11.17-.06.28-.13.45a.57.57,0,0,1-.65,0,.43.43,0,0,1-.2-.58c.1-.21.31-.17.41-.32a.9.9,0,0,1,.57.45"/><path id="path58791" class="cls-1" d="M12.33,60.09c-.35.42-.89-.09-1.26-.3-1.2-.69-1.16-2-2.36-2.81.14-.42.45,0,.69,0a4.78,4.78,0,0,0,.71.38c1.16.65,1.43,1.75,2.22,2.77"/><path id="path58793" class="cls-1" d="M57.47,59.44c-.13.42-.41.76-.37,1.21l-.14.06c.1-.51-.41-.82-.27-1.36-.27-.42-.27-.93-.51-1.38s.27-.79.51-1.17c.48.21.65.65,1,1.07.2.58-.24,1-.21,1.57m54.18-12.66a2.73,2.73,0,0,0-2.56-1.4,2.32,2.32,0,0,0-1.9,1.4,1.72,1.72,0,0,0,.64,1.89.53.53,0,0,0,.68-.17c.17-.45-.3-.45-.37-.79a1.13,1.13,0,0,1,.37-1.2c.34-.35.92-.17,1.33-.17a2.32,2.32,0,0,1,1,1,2.71,2.71,0,0,1,0,1.82,3,3,0,0,1-2.11,1.72c-2.83.41-33.87.27-33.87.27-3.64.35-7.8-.69-10.93,1.24a5.34,5.34,0,0,0-2.52,3.67,23.52,23.52,0,0,0-2.67,2.71l-.09-.1c.17-.83.54-1.55.71-2.37a14,14,0,0,0,.88-2.37c1.3-2.09,2.53-4.22,4.54-5.69.85-1.14,2.35-.93,3.64-.93a9.19,9.19,0,0,0,4.74.69.32.32,0,0,0,.1-.25c-.47-.44-1.26-.61-1.81-1.06-1.36-.65-2.65.21-4.09.1-.06-.07-.13-.1-.09-.21a19.93,19.93,0,0,1,4.22-2.26,29,29,0,0,1,3.71-1.48c.51,0,1-.44,1.47-.13l1.8-.48c.07,0,.14.13.27.1,1.54-.51,3.48,0,5.22-.07l.24.21,1.63.41c.62.07.89.78,1.53.82.35-.48-.36-.69-.54-1a3.73,3.73,0,0,1,2.28.34l-.33.37c-.21.38.09.66.4.8s.41-.11.58-.17c.45-.31,0-.62.1-.9a32.86,32.86,0,0,1,7.26,2.06,5.91,5.91,0,0,0,2,.65,8.92,8.92,0,0,0-2.59-1.37c-.58-.34-1.4-.38-1.84-.86.1-.17.34-.1.44-.23a5.09,5.09,0,0,0,3-1.93c.07-.2.44-.14.4-.41-.3-.34-.81.1-1.22.07-1.43.28-2,2-3.47,2.27-1.74-.42-3.51-.83-5.25-1.27A10.44,10.44,0,0,1,86,41.56l-1.91-.16H80.61c0-.08-.14-.11-.11-.21,1.23-.31,2.29-1,3.51-1.34l9.13-4.19a23,23,0,0,0,2.6-2.81.64.64,0,0,0-.38-.65.57.57,0,0,0-.68.14c-.41.3,0,.68,0,1.06a5.78,5.78,0,0,1-1.57,1.34c-.13,0-9.4,4.22-9.4,4.22a22.92,22.92,0,0,1-4.16,1.54l-2,.31a1.3,1.3,0,0,1-.86.79,7.73,7.73,0,0,1-1.56.45c-4.43,1.71-9,3.53-12.54,7A4.11,4.11,0,0,0,63,47.64a2.88,2.88,0,0,0-.38-1.51c-.08-.19-.33-.74-.25-.94l-.5.32a4.81,4.81,0,0,0-.27,2.92c.1.62.62,1.34.14,1.89A31.28,31.28,0,0,0,58.05,57c-.41-.07-.61-.45-.79-.82a11.37,11.37,0,0,0,2.43-5c.24-.17.06-.61.3-.82-.06-.55.31-1.1,0-1.54.22-.75-1-1.45-.22-1.93l-.64.31c-1.47,1.92.76,4.81-.91,6.66V54A5.93,5.93,0,0,1,56.9,55.6c-.82-.34-1.13-1.27-1.61-2A3.05,3.05,0,0,1,55,50.46c.31-1-.2-1.86-.3-2.75l-.34-.2a3.94,3.94,0,0,0-.48,4c.34.62.37,1.48.89,2a10.93,10.93,0,0,0,1.46,2.54c.14.34-.2.41-.37.58-.38-.23-.31-.78-.65-1a24.74,24.74,0,0,0-4.36-6.27c-.07-.32-.38-.59-.2-.93a2.53,2.53,0,0,0,.44-2.61c-.07-.17-.27-.38-.24-.55l-.51-.41c.07,1.2-.72,2.26-.38,3.53v.07A64.91,64.91,0,0,0,38.6,41.58l-.31.87a23.41,23.41,0,0,1,3.65,1.86,23.72,23.72,0,0,1,3.4,1.82C50,48.71,53,53,55.12,57.7c0,.38.38.79.14,1.16a19.37,19.37,0,0,0-2.59-2.61,5,5,0,0,0-2.59-3.8c-.51-.76-1.6-.83-2.45-1.07l-12.41-.07c-10.08-.13-19.28.31-29.3.14-1.39-.14-3.1-.62-3.51-2.09a2.31,2.31,0,0,1,0-1.89,2.11,2.11,0,0,1,1.74-.93,1.85,1.85,0,0,1,1.16,1c0,.44-.38.85-.55,1.23,0,.14.17.41.41.31A1.6,1.6,0,0,0,6.06,48c0-.24.13-.58-.1-.75a2.3,2.3,0,0,0-1.61-1.41A2.83,2.83,0,0,0,2,46.58a2.85,2.85,0,0,0-.55,2.88,4.63,4.63,0,0,0,3.68,2.75l33.15.14c3.24.16,6.89-.38,10.16.27a3.94,3.94,0,0,1,2.76,2.61c0,.07-.14,0-.24,0a14.71,14.71,0,0,0-9.68-2,11.56,11.56,0,0,0-3.81.79,2,2,0,0,1-1.67-.55c-1.23-1.1-3.38-1-4.94-.62,0,.11,0,.21,0,.24,1.67-.14,2.66,1.3,4.16,1.47.34.07.61-.3.92,0a31.34,31.34,0,0,1-4.74,2.12c-.51-.11-.78-.58-1.19-.85-.65-.73-1.84-.42-2.72-.49-.31.07-.58-.13-.79,0A2.93,2.93,0,0,0,28,56.5c.85.37,1.84,0,2.62.48a4.3,4.3,0,0,1-.72.48c-1.59.62-2.93,2.06-4.7,1.95a6,6,0,0,1-5-1.65,3.45,3.45,0,0,0-3.44-2c-.1.08-.24.08-.21.25.75.44,1.33,1.33,2.08,1.85.48.58,1.4,0,1.84.65a5.91,5.91,0,0,0,2.22,1,9,9,0,0,0,1.77.48l-.24.14a29.33,29.33,0,0,1-10.15,1c-1,0-2-.34-3-.31a1.83,1.83,0,0,0,.82.47,1.91,1.91,0,0,1-.92.28,6.83,6.83,0,0,0-1.29.34,3.39,3.39,0,0,0-1.47.35,6.92,6.92,0,0,1-1.94,1.58c0,.13,0,.34.14.34.65-.28,1.46-.07,2.11-.34,1.12-.11,1.77-1.34,2.66-1.86.95-.75,2.31-.58,3.47-.41.68.17-.07.45.14.9.27.23.51.51.89.41a.5.5,0,0,1,.23-.17.81.81,0,0,0,0-.86c.47-.31,1.12,0,1.63-.17,1.3,0,2.59-.31,3.85-.35.21,0,.45-.23.65,0-.1.27-.44.31-.3.68s.4.45.67.52c.35-.14.65-.37.51-.82-.06-.24-.33-.28-.51-.38.72-.35,1.54-.45,2.25-.79A7.38,7.38,0,0,0,26.1,60c.44,0,.81-.45,1.22-.28a7.34,7.34,0,0,1-.71,1.65c-.54,1.82-1,4.22,0,6,.1,0,.13,0,.2-.07a8.23,8.23,0,0,1,.31-5.62c.47-2.92,3.47-3.78,5.62-4.88l.1.14c-.58,1.51-1.43,3-1.3,4.77.08.31-.13.62,0,.83a3.55,3.55,0,0,0,1.26-1.59c.24-1.54-.64-3.46.93-4.59,2.79-1.1,5.41-2.54,8.65-2.57.1.09.34-.08.38.13-.68.76-1.67,1.48-2,2.4-1.09,1.51-1.05,4.09-.58,5.94.31,1.06-.61,1.65-1.06,2.47-.21.29-.27.79-.46,1.13l.67.07a3.63,3.63,0,0,0,1.16-2.26.92.92,0,0,0,.64.68c.24-.38-.2-.65-.24-1,.55-.3.79.38,1.23.52a8.84,8.84,0,0,0,2.08.48l.24-.24c-.75-1.17-2.25-1.37-3.55-1.44a7,7,0,0,1-.61-3.92A6.26,6.26,0,0,1,41,56.57a5.14,5.14,0,0,1,1-1.31,4.85,4.85,0,0,1,2.15-1.17h.1a.19.19,0,0,0,0,.11c-.92.72-1,1.72-1.57,2.61a2.85,2.85,0,0,0-.3,3c.2.45.1,1.13.57,1.45a7.46,7.46,0,0,0,.72-2.1c-.1-1.13-.78-2.19-.13-3.29a2.79,2.79,0,0,1,1.84-1.51c1.87-.17,3.51.79,5.14,1.51.34.24.92.44,1,.92a3,3,0,0,1-1.26,2.31,2.91,2.91,0,0,1-3.1,0,2.37,2.37,0,0,1-.55-2.1,1.41,1.41,0,0,1,1.5-.54c.34.17.65.51,1.09.3a.42.42,0,0,0,.14-.54c-.38-.21-.51-.73-1-.79a2.18,2.18,0,0,0-1.87.38,2.39,2.39,0,0,0-.78,2.4,2.92,2.92,0,0,0,2.11,2.19,4,4,0,0,0,4.19-1.44,4.59,4.59,0,0,0,.75-1.48A8.92,8.92,0,0,1,56.18,62a7.72,7.72,0,0,1,0,1.72l1.19.1a1.16,1.16,0,0,1,.1-.82A10.4,10.4,0,0,1,61,57.32c.58-.34.44.45.58.69a4.57,4.57,0,0,0,3,2.6,3.71,3.71,0,0,0,3.67-1.19c.45-.83,1-2,.24-2.89a2.35,2.35,0,0,0-1.87-.89,2.32,2.32,0,0,0-1.88,1.27c0,.27,0,.58.21.72s.41,0,.51-.17c.07-.52.51-.76.92-1a1,1,0,0,1,1.09.21A1.82,1.82,0,0,1,67.94,58a2.09,2.09,0,0,1-1.13,1.61,3.48,3.48,0,0,1-3.27-.31,7.28,7.28,0,0,1-.95-1.51,2.51,2.51,0,0,1,0-1.58,11.65,11.65,0,0,1,4.87-1.72,3.5,3.5,0,0,1,1.8,1.13c1.57,1.62-.34,3.92.75,5.7.41-.07.41-.61.58-1,.52-1.24-.13-2.57-.44-3.77a7.21,7.21,0,0,0-1.29-2,.83.83,0,0,1,.4-.07,8.53,8.53,0,0,1,2.08,1.79,9.14,9.14,0,0,1,1.33,5.63c-.27,1-1.36,1.51-2.21,1.88a3.25,3.25,0,0,0-.92,1.1c.41.24,1,0,1.4-.17.64-.24,1-1.06,1.46-1.44.07,0,0,.14.07.21,0,.38-.17.89.17,1A12.19,12.19,0,0,0,73,62.71a3.37,3.37,0,0,1,.64,1.72c.31.61.82,1.44,1.64,1.54.2-.31,0-.61-.1-.89-.11-.86-.83-1.31-1.3-1.92-1.19-1.65-.64-4.23-1.57-6.07a7.18,7.18,0,0,0-1.84-2.55l.14-.13a19.78,19.78,0,0,1,4.6.82c1.87.93,4.6.72,5.48,3.16a9.09,9.09,0,0,0,2,3.71l.1-.07a1.42,1.42,0,0,0,0-1.27c-.2-1.72-1.7-2.13-2.49-3.58l.1-.13c.82.24,1.67.45,2.49.78a7.34,7.34,0,0,1,5,6.22,13.47,13.47,0,0,1-1.25,5.87c-.11.27-.59.58-.28.82.38-.28.44-.72.65-1A9.58,9.58,0,0,0,88,62.81c0-.44-.55-.78-.31-1.23a1.14,1.14,0,0,0,.58.31c.2-.14.51-.14.64-.38s.17-.45,0-.62-.64-.3-1-.24a1.69,1.69,0,0,0-.4.76,7.3,7.3,0,0,0-1.23-1.82l.07-.1c1.53.51,2.93,1.27,4.5,1.68a2.19,2.19,0,0,0,1.19.38,36.17,36.17,0,0,0,4.19,1.06c1-.1,1.87.38,2.9.14v-.07l0,0c-.37-.48-1.19,0-1.63-.38a25.58,25.58,0,0,1-6.72-1.68c0-.1.17-.07.28-.07a.87.87,0,0,0,.54-.86.94.94,0,0,0-.78-.37.92.92,0,0,0-.51.58.83.83,0,0,0,.51.65c-.07.07-.21,0-.31,0l-3.1-1.4c-.37-.07-.68-.38-1.06-.45-.78-.38-1.56-.75-2.35-1.06a52.59,52.59,0,0,0-6.91-2.58c-.52-.13-1-.27-1.47-.41L73.05,54c-2.9-.72-6.78-.78-9.3.79-.42-.14-.66.51-.86.11.72-1.89,2.79-2.5,4.67-2.57,13.66-.14,26.47-.25,39.93-.45a4.31,4.31,0,0,0,3.92-2,3.44,3.44,0,0,0,.24-3.15"/><path id="path58795" class="cls-1" d="M94.44,57.28c0,.1.2.14.14.32A7.11,7.11,0,0,1,90,59c-.14,0-.27.14-.44.11s-.14-.17-.07-.24a5.2,5.2,0,0,1,4.94-1.61"/><path id="path58797" class="cls-1" d="M89,57.83c.13.48-.17.76-.55.93a1,1,0,0,1-.75-.55c-.1-.28.14-.41.24-.58a.65.65,0,0,1,1.06.2"/><path id="path58799" class="cls-1" d="M24.19,57.9a.71.71,0,0,1-.18.72.67.67,0,0,1-.61.17c-.24,0-.37-.31-.44-.51a.76.76,0,0,1,.44-.66c.27,0,.58,0,.79.28"/><path id="path58801" class="cls-1" d="M18.09,60.13v.24a2.66,2.66,0,0,1-2.22-.52,4.55,4.55,0,0,0-1.8-1.71c0-.1-.21-.24,0-.31,1.7,0,2.72,1.37,4,2.3"/><path id="path58803" class="cls-1" d="M99.62,57.87c-.79,1.16-1.46,2.6-2.86,3.12-.24,0-.44.34-.65.1a6.28,6.28,0,0,1,3-3.26,1.09,1.09,0,0,1,.47,0"/><path id="path58805" class="cls-1" d="M26.16,58.28c0,.38-.24.45-.48.65-.27,0-.4-.18-.58-.38s.18-.48.34-.65a.72.72,0,0,1,.72.38"/><path id="path58807" class="cls-1" d="M103.91,58.49c-.3.44-.17,1.09-.47,1.57-.69.79-1.26,1.69-2.35,1.86-.17-.35.23-.69.4-1a4.93,4.93,0,0,1,2.25-2.64Z"/><path id="path58809" class="cls-1" d="M7.52,58.79a.68.68,0,0,1,0,.76.78.78,0,0,1-.78.13.62.62,0,0,1-.27-.82c.2-.3.82-.48,1-.07"/><path id="path58811" class="cls-1" d="M5.58,59.2c0,.17.14.31.1.48a.79.79,0,0,1-.47.41.7.7,0,0,1-.79-.44.68.68,0,0,1,.34-.72.7.7,0,0,1,.82.27"/><path id="path58813" class="cls-1" d="M9.6,59.41c.07.27.14.76-.27.83s-.75-.14-1-.42a.77.77,0,0,1,.4-.68.94.94,0,0,1,.89.27"/><path id="path58815" class="cls-1" d="M15.19,59.86c0,.23,0,.58-.24.65s-.48.1-.65.07c-.07-.21-.44-.38-.23-.62a1.14,1.14,0,0,1,.47-.37c.2.09.52,0,.65.27"/><path id="path58817" class="cls-1" d="M107.19,60.09c-.11.25-.24.56-.52.56s-.61-.07-.78-.38.17-.59.44-.69.78.14.86.52"/><path id="path58819" class="cls-1" d="M101,60.27c0,.27-.27.48-.41.58a.83.83,0,0,1-1.06-.51.75.75,0,0,1,1.47-.07"/><path id="path58821" class="cls-1" d="M105.18,60.2a.71.71,0,0,1-.31.58.78.78,0,0,1-.82-.13c-.31-.28-.07-.52.14-.73s.88-.13,1,.28"/><path id="path58823" class="cls-1" d="M6.63,60.78a.71.71,0,0,1-.4.86.78.78,0,0,1-.75-.48.64.64,0,0,1,.34-.72.75.75,0,0,1,.81.34"/><path id="path58825" class="cls-1" d="M99.24,61.16a.74.74,0,0,1-.47.89c-.28.07-.45-.07-.65-.24s-.31-.55,0-.71a.67.67,0,0,1,1.16.06"/><path id="path58827" class="cls-1" d="M25,61.54c.13.38-.27.45-.38.65s-.4.1-.51,0-.37-.41-.27-.72c.17-.14.24-.28.44-.35.38-.1.51.25.72.45"/><path id="path58829" class="cls-1" d="M106.57,61.78c.07.23-.13.34-.17.51a.87.87,0,0,1-.78.14c-.31-.18-.31-.45-.31-.75.2-.14.24-.32.48-.38a.77.77,0,0,1,.78.48"/><path id="path58831" class="cls-1" d="M104.46,61.88c.13.41-.24.62-.51.72s-.34-.07-.38.14a8.79,8.79,0,0,1,2.11,1.82v.27a4.59,4.59,0,0,1-3.37-1.3c-.24-.17-.64-.17-.92-.42.44-.44,1.27-.27,1.87-.3.45-.48-.51-.83.07-1.24.21,0,.35-.23.62-.17a1.18,1.18,0,0,1,.51.48"/><path id="path58833" class="cls-1" d="M90.52,61.92c.07.17-.14.37-.17.54a.68.68,0,0,1-.75.14c-.17-.24-.44-.44-.34-.79a.71.71,0,0,1,1.26.11"/><path id="path58835" class="cls-1" d="M14.34,63.12c-.11.31-.24.51-.58.55a.67.67,0,0,1-.61-.41c0-.25.13-.38.17-.56.37-.3,1-.1,1,.42"/><path id="path58837" class="cls-1" d="M17.1,62.67c0,.48-.51.76-.68,1.24a3.49,3.49,0,0,1-2.73,2.26c-.14-.31.44-.68.58-1a7,7,0,0,1,2.63-2.51Z"/><path id="path58839" class="cls-1" d="M89.7,63.15c0,.38-.3.65-.58.79s-.54-.14-.71-.27c-.27-.28-.1-.56,0-.83.4-.41,1-.07,1.25.31"/><path id="path58841" class="cls-1" d="M91.82,63.39a.86.86,0,0,1-.62.76c-.07-.1-.23,0-.34-.07a.75.75,0,0,1-.44-.62c.17-.17.24-.44.48-.48s.81,0,.92.41"/><path id="path58843" class="cls-1" d="M22.38,63.35a.76.76,0,0,1-.51.73.66.66,0,0,1-.65-.41c-.07-.32.24-.52.41-.69.41-.14.51.17.75.37"/><path id="path58845" class="cls-1" d="M24.73,63.5a.83.83,0,0,1-.65.58c-.24-.07-.51-.14-.61-.41s.24-.52.48-.69a.72.72,0,0,1,.78.52"/><path id="path58847" class="cls-1" d="M99.15,65.9c.16.13.47.3.4.54-.54.24-1-.37-1.5-.48a7,7,0,0,1-1.77-2.74c.31-.31.65.07.92.17a6.71,6.71,0,0,1,1.94,2.51"/><path id="path58849" class="cls-1" d="M100.41,63.5a.87.87,0,0,1-.08.75c-.2.34-.64.28-1,.21s-.47-.48-.27-.79.41-.35.64-.45.42.17.66.28"/><path id="path58851" class="cls-1" d="M27.86,64.39c0,.27.11.68-.24.86a.67.67,0,0,1-.81-.42c-.17-.41.2-.48.41-.68s.44.06.64.24"/><path id="path58853" class="cls-1" d="M91.72,66.62a5.06,5.06,0,0,1,.88,2.43c-.1.24.17.48,0,.65h-.14c-1.53-1.09-1.87-2.64-2.45-4.18a.28.28,0,0,1-.14-.34c.34-.32.58.3.92.41Z"/><path id="path58855" class="cls-1" d="M32.29,65.45s0,.07,0,.07c-1.37,1-3.27,1.54-4.84.62a.26.26,0,0,1,.17-.31,7,7,0,0,1,3-.65Z"/><path id="path58857" class="cls-1" d="M24.53,65.62c-1.16.72-2.22,2.13-3.65,2.47-.28.1-.44.48-.78.28.61-1.86,2.62-2.85,4.43-3Z"/><path id="path58859" class="cls-1" d="M89.7,67.17a.54.54,0,0,1-.27.72.46.46,0,0,1-.64,0c-.31-.14-.31-.45-.31-.69s.34-.27.51-.38c.31.07.55.07.71.35"/><path id="path58861" class="cls-1" d="M86.87,67.34a1.9,1.9,0,0,1-1.22.89c-1.16.41-2.21-.14-3.23-.41,0-.28.37-.17.54-.35a7.65,7.65,0,0,1,3.47-.17c.11-.06.35-.1.44,0"/><path id="path58863" class="cls-1" d="M24.53,68.33c-.11.14-.14.45-.42.55a.67.67,0,0,1-.67-.14c-.07-.2-.31-.38-.14-.61s.34-.31.54-.38a.74.74,0,0,1,.69.58"/><path id="path58865" class="cls-1" d="M26.54,68.64c-.11.21-.21.52-.48.65a.77.77,0,0,1-.69-.24.81.81,0,0,1-.09-.68c.06-.17.3-.21.47-.31.34,0,.65.31.79.58"/><path id="path58867" class="cls-1" d="M89.06,69a.92.92,0,0,1-.24.65.6.6,0,0,1-.75.14c-.24,0-.31-.32-.41-.49s.14-.44.24-.69a.75.75,0,0,1,1.16.38"/><path id="path58869" class="cls-1" d="M90.56,68.92c0,.17.13.34.06.48s-.33.62-.75.44c-.2.07-.3-.2-.4-.27-.14-.34,0-.86.4-.93s.51.17.69.28"/><path id="path58871" class="cls-1" d="M25.31,69.91a1,1,0,0,1-.34.93c-.38.07-.86.07-1-.38a.92.92,0,0,1,.41-1,.83.83,0,0,1,.92.45"/><path id="path58873" class="cls-1" d="M27.25,69.78A3.14,3.14,0,0,1,26,72.45c-.55.1-1.1.62-1.64.27v-.17c.71-1,2-1.81,2.86-2.77"/><path id="path58875" class="cls-1" d="M83.71,70.56c.13.21-.1.38-.21.56s-.58.13-.81,0-.27-.44-.18-.68a.71.71,0,0,1,.45-.38c.3,0,.58.24.75.48"/><path id="path58877" class="cls-1" d="M30.66,72.14c.47.79.2,1.86.47,2.72-.57.06-.81-.59-1.19-.93-.75-1-.64-2.4-1-3.61a.17.17,0,0,1,.24-.06,8.84,8.84,0,0,1,1.3,1.43c-.07.24.2.24.17.45"/><path id="path58879" class="cls-1" d="M85.41,70.84c0,.27-.31.34-.48.51a1.16,1.16,0,0,1-.64-.31c-.1-.34.17-.45.34-.61a.56.56,0,0,1,.78.41"/><path id="path58881" class="cls-1" d="M89.47,73.89c0,.11,0,.31-.21.24h-.14c-1-.89-2-1.89-1.83-3.26l.2,0c.92.79,1.94,1.65,2,3"/><path id="path58883" class="cls-1" d="M86.91,72.79a.76.76,0,0,1-.31.65c-.37.11-.95.08-1-.44,0-.34.34-.51.51-.69a.7.7,0,0,1,.82.48"/><path id="path58885" class="cls-1" d="M84.66,73.52c-.48,1.27-1.77,1.92-2.66,2.88-.17-.11-.1-.38-.06-.52a4.76,4.76,0,0,1,2.62-3.09c.54.07,0,.45.1.73"/><path id="path58887" class="cls-1" d="M87.22,74.54c0,.32-.31.45-.48.62a1,1,0,0,1-.75-.37c0-.35.24-.45.44-.62a.71.71,0,0,1,.79.37"/><path id="path58889" class="cls-1" d="M61.91,12.51h-.37c-1,0-.16,1.2.38,1.2s.7-1.2,0-1.2m-3,1.2c1,0,.06-1.2-.48-1.2h-1c-1,0-.06,1.2.48,1.2Zm-4.14,0c1,0,.06-1.2-.47-1.2h-1c-1,0-.06,1.2.47,1.2Zm7.15-1.47a.85.85,0,0,1,0,1.7H51.76a.85.85,0,0,1,0-1.7Z"/><path id="path58891" class="cls-1" d="M61.94,27.91c0,.44.6.14,1,.14s1.05.3,1.05-.14c0-.64-.61-.42-1.05-.42s-1-.22-1,.42M63.83,29c.43,0,.47-.59.47-1.11,0-1.17-.93,0-1.4-1.1-.35.92-1.3.06-1.3,1.06,0,.69,0,1.15.68,1.15ZM61,23.83l1.93.74,1.9-.74-.75,2.85,1.5-.31-.51,1.72.51,1.65-1.33-.36.58,3.06-1.9-.74L61,32.44l.78-3.06-1.54.43.42-1.72-.42-1.66,1.48.25Z"/><path id="path58893" class="cls-1" d="M56.46,28v-.37l-.33-.06.26-.26L56.23,27l.33,0,.2-.36.2.35.34,0-.16.29.26.27-.33.05V28l-.3-.23Z"/><path id="path58895" class="cls-1" d="M55,29.94v-.36l-.32-.06.25-.26L54.73,29l.34,0,.2-.36.19.35.34,0-.15.29.24.27-.32.06v.36l-.3-.23Z"/><path id="path58897" class="cls-1" d="M57.5,29.7v-.36l-.32-.06.26-.27-.16-.29.33,0,.2-.35.19.35.34,0-.15.29.25.27-.33.06v.36l-.3-.23Z"/><path id="path58899" class="cls-1" d="M57.8,31.14v-.21l-.18,0,.15-.16-.09-.16h.18l.12-.19.11.19h.19l-.09.16.14.16-.18,0v.21L58,31Z"/><path id="path58901" class="cls-1" d="M55.44,32.79v-.62l-.55-.11.43-.45-.27-.49.57.06.35-.61.33.6.58-.06-.27.5.43.45-.55.11v.61L56,32.39Z"/><rect id="SVGID-3" data-name="SVGID" class="cls-1" x="50.41" y="0.42" width="12" height="11.14"/><g class="cls-3"><g id="g58905"><path id="path58903" class="cls-1" d="M56.65.42l1.19,3,3-.89L59.34,5.26l2.59,1.83-3.12.53L59,10.8,56.65,8.66,54.29,10.8l.19-3.18-3.12-.53L54,5.26,52.41,2.48l3,.89Z"/></g></g><path id="path58907" class="cls-1" d="M45.65,66.6c-.36.13-.5.23-.41.61L45.67,69a1.62,1.62,0,0,1-.12,1.18,2.21,2.21,0,0,1-1.24.73,2.32,2.32,0,0,1-1.45,0,1.09,1.09,0,0,1-.71-.92l-.45-1.89c-.11-.48-.29-.45-.67-.39l0-.14L43.27,67l0,.14c-.45.12-.65.18-.53.68l.44,1.9c.08.32.26,1.1,1.24.87a1.1,1.1,0,0,0,.91-1.52L45,67.35c-.08-.35-.21-.52-.79-.41l0-.14,1.49-.35Z"/><path id="path58909" class="cls-1" d="M49,67a1.44,1.44,0,0,0-1.56-.76c-.36.08-.69.33-.61.7s.22.4.85.52l1.09.19a1.2,1.2,0,0,1,1,.88c.11.5-.17,1.29-1.42,1.57a7.65,7.65,0,0,1-1.2.06c-.15,0-.16.14-.16.24l-.2,0L46.49,69l.2,0a1.45,1.45,0,0,0,1.66.91c.81-.18.72-.75.71-.83-.09-.38-.44-.44-.91-.52l-.5-.09c-1.27-.2-1.37-.69-1.43-1s0-1.17,1.25-1.46a5.66,5.66,0,0,1,1.1,0c.16,0,.17-.13.18-.25l.21,0,.27,1.24Z"/><path id="path58911" class="cls-1" d="M53.54,69.22l-2.47.24,0-.14c.5-.08.67-.11.62-.6l-.29-3.06c-.48.07-1.19.16-1.24,1.11l-.2,0-.09-1.18L54,65.24l.13,1.16h-.21c-.22-.91-.94-.87-1.42-.85l.29,3.06c.05.49.22.49.73.47Z"/><path id="path58913" class="cls-1" d="M56.3,67.15c.91,0,1.28-.11,1.29-.87,0-.59-.27-.84-.83-.85-.38,0-.39,0-.43.23Zm3,2.07-1.42,0-1.4-1.85H56.3l0,1.14c0,.47.14.49.6.55v.15l-2.35-.05V69c.48,0,.62-.06.62-.53l.05-2.58c0-.5-.2-.51-.59-.55v-.14l2.24,0c.48,0,1.95.08,1.93,1.07,0,.71-.73.88-1.11,1L59,69a.4.4,0,0,0,.29.12Z"/><path id="path58915" class="cls-1" d="M61.94,68.18l-.52-1.49L60.59,68Zm1.93,1.63-2.23-.28v-.14c.44,0,.56,0,.58-.16a2.82,2.82,0,0,0-.22-.81l-1.55-.19a3.14,3.14,0,0,0-.39.71c0,.22.3.27.53.31l0,.15-1.4-.18,0-.14c.37,0,.5-.19.76-.59l1.92-3,.19,0,1.17,3.24c.23.65.31.87.65.89Z"/><path id="path58917" class="cls-1" d="M67.92,70.63l-4-.72,0-.15c.4,0,.6,0,.67-.3l.5-2.77c.06-.38-.21-.45-.51-.52l0-.15,2.39.44,0,.15c-.48-.07-.7-.11-.79.4l-.49,2.71c0,.27.09.34.55.43a1.68,1.68,0,0,0,1.93-.81l.2,0Z"/><path id="path58919" class="cls-1" d="M70.54,71.22l-2.38-.5,0-.15c.37.06.64.09.71-.27l.58-2.76c.08-.38-.24-.45-.55-.54l0-.14,2.38.5,0,.14c-.32,0-.65-.12-.73.27L70,70.53c-.07.36.2.44.57.54Z"/><path id="path58921" class="cls-1" d="M73.4,70.25l-.55-1.48-.79,1.34Zm2,1.59-2.24-.23v-.15c.44,0,.56,0,.58-.17a2.76,2.76,0,0,0-.24-.8l-1.55-.16a3.12,3.12,0,0,0-.38.71c0,.22.31.28.54.31l0,.15-1.4-.15,0-.15c.37,0,.49-.19.74-.6l1.86-3,.19,0,1.23,3.21c.25.65.34.87.67.89Z"/><path id="path58923" class="cls-1" d="M56.39,25.05c-.41,0-1,.28-1-.21,0-.68.47-.53.88-.53s1-.15,1,.53c0,.49-.55.21-1,.21m1.21-.27c0-1.41-.78-.09-1.22-1.29-.31,1-1.26.17-1.26,1.25a.87.87,0,0,0,.31.79v.41a.19.19,0,0,0,.19.19h1.49a.18.18,0,0,0,.19-.19v-.45a.91.91,0,0,0,.3-.71"/><path id="path58925" class="cls-1" d="M69.8,42a.57.57,0,1,0-.64-.56.6.6,0,0,0,.64.56"/><path id="path58927" class="cls-1" d="M66.78,21.22a3.66,3.66,0,0,0-.31.6.33.33,0,0,0,.31.34.32.32,0,0,0,.3-.34l-.3-.6"/><path id="path58929" class="cls-1" d="M46.2,21.22a3.7,3.7,0,0,0-.3.6.3.3,0,1,0,.6,0l-.3-.6"/><path id="path58931" class="cls-1" d="M51.34,21.22a3.7,3.7,0,0,0-.3.6.31.31,0,1,0,.61,0l-.31-.6"/><path id="path58933" class="cls-1" d="M56.48,21.22a3.76,3.76,0,0,0-.29.6.32.32,0,0,0,.3.34.33.33,0,0,0,.31-.34l-.32-.6"/><path id="path58935" class="cls-1" d="M61.63,21.22a3.7,3.7,0,0,0-.3.6.31.31,0,1,0,.61,0l-.31-.6"/><path id="path58937" class="cls-1" d="M46.21,28.28a3.51,3.51,0,0,1,.29.61.3.3,0,1,1-.6,0l.31-.61"/><path id="path58939" class="cls-1" d="M46.21,35.15a3.38,3.38,0,0,1,.29.6.3.3,0,1,1-.6,0l.31-.6"/><path id="path58941" class="cls-1" d="M47,40.58a3.7,3.7,0,0,1,.3.6.31.31,0,1,1-.61,0l.31-.6"/><path id="path58943" class="cls-1" d="M51.34,43.46a3.85,3.85,0,0,1,.3.61.3.3,0,1,1-.6,0l.3-.61"/><path id="path58945" class="cls-1" d="M67,28.28a3.46,3.46,0,0,0-.3.61.31.31,0,0,0,.3.33.32.32,0,0,0,.31-.33L67,28.28"/><path id="path58947" class="cls-1" d="M67,35.15a3.33,3.33,0,0,0-.3.6.32.32,0,0,0,.3.34.33.33,0,0,0,.31-.34l-.31-.6"/><path id="path58949" class="cls-1" d="M66.21,40.58a3.7,3.7,0,0,0-.3.6.33.33,0,0,0,.31.34.34.34,0,0,0,.31-.34l-.32-.6"/><path id="path58951" class="cls-1" d="M61.9,43.46a3.85,3.85,0,0,0-.3.61.32.32,0,0,0,.3.34.33.33,0,0,0,.31-.34l-.32-.61"/><path id="path58953" class="cls-1" d="M56.65,46.53a3.66,3.66,0,0,0-.31.6.31.31,0,1,0,.62,0l-.31-.6"/><path id="path58955" class="cls-1" d="M65,36.29c.07.1.23.13.44.06l.19-.56s-.22-.25-.36-.21c-.56.12-1.14.19-1.46.71a1.08,1.08,0,0,0,.52.85c.19-.06.22.13.35.23a.22.22,0,0,1-.22.29c-.39-.39-1.07.13-1.36-.36.13-.49.38-1,0-1.5,0-.09.2-.19.1-.29-.16-.45-.65-.1-.94-.1a1.25,1.25,0,0,0-1.16.59.85.85,0,0,0,.26.49c.13,0,.19,0,.22.13l-.32.19a.66.66,0,0,1,.13.36c-.23.1-.46-.22-.55-.39s0-.71-.33-.78a1.54,1.54,0,0,0-.28.09,1,1,0,0,0-.13.55,2.16,2.16,0,0,0,.13.58,5.53,5.53,0,0,1,1.22,1.19c-.29.59-.29,1.4-1,1.73-.19.13-.19.32-.19.52l.16.13c.42-.23,1.23-.29,1.17-1a2.48,2.48,0,0,1,.61-.84.65.65,0,0,1,.74.35,1.26,1.26,0,0,1-.87,1c-.07.06,0,.16,0,.26s.49.13.69.1c.55-.36.77-1,1.26-1.21.06.33-.65.43-.2.75.29-.06.68,0,.88-.36-.23-.55.77-.81.16-1.3,0-.49.51-.68.48-1.21-.19-.52-.8-.52-1-1a.71.71,0,0,1,.68,0"/><path id="path58957" class="cls-1" d="M41.37,42.22a.57.57,0,1,0,0-1.13.61.61,0,0,0-.64.57.6.6,0,0,0,.64.56"/><path id="path58959" class="cls-1" d="M8,61.71a.62.62,0,0,0,.63-.6A.62.62,0,0,0,8,60.5a.63.63,0,0,0-.63.61.62.62,0,0,0,.63.6"/><path id="path58961" class="cls-1" d="M29.16,66.39s0,0,0,0,0,0,0,0h0Zm.08.06h0l0,0h0v.07H29.1s0,0,0,0v-.07h.05s0,0,0,0,0,0,0,0l0,0h0Z"/><path id="path58963" class="cls-1" d="M29.33,66.37s0,0,0,0h0s0,0,0,0a.05.05,0,0,1-.05,0h-.05v0h0a0,0,0,0,0,0,0s0,0,0,0,0,0,0,0h0s0,0,0,0a0,0,0,0,1,0,0h0v.12Z"/><path id="path58965" class="cls-1" d="M29.55,66.34h0l0,.1h0l0-.08-.05.08h0l0-.1h0l0,.06,0-.05h0l0,.05,0-.05h0Z"/><path id="path58967" class="cls-1" d="M29.6,66.4h0s0,0,0,0,0,0,0,0,0,0,0,0m0,0s0,0,.05,0h0s0,0,0,0a0,0,0,0,1,0,0s.05,0,.05.06,0,.06-.09.07Z"/><path id="path58969" class="cls-1" d="M29.67,66.37h0s0,0,0,0,0,0-.07,0h0s0,0,0,0,0,0,0,0h-.05l0-.05h.06v0h-.06Z"/><path id="path58971" class="cls-1" d="M67.82,38.79A4.1,4.1,0,0,1,66.28,42l-9,5.7h0a1.13,1.13,0,0,1-.69.24,1.18,1.18,0,0,1-.71-.25L47,42a4,4,0,0,1-1.54-3.16V21H67.82Zm.66-18.39H44.74V38.55c0,1.85.79,3.47,1.87,4l9.13,5.79a1.1,1.1,0,0,0,1.58.09l9.27-5.89c1.09-.5,1.87-2.11,1.87-4l0-18.15Z"/><path id="path58973" class="cls-1" d="M59.81,46.85l.28-.14a1.82,1.82,0,0,0-.28.14"/><path id="path58975" class="cls-1" d="M39.63,70.53l-.85-1.33-.49,1.49Zm2.26,1.12-2.23.26,0-.14c.43-.08.55-.1.53-.29a3.07,3.07,0,0,0-.41-.74l-1.55.18a3.17,3.17,0,0,0-.22.79c0,.22.36.19.6.18V72l-1.4.17v-.15c.36-.09.43-.3.6-.76L39,68l.2,0L41,70.78c.38.58.51.77.84.72Z"/><path id="path58977" class="cls-1" d="M80.33,64.45a1.93,1.93,0,0,1-1.46,1.17c0-.82.79-1.41.51-2.33a2,2,0,0,0-2.15-.68c-.3.2-.17.54-.27.85l-.13,1.13c-.69,0-.72-.62-.92-1.09a2,2,0,0,1,1-1.79,2.33,2.33,0,0,1,2,.07,1.53,1.53,0,0,1,1.12.72c.51.48.38,1.34.27,2m-2.76.35c.38-.38-.1-2.54,1-1.13,0,.27,0,.68-.24.89s-.44.41-.72.24m.38.86c0,.54-.48.41-.75.62h-.82a1.91,1.91,0,0,1-.1-1,6.29,6.29,0,0,1,1.67.35m1,4.18c-.28.35,0,.89-.38,1.2,0,.62-.52.93-1,1.17-4,.89-8-.48-12-1.17a41.68,41.68,0,0,0-17.48-.27,78.21,78.21,0,0,0-7.69,1.82,11.11,11.11,0,0,1-4.77,0c-1.23-.58-.72-2.16-1.1-3.26a16.85,16.85,0,0,0-.26-2.37,1.85,1.85,0,0,1-.14-.89c.51.07,1,.45,1.56.58,2.87.55,5.42-.37,8.08-.85a59.21,59.21,0,0,1,7.87-1.21,51.19,51.19,0,0,1,9.13.31c.95,0,1.77.28,2.69.34,1.91.24,3.68.76,5.62.9.31.1.69.1,1,.17,3.07.48,6.52,1.33,9.45,0a26.77,26.77,0,0,1-.68,3.57m-17.32,2.5a2.31,2.31,0,0,1,.31,1.51c-.34.66-1,.66-1.64.79a1.06,1.06,0,0,1-.78-.24.37.37,0,0,0-.13-.34c.1-.45-.79-.89-.17-1.27s1.83-1.68,2.41-.44m.75.13c.41.11.45.55.48.89a2,2,0,0,1-2.49,1.82A2.18,2.18,0,0,0,62.38,74ZM63.23,77a.15.15,0,0,0-.07.14,3.88,3.88,0,0,1-2.38-1.06l0-.18A6.75,6.75,0,0,1,63.23,77M62,80.2c0,.1-.21.1-.27,0a17.93,17.93,0,0,1-2.15-4.11l.14,0c.81,1.34,1.46,2.81,2.28,4.12m-1.71-.82-.16.07c-.18-.14-.11-.52-.07-.73.2.17.37.41.23.66m-.95-2.07c0,.35.38.48.17.8a1.08,1.08,0,0,1-.17-.8m-.2-2.26h.06v.1h-.06Zm-2,5c-.65,0-1.63.41-2.25-.14,0-.28-.27-.42-.24-.69.55-.2,1,.45,1.53,0a13.61,13.61,0,0,1,2.39.06c.38.11.95-.62,1,.11-.28,1.13-1.64.34-2.46.69M55.63,76l.17-.27a14,14,0,0,1-1.13,2.47c-.2-.83.66-1.48,1-2.2m1-.65c.44-.48.85.27,1,.65.51.76,1.84,1.44,1.33,2.47-.65.59-1.68,0-2.39.48-.38,0-1,.07-1.22-.3a19.11,19.11,0,0,1,1.26-3.3m-.11-1.3h-.13l.2-.21c.1.07,0,.14-.07.21m.78.06c.14-.2.31-.51.55-.51,0,0,0,.07.07.1a1.89,1.89,0,0,1-.62.42m.48.51a.26.26,0,0,1,.31,0Zm.92,1.06c0,.08,0,.17-.06.24l-.79-.61a.82.82,0,0,1,.85.37m-.06-2h0v-.1h0ZM60,71.49c-.41.14-.72.62-1.13.72A1.43,1.43,0,0,1,60,71.49M58.33,71c-.08-.3.3-.06.43-.2l1.06.07c-.55-.07-1.22,1.2-1.49.13m-2.49,1a3.68,3.68,0,0,1,.51-1.27,2.05,2.05,0,0,1,.91.13c.08.69.93,1.62,0,2.2-.3.14-.74.45-1.08.14a.94.94,0,0,1-.34-1.2m-.51,2.12c0-.13.06-.3.1-.48s.34.14.41.24a.51.51,0,0,1-.51.24m0-1.58h0v-.37h0Zm-.41-1c-.44-.1-.68-.61-1.16-.61a2.7,2.7,0,0,1,1.3,0c.17.24-.11.45-.14.65m-.37,2.78a5.59,5.59,0,0,1,.54-1.44,2.93,2.93,0,0,1-.54,1.44m-.75,0a8.37,8.37,0,0,1-1.64-.41c-.34-.35,0-.72,0-1.1a1.73,1.73,0,0,1,2.49-.44,3.68,3.68,0,0,1-.85,2m.3.93v.13H54v-.17h.13a.16.16,0,0,0-.13,0Zm-.85,2a25.41,25.41,0,0,1-1.67,3.23c-.06.17-.34.2-.54.23,0-.48.48-.86.68-1.27.71-.92.92-1.92,1.74-2.81.2.2-.21.34-.21.61M50,76.87c.81-.34,1.66-1.06,2.58-.75a4.65,4.65,0,0,1-2.58.75m1.22-2.36a3.72,3.72,0,0,1,1.09-3.09,1.92,1.92,0,0,1,1.47.07c-.89.23-2,.44-2.22,1.57,0,.45-.1.69.1,1.07.38.65,1.23.38,1.71.89a.44.44,0,0,1-.31.41,13.73,13.73,0,0,1-1.84-.92m-16-11c.11-.27,0-.69.38-.75s.61-.07.65.2a7.71,7.71,0,0,1-.18,1.2c-.47,0-.71-.24-.85-.65m.1,1.15c.52.38,1.23.21,1.84.31A1.25,1.25,0,0,1,37,66.12c-.58-.14-1.33-.07-1.63-.62.06-.24-.1-.58,0-.86m-1.61-1a2.53,2.53,0,0,1,.82-1.72,2.88,2.88,0,0,1,2.69.11,1.33,1.33,0,0,1,.55.65,1.56,1.56,0,0,1-.51,1.55h-.35a3.7,3.7,0,0,1,.21-1.55c0-.41-.38-.44-.65-.61a1.94,1.94,0,0,0-1.53.34,1.52,1.52,0,0,0-.44,1.5c.24.38,0,.9.16,1.31l-.1.14a2.12,2.12,0,0,1-.85-1.72m32,14.59a14.45,14.45,0,0,0,3.63.86c-.11.47-.94,0-.84.68-1.06-.41-2.28-.61-3.07-1.44.07,0,.13-.13.28-.1m-21.28.55L44,78.35c.23-.31.75-.14,1.12-.34A5.81,5.81,0,0,1,48,77.6a8.38,8.38,0,0,1-3.55,1.2m36.8-15.65A3.59,3.59,0,0,0,78.9,61a3,3,0,0,0-3,.75c-1.23,1-.37,2.65-.34,4,0,.27,0,.48-.24.61-4.94-.44-9.54-1.68-14.45-2.19-1.13-.2-2.26-.15-3.33-.37l-1.37-.15a57.76,57.76,0,0,0-12.5,1.41c-.85.27-1.81.34-2.66.65-.61-.11-1.13.34-1.7.17l-1.13.26a.62.62,0,0,1-.37,0c-.55-1.4,1.09-2.26.57-3.63a2.48,2.48,0,0,0-2.35-1.41,2.81,2.81,0,0,0-2.72,1.41c-.78,1.71.2,3.5.51,5.18-.07.55.54,1.17,0,1.61A4.64,4.64,0,0,0,30,68.48c-.41.21-1.16-.06-1.36.41,1.46.79,3.34.69,5,.62.21-.07.34-.1.51,0,.14.89-.17,2.09.38,2.88a3.49,3.49,0,0,0,2.62,1.13c3.13-.1,5.93-1,8.79-1.75a12.2,12.2,0,0,1,1.26-.27A24,24,0,0,1,52,70.89,8.28,8.28,0,0,0,50.59,74c-.41.93.71,1.07,1,1.58A26.33,26.33,0,0,0,48.85,77c-2.18-.08-4,.75-6.07,1,0,.45.72.31.79.76-.1.3-.41.34-.65.51,0,.2,0,.24.21.27.2-.24.64-.07.85-.3.68,0,1.26-.21,1.91-.24a6.32,6.32,0,0,0,1.73-.69c.72-.2,1.16-.69,1.88-.89,1,0,1.94-.34,2.89-.41v.2c-.78,1.27-1.6,2.58-2.41,3.78a.38.38,0,0,0,.23.55,1.74,1.74,0,0,0,1.33-.21c.72-1.23,1.36-2.4,2-3.67.23-1.17,1.09-1.79,1.94-2.57.14-.07.34-.28.47-.07a15.62,15.62,0,0,0-1.63,2.4,2.88,2.88,0,0,0,.51,3c.41.35,1,.24,1.57.28,1.32-.69,3,.41,4-.9.61-.1.72.62,1.06,1,.58.17,1.19.75,1.77.34,0-.38-.45-.72-.65-1.06-.41-.72-.92-1.31-1.3-2a7.68,7.68,0,0,1-.54-1.27,10.49,10.49,0,0,0,1.84.72,11.48,11.48,0,0,1,1.84.55,6.5,6.5,0,0,0,1.7,1.31c.86.4,1.81.47,2.7.82.34,0,.85.31,1.08,0a1.42,1.42,0,0,0-.51-.38c-.1-.44.62-.2.86-.55a.52.52,0,0,0-.4-.26c-.49-.26-1.7-.35-2-.53a8.6,8.6,0,0,1-1.19-.37c-2,0-3.17-1.86-4.81-2.54.38-.35,1-.62,1.19-1.13a1.91,1.91,0,0,0,.11-1.83c-.31-1.06-1.67-.92-2.45-1.5l.1-.11a14.72,14.72,0,0,1,3.68.48c3.27.45,6.3,1.68,9.71,1.75,1.87,0,4.22.11,5.14-1.72.17-1.06.38-2.12.55-3.18.41-1.72,1.53-3.3,1.36-5.19"/><path id="path58555" class="cls-4" d="M142.12,21.25l-3.32-7.68-3.42,7.68Zm.56,1.22H134.8l-.94,2.17a5,5,0,0,0-.46,1.79,1.51,1.51,0,0,0,.76,1.39,6.88,6.88,0,0,0,2.18.39v.6h-7.41v-.6a3.35,3.35,0,0,0,2-1,13.68,13.68,0,0,0,1.9-3.38l8-17.79h.31l8.05,18.29A11.06,11.06,0,0,0,151,27.61a2.61,2.61,0,0,0,1.58.6v.6H141.83v-.6h.44a3.29,3.29,0,0,0,1.83-.37.9.9,0,0,0,.36-.75,2.22,2.22,0,0,0-.1-.61c0-.1-.19-.51-.49-1.24Z"/><path id="path58557" class="cls-1" d="M166.29,13.44v12a4.41,4.41,0,0,0,.33,2.2,1.9,1.9,0,0,0,1.33.55v.59h-6.27V26.77a8.22,8.22,0,0,1-2.2,1.92,5.21,5.21,0,0,1-2.47.59,3.66,3.66,0,0,1-2.32-.79,4,4,0,0,1-1.35-1.88,13.73,13.73,0,0,1-.34-3.73v-6.1a4.29,4.29,0,0,0-.33-2.17,2,2,0,0,0-1.33-.56v-.61h6.27V24a9.25,9.25,0,0,0,.14,2.12,1.41,1.41,0,0,0,.49.73,1.31,1.31,0,0,0,.8.25,1.92,1.92,0,0,0,1.07-.32A6.84,6.84,0,0,0,161.68,25V16.78a4.11,4.11,0,0,0-.33-2.16,1.88,1.88,0,0,0-1.33-.57v-.6Z"/><path id="path58559" class="cls-1" d="M178.71,13l.25,5.24h-.56a8.35,8.35,0,0,0-2.08-3.18,3.43,3.43,0,0,0-2.15-.86,1.59,1.59,0,0,0-1.14.46,1.33,1.33,0,0,0-.48,1,1.39,1.39,0,0,0,.32.85,16.11,16.11,0,0,0,2.95,2.33A11.58,11.58,0,0,1,179,21.66a4.39,4.39,0,0,1,.78,2.55,5.4,5.4,0,0,1-.65,2.52,4.41,4.41,0,0,1-1.81,1.89,5.13,5.13,0,0,1-2.58.66,9,9,0,0,1-2.94-.69,2.73,2.73,0,0,0-.67-.19c-.37,0-.67.29-.91.83h-.54l-.26-5.53H170A7.27,7.27,0,0,0,172,27a4,4,0,0,0,2.46,1.09,1.81,1.81,0,0,0,1.28-.48,1.58,1.58,0,0,0,.51-1.18,2,2,0,0,0-.49-1.37,12.93,12.93,0,0,0-2.21-1.74,17.46,17.46,0,0,1-3.26-2.67,4.65,4.65,0,0,1-1.08-3,4.91,4.91,0,0,1,1.21-3.22A4.49,4.49,0,0,1,174,13a5.26,5.26,0,0,1,2.42.61,1.63,1.63,0,0,0,.72.25,1.06,1.06,0,0,0,.48-.12,3.89,3.89,0,0,0,.58-.71Z"/><path id="path58561" class="cls-1" d="M186.86,7.82v5.62h3.65v1.63h-3.65v9.49a8.55,8.55,0,0,0,.11,1.73,1.33,1.33,0,0,0,.45.62.93.93,0,0,0,.57.23c.71,0,1.39-.55,2-1.63l.49.36Q189.18,29,186.19,29a3.93,3.93,0,0,1-2.49-.8,3.67,3.67,0,0,1-1.28-1.83,14.44,14.44,0,0,1-.17-3V15.07h-2v-.58a21.1,21.1,0,0,0,3.52-3.08,18.56,18.56,0,0,0,2.54-3.59Z"/><path id="path58563" class="cls-1" d="M198,13.44v3.48a11.24,11.24,0,0,1,2.68-3.15,3.93,3.93,0,0,1,2.22-.79,1.94,1.94,0,0,1,1.47.57,2.17,2.17,0,0,1,.55,1.6,2.44,2.44,0,0,1-.54,1.71,1.65,1.65,0,0,1-1.28.61,2.18,2.18,0,0,1-1.51-.56c-.44-.37-.68-.58-.76-.63a.8.8,0,0,0-.38-.1,1.32,1.32,0,0,0-.9.37,3.47,3.47,0,0,0-1,1.59,11.51,11.51,0,0,0-.52,3.52V25.2l0,.92a3.73,3.73,0,0,0,.11,1.2,1.44,1.44,0,0,0,.58.66,3.43,3.43,0,0,0,1.32.24v.59h-8.31v-.59a1.83,1.83,0,0,0,1.35-.54,5.17,5.17,0,0,0,.36-2.48V16.69a6.78,6.78,0,0,0-.13-1.68,1.33,1.33,0,0,0-.48-.67,2.52,2.52,0,0,0-1.1-.3v-.61Z"/><path id="path58565" class="cls-4" d="M213.39,25.35V20.2a9.72,9.72,0,0,0-3,2.5,3,3,0,0,0-.64,1.79,1.84,1.84,0,0,0,.55,1.33,1.46,1.46,0,0,0,1.15.45,3.18,3.18,0,0,0,1.9-.92m0,1.2c-1.87,1.65-3.56,2.48-5,2.48a3,3,0,0,1-3.06-3,4.22,4.22,0,0,1,1.52-3.16,28.13,28.13,0,0,1,6.59-3.75V17.55a7.16,7.16,0,0,0-.19-2.18,1.62,1.62,0,0,0-.71-.79,2.05,2.05,0,0,0-1.19-.35,3,3,0,0,0-1.75.47.85.85,0,0,0-.44.7,1.43,1.43,0,0,0,.47.85,2.09,2.09,0,0,1,.62,1.37,1.82,1.82,0,0,1-.61,1.38,2.18,2.18,0,0,1-1.56.56,2.52,2.52,0,0,1-1.74-.63,1.88,1.88,0,0,1-.7-1.47,3.36,3.36,0,0,1,.95-2.25,5.82,5.82,0,0,1,2.61-1.65,10.5,10.5,0,0,1,3.48-.58,5.78,5.78,0,0,1,3.46.93,4.46,4.46,0,0,1,1.67,2A14.08,14.08,0,0,1,218,19.1v6a5.8,5.8,0,0,0,.09,1.33.75.75,0,0,0,.24.39.58.58,0,0,0,.38.13c.29,0,.58-.2.87-.61l.49.39a5.86,5.86,0,0,1-1.71,1.78,3.59,3.59,0,0,1-2,.54,3.18,3.18,0,0,1-2.06-.6,2.83,2.83,0,0,1-.91-1.88"/><path id="path58567" class="cls-1" d="M226.76,6.52V25.63a3.75,3.75,0,0,0,.38,2.09,2.12,2.12,0,0,0,1.48.51v.58h-8.31v-.58a1.94,1.94,0,0,0,1.52-.6,3.84,3.84,0,0,0,.33-2V9.7a3.48,3.48,0,0,0-.39-2,2,2,0,0,0-1.46-.53V6.51Z"/><path id="path58569" class="cls-4" d="M236.1,13.44V25.63a3.75,3.75,0,0,0,.38,2.09,2.17,2.17,0,0,0,1.49.51v.58h-8.31v-.58a1.9,1.9,0,0,0,1.51-.6,3.62,3.62,0,0,0,.33-2v-9a3.58,3.58,0,0,0-.38-2.06,2,2,0,0,0-1.46-.53v-.61ZM233.8,6a2.54,2.54,0,0,1,2.55,2.55,2.56,2.56,0,0,1-2.55,2.53,2.53,2.53,0,0,1-2.53-2.53,2.43,2.43,0,0,1,.74-1.8A2.38,2.38,0,0,1,233.8,6"/><path id="path58571" class="cls-4" d="M246.93,25.35V20.2a9.55,9.55,0,0,0-3,2.5,3,3,0,0,0-.64,1.79,1.83,1.83,0,0,0,.54,1.33,1.46,1.46,0,0,0,1.15.45,3.15,3.15,0,0,0,1.9-.92m0,1.2c-1.87,1.65-3.56,2.48-5,2.48a3,3,0,0,1-3.07-3,4.22,4.22,0,0,1,1.52-3.16,28.13,28.13,0,0,1,6.59-3.75V17.55a7.16,7.16,0,0,0-.19-2.18,1.62,1.62,0,0,0-.71-.79,2,2,0,0,0-1.18-.35,3,3,0,0,0-1.76.47.84.84,0,0,0-.43.7,1.41,1.41,0,0,0,.46.85,2.1,2.1,0,0,1,.63,1.37,1.83,1.83,0,0,1-.62,1.38,2.18,2.18,0,0,1-1.56.56,2.52,2.52,0,0,1-1.74-.63,1.92,1.92,0,0,1-.7-1.47,3.36,3.36,0,0,1,1-2.25,5.82,5.82,0,0,1,2.61-1.65,10.56,10.56,0,0,1,3.49-.58,5.77,5.77,0,0,1,3.45.93,4.4,4.4,0,0,1,1.67,2,14.08,14.08,0,0,1,.22,3.18v6a5.8,5.8,0,0,0,.09,1.33.7.7,0,0,0,.25.39.54.54,0,0,0,.37.13c.29,0,.58-.2.88-.61l.49.39a6,6,0,0,1-1.71,1.78,3.63,3.63,0,0,1-2,.54,3.18,3.18,0,0,1-2.06-.6,2.88,2.88,0,0,1-.91-1.88"/><path id="path58573" class="cls-1" d="M260.23,13.44v2a8.81,8.81,0,0,1,2.27-1.86,4.84,4.84,0,0,1,2.34-.59,3.73,3.73,0,0,1,2.48.83,4,4,0,0,1,1.32,2.06,16.41,16.41,0,0,1,.26,3.61v6a4.75,4.75,0,0,0,.31,2.22,2,2,0,0,0,1.35.54v.59h-7.78v-.59A1.63,1.63,0,0,0,264,27.5a4.78,4.78,0,0,0,.26-2V18.62a12,12,0,0,0-.14-2.38,1.38,1.38,0,0,0-.52-.75,1.15,1.15,0,0,0-.77-.29c-.94,0-1.82.67-2.63,2v8.24a4.88,4.88,0,0,0,.31,2.19,1.71,1.71,0,0,0,1.2.57v.59H254v-.59a1.88,1.88,0,0,0,1.38-.63,4.52,4.52,0,0,0,.28-2.13V16.78a4.29,4.29,0,0,0-.33-2.17,1.92,1.92,0,0,0-1.33-.56v-.61Z"/><path id="path58575" class="cls-1" d="M300.85,6v7.86h-.61A10,10,0,0,0,296.94,9a7.84,7.84,0,0,0-4.82-1.67A6.14,6.14,0,0,0,288,8.71a7.56,7.56,0,0,0-2.36,3.9,19.94,19.94,0,0,0-.68,5.17,18.72,18.72,0,0,0,.75,5.63A6.43,6.43,0,0,0,288.1,27a7,7,0,0,0,4,1.14,8.72,8.72,0,0,0,1.65-.17,12.94,12.94,0,0,0,1.74-.51V22.78a4.56,4.56,0,0,0-.19-1.69,1.58,1.58,0,0,0-.75-.71,2.77,2.77,0,0,0-1.37-.31h-.57v-.61h10.84v.61a4.7,4.7,0,0,0-1.73.35,1.64,1.64,0,0,0-.74.83,4.69,4.69,0,0,0-.15,1.53v4.65a22,22,0,0,1-4.45,1.43,23.51,23.51,0,0,1-4.79.49,13.89,13.89,0,0,1-5.28-.86,13.53,13.53,0,0,1-3.71-2.27,10.84,10.84,0,0,1-2.49-3.17A11,11,0,0,1,279,18a11.5,11.5,0,0,1,3.54-8.51A12.2,12.2,0,0,1,291.41,6a15.85,15.85,0,0,1,3,.26,16.26,16.26,0,0,1,2.34.77,9.89,9.89,0,0,0,1.92.6,1.35,1.35,0,0,0,.86-.32A2.91,2.91,0,0,0,300.24,6Z"/><path id="path58577" class="cls-4" d="M311.59,14.14a1.93,1.93,0,0,0-1.44.65,4.4,4.4,0,0,0-.79,2.5c-.13,1.23-.18,3-.18,5.18a22.55,22.55,0,0,0,.23,3.29,3.09,3.09,0,0,0,.77,1.77,1.91,1.91,0,0,0,2.58.2,2.78,2.78,0,0,0,.86-1.56,37.9,37.9,0,0,0,.33-6.32,16,16,0,0,0-.31-3.83,3,3,0,0,0-.92-1.53,1.75,1.75,0,0,0-1.13-.35M311.53,13a7.11,7.11,0,0,1,3.73,1,6.55,6.55,0,0,1,2.62,3,9.65,9.65,0,0,1,.9,4.18,8.9,8.9,0,0,1-1.65,5.48,6.58,6.58,0,0,1-5.55,2.66,6.33,6.33,0,0,1-5.35-2.44,9,9,0,0,1-1.87-5.64,9,9,0,0,1,1.91-5.75A6.29,6.29,0,0,1,311.53,13"/><path id="path58579" class="cls-1" d="M326,29.28l-5.18-11.92a11.5,11.5,0,0,0-1.47-2.74,2,2,0,0,0-1.11-.58v-.6h8.17V14a1.42,1.42,0,0,0-1.05.29,1.11,1.11,0,0,0-.4.85,7.21,7.21,0,0,0,.73,2.29l2.53,5.78,2-5a9.53,9.53,0,0,0,.86-3,1,1,0,0,0-.38-.82,2,2,0,0,0-1.3-.36v-.61h5v.61a2,2,0,0,0-1.18.54,10.17,10.17,0,0,0-1.39,2.62l-5.13,12.07Z"/><path id="path58581" class="cls-4" d="M342.57,19.48a14.6,14.6,0,0,0-.3-3.64,2.9,2.9,0,0,0-.89-1.49,1.31,1.31,0,0,0-.92-.31,1.61,1.61,0,0,0-1.4.85,7.14,7.14,0,0,0-1,4v.58Zm4,1.09h-8.44a7.92,7.92,0,0,0,1.63,4.84,3.46,3.46,0,0,0,2.74,1.37,3.11,3.11,0,0,0,1.78-.54,7.23,7.23,0,0,0,1.74-2l.55.37a9.32,9.32,0,0,1-2.76,3.62,6,6,0,0,1-3.5,1.05,5.83,5.83,0,0,1-5.19-2.63,9.29,9.29,0,0,1-1.41-5.26,8.72,8.72,0,0,1,2.07-6.12A6.41,6.41,0,0,1,340.71,13a5.27,5.27,0,0,1,4.05,1.93,8.69,8.69,0,0,1,1.85,5.67"/><path id="path58583" class="cls-1" d="M353.91,13.44v3.48a11.08,11.08,0,0,1,2.68-3.15,3.91,3.91,0,0,1,2.22-.79,1.94,1.94,0,0,1,1.47.57,2.17,2.17,0,0,1,.55,1.6,2.44,2.44,0,0,1-.54,1.71,1.65,1.65,0,0,1-1.28.61,2.22,2.22,0,0,1-1.52-.56q-.63-.56-.75-.63a.8.8,0,0,0-.38-.1,1.32,1.32,0,0,0-.9.37,3.38,3.38,0,0,0-1,1.59,11.21,11.21,0,0,0-.53,3.52V25.2l0,.92a4.06,4.06,0,0,0,.11,1.2,1.48,1.48,0,0,0,.57.66,3.49,3.49,0,0,0,1.33.24v.59h-8.31v-.59a1.8,1.8,0,0,0,1.34-.54,5,5,0,0,0,.37-2.48V16.69a6.78,6.78,0,0,0-.13-1.68,1.33,1.33,0,0,0-.48-.67,2.52,2.52,0,0,0-1.1-.3v-.61Z"/><path id="path58585" class="cls-1" d="M368.09,13.44v2a9,9,0,0,1,2.27-1.86,4.86,4.86,0,0,1,2.33-.59,3.76,3.76,0,0,1,2.49.83,3.89,3.89,0,0,1,1.31,2.06,15.62,15.62,0,0,1,.27,3.61v6a4.75,4.75,0,0,0,.31,2.22,2,2,0,0,0,1.35.54v.59h-7.78v-.59a1.63,1.63,0,0,0,1.25-.73,4.78,4.78,0,0,0,.26-2V18.62a11.27,11.27,0,0,0-.14-2.38,1.37,1.37,0,0,0-.51-.75,1.22,1.22,0,0,0-.78-.29c-.94,0-1.82.67-2.63,2v8.24a4.74,4.74,0,0,0,.31,2.19,1.73,1.73,0,0,0,1.21.57v.59h-7.79v-.59a1.88,1.88,0,0,0,1.38-.63,4.52,4.52,0,0,0,.28-2.13V16.78a4.45,4.45,0,0,0-.32-2.17,2,2,0,0,0-1.34-.56v-.61Z"/><path id="path58587" class="cls-1" d="M385.91,13.44v2a9.1,9.1,0,0,1,2.34-1.93,5.09,5.09,0,0,1,2.36-.55,4.35,4.35,0,0,1,2.5.69,4.45,4.45,0,0,1,1.54,2.1,9.84,9.84,0,0,1,2.51-2.13A5.26,5.26,0,0,1,399.7,13a4,4,0,0,1,2.54.74,3.81,3.81,0,0,1,1.31,1.86,12.35,12.35,0,0,1,.37,3.58v6.31a4.5,4.5,0,0,0,.32,2.19,1.94,1.94,0,0,0,1.35.57v.59h-7.95v-.59A1.73,1.73,0,0,0,399,27.5a4.26,4.26,0,0,0,.3-2V18.85a13,13,0,0,0-.16-2.61,1.52,1.52,0,0,0-.53-.83,1.3,1.3,0,0,0-.83-.28,2.35,2.35,0,0,0-1.42.53,6.25,6.25,0,0,0-1.47,1.54v8.26a4.63,4.63,0,0,0,.28,2.09,1.7,1.7,0,0,0,1.45.68v.58h-8v-.58a1.58,1.58,0,0,0,1-.32,1.35,1.35,0,0,0,.49-.69,7.12,7.12,0,0,0,.13-1.76V18.85a12.08,12.08,0,0,0-.16-2.62,1.52,1.52,0,0,0-.56-.82,1.28,1.28,0,0,0-.82-.3,2.19,2.19,0,0,0-1.2.35,7,7,0,0,0-1.65,1.74v8.26a4.78,4.78,0,0,0,.32,2.15,1.68,1.68,0,0,0,1.34.61v.59h-7.93v-.59A1.92,1.92,0,0,0,381,27.6a4.72,4.72,0,0,0,.28-2.14V16.77a4.22,4.22,0,0,0-.33-2.16,1.93,1.93,0,0,0-1.34-.57v-.6Z"/><path id="path58589" class="cls-4" d="M415.23,19.48a14.6,14.6,0,0,0-.3-3.64,2.83,2.83,0,0,0-.89-1.49,1.3,1.3,0,0,0-.92-.31,1.62,1.62,0,0,0-1.4.85,7.23,7.23,0,0,0-1,4v.58Zm4,1.09h-8.43a7.85,7.85,0,0,0,1.62,4.84,3.46,3.46,0,0,0,2.74,1.37,3.11,3.11,0,0,0,1.78-.54,7.23,7.23,0,0,0,1.74-2l.55.37a9.32,9.32,0,0,1-2.76,3.62,6,6,0,0,1-3.5,1.05,5.83,5.83,0,0,1-5.19-2.63,9.37,9.37,0,0,1-1.41-5.26,8.72,8.72,0,0,1,2.07-6.12A6.42,6.42,0,0,1,413.37,13a5.25,5.25,0,0,1,4.05,1.93,8.63,8.63,0,0,1,1.85,5.67"/><path id="path58591" class="cls-1" d="M426.14,13.44v2a9,9,0,0,1,2.26-1.86,4.87,4.87,0,0,1,2.34-.59,3.72,3.72,0,0,1,2.48.83,4,4,0,0,1,1.32,2.06,15.79,15.79,0,0,1,.26,3.61v6a4.71,4.71,0,0,0,.32,2.22,2,2,0,0,0,1.35.54v.59h-7.79v-.59a1.66,1.66,0,0,0,1.26-.73,4.78,4.78,0,0,0,.26-2V18.62a11,11,0,0,0-.15-2.38,1.37,1.37,0,0,0-.51-.75,1.19,1.19,0,0,0-.77-.29c-.95,0-1.82.67-2.63,2v8.24a4.93,4.93,0,0,0,.3,2.19,1.71,1.71,0,0,0,1.2.57v.59h-7.77v-.59a1.9,1.9,0,0,0,1.38-.63,4.67,4.67,0,0,0,.28-2.13V16.78a4.29,4.29,0,0,0-.33-2.17,2,2,0,0,0-1.33-.56v-.61Z"/><path id="path58593" class="cls-1" d="M443,7.82v5.62h3.66v1.63H443v9.49a7.62,7.62,0,0,0,.12,1.73,1.33,1.33,0,0,0,.45.62.93.93,0,0,0,.57.23c.71,0,1.39-.55,2-1.63l.5.36Q445.32,29,442.33,29a3.92,3.92,0,0,1-2.48-.8,3.7,3.7,0,0,1-1.29-1.83,15.57,15.57,0,0,1-.16-3V15.07h-2v-.58a20.62,20.62,0,0,0,3.51-3.08,18.61,18.61,0,0,0,2.55-3.59Z"/><g class="cls-5"><g id="g58981"><path id="path58979" class="cls-6" d="M128.11,40.83H445.83"/></g></g><rect id="SVGID-4" data-name="SVGID" class="cls-2" x="128.11" y="38.93" width="317.83" height="3.96"/><path id="path58983" class="cls-4" d="M136.66,52.61V68.43a5.54,5.54,0,0,0,.12,1.54.82.82,0,0,0,.41.43,2.43,2.43,0,0,0,1.16.23,4.5,4.5,0,0,0,3.81-1.71c1.2-1.53,1.8-3.92,1.8-7.14a13.57,13.57,0,0,0-1.22-6.24,5.21,5.21,0,0,0-2.5-2.48,9.69,9.69,0,0,0-3.58-.45m-7.73,19.13v-.56h.68a2.61,2.61,0,0,0,1.34-.27,1.74,1.74,0,0,0,.71-.76,7.73,7.73,0,0,0,.13-1.89V54.93a6.67,6.67,0,0,0-.17-2,1.53,1.53,0,0,0-.67-.67,2.69,2.69,0,0,0-1.34-.3h-.68v-.55H138a14.53,14.53,0,0,1,5.85,1A8.55,8.55,0,0,1,148,56.11a11.61,11.61,0,0,1,.72,9.49,9.15,9.15,0,0,1-1.78,3,8.87,8.87,0,0,1-2.53,1.89,13.74,13.74,0,0,1-3.48,1.09,16.34,16.34,0,0,1-2.87.18Z"/><path id="path58985" class="cls-4" d="M159.38,63.24a14,14,0,0,0-.26-3.3,2.63,2.63,0,0,0-.82-1.36,1.22,1.22,0,0,0-.83-.27,1.45,1.45,0,0,0-1.27.76,6.53,6.53,0,0,0-.88,3.65v.52Zm3.68,1h-7.67a7.19,7.19,0,0,0,1.48,4.4,3.13,3.13,0,0,0,2.49,1.24,2.83,2.83,0,0,0,1.62-.49,6.43,6.43,0,0,0,1.57-1.81l.51.33a8.5,8.5,0,0,1-2.51,3.29,5.43,5.43,0,0,1-3.18,1,5.28,5.28,0,0,1-4.71-2.4,8.4,8.4,0,0,1-1.3-4.78,8,8,0,0,1,1.89-5.57,5.86,5.86,0,0,1,4.44-2.07,4.75,4.75,0,0,1,3.68,1.75,7.86,7.86,0,0,1,1.69,5.15"/><path id="path58987" class="cls-4" d="M169.61,68.8a3.53,3.53,0,0,0,2.75,1.83,1.55,1.55,0,0,0,1.33-.85c.52-.84.78-2.44.78-4.79s-.28-4.06-.85-4.95a1.74,1.74,0,0,0-1.53-.88c-1,0-1.83.73-2.48,2.18Zm0,1.51v5.21a4.2,4.2,0,0,0,.17,1.46,1.06,1.06,0,0,0,.53.57,3.63,3.63,0,0,0,1.41.18v.55h-8v-.55a1.78,1.78,0,0,0,1.38-.52,3.23,3.23,0,0,0,.29-1.78V60.67a3.31,3.31,0,0,0-.34-1.89,1.77,1.77,0,0,0-1.33-.47v-.55h5.86v1.83a5.44,5.44,0,0,1,1.5-1.55,4.27,4.27,0,0,1,2.37-.7,4.45,4.45,0,0,1,2.8,1A6,6,0,0,1,178.21,61a10.14,10.14,0,0,1,.66,3.68,10.6,10.6,0,0,1-.69,3.89,5.75,5.75,0,0,1-2,2.67,4.86,4.86,0,0,1-2.87.92,4.5,4.5,0,0,1-2.15-.52,5.21,5.21,0,0,1-1.58-1.33"/><path id="path58989" class="cls-4" d="M188.33,68.58V63.9a8.64,8.64,0,0,0-2.68,2.27,2.73,2.73,0,0,0-.59,1.64,1.74,1.74,0,0,0,.49,1.2,1.36,1.36,0,0,0,1,.41,2.86,2.86,0,0,0,1.73-.84m0,1.09q-2.55,2.27-4.59,2.26a2.77,2.77,0,0,1-2-.77,2.73,2.73,0,0,1-.78-2,3.83,3.83,0,0,1,1.37-2.87,26.22,26.22,0,0,1,6-3.41V61.49a6.16,6.16,0,0,0-.18-2,1.55,1.55,0,0,0-.64-.72,2,2,0,0,0-1.07-.31,2.86,2.86,0,0,0-1.61.43.81.81,0,0,0-.38.64,1.32,1.32,0,0,0,.41.77,1.91,1.91,0,0,1,.57,1.25,1.65,1.65,0,0,1-.55,1.25,2,2,0,0,1-1.42.51,2.27,2.27,0,0,1-1.58-.57,1.72,1.72,0,0,1-.64-1.33,3.08,3.08,0,0,1,.86-2.05,5.34,5.34,0,0,1,2.38-1.51,9.62,9.62,0,0,1,3.17-.52,5.12,5.12,0,0,1,3.13.85A3.88,3.88,0,0,1,192.3,60a11.7,11.7,0,0,1,.21,2.88v5.43a5.84,5.84,0,0,0,.07,1.21.76.76,0,0,0,.22.36.55.55,0,0,0,.35.12c.26,0,.52-.19.79-.56l.45.37a5.47,5.47,0,0,1-1.56,1.61,3.32,3.32,0,0,1-1.81.49,2.84,2.84,0,0,1-1.86-.55,2.56,2.56,0,0,1-.83-1.71"/><path id="path58991" class="cls-1" d="M200.82,57.75v3.17a9.75,9.75,0,0,1,2.44-2.87,3.54,3.54,0,0,1,2-.71,1.79,1.79,0,0,1,1.33.51,2,2,0,0,1,.5,1.46,2.21,2.21,0,0,1-.5,1.55,1.45,1.45,0,0,1-1.16.55,2,2,0,0,1-1.37-.5,8.41,8.41,0,0,0-.69-.57.58.58,0,0,0-.34-.09,1.25,1.25,0,0,0-.83.33,3.11,3.11,0,0,0-.93,1.44,10.2,10.2,0,0,0-.47,3.21v3.22l0,.83a3.18,3.18,0,0,0,.1,1.09,1.19,1.19,0,0,0,.52.6,3.24,3.24,0,0,0,1.19.22v.54H195.1v-.54a1.64,1.64,0,0,0,1.23-.48,4.65,4.65,0,0,0,.33-2.26V60.71a5.72,5.72,0,0,0-.12-1.52,1.28,1.28,0,0,0-.43-.62,2.41,2.41,0,0,0-1-.26v-.56Z"/><path id="path58993" class="cls-1" d="M214.15,52.64v5.11h3.33v1.48h-3.33v8.63a7,7,0,0,0,.11,1.57,1.29,1.29,0,0,0,.4.57.9.9,0,0,0,.53.21c.65,0,1.26-.49,1.84-1.48l.45.33a4.11,4.11,0,0,1-3.94,2.87,3.55,3.55,0,0,1-2.26-.74,3.33,3.33,0,0,1-1.16-1.65,14,14,0,0,1-.16-2.76V59.23h-1.81V58.7a18.86,18.86,0,0,0,3.19-2.79,16.65,16.65,0,0,0,2.32-3.27Z"/><path id="path58995" class="cls-1" d="M224.61,57.75v1.84a7.91,7.91,0,0,1,2.12-1.75,4.75,4.75,0,0,1,2.15-.5,3.86,3.86,0,0,1,2.26.62,3.94,3.94,0,0,1,1.41,1.91,9.12,9.12,0,0,1,2.29-1.94,4.75,4.75,0,0,1,2.3-.59,3.54,3.54,0,0,1,2.3.67,3.31,3.31,0,0,1,1.2,1.69A11,11,0,0,1,241,63v5.74a4.09,4.09,0,0,0,.29,2,1.72,1.72,0,0,0,1.22.51v.54h-7.22v-.54a1.61,1.61,0,0,0,1.26-.66,3.88,3.88,0,0,0,.27-1.84v-6a12,12,0,0,0-.15-2.38,1.3,1.3,0,0,0-.48-.74,1.16,1.16,0,0,0-.75-.26,2.2,2.2,0,0,0-1.3.48,5.82,5.82,0,0,0-1.33,1.4v7.51a4.24,4.24,0,0,0,.26,1.9,1.52,1.52,0,0,0,1.31.61v.54h-7.24v-.54a1.49,1.49,0,0,0,.91-.28,1.24,1.24,0,0,0,.45-.63,6.06,6.06,0,0,0,.12-1.6v-6a10.87,10.87,0,0,0-.15-2.38,1.42,1.42,0,0,0-.5-.74,1.16,1.16,0,0,0-.75-.27,2,2,0,0,0-1.1.31,6.21,6.21,0,0,0-1.49,1.58v7.52a4.39,4.39,0,0,0,.28,2,1.53,1.53,0,0,0,1.23.55v.54h-7.21v-.54a1.72,1.72,0,0,0,1.26-.56,4.36,4.36,0,0,0,.25-1.94v-7.9a3.85,3.85,0,0,0-.3-2,1.78,1.78,0,0,0-1.21-.51v-.55Z"/><path id="path58997" class="cls-4" d="M251.56,63.24a13.45,13.45,0,0,0-.26-3.3,2.56,2.56,0,0,0-.82-1.36,1.2,1.2,0,0,0-.83-.27,1.46,1.46,0,0,0-1.27.76,6.53,6.53,0,0,0-.88,3.65v.52Zm3.68,1h-7.67a7.26,7.26,0,0,0,1.48,4.4,3.13,3.13,0,0,0,2.49,1.24,2.83,2.83,0,0,0,1.62-.49,6.13,6.13,0,0,0,1.57-1.81l.51.33a8.41,8.41,0,0,1-2.51,3.29,5.39,5.39,0,0,1-3.18,1,5.28,5.28,0,0,1-4.71-2.4A8.4,8.4,0,0,1,243.55,65a8,8,0,0,1,1.88-5.57,5.86,5.86,0,0,1,4.44-2.07,4.78,4.78,0,0,1,3.69,1.75,7.86,7.86,0,0,1,1.68,5.15"/><path id="path58999" class="cls-1" d="M262.4,57.75v1.82a7.75,7.75,0,0,1,2.07-1.7,4.41,4.41,0,0,1,2.12-.53,3.38,3.38,0,0,1,2.26.76A3.62,3.62,0,0,1,270,60a14.3,14.3,0,0,1,.24,3.27v5.45a4.49,4.49,0,0,0,.28,2,1.86,1.86,0,0,0,1.23.49v.54h-7.08V71.2a1.45,1.45,0,0,0,1.14-.66,4.28,4.28,0,0,0,.24-1.85V62.47a10.47,10.47,0,0,0-.13-2.18,1.29,1.29,0,0,0-.47-.68,1.06,1.06,0,0,0-.7-.25c-.86,0-1.65.61-2.39,1.83v7.5a4.28,4.28,0,0,0,.28,2,1.51,1.51,0,0,0,1.1.52v.53H256.7V71.2a1.74,1.74,0,0,0,1.26-.57,4.21,4.21,0,0,0,.25-1.94v-7.9a3.92,3.92,0,0,0-.3-2,1.69,1.69,0,0,0-1.21-.51v-.56Z"/><path id="path59001" class="cls-1" d="M278.19,52.64v5.11h3.32v1.48h-3.32v8.63a7,7,0,0,0,.11,1.57,1.29,1.29,0,0,0,.4.57.92.92,0,0,0,.53.21c.64,0,1.26-.49,1.84-1.48l.44.33a4.08,4.08,0,0,1-3.93,2.87,3.55,3.55,0,0,1-2.26-.74,3.27,3.27,0,0,1-1.16-1.65,14.3,14.3,0,0,1-.15-2.76V59.23h-1.82V58.7a18.86,18.86,0,0,0,3.19-2.79,16.65,16.65,0,0,0,2.32-3.27Z"/><path id="path59003" class="cls-4" d="M296.24,58.4a1.75,1.75,0,0,0-1.32.58,4,4,0,0,0-.72,2.27c-.11,1.13-.16,2.69-.16,4.71a20,20,0,0,0,.21,3,3,3,0,0,0,.7,1.62,1.75,1.75,0,0,0,2.35.18,2.51,2.51,0,0,0,.78-1.42,34.49,34.49,0,0,0,.3-5.75,13.5,13.5,0,0,0-.29-3.48,2.63,2.63,0,0,0-.83-1.39,1.61,1.61,0,0,0-1-.31m-.06-1.06a6.55,6.55,0,0,1,3.39.93A6,6,0,0,1,302,61a8.73,8.73,0,0,1,.82,3.8,8,8,0,0,1-1.51,5,6,6,0,0,1-5,2.43,5.77,5.77,0,0,1-4.86-2.22,8.12,8.12,0,0,1-1.7-5.13,8.29,8.29,0,0,1,1.73-5.23,5.73,5.73,0,0,1,4.79-2.24"/><path id="path59005" class="cls-1" d="M310.26,59.22v9.7a3.16,3.16,0,0,0,.3,1.76,2.13,2.13,0,0,0,1.77.51v.54h-8.24v-.54a3.2,3.2,0,0,0,1.33-.2,1.12,1.12,0,0,0,.55-.57,4.72,4.72,0,0,0,.15-1.5v-9.7h-2V57.76h2V56a4.63,4.63,0,0,1,1.57-3.58A6.09,6.09,0,0,1,312,51a4.38,4.38,0,0,1,2.71.69,1.94,1.94,0,0,1,.9,1.53,1.54,1.54,0,0,1-.55,1.16,2.13,2.13,0,0,1-1.47.5,1.82,1.82,0,0,1-1.24-.41,1.2,1.2,0,0,1-.45-.9A2.78,2.78,0,0,1,312,53a2.06,2.06,0,0,0,.05-.48.53.53,0,0,0-.18-.46.82.82,0,0,0-.58-.23.9.9,0,0,0-.73.37,1.81,1.81,0,0,0-.29,1.14l0,2.62v1.78h2.07v1.46Z"/><path id="path59007" class="cls-1" d="M328.41,62v6.27a6.27,6.27,0,0,0,.17,1.95,1.55,1.55,0,0,0,.67.68,2.75,2.75,0,0,0,1.36.29h.68v.55H320.68v-.55h.67a2.79,2.79,0,0,0,1.42-.31,1.37,1.37,0,0,0,.6-.72,6.47,6.47,0,0,0,.17-1.89V54.93a6.62,6.62,0,0,0-.17-2,1.49,1.49,0,0,0-.67-.67,2.71,2.71,0,0,0-1.35-.29h-.67v-.56h10.61V52h-.68a2.77,2.77,0,0,0-1.42.31,1.34,1.34,0,0,0-.61.72,5.72,5.72,0,0,0-.17,1.88v5.74h7.16V54.93a6.81,6.81,0,0,0-.16-2,1.53,1.53,0,0,0-.67-.67,2.79,2.79,0,0,0-1.37-.29h-.65v-.56H343.3V52h-.66a2.73,2.73,0,0,0-1.41.31,1.4,1.4,0,0,0-.62.72,6.2,6.2,0,0,0-.16,1.89V68.27a6.85,6.85,0,0,0,.16,2,1.58,1.58,0,0,0,.68.68,2.74,2.74,0,0,0,1.35.28h.66v.56H332.72v-.56h.65a2.78,2.78,0,0,0,1.43-.31,1.48,1.48,0,0,0,.61-.72,6.16,6.16,0,0,0,.16-1.88V62Z"/><path id="path59009" class="cls-4" d="M351.53,63.24a13.83,13.83,0,0,0-.27-3.3,2.68,2.68,0,0,0-.81-1.36,1.25,1.25,0,0,0-.84-.27,1.46,1.46,0,0,0-1.27.76,6.53,6.53,0,0,0-.88,3.65v.52Zm3.67,1h-7.67a7.19,7.19,0,0,0,1.48,4.4,3.13,3.13,0,0,0,2.49,1.24,2.89,2.89,0,0,0,1.63-.49,6.59,6.59,0,0,0,1.57-1.81l.5.33a8.5,8.5,0,0,1-2.51,3.29,5.43,5.43,0,0,1-3.18,1,5.31,5.31,0,0,1-4.72-2.4A8.47,8.47,0,0,1,343.51,65a8,8,0,0,1,1.88-5.57,5.86,5.86,0,0,1,4.44-2.07,4.75,4.75,0,0,1,3.68,1.75,7.86,7.86,0,0,1,1.69,5.15"/><path id="path59011" class="cls-4" d="M363.75,68.58V63.9a8.7,8.7,0,0,0-2.69,2.27,2.78,2.78,0,0,0-.58,1.64A1.7,1.7,0,0,0,361,69a1.36,1.36,0,0,0,1,.41,2.89,2.89,0,0,0,1.73-.84m0,1.09c-1.71,1.51-3.23,2.26-4.59,2.26a2.77,2.77,0,0,1-2-.77,2.7,2.7,0,0,1-.79-2,3.83,3.83,0,0,1,1.37-2.87,26.36,26.36,0,0,1,6-3.41V61.49a6.47,6.47,0,0,0-.18-2,1.55,1.55,0,0,0-.64-.72,2,2,0,0,0-1.08-.31,2.84,2.84,0,0,0-1.6.43.78.78,0,0,0-.38.64,1.26,1.26,0,0,0,.41.77,1.91,1.91,0,0,1,.57,1.25,1.66,1.66,0,0,1-.56,1.25,2,2,0,0,1-1.41.51,2.31,2.31,0,0,1-1.59-.57,1.74,1.74,0,0,1-.63-1.33,3.06,3.06,0,0,1,.85-2.05,5.4,5.4,0,0,1,2.38-1.51,9.67,9.67,0,0,1,3.17-.52,5.14,5.14,0,0,1,3.14.85A3.91,3.91,0,0,1,367.71,60a11.7,11.7,0,0,1,.21,2.88v5.43a5,5,0,0,0,.08,1.21.69.69,0,0,0,.22.36.54.54,0,0,0,.34.12c.27,0,.53-.19.8-.56l.45.37a5.6,5.6,0,0,1-1.56,1.61,3.34,3.34,0,0,1-1.81.49,2.87,2.87,0,0,1-1.87-.55,2.55,2.55,0,0,1-.82-1.71"/><path id="path59013" class="cls-1" d="M376.21,51.46V68.83a3.27,3.27,0,0,0,.35,1.9,1.84,1.84,0,0,0,1.33.47v.54h-7.55V71.2a1.79,1.79,0,0,0,1.38-.54,3.33,3.33,0,0,0,.3-1.82V54.36a3.17,3.17,0,0,0-.35-1.87,1.8,1.8,0,0,0-1.33-.47v-.56Z"/><path id="path59015" class="cls-1" d="M383.88,52.64v5.11h3.31v1.48h-3.31v8.63a6.62,6.62,0,0,0,.1,1.57,1.21,1.21,0,0,0,.4.57.92.92,0,0,0,.52.21c.65,0,1.27-.49,1.85-1.48l.44.33a4.09,4.09,0,0,1-3.93,2.87,3.53,3.53,0,0,1-2.26-.74,3.27,3.27,0,0,1-1.16-1.65,14.3,14.3,0,0,1-.15-2.76V59.23h-1.83V58.7a19,19,0,0,0,3.2-2.79,17.07,17.07,0,0,0,2.32-3.27Z"/><path id="path59017" class="cls-1" d="M393.62,51.46v8.09a8.4,8.4,0,0,1,2.11-1.71,4.18,4.18,0,0,1,2-.5,3.47,3.47,0,0,1,2.24.74,3.52,3.52,0,0,1,1.24,1.76,12.87,12.87,0,0,1,.31,3.4V68.7a4.06,4.06,0,0,0,.3,2,1.73,1.73,0,0,0,1.21.49v.54H396v-.54a1.64,1.64,0,0,0,1.12-.59,4.12,4.12,0,0,0,.26-1.9V62.46a10.15,10.15,0,0,0-.13-2.17,1.36,1.36,0,0,0-.46-.69,1.1,1.1,0,0,0-.72-.24,2,2,0,0,0-1.17.41,5.13,5.13,0,0,0-1.23,1.43v7.5a4.5,4.5,0,0,0,.23,1.86,1.44,1.44,0,0,0,1.17.63v.54h-7.09v-.54a1.73,1.73,0,0,0,1.25-.56,4.16,4.16,0,0,0,.26-1.93V54.49a4,4,0,0,0-.3-2,1.83,1.83,0,0,0-1.21-.5v-.56Z"/></svg>