<svg id="Layer_1" data-name="Layer 1" xmlns="http://www.w3.org/2000/svg" viewBox="0 0 228.85 228.85"><defs><style>.cls-1{fill:#563d7c;}.cls-2{isolation:isolate;}.cls-3{fill:#fff;}</style></defs><title>bootstrap</title><g id="solid"><path id="bg" class="cls-1" d="M228.85,190.71a38.25,38.25,0,0,1-38.14,38.14H38.14A38.25,38.25,0,0,1,0,190.71V38.14A38.25,38.25,0,0,1,38.14,0H190.71a38.25,38.25,0,0,1,38.14,38.14Z"/><g id="B" class="cls-2"><path class="cls-3" d="M62.19,49.73h64.88q17.94,0,28.79,8.23c7.22,5.5,10.84,13.76,10.84,24.87q0,10.1-4.93,17.27a31.77,31.77,0,0,1-14.14,11.15v.37q12.35,2.64,18.7,11.67c4.23,6.06,6.36,13.61,6.36,22.74a38,38,0,0,1-2.81,14.65,29.56,29.56,0,0,1-8.78,11.78,45,45,0,0,1-15.34,7.86,75.33,75.33,0,0,1-22.25,2.91H62.19V49.73Zm23.37,55.91H123.7c5.61,0,10.28-1.57,14-4.79s5.61-7.78,5.61-13.76c0-6.73-1.68-11.48-5.05-14.21s-8.22-4.11-14.58-4.11H85.56v36.87Zm0,58.52h41.32c7.1,0,12.64-1.83,16.53-5.53s5.91-8.9,5.91-15.63-1.95-11.67-5.91-15.26-9.43-5.31-16.53-5.31H85.56Z"/></g></g></svg>