<svg viewBox="0 0 80 80" xmlns="http://www.w3.org/2000/svg"><title>Learn Bootstrap icon</title><path d="M10 8h61a2 2 0 0 1 2 2v61a2 2 0 0 1-2 2H10a2 2 0 0 1-2-2V10a2 2 0 0 1 2-2zm30.515 27.853h-5.863v-8.618h5.863c1.67 0 2.937.373 3.8 1.119.862.727 1.293 1.79 1.293 3.19 0 1.418-.43 2.491-1.293 3.218-.863.728-2.13 1.091-3.8 1.091zm.358 17.808h-6.221V42.998h6.221c2.148 0 3.754.446 4.818 1.336 1.065.873 1.597 2.191 1.597 3.955 0 1.8-.542 3.145-1.624 4.036-1.065.89-2.662 1.336-4.79 1.336zm9.856-14.644c1.78-.673 3.138-1.7 4.074-3.082.936-1.4 1.404-3.09 1.404-5.073 0-3.763-1.284-6.5-3.854-8.208-2.55-1.709-6.68-2.564-12.388-2.564H24.053v40.716h17.591c5.47 0 9.544-.963 12.223-2.89 2.68-1.928 4.02-4.855 4.02-8.782 0-2.563-.624-4.727-1.872-6.49-1.248-1.764-3.01-2.973-5.286-3.627z" fill="currentColor" fill-rule="nonzero"></path></svg>