<?xml version="1.0" encoding="utf-8"?>
<!-- Generator: Adobe Illustrator 24.0.2, SVG Export Plug-In . SVG Version: 6.00 Build 0)  -->
<svg version="1.1" id="Layer_1" xmlns="http://www.w3.org/2000/svg" xmlns:xlink="http://www.w3.org/1999/xlink" x="0px" y="0px"
	 viewBox="0 0 203 199" style="enable-background:new 0 0 203 199;" xml:space="preserve">
<style type="text/css">
	.st0{fill:#004F9F;}
	.st1{fill:#9F358B;}
	.st2{fill:#009EB0;}
	.st3{fill:#E50046;}
</style>
<path class="st0" d="M44.7,122.7c7.3,7.8,19.6,8.2,27.4,0.8l25.5-24L81.4,82.2l-39.6,37.3L44.7,122.7z"/>
<path class="st0" d="M5.3,80.7l16.3,17.4l17.3-16.3L25.6,67.6l43.6-41l49.7,52.9l3.3-3.1c7.8-7.3,8.2-19.6,0.8-27.4L83.6,7
	C76.3-0.8,64-1.1,56.2,6.2L6.1,53.3C-1.7,60.7-2.1,72.9,5.3,80.7z"/>
<path class="st1" d="M122.7,154.3c7.8-7.3,8.2-19.6,0.8-27.4l-24-25.5l-17.3,16.3l37.3,39.6L122.7,154.3z"/>
<path class="st1" d="M80.7,193.8l17.4-16.3l-16.3-17.3l-14.2,13.3l-41-43.6l52.9-49.7l-3.1-3.3C69,69,56.7,68.7,48.9,76L7,115.5
	c-7.8,7.3-8.2,19.6-0.8,27.4L53.3,193C60.7,200.7,72.9,201.1,80.7,193.8z"/>
<path class="st2" d="M154.3,76.4c-7.3-7.8-19.6-8.2-27.4-0.8l-25.5,24l16.3,17.3l39.6-37.3L154.3,76.4z"/>
<path class="st2" d="M193.8,118.3l-16.3-17.4l-17.3,16.3l13.3,14.2l-43.6,41l-49.7-52.9l-3.3,3.1c-7.8,7.3-8.2,19.6-0.8,27.4
	l39.5,41.9c7.3,7.8,19.6,8.2,27.4,0.8l50.1-47.1C200.7,138.4,201.1,126.1,193.8,118.3"/>
<path class="st3" d="M76.4,44.7c-7.8,7.3-8.2,19.6-0.8,27.4l24,25.5l17.3-16.3L79.6,41.7L76.4,44.7z"/>
<path class="st3" d="M118.3,5.3l-17.4,16.3l16.3,17.3l14.2-13.3l41,43.6l-52.9,49.7l3.1,3.3c7.3,7.8,19.6,8.2,27.4,0.8l42-39.4
	c7.8-7.3,8.2-19.6,0.8-27.4L145.7,6.1C138.4-1.7,126.1-2.1,118.3,5.3"/>
</svg>
