<?xml version="1.0" encoding="utf-8"?>
<!-- Generator: Adobe Illustrator 24.0.2, SVG Export Plug-In . SVG Version: 6.00 Build 0)  -->
<svg version="1.1" id="Layer_1" xmlns="http://www.w3.org/2000/svg" xmlns:xlink="http://www.w3.org/1999/xlink" x="0px" y="0px"
	 viewBox="0 0 48 48" style="enable-background:new 0 0 48 48;" xml:space="preserve">
<style type="text/css">
	.st0{fill-rule:evenodd;clip-rule:evenodd;fill:#2D5DCC;}
	.st1{filter:url(#Adobe_OpacityMaskFilter);}
	.st2{fill-rule:evenodd;clip-rule:evenodd;fill:#FFFFFF;}
	.st3{mask:url(#mask-2_4_);}
	.st4{fill-rule:evenodd;clip-rule:evenodd;fill:#A5BEFA;}
	.st5{fill-rule:evenodd;clip-rule:evenodd;fill:#141C3A;}
	.st6{filter:url(#Adobe_OpacityMaskFilter_1_);}
	.st7{mask:url(#mask-2_3_);}
</style>
<title>Build a Website with HTML, CSS, and Github Pages icon</title>
<desc>Created with sketchtool.</desc>
<g id="thumbnail-sm-skill-websites">
	<g id="Rectangle_1_">
		<path id="path-1_1_" class="st0" d="M4,0h40c2.2,0,4,1.8,4,4v40c0,2.2-1.8,4-4,4H4c-2.2,0-4-1.8-4-4V4C0,1.8,1.8,0,4,0z"/>
	</g>
	<defs>
		<filter id="Adobe_OpacityMaskFilter" filterUnits="userSpaceOnUse" x="12" y="4" width="36" height="44">
			<feColorMatrix  type="matrix" values="1 0 0 0 0  0 1 0 0 0  0 0 1 0 0  0 0 0 1 0"/>
		</filter>
	</defs>
	<mask maskUnits="userSpaceOnUse" x="12" y="4" width="36" height="44" id="mask-2_4_">
		<g class="st1">
			<path id="path-1_5_" class="st2" d="M4,0h40c2.2,0,4,1.8,4,4v40c0,2.2-1.8,4-4,4H4c-2.2,0-4-1.8-4-4V4C0,1.8,1.8,0,4,0z"/>
		</g>
	</mask>
	<g id="Group" class="st3">
		<g transform="translate(12.000000, 4.000000)">
			<path id="Window" class="st4" d="M0,44h36V0H2C0.9,0,0,0.9,0,2V44L0,44z"/>
			<path id="Dot-2" class="st5" d="M5.8,4c0,1.1-0.9,2-1.9,2S1.9,5.1,1.9,4s0.9-2,1.9-2S5.8,2.9,5.8,4"/>
			<path id="Dot-2-Copy" class="st5" d="M11.7,4c0,1.1-0.9,2-1.9,2S7.8,5.1,7.8,4s0.9-2,1.9-2S11.7,2.9,11.7,4"/>
			<path id="Dot-2-Copy-2" class="st5" d="M17.5,4c0,1.1-0.9,2-1.9,2s-1.9-0.9-1.9-2s0.9-2,1.9-2S17.5,2.9,17.5,4"/>
		</g>
	</g>
	<defs>
		<filter id="Adobe_OpacityMaskFilter_1_" filterUnits="userSpaceOnUse" x="8" y="16" width="32" height="28">
			<feColorMatrix  type="matrix" values="1 0 0 0 0  0 1 0 0 0  0 0 1 0 0  0 0 0 1 0"/>
		</filter>
	</defs>
	<mask maskUnits="userSpaceOnUse" x="8" y="16" width="32" height="28" id="mask-2_3_">
		<g class="st6">
			<path id="path-1_4_" class="st2" d="M4,0h40c2.2,0,4,1.8,4,4v40c0,2.2-1.8,4-4,4H4c-2.2,0-4-1.8-4-4V4C0,1.8,1.8,0,4,0z"/>
		</g>
	</mask>
	<g id="Group-2" class="st7">
		<g transform="translate(8.000000, 16.000000)">
			<path id="Popout" class="st5" d="M2,0h28c1.1,0,2,0.9,2,2v24c0,1.1-0.9,2-2,2H2c-1.1,0-2-0.9-2-2V2C0,0.9,0.9,0,2,0z"/>
			<path id="Popout-Triangles" class="st0" d="M4,20l7.8-16l6.6,13.5L22.6,9L28,20H4z"/>
		</g>
	</g>
</g>
</svg>
