<svg id="Layer_1" data-name="Layer 1" xmlns="http://www.w3.org/2000/svg" viewBox="0 0 218.16 151.18"><defs><style>.cls-1{fill:#f7c5a5;}.cls-2{fill:#ffd400;}.cls-3{fill:#64382b;}</style></defs><title>CITC-icon</title><path class="cls-1" d="M166.63,137.25c-10.18,5.35-21.33,4.48-32.22,4.74-17.25.41-34.52.06-51.76.51-13.44.35-26.25,4.93-39.49,6.71-9,1.22-16.47-7.47-14.49-16.39,1-4.51,3.87-6.87,8.12-7.92,1.53-.38,3.4.06,4.28-1.83,8.25-1.21,16.49-2.57,24.76-3.61,7.17-.9,8.78-2.1,8.13-9.36-.47-5.24,1.54-11.19-3.25-15.6a1.42,1.42,0,0,1,0-1.37c3.68-3.57,1.68-8,1.75-12,.22-12.9.8-11.49-11.65-13.06l-2.61-.45h0A19.21,19.21,0,0,0,49.11,66c-10-2-20-3.89-30-5.9-9-1.8-11.06-5.59-9-16.26,1.36-7.18,5.87-9.91,13.77-8.41,4.45.85,8.85,2.1,13.45,2,21.27,5.12,42.59,9.73,64.71,6.79,14.37.86,28.74-.32,43.11-.22l10.05,7.35c3.14,4.77,7.84,8.07,11.49,12.36Q166.63,100.46,166.63,137.25Zm-35.7-20.09a5.44,5.44,0,0,0,1.86-3.89c0-12.86.12-25.73-.17-38.58-.08-3.72-2.55-5.84-6.66-5.76-6.8.13-13.6,0-20.41,0-4.64,0-7.4,2.37-7.43,7-.09,12.26,0,24.52.16,36.78.06,4.18,2.41,6.28,6.71,6.24,7-.07,14,0,21,0A6.13,6.13,0,0,0,130.93,117.16Z"/><path class="cls-2" d="M60.82,68c12.45,1.57,11.87.16,11.65,13.06-.07,4,1.93,8.46-1.75,12a1.42,1.42,0,0,0,0,1.37c4.79,4.41,2.78,10.36,3.25,15.6.65,7.26-1,8.46-8.13,9.36-8.27,1-16.51,2.4-24.76,3.61-5.1-2-10.12.05-15.13.44-11.41.88-18.48-8.58-14.07-19.27,1.51-3.67,4.54-5,8.25-5.4C28.5,98,36.87,97,45.57,96.06c-2.07-3-4.88-1.81-7.21-1.81-9,0-18,.32-27,.38C2.66,94.68,0,91.91,0,83c0-1.47,0-2.94,0-4.41.24-5.68,3.21-8.8,8.91-8.91,11.94-.25,23.88-.28,35.81-.51,1.82,0,4.21,1.08,5.19-1.71,2.76,1.71,5.53,2.1,8.33.12h0A2,2,0,0,0,60.82,68Z"/><path class="cls-1" d="M210.5,137.45c-.27,3.85-2.28,5.17-6.15,5.05-8.42-.26-16.86-.28-25.28,0-3.8.14-5.91-1-6.54-4.78.14-2,.38-4,.39-6,.12-15.18,0-30.36.36-45.54.14-6.18,2.45-8,8.65-8.09q9.65-.12,19.29,0c6.22.09,8.6,2.48,8.67,8.76.09,7.54-.12,15.08.06,22.61C210.17,118.77,209.15,128.14,210.5,137.45Z"/><path class="cls-2" d="M210.08,61.35c1.79,1.25,6.48,8.11,7.47,10.93a22.77,22.77,0,0,0-.1,15.57c-1.62,5.92-.52,12-.67,17.94-.21,8.59-.36,17.2.06,25.78.25,5.11-1.27,7.09-6.33,5.88-1.36-9.31-.34-18.68-.56-28-.18-7.53,0-15.07-.06-22.61-.07-6.28-2.45-8.67-8.67-8.76q-9.65-.12-19.29,0c-6.2.07-8.51,1.91-8.65,8.09-.32,15.18-.24,30.36-.36,45.54,0,2-.25,4-.39,6l-5.9-.48q0-36.78,0-73.55c10.55-1,21.12-.16,31.68-.47,1.93-.06,4.06.65,5.69-1.11A6.33,6.33,0,0,0,210.08,61.35Z"/><path class="cls-2" d="M81.8,14.72c2.41-3.43,4.62-7,7.86-9.77,5.59-4.79,11.93-4.77,17.1.36q15.57,15.43,31,31,3.63,3.84,7.27,7.69c-14.37-.09-28.74,1.09-43.11.23-.11-2.78-2.54-3.9-4.09-5.6-5.65-6.2-12.79-11.14-16.13-19.28C82.44,17.8,81.91,16.26,81.8,14.72Z"/><path class="cls-2" d="M130.94,117.16a6.16,6.16,0,0,1-5,1.85c-7,0-14-.06-21,0-4.3,0-6.65-2.06-6.71-6.24C98.11,100.52,98,88.26,98.12,76c0-4.65,2.79-7,7.43-7,6.81,0,13.61.08,20.41,0,4.11-.08,6.58,2,6.66,5.76.29,12.85.18,25.72.17,38.58A5.47,5.47,0,0,1,130.94,117.16Z"/><path class="cls-3" d="M60.82,68a2,2,0,0,1-2.61-.45Z"/></svg>