<svg id="Layer_1" data-name="Layer 1" xmlns="http://www.w3.org/2000/svg" viewBox="0 0 191.69 149.73"><defs><style>.cls-1{fill:#f15bb5;}</style></defs><title>CITC-icon</title><path class="cls-1" d="M20.77,109.62c11.22,10.84,25.67,16,41.53,16.27a40.91,40.91,0,0,0,7.51-.31c14.73-2.55,27.5,2.1,39.58,10.06,10.07,6.64,21.22,10.86,33,13.53a19.66,19.66,0,0,0,4.82.56c6.58-.24,12.23-3.5,13.42-8.31,1.68-6.82-.48-12.83-5.37-17.77a51.21,51.21,0,0,0-5.88-4.44c.27-.84.42-1.41.63-1.95,4.74-11.77,9.49-23.54,14.34-35.57,2.19.42,4.3,1,6.46,1.24,7.84,1,15.5-2.75,17.9-8.58,2.31-5.6-.14-11.58-6.62-16.73.29-2.6.56-5,.79-7,2.67-5.1,6.06-9.87,7.76-15.16,4-12.44-3.35-23.93-16.21-26.5a25.09,25.09,0,0,0-30,26.15c.24,3.56-3.94,6.51-7.39,5.62-12.76-3.28-20.9-12.54-29.31-21.75C92,1.78,60.62-7.74,31.77,8,.64,25-15.52,74.54,20.77,109.62Zm142.6-74.37c-2.22-3-1.74-7.26,1.24-8.91a5.5,5.5,0,0,1,7.49,1.47c2.26,2.75,1.52,6.72-1.51,8.88C168.06,38.48,165.38,38,163.37,35.25Zm-129.64,35C30.85,54.8,38.89,40.48,53.45,33.88c13.69-6.21,30.63-2.33,40,9.68,7.17,9.22,15.81,16.15,26.75,20.28,4.62,1.75,9.1,3.9,13.93,6-5.27,12.56-10.4,24.77-15.69,37.42-3.91-1.28-7.39-2.09-10.61-3.52-11.93-5.29-24.2-6.69-37.19-5C51.18,101.19,36.76,86.41,33.73,70.24Z"/></svg>