<svg id="Layer_1" data-name="Layer 1" xmlns="http://www.w3.org/2000/svg" viewBox="0 0 192.57 145.85"><defs><style>.cls-1{fill:#00f5d4;}.cls-2{fill:#fff;}</style></defs><title>CITC-icon</title><path class="cls-1" d="M166,130.18c-4-.17-6.84-2.17-7.93-6a23.63,23.63,0,0,1-.84-6.31c-.07-11.34,0-22.67,0-34V82.5h-7.94V0H129.84c0,2.12.06,4.15,0,6.17,0,1,.18,1.65,1.22,1.85s1.09.74,1.09,1.61c0,6.37,0,12.76,0,19.14,0,1.15.2,1.92,1.38,2.21.9.24,1.11.82,1.11,1.73q0,30.65,0,61.27v1.3c-1.94,0-3.72,0-5.49,0a2,2,0,0,1-1.33-.63c-2.1-2.38-4.16-4.8-6.19-7.23a4.69,4.69,0,0,1-.83-1.46c-1.46-4.35-2.86-8.72-4.34-13.06-4.22-12.4-8.46-24.78-13.63-36.82a37.2,37.2,0,0,0-7.24-11.64c-5.22-5.36-11.47-8.8-19.05-8.89-14-.15-28,0-42,0-.37,0-.75,0-1.17.07v8.19h3.38c-1.1,14.69-2.2,29.23-3.29,43.85H31.93q-8.87,0-17.75,0A1.58,1.58,0,0,0,13,68C11,71.23,8.83,74.4,7,77.74,5.58,80.3,4.56,83.09,3.25,86h9.08v5.34H11.12c-2.78,0-5.57,0-8.35,0-.34,0-.92.26-1,.5-.46,2-.82,4-1.23,6.19h9v5.34H.22a5.26,5.26,0,0,0-.12.77,71.46,71.46,0,0,0,1.34,18.92,57.21,57.21,0,0,0,2.61,7.41,1.68,1.68,0,0,0,1,.94c1.4.11,2.83,0,4.26,0A21.58,21.58,0,0,1,29.57,107.2a20.58,20.58,0,0,1,14.83,5c5.91,5,8.32,11.53,7.6,19.31H97.52v4.43h9c-3.64-11-1.6-20.6,7.79-27.7,7.74-5.85,16.62-6.61,24.89-1.57C152,114.46,153.91,125.82,148,139h44.59v-7.6C183.73,131,174.86,130.59,166,130.18ZM109.81,73.72c-3.28-3.85-6.57-7.69-9.92-11.61L95.55,65c-.9-1.29-1.76-2.54-2.7-3.88l-4.14,2.87c.86,1.27,1.69,2.49,2.6,3.86-1.33.89-2.65,1.76-4,2.68C93,80.31,98.73,90.07,104.52,100c-.42,0-.66,0-.89,0-6.34,0-12.7,0-19,0-.82,0-1.07-.23-1.19-1.05-.67-4.51-1.38-9-2.13-13.5A12.11,12.11,0,0,0,78.12,79a8.51,8.51,0,0,0-6.34-2.88c-2.81,0-5.62,0-8.45,0H62.18c-.34-2.49-.53-4.9-1-7.26A57.09,57.09,0,0,0,59.27,62,5.39,5.39,0,0,0,54,58.06C52.5,58,51,58,49.5,58a2.26,2.26,0,0,0-2.36,2.57c.42,8.86.88,17.72,1.32,26.58,0,1,.14,1.92.12,2.88a1.45,1.45,0,0,0,.93,1.47q15.63,8.15,31.25,16.32a3.75,3.75,0,0,0,1.71.41c6,0,12.06,0,18.08,0h1.19c-.81,1.73-1.56,3.33-2.34,4.91a1,1,0,0,1-.76.38q-9,0-18,0a2.48,2.48,0,0,1-1.09-.34q-20.05-10.51-40.12-21a1.17,1.17,0,0,1-.75-1.31c.48-6.26.93-12.5,1.4-18.76S41,59.75,41.5,53.57l1.86-24.73c.13-1.66.24-3.33.37-5.15h1.38c9.92,0,19.83,0,29.74,0,7.38-.05,13.17,3.08,17.82,8.61a33.37,33.37,0,0,1,4.84,8.51c4.65,10.6,8.53,21.49,12.39,32.39A.59.59,0,0,1,109.81,73.72Zm34.7-55.81c.18.07.31.43.33.67,0,.67,0,1.34,0,2.15L142.94,20l-3.68-1.46h0l-1.8-.74a.94.94,0,0,1-.18-.12,1.2,1.2,0,0,1-.28-.41,1,1,0,0,1-.06-.22c0-.14,0-.27,0-.41,0-.54,0-1.1,0-1.76C139.52,15.9,142,16.88,144.51,17.91Zm.34,9.76-5.93-2.36c-2.25-.89-2.25-.89-1.92-3.49,2.51,1,4.92,1.95,7.31,2.93a.65.65,0,0,1,.25.18,1.19,1.19,0,0,1,.15.18.64.64,0,0,1,.12.29c0,.49,0,1,0,1.54C144.85,27.17,144.85,27.41,144.85,27.67Zm.05-15.21c0,.35-.08.77-.15,1.31-2.52-1-4.91-1.93-7.3-2.91a.68.68,0,0,1-.18-.13,1,1,0,0,1-.16-.19l-.07-.11a.92.92,0,0,1-.11-.33c0-.14,0-.27,0-.41,0-.54,0-1.1,0-1.75l5.94,2.33.48.19.38.16a4.29,4.29,0,0,1,.65.33,1.57,1.57,0,0,1,.19.15s0,0,.05.05A1.54,1.54,0,0,1,144.9,12.46Z"/><path class="cls-1" d="M127.89,107.58A19.14,19.14,0,1,0,147,126.76,19.21,19.21,0,0,0,127.89,107.58Zm.09,29.16a10,10,0,1,1,10-10A10.07,10.07,0,0,1,128,136.74Z"/><path class="cls-1" d="M30.66,111.34a17.26,17.26,0,1,0,17.27,17.25A17.27,17.27,0,0,0,30.66,111.34Zm0,26.74a9.49,9.49,0,1,1,9.4-9.52A9.52,9.52,0,0,1,30.7,138.08Z"/><path class="cls-2" d="M144.75,13.77c-2.51-1-4.92-1.93-7.3-2.91a1.1,1.1,0,0,1-.53-.76c-.07-.66,0-1.34,0-2.16l5.94,2.33C145.08,11.16,145.08,11.16,144.75,13.77Z"/><path class="cls-2" d="M144.85,20.74c-2.59-1-5-2-7.4-2.95a1.08,1.08,0,0,1-.53-.76c-.07-.66,0-1.34,0-2.17,2.62,1,5.12,2,7.61,3.05.18.07.31.43.32.67C144.88,19.25,144.85,19.93,144.85,20.74Z"/><path class="cls-2" d="M137,21.82c2.51,1,4.91,1.95,7.3,2.93a.92.92,0,0,1,.52.65c.07.69,0,1.4,0,2.27l-5.94-2.36C136.67,24.42,136.67,24.42,137,21.82Z"/><path class="cls-1" d="M94.07,51.74l2.55,3.78L82.55,65,80,61.24Z"/></svg>