<svg id="Layer_1" data-name="Layer 1" xmlns="http://www.w3.org/2000/svg" viewBox="0 0 192.76 193.64"><defs><style>.cls-1{fill:#c2d9ed;}.cls-2{fill:#f27778;}.cls-3{fill:#fefefe;}.cls-4{fill:#5c3400;}</style></defs><title>CITC-icon</title><rect class="cls-1" width="193.64" height="193.64" rx="17.28"/><path class="cls-2" d="M132.13,89.29a.86.86,0,0,1-.89,1h-.05l.06-.06h0Z"/><path class="cls-2" d="M143.56,40.14c-5,3.89-10,7.75-14.93,11.69Q98.39,76,68.23,100.23A189.21,189.21,0,0,1,56.87,76.07Q90.23,49.52,123.6,23a5,5,0,0,0,.88-1.33c5.32.14,9.09,2.3,11.45,5.94C138.61,31.72,141,36,143.56,40.14Z"/><path class="cls-3" d="M146,55.63c-4.11,8-7.78,16.21-11.63,24.32l-.93,1h0c-11.7,8.27-22.42,17.3-33.18,26.31-6.93.06-13.86.31-20.77.11-5.76-.14-10-2.32-11.23-7.15Q98.41,76,128.63,51.83c4.92-3.94,10-7.8,14.93-11.69C148.23,44.93,148.86,50,146,55.63Z"/><path class="cls-3" d="M124.48,21.65A5,5,0,0,1,123.6,23Q90.26,49.55,56.87,76.07L45.94,52.78,84.19,21.92C97.62,21.12,111.05,21.63,124.48,21.65Z"/><path class="cls-2" d="M84.19,21.92,45.94,52.78a8.64,8.64,0,0,1,.3-8.31c3.49-5.9,7.1-11.75,10.91-17.53a12.5,12.5,0,0,1,10.1-5.35C72.88,21.28,78.57,20.89,84.19,21.92Z"/><path class="cls-2" d="M133.42,81s0,0,0,.06c-1.9,7.37-5.83,14.2-9.34,21.1-1.77,3.44-5.71,5.28-10.61,5.28-4.4,0-8.81-.07-13.22-.12,10.76-9,21.48-18,33.18-26.31Z"/><path class="cls-4" d="M160,39.75q-1.44-2.3-2.91-4.61l-.5-.78c-2.07-3.27-4.2-6.65-6.2-10-5.36-8.93-14.65-13.47-27.61-13.47h-26l-5.34,0H88l-8.61,0c-4.31,0-7.91,0-11.32.07-11.43.12-19.92,4.3-25.21,12.4-1.41,2.15-2.76,4.38-4.07,6.54l-.34.55c-1.46,2.44-3.3,5.48-5.21,8.33C29.15,44.85,28.7,51,31.88,57.69c4.61,9.66,9.27,19.76,13.38,28.67,2.07,4.51,4.15,9,6.25,13.49,7.11,15.28,14.81,18.18,32.94,18.66H89l1.29,4.31c2.18,7.37,7,13.41,14.3,18a17,17,0,0,1,6.87,7.26,13.81,13.81,0,0,1-2.19,15.45,15.6,15.6,0,0,1-12.4,5.93,21,21,0,0,1-5.5-.78c-6.9-1.88-10.88-6.6-11.51-13.67-.48-5.49-3.19-8.29-8-8.32H71.5a6.54,6.54,0,0,0-4.83,2.07c-2.08,2.28-2.3,5.67-2.12,8.1,1,13.26,12,25,25.52,27.38a35.72,35.72,0,0,0,6.05.52c13,0,24.62-7.4,29.58-18.84a30.1,30.1,0,0,0-9.82-35.87c-.2-.16-.41-.31-.61-.45l-1.44-.87L108,125.21c-1.9-4.36,1.54-6.93,4.67-8.29l.15,0h4.87A23.8,23.8,0,0,0,137,107l1.17-1.62a6.59,6.59,0,0,0,1.17-1.62c7.77-16.25,15.18-32.34,22-47.31C163.89,50.82,163.45,45.2,160,39.75Zm-60,80.71-.09,0,.13,0ZM146,55.63c-4.11,8-7.78,16.21-11.63,24.32l-.93,1s0,0,0,.06c-1.9,7.37-5.83,14.2-9.34,21.1-1.77,3.44-5.71,5.28-10.61,5.28-4.4,0-8.81-.07-13.22-.12-6.93.06-13.86.31-20.77.11-5.76-.14-10-2.32-11.23-7.15A189.21,189.21,0,0,1,56.87,76.07L45.94,52.78a8.64,8.64,0,0,1,.3-8.31c3.49-5.9,7.1-11.75,10.91-17.53a12.5,12.5,0,0,1,10.1-5.35c5.63-.31,11.32-.7,16.94.33,13.43-.8,26.86-.29,40.29-.27,5.32.14,9.09,2.3,11.45,5.94,2.68,4.13,5.1,8.36,7.63,12.55C148.23,44.93,148.86,50,146,55.63Z"/></svg>