<svg id="Layer_1" data-name="Layer 1" xmlns="http://www.w3.org/2000/svg" viewBox="0 0 202.18 127.02"><defs><style>.cls-1{fill:none;}.cls-2{fill:#fe5454;}</style></defs><title>CITC-icon</title><path class="cls-1" d="M161.51,103.3a6.88,6.88,0,0,0-7.1,6.71,7,7,0,0,0,6.94,7.27,7.17,7.17,0,0,0,7-7A6.86,6.86,0,0,0,161.51,103.3Z"/><path class="cls-1" d="M45.67,94.42A3.84,3.84,0,0,1,42,98.24a3.71,3.71,0,0,1-3.73-3.69A3.51,3.51,0,0,1,42,90.88,3.68,3.68,0,0,1,45.67,94.42Z"/><path class="cls-1" d="M69.9,103.28A6.92,6.92,0,0,0,63,110.22a7.11,7.11,0,0,0,6.88,7.06,7,7,0,0,0,7-7.07A6.89,6.89,0,0,0,69.9,103.28Z"/><path class="cls-1" d="M93.48,82.7c0,1.26-.51,1.56-1.66,1.55-5.67,0-11.33,0-17,0H58c-1.8,0-2.09-.49-1.23-2,4-7,8-13.91,12-20.85a8.13,8.13,0,0,1,7-4.15c5.38-.19,10.78,0,16.17-.08,1.13,0,1.54.38,1.53,1.51Q93.43,70.69,93.48,82.7Z"/><path class="cls-1" d="M125.58,67.06c0,2.2,0,4.41,0,6.62l-.59.23a11.66,11.66,0,0,1-1.55-.87q-2.67-2.12-5.28-4.32a1.19,1.19,0,0,1-.35-.83q0-6.28,0-12.58c0-.09.11-.17.35-.52l7.73,4.88C125.79,62.37,125.64,64.71,125.58,67.06Z"/><path class="cls-2" d="M202.17,84.32c0-2.43-.55-3-2.94-3H173.35c.14-1.43.34-2.55.35-3.68q0-14.3,0-28.61c0-2.35-.65-3-3-3q-10.8,0-21.59,0c-.67,0-1.33.42-2,.49-.94.08-2.08.34-2.81-.06-3.64-2-7.23-4.06-10.82-6.12l-2-11.27h0l.4-.11L126,27.53c-5.42-1.28-10.87-2.48-16.29-3.75-6.57-1.53-13.14-3.12-19.72-4.65-5.16-1.22-10.33-2.39-15.48-3.61L55.57,11,39.94,7.35c-3.51-.84-7-1.65-10.61-2.48a5.74,5.74,0,0,1-.68,1.36c-.34.34-.9.76-1.3.7a45.75,45.75,0,0,1-4.92-1c-2.3-.62-2.28-.66-2-3a11,11,0,0,0-1.19-.39C15.9,1.68,12.57,1,9.28.11c-1.14-.31-1.43,0-1.68,1C6.76,4.54,5.87,8,5,11.39,4.33,14,3.66,16.61,3,19.2c.46.37.72.73,1,.82,1.72.47,1.88,1.67,1.87,3.22,0,11.23,0,22.46,0,33.68V59c-1.09,0-1.95,0-2.8,0-1-.06-1.48.36-1.46,1.43q0,5.07,0,10.14c0,.91.33,1.29,1.25,1.25s2.13,0,3.22,0c.2,2.07.66,4-1.78,4.77-.28.09-.49.39-.74.59a9.26,9.26,0,0,0-.74,14,9.48,9.48,0,0,0,8.1,2.54c4.09-.56,8.12-4.06,8.21-8.86-1.45,0-2.91,0-4.36,0s-2.71-.13-3.73,1.3a2.7,2.7,0,0,1-2.46.32,2.56,2.56,0,0,1-1.34-1.93,3.64,3.64,0,0,1,1.27-2.2,3.06,3.06,0,0,1,1.86-.37c3,0,2.74.28,2.75-2.87,0-2.38,0-4.76,0-7.28,1.11,0,2-.05,2.84,0,1.06.08,1.44-.33,1.43-1.41-.05-3.32-.07-6.64,0-10,0-1.21-.48-1.52-1.56-1.44-.85.06-1.7,0-2.63,0V26c.24-.21.44-.41.63-.6l1.29-3.27A6.76,6.76,0,0,1,16,20.82a2,2,0,0,1,1.42-.72c2,.37,3.88,1,5.84,1.34,1.19.21,1.38.81,1.18,1.81-.07.34-.13.67-.2,1l13.31,3.18,2.73.64C45.84,29.39,51.44,30.64,57,32c6,1.42,12.08,2.91,18.13,4.34q7.38,1.76,14.8,3.47l2.61.57c.64.35,1.29.69,1.93,1,3.44,2,6.87,4,10.31,6,1.65,1,2.91,1.82,2.85,4.26-.21,9.2-.08,18.42-.08,27.63v1.95H103v-2q0-14.72,0-29.43c0-2.13-.28-2.41-2.48-2.41-7.19,0-14.39,0-21.59,0a28,28,0,0,0-5.5.36c-4.68,1-8.91,3-11.71,7-2.25,3.22-4.14,6.7-6.11,10.11-3.14,5.43-6.22,10.89-9.31,16.34a2.25,2.25,0,0,1-2.22,1.24,36.7,36.7,0,0,0-5.84.32,10.45,10.45,0,0,0-8.56,9.88q0,12.35,0,24.69c0,1.94.46,2.39,2.4,2.39q9.33,0,18.65,0c.45,0,.9-.08,1.41-.12A20,20,0,0,1,56.66,95.3c6.45-5.62,15.36-7,22.64-2.6,10.42,6.27,12.93,15.56,8.55,26.88H143.6a20,20,0,0,1,6.63-25.91,19.79,19.79,0,0,1,23.84,1.18,18.9,18.9,0,0,1,5.82,8.08c2.15,5.58,1.76,11.1-.85,16.85,2.42-.17,4.59-.18,6.7-.48A19.38,19.38,0,0,0,202.16,100C202.21,94.78,202.17,89.55,202.17,84.32ZM42,98.24a3.71,3.71,0,0,1-3.73-3.69A3.51,3.51,0,0,1,42,90.88a3.68,3.68,0,0,1,3.7,3.54A3.84,3.84,0,0,1,42,98.24Zm49.79-14c-5.67,0-11.33,0-17,0H58c-1.8,0-2.09-.49-1.23-2,4-7,8-13.91,12-20.85a8.13,8.13,0,0,1,7-4.15c5.38-.19,10.78,0,16.17-.08,1.13,0,1.54.38,1.53,1.51q0,12,0,24C93.49,84,93,84.26,91.82,84.25Zm33.76-17.19c0,2.2,0,4.41,0,6.62l-.59.23a11.66,11.66,0,0,1-1.55-.87q-2.67-2.12-5.28-4.32a1.19,1.19,0,0,1-.35-.83q0-6.28,0-12.58c0-.09.11-.17.35-.52l7.73,4.88C125.79,62.37,125.64,64.71,125.58,67.06Z"/><path class="cls-2" d="M161.43,93.13a17.18,17.18,0,0,0-17.21,17c.16,9.82,7.51,17.34,17.22,17.2,10.11-.14,16.88-7.21,17-17.19C178.59,100.83,171.37,93.3,161.43,93.13Zm-.08,24.15a7,7,0,0,1-6.94-7.27,7,7,0,0,1,13.94.32A7.17,7.17,0,0,1,161.35,117.28Z"/><path class="cls-2" d="M69.9,93.17c-10.27.09-17.19,7.6-17.1,17.12.09,10.09,7.13,16.89,17,17.06,9.71.16,17.06-7.47,17.19-17.07A16.92,16.92,0,0,0,69.9,93.17Zm-.06,24.11A7.11,7.11,0,0,1,63,110.22a6.94,6.94,0,1,1,13.87,0A7,7,0,0,1,69.84,117.28Z"/></svg>