<svg id="Layer_1" data-name="Layer 1" xmlns="http://www.w3.org/2000/svg" viewBox="0 0 192.76 79.03"><defs><style>.cls-1{fill:#fee440;}</style></defs><title>CITC-icon</title><path class="cls-1" d="M192.76,64.36v1.51l-15.76,0h-3.45c-.43-.9-.85-1.82-1.3-2.75l-4.86-.38v-23l5.77-2.52c1.65,4.52-1,9.33,2.46,13.76V63.37Z"/><path class="cls-1" d="M98,19.84C95,13.92,92.37,8.53,89.73,3.15c.78-1,1.48-1.91,2.46-3.15h-45l3.25,3.91c-1.48,5.53-3,11.33-4.64,17.31L9.81,22.5c0,.49,0,1,.07,1.47h3.9c6.56,0,13.13.05,19.69,0,5.81-.05,7.93,4.88,11.35,8.22-1.48.08-3.07-.14-3.72-1-3.37-4.61-8-5.3-13.21-4.92-4,.29-8,.06-12,.06H4.61c-6.18,10-6.07,26.88-.12,34.26h7.15c2.77-15.9,10.79-23.46,24.41-23.27A21.79,21.79,0,0,1,50.65,43c6.49,5.78,8.29,13.36,7.51,21.78H99.74c-1.3-9.29,1.29-17,7.92-23.53l-13.1.71-2.94,3.89H68.35V32.55H99.06c-1,2.27-1.87,4.19-3.08,6.92,6.6-.43,12.63-.47,18.56-1.33,5.43-.79,10.71-1.5,16.65.69V18.51ZM16.54,34.06l-1.36,0c-.64-1.18-1.66-2.33-1.78-3.56-.06-.61,1.53-1.91,2.39-1.92s2.5,1.25,2.46,1.85C18.16,31.7,17.17,32.87,16.54,34.06ZM64,39.8H55.83L47.05,29.24c1.83-8.38,3.75-17.07,5.71-26H64Zm4.32-11.06V3.29H87.23l11,25.45Z"/><path class="cls-1" d="M52.85,53.21c-1.5-2.26-2.74-4.14-4.25-6.45l-5.83-3.84L35.3,41.15c-2.56.54-5,1.07-7.33,1.55-2.2,1.44-4.42,2.89-5.76,3.75-1.91,2.68-3.31,4.62-4.37,6.1-.67,2.83-1.24,5.24-1.78,7.49.57,2.51,1.15,5,1.64,7.17l3.89,6,6.23,4.29,7.4,1.5c2.54-.53,5-1,7.14-1.5l5.92-3.76,4.5-6.37c.45-2.51.91-5,1.32-7.24C53.63,57.56,53.18,55.07,52.85,53.21Zm-17.73,17a10,10,0,0,1-10-10A9.79,9.79,0,0,1,35.29,50.22a9.76,9.76,0,0,1,10,9.87A10,10,0,0,1,35.12,70.23Z"/><path class="cls-1" d="M139.46,52.21l-3.65-5.46a49.24,49.24,0,0,1-5.27-4,3.59,3.59,0,0,0-1.69-.58c-2.22-.28-4.45-.5-7.15-.79l-6.57,1.4-5.68,3.65-5,6.83.5.07c-.56,2.32-1.12,4.64-1.58,6.63q.78,3.93,1.48,7.39l4,6.06c2.11,1.42,4.19,2.81,6.14,4.1L121.91,79,129,77.74l6.36-3.94c1.94-2.75,3.33-4.7,4.21-5.93.76-3.12,1.35-5.51,1.91-7.81C140.94,57.87,140.34,55.59,139.46,52.21Zm-17.13,18a10.24,10.24,0,0,1-10.18-10.16,10.2,10.2,0,1,1,10.18,10.16Z"/><path class="cls-1" d="M161.86,55q-10.19-7.74-20.4-15.54c-.26-1.77-.45-3.07-.7-4.85h-6.18V21.72h13.73c2.85,5.33,5.93,11.16,9.07,17,2,3.71,4.09,7.38,6.16,11.06C164.78,52,164.28,53.62,161.86,55Z"/><path class="cls-1" d="M156.39,29.47c-.16,1-.32,2-.57,3.61l-4.73-8.88,3.85-5.8c3.65,9.81,6.93,18.62,10.2,27.43l.44-.18v4.24l-8.53-20.56Z"/><path class="cls-1" d="M165.48,54.7v4.67l-3.63-2.74Z"/><path class="cls-1" d="M40,60.17a4.77,4.77,0,0,1-9.53-.08,4.56,4.56,0,0,1,5-4.53A4.51,4.51,0,0,1,40,60.17Z"/><path class="cls-1" d="M122.56,64.82a5.12,5.12,0,0,1-5-4.67,4.81,4.81,0,0,1,4.67-4.56,4.69,4.69,0,0,1,5,4.54A5.05,5.05,0,0,1,122.56,64.82Z"/></svg>