<svg id="Layer_2" data-name="Layer 2" xmlns="http://www.w3.org/2000/svg" xmlns:xlink="http://www.w3.org/1999/xlink" viewBox="0 0 397 126"><defs><style>.cls-1{fill:url(#New_Gradient_Swatch_1);}.cls-2{fill:url(#New_Gradient_Swatch_1-2);}.cls-3{fill:url(#New_Gradient_Swatch_1-3);}.cls-4{fill:url(#New_Gradient_Swatch_1-4);}</style><linearGradient id="New_Gradient_Swatch_1" x1="1.5" y1="200" x2="111" y2="200" gradientUnits="userSpaceOnUse"><stop offset="0" stop-color="#faa61a"/><stop offset="1" stop-color="#e68a06"/></linearGradient><linearGradient id="New_Gradient_Swatch_1-2" x1="289" x2="398.5" xlink:href="#New_Gradient_Swatch_1"/><linearGradient id="New_Gradient_Swatch_1-3" x1="127.76" y1="63.4" x2="159.7" y2="63.4" xlink:href="#New_Gradient_Swatch_1"/><linearGradient id="New_Gradient_Swatch_1-4" x1="173.39" y1="63.4" x2="282.92" y2="63.4" xlink:href="#New_Gradient_Swatch_1"/></defs><title>CITC-logo</title><path class="cls-1" d="M111,176.44V146.78s-65.39-30.3-97.5,15.77C-2,184.73-2.62,214.48,12.3,237c13.78,20.84,41.85,38.19,98.7,14.71V222.08s-49.47,31.33-71.31.07c-9.6-13.75-9.49-32.47,1-45.55C50.7,164.15,70.84,155.11,111,176.44Z" transform="translate(-1.5 -137)"/><path class="cls-2" d="M398.5,176.44V146.78s-65.39-30.3-97.5,15.77c-15.46,22.18-16.12,51.93-1.2,74.48,13.78,20.84,41.85,38.19,98.7,14.71V222.08s-49.47,31.33-71.31.07c-9.6-13.75-9.49-32.47,1-45.55C338.2,164.15,358.34,155.11,398.5,176.44Z" transform="translate(-1.5 -137)"/><rect class="cls-3" x="127.76" y="2.94" width="31.94" height="120.93"/><polygon class="cls-4" points="173.39 2.94 282.92 2.94 282.92 25.75 244.13 25.75 244.13 123.87 212.18 123.87 212.18 25.75 173.39 25.75 173.39 2.94"/></svg>