<svg id="Layer_1" data-name="Layer 1" xmlns="http://www.w3.org/2000/svg" viewBox="0 0 190.84 130.88"><defs><style>.cls-1{fill:#f39d0f;}.cls-2{fill:#f39d10;}.cls-3{fill:#ae7124;}.cls-4{fill:#f19c11;}.cls-5{fill:#979290;}.cls-6{fill:#4d4847;}.cls-7{fill:#fff;}</style></defs><title>CITC-icon</title><path class="cls-1" d="M168.79,120.35H116c-1.78-6.81,1.1-12.43,4.61-17.88h52.76C175.18,109.28,172.28,114.89,168.79,120.35Z"/><path class="cls-1" d="M150.46,10.54c12,0,24.07,0,36.11-.19,2.83,0,3.94.64,4.07,3.78.62,14.48.73,14.49-13.77,14.46-10.7,0-21.39-.1-32.09-.16C144.4,21.75,145.36,15.49,150.46,10.54Z"/><path class="cls-1" d="M140.43,28.77c-9.21-9.72-20.59-15.45-33.58-18.21H170c1.19,6.66-1.59,12.3-4.61,17.89Z"/><path class="cls-2" d="M175.77,102.46a5.51,5.51,0,0,1,.57-.06c17.3.16,13.77-3.22,14.25,14.9.06,2.56-1,3.3-3.38,3.23-5.33-.15-10.67-.12-16-.17C170.89,113.93,173.23,108.17,175.77,102.46Z"/><path class="cls-3" d="M142.36,28.44q2.29-9,4.6-17.89h3.5q-2.85,8.94-5.68,17.89Z"/><path class="cls-3" d="M175.77,102.46c-.46,6.24-2.82,12-4.57,17.9h-2.41l4.59-17.88Z"/><path class="cls-4" d="M117.18,120.35c12.36-3.33,23.56-8.72,32.45-18.23a.74.74,0,0,1,.64.26c.08,6.59-.92,12.85-5.55,18Z"/><path class="cls-3" d="M144.72,120.36l5.55-18,2.54.09q-2.3,8.94-4.61,17.88Z"/><path class="cls-5" d="M24.8,0C9.61.68.26,8.51.15,22.1-.08,51,0,79.9.13,108.8c0,9.53,5.9,18.38,14,20.35a54.5,54.5,0,0,0,34.18-2.27c11.1-4.51,21.82-10,33.4-13.31a18.28,18.28,0,0,0,6.59-1.69c7.78-3.15,15.42-6.67,23.59-8.76a35.19,35.19,0,0,1,4.48-2.52,36.18,36.18,0,0,0,4.49-2.25c20.25-11.9,22.53-40,10.89-55.79a40.19,40.19,0,0,0-12.3-10.66c-2.47-1.48-5-2.82-7.63-4.15-6.13-1.52-11.87-4.1-17.74-6.31-4.06-1.53-7.81-4.05-12.37-4.12-7-1.42-13.2-4.85-19.66-7.59C50.06,4.65,38.26-.53,24.8,0ZM49.3,47.63c0,13.77,0,27.53,0,41.29,0,9.87-3.62,13.42-13.46,13.44-2.1,0-4.21,0-6.31,0-6.82-.19-11.12-4.27-11.25-11.06-.16-8.6,0-17.2,0-25.8,0-8.41-.09-16.82,0-25.23.09-7.52,4.27-11.58,11.77-11.73C47.57,28.19,49.3,29.9,49.3,47.63Z"/><path class="cls-6" d="M108.43,54.13c5.42,0,10.8,5.37,11,11,.18,5.83-5.32,11.64-11,11.6-5.83,0-11.51-5.63-11.51-11.32S102.59,54.17,108.43,54.13Z"/><path class="cls-7" d="M81.67,113.57c9.5-5,19.16-9.7,29.92-11.52,8-3,15.93-6,22.13-12.52A35.2,35.2,0,0,0,124.25,34c-4.09-2.08-8.47-3.4-12.66-5.18C100.84,27,91.17,22.39,81.67,17.33,92.37,11.2,104,9.7,116,10.56a44.62,44.62,0,0,1,28.9,12c1.94,1.75,4.25,3.32,4.69,6.24,13.31,16.74,17.28,35.23,10.29,55.7-2.23,6.55-6.2,12.15-10.29,17.65-6,10-15.43,14.74-26.27,17.27-2,.47-4.13.58-6.18,1C104.75,121.18,92.72,120,81.67,113.57Z"/></svg>