<svg id="Layer_1" data-name="Layer 1" xmlns="http://www.w3.org/2000/svg" viewBox="0 0 192.76 192.76"><defs><style>.cls-1{fill:#fff;}</style></defs><title>CITC-icon</title><path d="M97.88,0C45.35-.85.05,41.23,0,96.29A96.26,96.26,0,0,0,95.1,192.8c55.24.67,98-44.38,97.65-96.31C193.1,44.26,150.65.78,97.88,0ZM84.47,179.8c-.08,1.1-.21,2.19-.36,3.8-4.76-1.18-9.43-2-13.86-3.49-32.4-11.12-53-33.34-59.84-66.89-6-29.7,2.28-56,23.18-78C46.81,21.35,63.17,13,82.09,9.78c1.46-.25,2.93-.38,4.39-.62,1.15-.18,1.66.15,1.7,1.43.28,8.8.63,17.59.95,26.38,0,.19.07.51,0,.54-2.06.89-1,2.89-1.43,4.32s-.1,3,0,4.46c0,1.3.58,2.73.18,3.85-1.38,3.92-3.07,7.72-4.65,11.57-.14.34-.31.67-.46,1-.49,1.12-.7,2.85-1.53,3.23-1.81.82-3.92,1-5.92,1.36a.77.77,0,0,1-.54,0c-2.66-1.63-5.65-.8-8.48-1.18-.16,0-.39-.08-.46-.2-1.32-2.07-3.52-2.26-5.63-2.7a7.84,7.84,0,0,1-1.85-1.07c.62-.51,1.22-.78,1.4-1.21a2.74,2.74,0,0,0,.18-2c-1-1.75-1.88-3.25-1.22-5.56.27-1-1.32-2.76-2.43-3.79a5,5,0,0,1-1.62-4.89,20.73,20.73,0,0,1-3.74-1.2C46.42,41,41.07,41.69,38,45.16a10.9,10.9,0,0,0-.65,13.49c.56.81.51,2.05.76,3.16.06,0,.37-.25.69-.42s.61-.3,1-.48c-.27,2.21-.27,2.21,3.46,3.29-2.37.76-3.51,2.13-3.22,4.57.06.43-1,1.43-1.4,1.39-1.35-.11-1.73.48-1.94,1.62s-.56,2-.83,3a5,5,0,0,0,.77,4.53A18.47,18.47,0,0,1,38,82.84c.95,2.17,1.44,4.87,3,6.34,2.84,2.6,4.55,5.87,6.23,9,1.84,3.46,3.71,5.8,7.88,4.72.35.8.59,1.38.84,2l.43,0,.39-2.72.6-.2a5.89,5.89,0,0,1,.51,1.61c0,.59-.48,1.23-.38,1.77a15.1,15.1,0,0,0,1,2.57l2.49-1.1c-.07.87-.14,1.74-.2,2.62-.08,1.12-.12,2.26-.25,3.38a5.84,5.84,0,0,1-.43,1.69c-1,2.35-1.91,4.74-1.18,7.31a4.66,4.66,0,0,0,1.72,2.41A2.25,2.25,0,0,1,62,126.41c-.1,3.27.6,6.14,3.59,8.18,1.15.79,1.7,2.39,2.72,3.44a12.26,12.26,0,0,0,3.47,2.77,3.37,3.37,0,0,0,4.65-1.3c.39-.62,1-1.06,1.47-1.66a3.73,3.73,0,0,1,3.92-1.91,3.67,3.67,0,0,0,4-3,36.94,36.94,0,0,0,.68-6.51,11.65,11.65,0,0,0-.25-2.17,3.27,3.27,0,0,1,2,3.61c-1,13.13-1.95,26.26-2.9,39.4C85,171.45,84.76,175.63,84.47,179.8Zm7.38-99.6c0,2.53-.17,2.67-2.77,2.11-.28-1.75-.63-3.48-.79-5.24a2.27,2.27,0,0,1,.81-1.44A7.18,7.18,0,0,1,91.83,74v4.57C91.83,79.1,91.85,79.65,91.85,80.2Zm-14.43,53c-2.77-2.68-3.77-6.16-4.57-9.72l.61-.45,3.68,4,.55-.42c-1-1.22-2-2.5-3.09-3.65-.71-.74-1.13-1.32-.5-2.38.24-.4,0-1.21-.22-1.74a4.61,4.61,0,0,0-1-1.19c2.93,0,5.8,0,8.66,0,.38,0,.93.61,1.08,1a89.06,89.06,0,0,1,2.71,8.79,10.7,10.7,0,0,1-.31,4.69,3.4,3.4,0,0,1-3.12,2.51c-1.11.14-2.23.3-1.3-1.8C79.41,134.87,78.36,134.09,77.42,133.18Zm.69,2.84c-.58.66-1.46,1.69-2.64,3-.55-2.91-1-5.27-1.36-7.22Zm-5.28,3.9c-2.32-.38-5.33-4.65-4.72-6.91l.78.86.44-.06c-.61-3.74-2.47-7.44-.58-11.82.36,2,.64,3.46.93,5A17,17,0,0,0,71,131.54c.07-.41.15-.82.23-1.23l.45-.16q1,2.94,2.05,5.87l-.7.3-1.32-2.9-.59.15ZM66.2,114.64a4.56,4.56,0,0,1,4.45,3.5c.12.47-.19,1-.3,1.58l-.69.09C69.75,117.24,67.85,116,66.2,114.64ZM83,82.89c-.09-1.33,2.37-4.78,4.11-5.39.22,1.71.74,3.33.48,4.81-.12.66-1.74,1.17-2.76,1.52-.44.15-1.09-.26-1.63-.47C83.09,83.32,83,83.06,83,82.89Zm3,33.17,1.85,2.51.8-1.44.44.1c-.21,1-.42,2-.68,3.18C87.44,118.9,84.27,119.29,86,116.06Zm-24.43-.67v8c-1.06.17-1.57-.54-1.49-1.6.15-2.16.44-4.32.67-6.47ZM91.8,184.06c-1.77-.14-3.42-.18-5-.45a1.73,1.73,0,0,1-1-1.28c.54-8.4,1.16-16.8,1.77-25.2q.85-11.69,1.73-23.36c.17-2.37.36-4.73.55-7.11,1.9-.13,1.66,1.17,1.68,2.11.09,4.68.11,9.35.14,14q.16,19.65.29,39.31C91.9,182.71,91.84,183.31,91.8,184.06ZM90.57,38c-.36-9.6-.72-19.26-1.09-29.08h2.4c0,1.36,0,2.63,0,3.91.08,7.88.18,15.76.25,23.64C92.14,37.25,92.38,38.33,90.57,38Zm22.75,144.56a79.36,79.36,0,0,1-19.94,1.52v-43.3l.46-.07c.12.5.24,1,.41,1.69.9-.71,1.71-1.17.51-2.17a1.73,1.73,0,0,1-.63-1.09c-.14-3.5-1.59-6.91-.78-10.45A4.75,4.75,0,0,1,94.51,127a15.73,15.73,0,0,1,1.22-1.23l-.34-.48-1.82.77V120l.37,0c.46,1.67.91,3.33,1.44,5.25,2.11-1.55,1.73-3.39,1.45-5.07a13.48,13.48,0,0,0-1.22-3.06c-.74-1.71-1.51-3.4-2.26-5.1l.31-.63a15.1,15.1,0,0,1,3.24.2,13.4,13.4,0,0,0,5.78.43c1.17-.16,2.61.62,3.75,1.27,3,1.71,4.07,4.38,3.92,7.8a5.38,5.38,0,0,0,1.49,3,10.26,10.26,0,0,1,2,5.05,26.59,26.59,0,0,0,2.1,6c.74,1.68,2.1,3.16,2.53,4.88a23.52,23.52,0,0,1,.41,11.9c-.87,3.31,0,4.45,3.35,4.52a15.85,15.85,0,0,0,4.78-.22c5.55-1.62,11.39-.54,16.94-2,.59-.16,1.19-.3,1.76-.51a2.62,2.62,0,0,0,1.88-2.84,2.47,2.47,0,0,0-2.33-2.47c-2.05-.18-4.12-.05-6.31-.05a16.57,16.57,0,0,0-1.42-1c-.69-.39-1.49-.62-2.14-1.07-1.49-1-2.75-2-2.78-4.32s-1-4.6-1.64-6.89c-.06-.24-.26-.47-.24-.69.32-3.56-1.42-6.48-2.76-9.58-1.18-2.75-1-2.86,1.35-4.62,1-.73,1-1.44.45-2.51-1.93-3.63-3.76-7.3-5.76-11.21,1.64-.14,3-.34,4.32.64a16.84,16.84,0,0,0,3.3,2,44.74,44.74,0,0,0,6.29,2.4,47,47,0,0,0,6.78,1.23,29,29,0,0,0,6.43.36,17.83,17.83,0,0,1,9.39,1.9,1.29,1.29,0,0,0,1.94-.69c1.46-3,2.81-5.95,2.21-9.42a4.49,4.49,0,0,1,.48-1.91c.5-1.5,1.09-3,1.51-4.5a42.27,42.27,0,0,0,1.17-5.19,17.06,17.06,0,0,0,.06-4c-.11-1.13-.3-2.37-1.85-2.6a2.91,2.91,0,0,0-3.48,1.78,51.81,51.81,0,0,0-1.39,5.45,10.33,10.33,0,0,0-1.9,1.32c-1.44,1.54-2.81,3.12-5.18,3.17-.33,0-.61.55-1,.73-.53.26-1.2.72-1.66.59-3-.88-6.1-1-9-2.7-6.86-3.94-14-7.38-21.2-10.71-3.27-1.51-6.85-2-10.26.16a3.65,3.65,0,0,1-2.45.55c-3.76-.76-6.87.69-9.89,2.61-1.45.93-2.88,1.92-5.17,1.15,0-2.22,0-4.6,0-7q-.07-6.28-.2-12.56A21.69,21.69,0,0,1,95,61.63c1.09-2.41,2-4.94,1-7.67a.87.87,0,0,1,.19-.8c1.17-.63,1.1-1.45.51-2.44a.72.72,0,0,1,.11-.68c1.67-.92.85-2.67,1.26-4,.2-.62-.39-1.59-.8-2.3-1-1.76-2-3.61-3-5.28-1.26-2.08-.86-4-.88-5.9-.1-7.33.06-14.66,0-22,0-1.66.52-2,2.11-2.05a88.21,88.21,0,0,1,86.91,69.86C192.4,126.05,161.3,173,113.32,182.54Z"/><path class="cls-1" d="M93.84,140.69l.42,1.68c.9-.7,1.71-1.16.5-2.16a1.67,1.67,0,0,1-.62-1.09c-.15-3.5-1.6-6.91-.79-10.45A4.88,4.88,0,0,1,94.51,127a14.28,14.28,0,0,1,1.23-1.23l-.34-.48-1.83.77V120l.38,0c.45,1.66.91,3.33,1.43,5.25,2.12-1.56,1.73-3.39,1.46-5.07a13.52,13.52,0,0,0-1.23-3.06c-.74-1.71-1.5-3.4-2.25-5.1l.31-.63a14.4,14.4,0,0,1,3.23.2,13.6,13.6,0,0,0,5.79.43c1.17-.16,2.6.61,3.74,1.27,3,1.71,4.07,4.38,3.93,7.8a5.36,5.36,0,0,0,1.48,3,10.17,10.17,0,0,1,2,5.05,27.27,27.27,0,0,0,2.1,6c.74,1.68,2.1,3.16,2.54,4.88a23.63,23.63,0,0,1,.4,11.9c-.87,3.31,0,4.45,3.35,4.52a15.84,15.84,0,0,0,4.78-.22c5.55-1.62,11.4-.54,16.94-2,.59-.16,1.19-.3,1.77-.51a2.6,2.6,0,0,0,1.87-2.84,2.47,2.47,0,0,0-2.33-2.47c-2.05-.18-4.12-.05-6.3-.05-.31-.21-.84-.65-1.43-1s-1.49-.62-2.13-1.07c-1.49-1-2.76-2-2.78-4.32s-1-4.6-1.64-6.89c-.06-.24-.27-.47-.25-.69.33-3.56-1.42-6.48-2.75-9.58-1.18-2.75-1-2.86,1.35-4.62a1.67,1.67,0,0,0,.45-2.51c-1.94-3.63-3.77-7.31-5.77-11.21,1.65-.15,3-.35,4.33.64a16.55,16.55,0,0,0,3.3,2,46.38,46.38,0,0,0,6.28,2.4,47.14,47.14,0,0,0,6.79,1.23,29.53,29.53,0,0,0,6.42.36,17.74,17.74,0,0,1,9.39,1.9,1.3,1.3,0,0,0,1.95-.69c1.46-3,2.81-5.95,2.2-9.42a4.51,4.51,0,0,1,.49-1.91c.49-1.51,1.08-3,1.51-4.5a42.24,42.24,0,0,0,1.16-5.19,16.56,16.56,0,0,0,.07-4c-.11-1.13-.31-2.37-1.86-2.6s-2.93.29-3.47,1.78a51.86,51.86,0,0,0-1.4,5.45,10.27,10.27,0,0,0-1.89,1.32c-1.45,1.54-2.81,3.12-5.18,3.17-.33,0-.62.55-1,.73-.53.26-1.2.72-1.67.59-3-.88-6.1-1-9-2.7-6.86-3.94-14-7.38-21.21-10.71-3.26-1.51-6.84-2-10.26.16a3.71,3.71,0,0,1-2.45.55c-3.76-.76-6.87.69-9.88,2.61-1.46.93-2.89,1.91-5.18,1.15,0-2.22,0-4.6,0-7,0-4.19-.11-8.38-.21-12.56A21.55,21.55,0,0,1,95,61.63c1.08-2.41,2-4.94,1-7.67a.87.87,0,0,1,.18-.8c1.18-.63,1.11-1.45.52-2.44a.7.7,0,0,1,.1-.68c1.67-.92.85-2.67,1.27-4,.19-.63-.4-1.59-.8-2.3-1-1.76-2-3.61-3-5.28-1.26-2.08-.85-4-.88-5.9-.09-7.33.06-14.66,0-22,0-1.66.51-2,2.1-2.05a88.2,88.2,0,0,1,86.91,69.86c10,47.65-21.06,94.59-69,104.15a79.91,79.91,0,0,1-20,1.52v-43.3Z"/><path class="cls-1" d="M54.63,44.66a21,21,0,0,1-3.74-1.2C46.42,41,41.07,41.69,38,45.16a10.89,10.89,0,0,0-.65,13.49c.56.81.5,2.05.75,3.16.07,0,.37-.25.69-.43s.61-.29,1-.47c-.27,2.21-.27,2.21,3.47,3.29-2.37.76-3.52,2.13-3.22,4.57.05.43-1,1.43-1.41,1.39-1.34-.11-1.73.48-1.94,1.61s-.56,2-.82,3a5,5,0,0,0,.76,4.53c.71,1,.89,2.35,1.4,3.5.94,2.18,1.44,4.88,3,6.35,2.85,2.6,4.56,5.87,6.24,9,1.83,3.46,3.7,5.8,7.88,4.72l.84,2,.43,0,.39-2.71.59-.2a5.57,5.57,0,0,1,.51,1.61c0,.59-.48,1.23-.37,1.77a14.32,14.32,0,0,0,1,2.57l2.49-1.1-.21,2.61c-.08,1.13-.12,2.27-.25,3.39a5.84,5.84,0,0,1-.43,1.69c-1,2.34-1.91,4.74-1.18,7.31a4.71,4.71,0,0,0,1.72,2.41A2.25,2.25,0,0,1,62,126.41c-.1,3.27.61,6.14,3.6,8.18,1.14.79,1.7,2.39,2.71,3.44a12.4,12.4,0,0,0,3.47,2.77,3.37,3.37,0,0,0,4.65-1.3c.39-.62,1-1.06,1.47-1.66a3.74,3.74,0,0,1,3.92-1.91,3.67,3.67,0,0,0,4-3,37.92,37.92,0,0,0,.69-6.51,13.64,13.64,0,0,0-.25-2.17,3.28,3.28,0,0,1,2,3.6c-1,13.13-2,26.27-2.91,39.41-.3,4.17-.57,8.35-.87,12.52-.08,1.1-.2,2.19-.35,3.8-4.76-1.18-9.44-2-13.86-3.49-32.4-11.12-53-33.35-59.85-66.89-6-29.7,2.28-56,23.18-78C46.81,21.35,63.17,13,82.1,9.78c1.45-.25,2.93-.38,4.38-.62,1.16-.18,1.66.15,1.7,1.43.29,8.8.63,17.59,1,26.38,0,.19.06.51,0,.54-2.06.89-1,2.89-1.42,4.32s-.11,3,0,4.46c0,1.3.57,2.73.18,3.85-1.39,3.91-3.08,7.72-4.65,11.57-.14.34-.31.67-.46,1-.5,1.12-.71,2.85-1.54,3.22-1.8.83-3.92,1-5.91,1.37a.79.79,0,0,1-.55,0c-2.65-1.63-5.65-.8-8.47-1.18a.7.7,0,0,1-.47-.2c-1.32-2.07-3.51-2.26-5.62-2.71a7.46,7.46,0,0,1-1.86-1.06c.63-.51,1.23-.78,1.4-1.21a2.69,2.69,0,0,0,.19-2c-1-1.75-1.89-3.25-1.23-5.56.28-1-1.32-2.76-2.42-3.8A4.92,4.92,0,0,1,54.63,44.66Z"/><path class="cls-1" d="M89.78,126.65c1.91-.12,1.67,1.18,1.68,2.12.09,4.68.11,9.35.15,14q.15,19.65.29,39.31c0,.6-.06,1.2-.09,1.95-1.78-.14-3.43-.18-5-.45a1.69,1.69,0,0,1-1-1.28c.54-8.4,1.15-16.8,1.77-25.2q.84-11.69,1.72-23.36C89.41,131.4,89.6,129,89.78,126.65Z"/><path class="cls-1" d="M77.7,126.58c-1-1.22-2-2.5-3.09-3.65-.71-.74-1.14-1.32-.51-2.38.25-.4,0-1.21-.21-1.74a4.85,4.85,0,0,0-1-1.19c2.94,0,5.8,0,8.66,0,.38,0,.93.61,1.08,1a86.46,86.46,0,0,1,2.71,8.79,10.7,10.7,0,0,1-.31,4.69A3.41,3.41,0,0,1,82,134.71c-1.12.14-2.24.3-1.31-1.8-1.22,2-2.28,1.18-3.21.27-2.77-2.68-3.78-6.16-4.58-9.72l.62-.45,3.67,4Z"/><path class="cls-1" d="M89.49,8.89h2.39c0,1.37,0,2.64,0,3.92q.14,11.82.26,23.64c0,.8.24,1.88-1.56,1.53C90.22,28.38,89.85,18.72,89.49,8.89Z"/><path class="cls-1" d="M68.75,122c.37,2,.64,3.46.93,5A17.8,17.8,0,0,0,71,131.54l.23-1.23.46-.16,2,5.87-.7.3-1.32-2.9-.6.15,1.68,6.35c-2.32-.38-5.33-4.65-4.72-6.91l.78.86.45-.06C68.72,130.07,66.86,126.37,68.75,122Z"/><path class="cls-1" d="M89.08,82.31c-.28-1.75-.63-3.49-.79-5.24a2.31,2.31,0,0,1,.81-1.44A7.27,7.27,0,0,1,91.83,74c0,1.52,0,3,0,4.57,0,.55,0,1.11,0,1.66C91.86,82.73,91.68,82.87,89.08,82.31Z"/><path class="cls-1" d="M87.12,77.5c.22,1.71.73,3.33.47,4.81-.12.66-1.74,1.17-2.76,1.52-.44.15-1.09-.26-1.62-.47-.12,0-.2-.31-.21-.47C82.92,81.56,85.37,78.11,87.12,77.5Z"/><path class="cls-1" d="M78.12,136c-.58.66-1.46,1.68-2.64,3-.55-2.91-1-5.27-1.37-7.22Z"/><path class="cls-1" d="M61.55,123.41c-1.07.17-1.57-.54-1.5-1.6.16-2.16.44-4.32.67-6.47l.83,0Z"/><path class="cls-1" d="M69.66,119.81c.1-2.57-1.8-3.79-3.45-5.17a4.55,4.55,0,0,1,4.44,3.5,4,4,0,0,1-.29,1.58Z"/><path class="cls-1" d="M89.06,117.23l-.68,3.17c-.93-1.5-4.11-1.11-2.41-4.34.67.9,1.22,1.65,1.86,2.5l.79-1.43Z"/></svg>