<svg id="Layer_1" data-name="Layer 1" xmlns="http://www.w3.org/2000/svg" viewBox="0 0 192.76 108.26"><defs><style>.cls-1{fill:#9b5de5;}.cls-2{fill:#fff;}</style></defs><title>CITC-icon</title><path class="cls-1" d="M76.14,64.76c-8.7,0-17.41-.18-26.11.07-4.8.14-6.94-1.3-6.77-6.48.32-9.76.3-19.54,0-29.3-.16-5.38,2.21-6.41,7-6C64.33,24.43,76,31,87.1,39.17c6.5,4.77,13.31,9.15,19.55,14.24,2.09,1.7,2.83,5.05,4.2,7.65-2.65,1.23-5.26,3.4-8,3.54C94,65.05,85.06,64.77,76.14,64.76Z"/><path class="cls-1" d="M192.75,5.66c0-4-1.62-5.68-5.68-5.63-10.61.13-21.22.2-31.83,0-4.81-.1-6.29,1.93-6.15,6.46.23,7.42.07,14.85.07,22.28h0c0,7.85.11,15.7,0,23.55-.06,3.81,1.51,5.3,5.3,5.26q16.55-.19,33.1,0c3.88,0,5.22-1.72,5.21-5.39C192.68,36.64,192.65,21.15,192.75,5.66Zm-23.19,7.8c-.24,5.29-.05,10.59-.05,15.89,0,5.09-.15,10.18,0,15.25.18,4.54-2.44,5.14-6.07,5.17-3.82,0-6.64-.42-6.56-5.35q.29-15.57,0-31.15c-.09-4.83,2.52-5.44,6.44-5.49C167.47,7.72,169.77,8.8,169.56,13.46ZM183.8,48.59a2.31,2.31,0,0,1-.33.28l-.38.24a3.89,3.89,0,0,1-.84.34,3.74,3.74,0,0,1-.48.12,8.78,8.78,0,0,1-2.12.15l-.63,0h-.68a13.61,13.61,0,0,1-2.92-.27,3.54,3.54,0,0,1-2.17-1.31,3.3,3.3,0,0,1-.31-.51,4.07,4.07,0,0,1-.33-1,5.88,5.88,0,0,1-.13-.77,8.42,8.42,0,0,1,0-.9c0-1.93,0-3.85,0-5.78q0-9.48,0-19,0-4.12,0-8.26c0-.25,0-.48,0-.7s.06-.42.09-.61a4.09,4.09,0,0,1,.24-.77,2.48,2.48,0,0,1,.22-.43c.08-.13.17-.25.26-.37,1.18-1.38,3.41-1.23,5.5-1.24s4,0,5.16,1.14a2.67,2.67,0,0,1,.54.75,5.39,5.39,0,0,1,.47,2.42c0,1.43,0,2.86,0,4.29q0,6.43,0,12.85h0c0,5.08-.1,10.17.05,15.25C185.1,46.45,184.68,47.77,183.8,48.59Z"/><path class="cls-1" d="M99.07,71.74H35.92l-1.76,2.41c2.35,3.32,2.79,6.63,5.13,9.95l1.1,5.14c-.4,2.9-1,5.85-1.24,9.34H96.06c-2.28-4.28-2-7.45-3.62-10.56C95.59,83.19,95.12,77.79,99.07,71.74ZM45.66,89.65c3.23-7.82,7.68-10.54,13.3-8C54.73,84.82,52.87,91.39,45.66,89.65Zm12.83-.09c4.36-4.8,6.55-10.49,15.41-9C69,84.93,67,91,58.49,89.56Zm14.81.25c4.9-8.34,7.31-9.9,14.27-8.92C83.33,85,81.15,90.77,73.3,89.81Z"/><path class="cls-1" d="M116.21,71.16c-10.76-.11-19.15,8.07-19.12,18.65a18.35,18.35,0,0,0,18.6,18.45c10.9.06,18.31-7.25,18.44-18.21C134.26,79.42,126.53,71.27,116.21,71.16Zm8.46,19.13a8.79,8.79,0,1,1-17.56-.94,8.53,8.53,0,0,1,9.29-8.23A8.38,8.38,0,0,1,124.67,90.29Z"/><path class="cls-1" d="M18.49,71.16C8,71.07.07,79,0,89.51c-.06,10.83,7.43,18.64,18,18.74S36.87,100.57,37,90.31A18.39,18.39,0,0,0,18.49,71.16Zm.08,27.62a9.08,9.08,0,0,1-9.12-8.71A8.34,8.34,0,0,1,18,81.12c5.28-.11,8.92,3.28,9.07,8.44A8.93,8.93,0,0,1,18.57,98.78Z"/><path class="cls-1" d="M106.23,46.85c-3.16-6.43-8.75-8.09-10.84-12.35,11.64-6.17,26.35-14.71,37.85-20,2.48-1.13,7,1,9.93,2.66,1,.56.5,3.57,1.06,5.83a28.32,28.32,0,0,1-.51,12.72C141,44,136.06,43,128.54,38.81c-4.68-2.6-8.14-2.22-12,.53C113.25,41.67,110,44.07,106.23,46.85Z"/><path class="cls-1" d="M38.17,43.78c0,4.65,0,9.3,0,13.95,0,3.35.64,7.15-4.71,7-4.91-.1-10.92.49-11.43-6.06a195.92,195.92,0,0,1,0-29.77c.5-6.56,6.46-6,11.39-6.11,5.33-.12,4.74,3.61,4.76,7C38.18,34.47,38.17,39.12,38.17,43.78Z"/><path class="cls-2" d="M59,81.7c-4.23,3.12-6.09,9.69-13.3,8C48.89,81.83,53.34,79.11,59,81.7Z"/><path class="cls-2" d="M73.9,80.6C69,84.93,67,91.05,58.49,89.57,62.85,84.76,65,79.07,73.9,80.6Z"/><path class="cls-2" d="M73.3,89.81c4.9-8.33,7.31-9.89,14.27-8.92C83.33,85,81.15,90.77,73.3,89.81Z"/></svg>