<?xml version="1.0" encoding="utf-8"?>
<!-- Generator: Adobe Illustrator 24.0.2, SVG Export Plug-In . SVG Version: 6.00 Build 0)  -->
<svg version="1.1" id="Layer_1" xmlns="http://www.w3.org/2000/svg" xmlns:xlink="http://www.w3.org/1999/xlink" x="0px" y="0px"
	 viewBox="0 0 400 317.7" style="enable-background:new 0 0 400 317.7;" xml:space="preserve">
<style type="text/css">
	.st0{fill:#FFFFFF;}
	.st1{fill:none;stroke:#FFFFFF;stroke-width:30;stroke-miterlimit:10;}
	.st2{fill:#FFFFFF;stroke:#FFFFFF;stroke-miterlimit:10;}
</style>
<g>
	<path class="st0" d="M245.3,30v257.7H30V30H245.3 M275.3,0H0v317.7h275.3V0L275.3,0z"/>
</g>
<g>
	<line class="st1" x1="400" y1="302.8" x2="300.9" y2="302.8"/>
</g>
<path class="st2" d="M142.5,157.4c6.5-6.3,13-12.6,19.5-19c-3.3-3.8-8.7-9.2-16.6-13.7c-6.9-3.9-22.8-11.2-42.4-7.2
	c-4.8,1-20.1,4.3-31.5,17.8c-8.6,10.2-10.6,20.8-13,33.7c-1.7,9.1-3.2,23.3-0.4,40.8c1,5.7,5.4,26.8,23.6,38.7
	c22.4,14.8,57,9.9,81.5-14.7c-6.8-6.3-13.7-12.5-20.5-18.8c-1.2,2.1-6.2,10.4-16.6,13.7c-0.8,0.3-14.3,4.4-25.4-3.7
	c-6.8-5-8.9-11.9-11.2-19.5c-1.9-6.6-4.6-19.3-1-36.2c0.2-1.5,2.6-15.6,15.9-22.5c1.6-0.8,12.1-6,24-1.4
	C136.7,148.9,141,155.1,142.5,157.4z"/>
</svg>
