<?xml version="1.0" encoding="utf-8"?>
<!-- Generator: Adobe Illustrator 24.0.2, SVG Export Plug-In . SVG Version: 6.00 Build 0)  -->
<svg version="1.1" id="Layer_1" xmlns="http://www.w3.org/2000/svg" xmlns:xlink="http://www.w3.org/1999/xlink" x="0px" y="0px"
	 viewBox="0 0 80 56" style="enable-background:new 0 0 80 56;" xml:space="preserve">
<style type="text/css">
	.st0{fill-rule:evenodd;clip-rule:evenodd;fill:#FFFFFF;}
</style>
<title>Learn How to Code icon</title>
<path class="st0" d="M0,0h56v56H0V0z M28.9,18.3c3.9,0,6.9,2.3,8.3,5.8l10-3c-2.5-7.5-9.9-12.3-18.4-12.3
	c-11.2,0-20.1,8.3-20.1,19.8s8.9,19.8,20.1,19.8c8.6,0,16-4.7,18.4-12.2l-10-3.1c-1.4,3.5-4.4,5.8-8.3,5.8c-5.6,0-9.5-4.4-9.5-10.3
	C19.4,22.7,23.3,18.3,28.9,18.3L28.9,18.3z M64,48h16v8H64V48z"/>
</svg>
