<svg id="Layer_1" data-name="Layer 1" xmlns="http://www.w3.org/2000/svg" viewBox="0 0 400 400"><defs><style>.cls-1{fill:#4afff7;}.cls-2{fill:#ea5f62;}</style></defs><title>COVID-19_Logo</title><path class="cls-1" d="M380.11,206.5c-1.84,2.77-4.22,2.66-6.83,2.45-6.94-.53-13.93-.76-20.81-1.74-21.3-3-24.71-7.41-24.4-28.77.08-5,3.24-6.52,6.51-8.13,11.39-5.6,24-6.43,36.2-8.61,3.27-.59,4.42,2,6.3,3.64,2.95,2.67,6.59,2.41,9.81.88,3.52-1.66,4.43-5,3.69-8.75-.85-4.26-2.14-8.46-2.69-12.75s-2.64-6.23-6.76-6.36-8.27,1.3-8.73,5.49c-.59,5.4-3.92,6.23-7.89,7.41-8.91,2.65-17.86,5.08-27.1,6.21-10.62,1.31-14.42-.91-18.69-10.52-7.33-16.45-6.9-18.17,8.43-27.9,5.86-3.72,12.09-6.86,18.1-10.35,3.35-2,6.3-3.23,10.19-.45s7.15,0,9.94-2.74c3.17-3.05,2.47-6.31-.17-9.21-4.14-4.55-3.65-13.2-12.75-13.51-5.85-.2-9.28,1.51-8.52,7.58.53,4.2-1.23,6.34-4.34,8.47-8.39,5.71-16.53,11.78-25.93,15.85-7.3,3.17-13,3.33-19-3.81C282.13,96,281.58,95.3,294.16,79.55c3.44-4.31,7.15-8.41,10.86-12.49,3-3.28,5.23-7.29,11.34-5.29,3.36,1.11,6.39-2.27,7.84-5.67s.21-6.19-2.42-8.45c-3.31-2.83-6.76-5.5-10-8.38-2.79-2.47-5.47-4.25-9.2-1.61s-5.8,6.61-3.64,10.5c2.57,4.62.68,7.46-1.73,10.86-6.06,8.53-12,17.09-20,24-5,4.36-10.22,6.26-16.16,1.59a21.24,21.24,0,0,0-3.84-2c-14.43-7.21-14.88-7.9-9.76-23.66,2.5-7.69,5.89-15.1,8.81-22.66,1.1-2.85,2.36-5,6-5.2,5.14-.32,6.21-4.4,6.8-8.68.72-5.21-3.06-6.17-6.7-7.41s-7.18-2.34-10.6-3.89c-3.62-1.65-6.75-1.83-9.18,1.73-2.54,3.72-3.33,8.15.19,11.11,4.14,3.48,3,6.79,1.84,10.79-2.78,9.76-5.52,19.49-10.42,28.49-3.21,5.89-7.27,9.64-14.58,7.56a61.57,61.57,0,0,0-6.81-1.12c-13.35-2.22-14.59-3.49-15.12-17.34a188.47,188.47,0,0,1,.28-20c.35-4.95.18-9.73,5.83-13.34,5.09-3.26,2.32-9.4.6-14.33H179.94c-3.39,6.93-4.79,13.31,4.54,16.82,2.43.92,2.26,3.17,2.28,5.15.11,10.45.56,20.91,0,31.33-.37,7.37-3,13.76-12.39,13.44-1.39,0-2.8.71-4.21,1-15.36,3.5-16.57,3-22.5-12.18-2.63-6.72-4.33-13.8-6.61-20.66-1.23-3.7-2.05-6.8,1.15-10.35,3.07-3.4,1.73-7.57-.68-11.26-2.67-4.09-6-2.2-9.21-1.14-3.86,1.26-7.7,2.56-11.54,3.86-3.64,1.24-6,3.34-5.54,7.64s2.13,7.85,6.59,7.77c5.28-.09,6.85,3,8.46,6.91,4.19,10.17,8.82,20.19,10.31,31.26.72,5.36-.55,9.44-5.92,12.12-4.63,2.32-9.37,5-13,8.56-5.14,5-9.18,3.15-13.49-.48-9-7.55-15.6-17.12-22.55-26.42-2-2.65-1.06-4.6-.2-7.16,1.4-4.14-.73-7.25-4-9.7-3.51-2.61-6.42-1.36-9.31,1.22-3,2.7-6.13,5.36-9.39,7.77-3.53,2.61-4.8,5.74-2.95,9.79,1.63,3.54,4.77,5.85,8.4,4.63,6.07-2.06,9.1,1.52,12.48,5.16,6.7,7.23,13.72,14.21,18.58,22.94,2.88,5.18,3.65,9.77-1.21,14.89-4.53,4.78-7.87,10.73-11.46,16.35-2.86,4.48-5.13,6.44-11.33,3.82A203.28,203.28,0,0,1,49.66,125c-4.59-2.73-9.91-4.61-9.45-11.81.2-3.12-3.32-5.39-6-5.26-3,.14-6.81.34-8.63,4.06q-2.86,5.87-6.13,11.51c-2,3.39-2.39,6.49.83,9.33s7.22,4.4,10.22,1.51c4.58-4.42,8.39-2.11,12.55-.25,9.25,4.13,18.62,8.05,26.66,14.46,4.75,3.78,6.94,7.76,4.46,14.26a78.29,78.29,0,0,0-4.45,22.1c-.57,7.78-6.54,14.51-13.68,12.77-10.33-2.51-21,1.67-31-2.8-1.48-.66-3.21-.26-4.15-2.35-4.19-9.31-10.59-6.87-17.16-3v22.68c6.3,4.56,12.12,6,16.22-2.67A4.09,4.09,0,0,1,24.05,207c12.16-.16,24.36-1.42,36.39,1.63,5.83,1.48,10.23,3.95,9.83,11.07-.13,2.25.84,4.54,1.29,6.82,2.49,12.75,1.85,13.84-10.56,19-8.88,3.68-18.29,5.44-27.5,8-3.16.86-4.71-.66-6.7-2.53-3.61-3.4-7.43-2.14-11.16.13-4,2.41-3.09,5.55-1.77,9.05a75.83,75.83,0,0,1,3.23,10.81c.89,4.17,2.72,7.16,7.35,7.05s8.48-2.52,8.58-7c.12-5.23,3.41-6.31,6.91-7.49,8.78-3,17.57-5.91,26.48-8.4,8.3-2.33,15.62-1.46,19,8.22a16.58,16.58,0,0,0,1.73,3c7.6,12.79,7.6,13.9-3.88,23.4-6,5-12.63,9.24-19,13.74-3.49,2.45-6.65,4.89-11.63,2.15-3.77-2.08-7.15.92-9.58,4s-1.2,5.83,1,8.58c2.54,3.17,4.8,6.55,7.11,9.89S56,334,60.44,332c4-1.86,7.3-5.07,5.71-9.49s.36-6.39,3.11-8.7c8-6.71,15.8-13.72,25.12-18.64,6.67-3.52,12.3-3.82,18.68,2.23,13.72,13,14.46,14.4,4,30.4-3.66,5.57-7.92,10.73-11.79,16.17-2.09,2.94-4,5.09-8.38,4.51-4.69-.62-7,3.07-8.65,7.13-1.88,4.61,1.42,6.22,4.27,8.19,3.34,2.31,6.7,4.6,10,6.91,3.07,2.12,6.1,3.39,9.41.37s5.17-7.05,2.4-10.76c-3-4-1.49-6.78.45-10.1,5.14-8.77,10.16-17.59,17.09-25.14,5.4-5.9,10.89-8,19.13-4.4,16.74,7.4,17.63,8.09,13.34,26.24-1.6,6.75-3.68,13.39-5.72,20-1.08,3.52-2,6.78-6.9,7.71-4.68.89-5.33,5.43-5.22,9.8s3.26,4.91,6.4,5.72c3.92,1,7.81,2.17,11.74,3.2,3.61.94,7.16.93,9-2.92,1.68-3.43,2.71-7-1.24-10-3.56-2.76-4-6.63-3-10.86,2.29-10.16,3.76-20.54,8.33-30.06,3.26-6.82,7.46-10.49,16.23-9.42,18.51,2.27,18.9,1.88,21.18,21.29.75,6.33.9,12.73,1.24,19.11.22,4,0,7.27-4.12,10.38-5.57,4.25-2.84,9.81.75,14.53h8.73c1.74-2.29,3.48-2.6,5.23,0h1.74a2.23,2.23,0,0,1,2.64-1.66c4.31.47,6.61-1.73,7.27-5.7a8.61,8.61,0,0,0-4.55-9.52c-2.11-1.18-5-.68-5.7-4.3-2.38-12.89-4.53-25.79-2.58-38.9.81-5.49,4-8.71,10-10.39,18.88-5.31,20.86-4.78,29.21,13.41,2.78,6,4.92,12.37,7.5,18.51,1.28,3.06,2.07,5.55-.47,8.73-3.2,4-1.51,8.08,1.63,11.76s6.24,1.33,9.32,0c3.47-1.46,6.82-3.21,10.35-4.52,4.21-1.55,5.9-4.41,5.25-8.72s-3.14-7.39-7.43-7.05c-5.25.41-7-2.65-8.94-6.39-4.63-9-9.55-17.88-12.26-27.78-2-7.45-1.13-13,6-17.91,14.78-10.17,17.17-10.42,30.06,2.49,4.3,4.32,8.26,9,12.26,13.58,3.15,3.63,6.71,6.87,4.54,12.85-1.3,3.6,1.68,6.51,4.89,8.38,3.39,2,6,.58,8.49-1.92,3.08-3.09,6.33-6,9.55-8.93,2.78-2.56,4.53-5.21,2.17-9.09s-5.64-6.68-10-4.67c-4.56,2.13-7,0-9.87-2.62-7.58-6.79-15.12-13.61-21-22-4.69-6.74-5.8-12.79-.05-20.33,10.15-13.29,12-14.43,27.27-7.37,5.51,2.55,10.88,5.45,16.14,8.51,4.56,2.64,10.05,4.42,9.59,11.73-.17,2.8,2.93,4.67,6,5.5,3.75,1,6.5-.9,8.26-3.45,2.62-3.79,4.32-8.19,6.63-12.21,2-3.46,2.2-6.58-.91-9.41-3.41-3.1-7.74-4.16-11-.91-3.61,3.64-6.64,2.32-10.09.81-9.29-4.06-18.71-7.9-27.06-13.8-6.75-4.78-9.71-10.18-6.79-19.15,5.35-16.46,6.78-18.06,24.11-15.89,7.18.91,14.3,2.31,21.46,3.37,3.57.53,6.44,1.34,7.75,5.5s5.21,4.87,9.28,4.58c4.44-.32,5.56-3.2,6.26-6.95.39-2.07-.64-4.85,2.18-6.12V205.23C390.47,200.63,384.82,199.42,380.11,206.5ZM252.05,147.67q1.26-11.23,3.08-22.4c.81-4.93,3.59-5.85,7.18-2.36q10.62,10.31,20.92,21c3.51,3.63,2.55,6.35-2.43,7.08-7.17,1-14.38,1.77-21.58,2.63C254.78,154.06,251.45,153,252.05,147.67ZM111.39,227.12c-3.68-1.4-5.61-4.44-3.15-8.38,4.76-7.64,9.56-15.28,14.67-22.69,2.28-3.31,5.94-3.73,7.49.36,4.43,11.68,8.22,23.59,12,34.57.52,5.42-2.28,5.91-5.43,4.91C128.37,233.15,119.81,230.32,111.39,227.12Zm45.17,57.94c-4.77,2.37-8.93-4.05-13.23-6.71a161.45,161.45,0,0,1-15.53-11.18c-4.1-3.28-3.79-6.36,1.52-8.07,5.8-1.86,11.64-3.59,17.49-5.3,9.73-2.84,11.95-1.19,12.18,9,0,2.32,0,4.64,0,8C158,275,162.12,282.28,156.56,285.06Zm.15-104.48c-13.57-1.89-25.88-3.47-38.14-5.38-4.48-.69-5.2-3.6-2.15-6.73,6.85-7,13.83-14,21-20.63,3-2.8,6.73-2.46,8.95,1.15,5,8.12,9.81,16.35,14.21,24.8C163.23,178.79,160.16,180.59,156.71,180.58Zm11.48-46.65c-6.09-3.38-12.19-6.76-18.07-10.5-2.62-1.67-4.62-5.18-.86-6.93C159,112,169.11,108.34,178,104.79c4.66-.07,5.26,1.9,4.46,4.58-2.14,7.24-4.29,14.48-6.64,21.65C174.52,134.83,171.71,135.88,168.19,133.93Zm16.55,71.67c8.5,5.52,16.75,11.42,25,17.29,2.7,1.91,4.53,4.88.32,6.58-8.31,3.34-16.93,5.92-24.14,8.37-5.41.35-7.27-1.77-7.58-5.53-.59-7.2-1.39-14.4-1.62-21.62C176.56,205.08,179,201.89,184.74,205.6Zm34.52,72.45c-6.9,6.62-14.07,13-21.39,19.12-3.44,2.89-6.65,1.4-8.59-2.27-3.95-7.44-7.89-14.89-11.44-22.52-2.11-4.55-.69-7.38,6.37-6.6,10,1.84,21.43,3.86,32.82,6.08C220.83,272.61,222.2,275.23,219.26,278.05Zm.88-83.5C211.67,189,203.51,183,195.37,177c-4.36-3.21-2.85-5.9,1.51-7.33,7.69-2.53,15.45-4.86,23.24-7.08,4.51-1.29,6.53,1.19,6.77,5.4.41,7.2-.17,14.48,1.65,21.29C228.21,195.48,225.38,198,220.14,194.55Zm11.13-63.28c-8.76-2.16-17.52-4.27-26.24-6.51-4.83-1.24-5.82-3.64-1.69-7.07a53.19,53.19,0,0,1,6.88-5.33c5.21-3,9.6-12.42,15.52-8.12,6.71,4.87,9.41,14.42,11.22,23C237.83,131.34,234.54,131.84,231.27,131.27Zm30.62,149.31c-4.55,4.42-9.92,8-15,11.85-2,1.54-4.15,3.65-7,2-2.35-1.34-2.18-3.95-2.23-6.25-.09-3.77,0-7.55,0-11.32,0-20.57,0-20.8,20-15.51,5.54,1.47,14.13.12,15.45,7.17C274.27,274.89,265.9,276.7,261.89,280.58Zm18-59.81c-4.91,6-10.15,11.79-15.35,17.58-3.74,4.17-7.35,4-10.63-.68-3.5-4.95-7.06-9.84-10.52-14.81-1.6-2.29-4.47-4.32-3.12-7.57,1.55-3.71,5.25-2.82,8.32-3,1.15-.08,2.3,0,2.62,0,9.17.63,17.5,1.21,25.83,1.75C282.56,214.34,282.72,217.27,279.87,220.77Zm14.43-16.92c-10.3-5.36-20.39-11.12-30.43-16.95-4.45-2.59-2.64-5.44.84-7,8.21-3.67,16.56-7.05,24.94-10.33,4.82-1.89,7.07.81,7.8,5.25,1.31,8,2.53,16,3.92,24.91C301.49,204.12,298.87,206.23,294.3,203.85Z"/><path class="cls-2" d="M221.81,395.38c1.74-2.29,3.48-2.6,5.23,0Z"/></svg>