<svg id="Layer_1" data-name="Layer 1" xmlns="http://www.w3.org/2000/svg" viewBox="0 0 400 400"><defs><style>.cls-1{fill:#f47a82;}</style></defs><title>COVID-19_Logo</title><path class="cls-1" d="M128.49,341.54a65.75,65.75,0,0,0,.06,7.82c.39,3.12-1.31,5.65-2.83,7.6-3,3.79-6.3,8.41-10.45,9.83-5,1.7-11.18,1.39-16.43.15-6.22-1.48-11-6.38-13.11-12.39-4-11.32,3.48-26.74,14.87-30.25,13.61-4.2,20.55-14.71,25.4-26.5,2.09-5.07,2.13-11.84-4-16.57-5.13-3.94-9.09-9.36-14-13.59-3.35-2.88-7.18-6.63-12.12-2.15-10.31,1.73-16.66,7.7-21.08,17.21-3.07,6.59-6.83,13.9-16,14.39-7,5-12.67-.11-17.8-3.18s-9.11-8-8.27-15c.52-4.31-1-8.6,1.8-13,7.6-11.88,15.09-14.12,25.88-11.09,9.26,2.61,17.89.16,25.11-6.18,2.86-2.51,6.6-4.75,7.64-8.5s-2.54-6.78-3-10.33c-.68-4.91-3.1-9.44-2.75-14.58.14-2.1,1.22-5.95-.84-6.15-3.62-.37-4.71-3.68-8-4.61a48.22,48.22,0,0,0-29.53.89,39.74,39.74,0,0,0-9.72,5c-7.78,5.44-17.82,6.26-25.8-.15-8.55-6.86-8.68-15.66-8.2-25.08.06-1.21,1-1.54,1.43-2.36,4.18-8.74,11.49-12.44,20.77-13.28,5-.45,9.28,2.32,12.59,4.86,9.54,7.34,16.59,11.05,26.72,10.72,4.62-.15,9.68,1.91,13.86-1.85,6.86,1,7.92-4.66,8.52-8.79.86-5.89,4.42-10.78,5-16.56.27-2.79,4.82-4.15,2.58-7.31-3-4.18-3.62-9.9-9.14-12.4-6.76-3.07-13.49-5.89-21.07-5.8-2.28,0-4.57,0-6.85,0-13.19-.07-23.52-12.46-21-25.45a12.6,12.6,0,0,1,2.79-5.64c2.76-3.2,5.6-6.5,9-9A17,17,0,0,1,68.11,90.8c7.34,3.4,12.94,8.61,15.43,16.69,2.28,7.43,6.9,14,12.64,17,6.79,3.52,15.74,3.69,21.8-2.09,4.72-4.49,9.19-9.26,13.89-13.77a8.2,8.2,0,0,0,2.59-5.83c.81-10.4-3.31-18.84-10.08-26.16a49.32,49.32,0,0,0-13.95-11A24.31,24.31,0,0,1,99.08,54.37c-6-13.31,3.8-29,18.37-29.54,7.75-.27,14.31,1.1,19.48,7.46,4.92,6,6.92,12.66,4.17,19.9-1.36,3.59-1,7-.71,10.37.53,5.78,7.84,21.14,11.64,25.4,1.73,1.94,5.12,2.29,6.77,3.86,2.9,2.78,4.3.16,6.5-.29,7.25-1.47,14.16-4.91,21.83-4,3,.36,4.55-1.21,5.94-3.63,6.41-11.17,5.05-22-1.78-32.23-3.89-5.86-6.71-11.66-6.24-19,.29-4.35,1.53-7.9,4.39-10.94,5.65-6,12.41-9,20.91-8.63,7,.31,18.21,11.17,17.9,18a65.22,65.22,0,0,0,0,6.85,14.56,14.56,0,0,1-4.38,11.89c-7.66,7.57-10.18,16.89-9.37,27.42.52,6.77,3.69,11,10.43,12.12,7.3,1.18,14,3.83,20.66,6.84,1.57.71,2.35,1.09,4.12.26,8.83-4.17,10.61-5.56,15.65-14.78,3.74-6.83,6.05-14.09,5.9-22,0-2.61.1-5.22,0-7.82-.22-4,1.57-7,3.65-10.26,5-7.9,11.91-9.52,20.71-9.08s14.06,4.36,17.51,11.76c3.19,6.85,1.25,18.45-3.89,23.82-3.48,3.64-7,7-12.44,7.84a12.32,12.32,0,0,0-7.13,3.91c-4,4.52-8.84,8.13-11.89,13.64-3.22,5.8-5.22,12.19-4.63,18.68.17,1.92,1.23,2.85,2.33,4,5.29,5.31,10.52,10.68,15.92,15.88,3.73,3.59,7.2,5.05,13.14,2.76,9.1-3.49,16.28-7.55,20.13-17.2,2-5.06,5.31-10.44,10.76-12.87,4.76-2.14,9.15-5,15.51-1.94,5.09,2.45,9.11,4.42,12.86,9.18,5.31,6.75,3.85,13.63,2.45,20s-7.23,11-13.41,13.64a16.51,16.51,0,0,1-12.28.18c-11.57-4.9-20.12,1.77-29.32,6.43-1.79,4.44-6.61,7.36-3.16,14,3.29,6.36,4.6,14,4.49,21.66-.06,4.32,4.72,6,8.19,7.07,13.69,4.05,25.55,3.58,39.08-5.38,11.79-7.81,26.43-4.82,32.58,7.73,4.67,9.54,3.52,24.11-9,29.77-4.47,2-9.27,4.86-13.13,2.82-3.62-1.9-9.69-.45-11-6.37-6.25-3-12.28-7.53-18.82-8.44-6.93-1-14.71-2.61-21.62,1.52-6.28-.91-7.33,4.45-8.24,8.15-1.81,7.42-3.61,14.75-7.4,21.41a3.2,3.2,0,0,0-.58,2.66c3.71,8.56,9.63,14.35,19.06,16.83,6.6,1.73,13.13,1.73,19.76,1.8s15.65,5.94,17.82,11.94c2.93,8.08,3.69,15.86-3.8,22.22-1.48,1.27-2.78,2.74-4.16,4.14-6.71,6.78-18.66,6.52-24.6.43-4.54-4.66-9.07-8.82-10.89-16.07s-7.75-12.72-15.17-15.84c-4.39-1.84-8.87-.63-13.29-.89-3-.17-4.06,2.86-5.9,4.52-3.15,2.82-6,6-9.05,8.92-4.28,4-8.27,7.75-7.18,14.74.83,5.29,1.05,10.49,4.92,14.64a4.8,4.8,0,0,1,1.11,1.49c2.9,8.14,9.6,12.82,16.78,15.92,3.94,1.7,5.38,6.13,9.94,6.86,1.25.19,1.83,4.17,2.83,6.36,3.12,6.89,1.59,14.38-2.57,20-6.87,9.27-16.48,8.95-26,8-6-.63-14.35-12.22-14.57-19a25.6,25.6,0,0,1,1.39-9.14c2.11-6.29-.53-12.86-2.92-19-2-5.11-5-9.71-7.86-14.42-2-3.29-5.72-3.37-7.35-6.47-.35-.66-2.84-.45-4.45.25-7.7,3.33-15.64,5.93-24.17,5.31a5.52,5.52,0,0,0-5.51,3.1c-6.21,11-5.55,22.09,1.29,32.3,4.36,6.51,7.07,12.88,6.66,20.84a14,14,0,0,1-2.75,7.67c-6.16,8-14.65,11.72-24.86,10.43-5.24-.66-15.1-11-15.54-16.24a52.2,52.2,0,0,1,.11-12.68,13.19,13.19,0,0,1,3.71-7.23c7.66-7.47,10.71-16.55,9.87-27.23-.56-7.12-3.93-11.73-10.79-12.8a70.47,70.47,0,0,1-18.1-5.92c-4.49-2-6-2-9.88.57-10.77,7.16-19.32,23.84-18,33.44A22,22,0,0,1,128.49,341.54Zm73.45-48.45c23,.46,44.71-8.91,62.83-26.21,17.4-16.61,26.68-37.43,28-61.58,1.44-26.73-7-50.15-25.27-69.55C250.73,118,229.7,108.44,205.21,107.1c-26.74-1.47-50.16,7-69.55,25.26-17.22,16.25-26.86,36.57-28.67,60.33-2.12,27.91,6.69,52.23,26,72.16C151,283.39,173.23,293.14,201.94,293.09Z"/><circle class="cls-1" cx="199.41" cy="199.17" r="72.1"/></svg>