<svg id="Layer_1" data-name="Layer 1" xmlns="http://www.w3.org/2000/svg" viewBox="0 0 400 400"><defs><style>.cls-1{fill:#ebcc85;}.cls-2{fill:#c17344;}.cls-3{fill:#d8a441;}.cls-4{fill:#fa7200;}</style></defs><title>COVID-19_Logo</title><path class="cls-1" d="M225.17,287.29C259.88,302.11,280,326.35,281.86,364c.36,7.19-1.31,11.68-8.73,14.66-46.36,18.61-93.54,21.77-141.92,9.26-9.49-2.45-13.65-6.94-13.65-17.35,0-39.18,17.44-65.78,57.42-83.27-15.31-12.73-22.39-28.52-18.5-47.86a40.81,40.81,0,0,1,16.16-25.57c18.89-14,44.8-11.75,60.25,5.33C250.55,238.68,248.23,262.05,225.17,287.29Z"/><path class="cls-2" d="M106,378.89C77.24,367.31,53.53,352,35,330.78c-11.73-13.43-5.36-31.36-.94-46.7,7.76-26.92,26.58-44.32,53.7-54.86-7.59-7.81-14.69-14.94-17.73-25.14-5.57-18.73,1.69-40,18.08-50.52,17.05-10.89,40.23-8.85,54.82,4.83,15,14,20.28,38.13,8.48,53.92-16,21.46-5.93,41.71-1,62.51,1,4.39,6.37,7.87-.38,12.31C117.83,308.29,104.52,339,106,378.89Z"/><path class="cls-3" d="M294.17,367.42c-2.22-35.66-16.1-62.53-45-80.64-3.8-2.38-3.8-5.2-1.7-8.71,7.05-11.78,5.51-25.5,8.57-37.73,3.36-13.44-2.7-19.72-7.93-28.71-11-18.95-5.18-43.87,12.56-56.63,16.9-12.16,42.94-10.43,57.25,3.82,16.52,16.44,19.12,42.12,3.91,58.88-8.69,9.56-7.94,13.28,3.37,18.33,17.91,8,29.58,22.82,37.63,40.1,5.85,12.56,6.19,24.34-4.29,36.74C340.5,334.15,320.75,352.67,294.17,367.42Z"/><path class="cls-4" d="M48.2,123.39C29.34,103.75,28,83.89,43.14,68.48a35.28,35.28,0,0,1,49.26-.71c16,15.38,14.86,35.81-3.26,54.52,3.94,5.84,12.61,5.23,16.75,12.26-16.24,4.13-30.36,10.94-39.65,25.3-12,18.62-13.07,37.68-3.06,57.38,2.05,4,6.68,7.32-.37,11.86-28.55,18.35-42.69,45.19-44.28,81.19C8.89,300.49,2.41,292.15,2.7,279.22c.58-25.62,1.15-51.3-.06-76.88C.93,166.4,11.8,138.39,48.2,123.39Z"/><path class="cls-2" d="M377.38,281.72c-8.73-22.84-21-40.38-40.14-52.41-3.88-2.44-4.71-4.6-2.68-9.5,17.52-42.4,4.05-70.7-40.18-85.29,2.52-7,11-6,15.63-12.18-9.69-9.17-15.81-20.44-13.58-34.58a34.07,34.07,0,0,1,12.06-21.47c13.69-11.43,35-10.79,47.45,1.34,15.18,14.75,14.32,33.28-3.08,55.84,21.36,10.38,39.13,25,42,49.72C399.11,210,401.28,247,377.38,281.72Z"/><path class="cls-2" d="M180.18,123.83c-18.22-18.67-20.25-38.75-6.74-54C185.64,56,207.34,54,221.56,65.3c16.92,13.45,17.23,34.09.38,58.15,4.27,2.41,8.58,4.62,12.67,7.18,16.33,10.23,17,13.35,6.13,29.19-8.13,11.87-10.54,25.23-9.7,41.25-21.15-9.09-41.41-11.43-62.35,1.19.88-20.68-3-37.51-16.69-50.89-4.35-4.24-1.69-8.13,1.66-11.44A67.55,67.55,0,0,1,180.18,123.83Z"/><path class="cls-4" d="M247.31,94.16c-1.2-5.62-2.25-10.9-3.5-16.12-.46-1.89-2.56-4.22-2-5.4,6.7-13.62-6.14-23.17-7-35.12-1-13.38,7.37-26.69,20.43-31,13.49-4.46,25.34-1,34.47,9.92,8.66,10.42,8.87,25.53.94,37.08-2.88,4.19-10.56,7.73-.14,12.59,3.32,1.54-.55,5.14-1.55,7.64-4.32,10.78-5.92,21.43-2.38,33.05,1.42,4.65,8.58,10.07,3.47,14.11-7.94,6.29-13.68,16.09-24.55,18.18-8.55,1.64-25.47-19.73-22.75-28C244.56,105.48,245.82,99.74,247.31,94.16Z"/><path class="cls-3" d="M133.88,5.11c24-.29,35.7,23,27.19,46.28-6.84,18.77-12.22,39.7-4.11,60,2.94,7.33,1.38,11.72-4.42,14.53-7.9,3.82-11,18-24.29,10.67-14.14-7.81-18.35-16.65-14.31-32.28,2-7.7,1.54-15.45-.56-23.3-1.58-5.93-7.69-11.74.07-18.68,3.2-2.86-3-6.3-5-9.4-6.45-10-7.13-20.29-1.76-30.78C112.34,11,121.92,5.25,133.88,5.11Z"/></svg>