<svg id="Layer_1" data-name="Layer 1" xmlns="http://www.w3.org/2000/svg" viewBox="0 0 494.48 400"><defs><style>.cls-1{fill:#f8a3ff;}.cls-2{fill:none;}</style></defs><title>COVID-19_Logo</title><path class="cls-1" d="M492.25,379.66A5.62,5.62,0,0,0,490.9,376a5.57,5.57,0,0,1-.73-1.2c-2.6-4.54-5.19-9.08-7.81-13.61-2.88-5-5.79-10-8.67-15-2.5-4.32-5-8.66-7.48-13s-5.1-8.77-7.63-13.17q-4-7-8-14L442,291.24c-1.76-3-3.5-6.08-5.26-9.12l-5.41-9.32c-1.95-3.38-3.88-6.77-5.83-10.15-2.62-4.53-5.26-9-7.88-13.57-2-3.52-4-7-6.07-10.56q-4-6.9-7.95-13.8c-2.45-4.27-4.88-8.54-7.33-12.8-2-3.52-4.07-7-6.1-10.54-1.84-3.17-3.66-6.36-5.5-9.53-2.59-4.46-5.2-8.9-7.77-13.37-3.31-5.74-6.58-11.52-9.89-17.27-2.8-4.87-5.65-9.71-8.46-14.58q-5.86-10.14-11.69-20.3A17.11,17.11,0,0,0,338,119a5.32,5.32,0,0,0-1.82-.32c-1.41,0-2.82,0-4.22,0a5,5,0,0,0-2.68.7c-.54.31-1.09.61-1.65.89a15.1,15.1,0,0,0-5.74,5.39c-1.11,1.7-2.05,3.51-3.06,5.27-1.75,3-3.48,6.09-5.24,9.13-1.91,3.31-3.85,6.61-5.77,9.92S304,156.68,302,160.06c-1.79,3.11-3.57,6.23-5.37,9.34l-5.86,10.13-5.62,9.74c-1.82,3.18-3.62,6.37-5.45,9.55-2,3.45-4,6.89-6,10.33l-7.46,13c-2.11,3.65-4.24,7.29-6.35,10.94L254.76,242c-1.91,3.31-3.84,6.61-5.75,9.92s-3.64,6.37-5.47,9.55l-6.21,10.74c-1.75,3-3.49,6.1-5.25,9.14-2,3.37-3.93,6.74-5.88,10.12s-3.82,6.62-5.73,9.94q-2.76,4.75-5.51,9.52c-1.83,3.18-3.63,6.38-5.46,9.56-1.94,3.38-3.92,6.74-5.87,10.12-1.8,3.11-3.55,6.24-5.36,9.35-2.66,4.59-5.36,9.15-8,13.75-3.4,5.88-6.75,11.79-10.13,17.68-1,1.69-1.92,3.4-3,5a5.46,5.46,0,0,0-1,2.59,41.1,41.1,0,0,0,0,8.66,3.52,3.52,0,0,0,.43,1.56,19.3,19.3,0,0,0,5.75,6.08c3.33,2,3.49,2.07,7.49,2.07H476.43c1.41,0,2.81,0,4.22,0a6.51,6.51,0,0,0,2.91-.74,18.67,18.67,0,0,0,7.7-6.66,4.93,4.93,0,0,0,.91-2.35A39.21,39.21,0,0,0,492.25,379.66ZM317.63,202.06c0-1.66.15-3.33,0-5-.23-3.58,1.33-6.53,3.47-9.11,3.93-4.74,9.14-7,15.25-6.08,6.81,1,11.89,5.35,14,12.22a7.72,7.72,0,0,1,.25,1.92c.05.74,0,1.48,0,2.22q0,55.74,0,111.5a14.48,14.48,0,0,1-.78,5.16,17.12,17.12,0,0,1-22.12,9.59c-4.64-2.12-8.13-5.38-9.62-10.44a11.8,11.8,0,0,1-.44-2.71c-.09-1.66-.09-3.33-.09-5Zm16.63,175.6a19.89,19.89,0,1,1,19.87-19.94A20.05,20.05,0,0,1,334.26,377.66Z"/><path class="cls-1" d="M271.93,167.51q0-49.14,0-98.27c0-1.87-.07-3.75-.21-5.62A20.11,20.11,0,0,0,268,53.39a24.24,24.24,0,0,0-11.77-8.91,39,39,0,0,0-13.75-2.41H209.94c-.86,0-1.72,0-2.57,0a7.93,7.93,0,0,0-1.27.25,3,3,0,0,0-.15.57c0,.31.06.62.09.93A30.19,30.19,0,0,1,201,65a29.68,29.68,0,0,1-10.89,9.74,30.16,30.16,0,0,1-14.42,3.44H98.35a32.11,32.11,0,0,1-4.89-.37A29.87,29.87,0,0,1,67.84,48.55a24.45,24.45,0,0,1,.33-5.6c0-.13-.07-.29-.19-.74-.67-.05-1.28-.13-1.88-.14q-22.86,0-45.7,0a9.18,9.18,0,0,0-4.3.95,23.48,23.48,0,0,0-3.63,2.13A26.28,26.28,0,0,0,2.92,59.77a32.2,32.2,0,0,0-.85,8.13v284c0,.55,0,1.1,0,1.64a28,28,0,0,0,1.09,7.63c3.14,9.35,9.56,15,19.28,16.69a32.66,32.66,0,0,0,5.6.33q63.15,0,126.31,0l3.54-6.28L242.41,222l29.53-52.38C271.88,168.92,271.93,168.21,271.93,167.51ZM54.56,140.42a5.11,5.11,0,0,1,6.4-1,15.74,15.74,0,0,1,1.89,1.38c2.26,1.8,4.5,3.62,6.76,5.42.6.48,1.23.92,1.78,1.33a5.51,5.51,0,0,0,2.23-1.92q7.86-8.84,15.7-17.69A17.23,17.23,0,0,1,91,126.23c2.56-2.23,7.35-1.78,8.59,3a4.94,4.94,0,0,1-.14,2.28,6.88,6.88,0,0,1-1.79,3Q87.18,146.2,76.75,157.91a8.72,8.72,0,0,1-1.35,1.3,5,5,0,0,1-5.51.45,10.19,10.19,0,0,1-1.74-1.17q-6.15-4.87-12.27-9.78a9.92,9.92,0,0,1-1.67-1.63A5.07,5.07,0,0,1,54.56,140.42Zm-.18,53.71A5.1,5.1,0,0,1,61.11,193a17,17,0,0,1,2.07,1.53c2.39,1.88,4.76,3.79,7.14,5.68.36.28.78.49,1.11.7.94-.21,1.35-.92,1.86-1.49q8.11-9.09,16.19-18.18a15.22,15.22,0,0,1,1.64-1.67,4.72,4.72,0,0,1,5.23-.83,5.5,5.5,0,0,1,3.32,4.49,4.66,4.66,0,0,1-.83,3.11,15,15,0,0,1-1.44,1.84q-10.25,11.56-20.51,23.11a7.17,7.17,0,0,1-3.38,2.39,4.33,4.33,0,0,1-3.19-.23,11.32,11.32,0,0,1-2-1.27q-6.42-5.08-12.8-10.22a7.74,7.74,0,0,1-1-.95A5.07,5.07,0,0,1,54.38,194.13Zm45,93.7a8.91,8.91,0,0,1-1.93,2.91l-11.35,12.8-9,10.16a16.58,16.58,0,0,1-1.29,1.36,5.22,5.22,0,0,1-6.29.55,12.81,12.81,0,0,1-1.32-1l-12.42-10a11,11,0,0,1-1.36-1.28,4.94,4.94,0,0,1-.08-6.47,5.07,5.07,0,0,1,6.07-1.67,10.25,10.25,0,0,1,2.17,1.36c2.34,1.83,4.64,3.71,7,5.56.6.48,1.23.93,2.06,1.57.62-.58,1.09-1,1.49-1.43q8.17-9.19,16.32-18.42a8.8,8.8,0,0,1,3.27-2.59A4.7,4.7,0,0,1,98,282.49,4.79,4.79,0,0,1,99.37,287.83Zm-.5-50.39a12.83,12.83,0,0,1-1.3,1.66q-10.41,11.75-20.83,23.49a5.72,5.72,0,0,1-3.95,2.26,5.26,5.26,0,0,1-3.55-.9c-.57-.41-1.14-.83-1.68-1.27l-11.5-9.25a7.92,7.92,0,0,1-2.46-2.78,4.8,4.8,0,0,1,.89-5.44,4.89,4.89,0,0,1,5.26-1.7,8,8,0,0,1,3,1.74q3.46,2.79,6.94,5.57c.54.44,1.11.83,1.91,1.42.65-.67,1.16-1.14,1.62-1.65q8-9,16-18.06a16.47,16.47,0,0,1,1.81-1.83c3.52-2.81,7.65-.58,8.54,3.16A4.69,4.69,0,0,1,98.87,237.44Zm11.41-93.59a5.7,5.7,0,0,1,5.54-5.56c.7,0,1.4,0,2.11,0h93a11.45,11.45,0,0,1,2.56.15,5.74,5.74,0,0,1,4.36,5.22,61.52,61.52,0,0,1,0,6.79,5.81,5.81,0,0,1-5.31,5.34c-.69.06-1.4.05-2.1.05H117.66c-.62,0-1.25,0-1.87,0a5.79,5.79,0,0,1-5.5-5.62Q110.17,147,110.28,143.85Zm65.39,162.9a5.6,5.6,0,0,1-5.3,5.28c-.7.06-1.4,0-2.11,0H117.93c-.63,0-1.25,0-1.88,0a5.83,5.83,0,0,1-5.77-5.85c0-1.95,0-3.91,0-5.86a6,6,0,0,1,6-5.88c1.8.07,3.59,0,5.39,0q23.64,0,47.29,0a8.07,8.07,0,0,1,3,.34,5.38,5.38,0,0,1,3.73,4.91A58.89,58.89,0,0,1,175.67,306.75Zm12.1-54.08a5.89,5.89,0,0,1-5.35,5.33c-.7.07-1.41,0-2.11,0H117.74c-.55,0-1.09,0-1.64,0a5.92,5.92,0,0,1-5.82-5.85q-.09-3,0-6.09a5.71,5.71,0,0,1,5.49-5.63c.85-.06,1.72,0,2.58,0H180c.78,0,1.56,0,2.34,0a5.63,5.63,0,0,1,5.43,5.19A51.54,51.54,0,0,1,187.77,252.67Zm30-48.14a5.66,5.66,0,0,1-5.57,5.27c-.7,0-1.4,0-2.11,0H116a5.67,5.67,0,0,1-5.73-5.58c-.06-2,0-4.07,0-6.1a5.81,5.81,0,0,1,5.33-5.8,14.6,14.6,0,0,1,1.87-.05h93.19a11.71,11.71,0,0,1,2.78.26,5.58,5.58,0,0,1,4.36,5.19A59.16,59.16,0,0,1,217.81,204.53Z"/><path class="cls-1" d="M157.9,371.92c0,1.39,0,2.78-.06,4.17,0,.61-.1,1.21-.16,1.93-.55.07-1,.15-1.44.17-.63,0-1.25,0-1.88,0Z"/><line class="cls-2" x1="271.94" y1="169.62" x2="242.41" y2="222"/><path class="cls-1" d="M137,65.73c-13,0-25.93,0-38.9,0a17.33,17.33,0,0,1-12.82-5.37,17.83,17.83,0,0,1,8.24-29.66,25.6,25.6,0,0,1,5.09-.64c2.89-.11,5.78,0,8.67-.08a9,9,0,0,0,9-8.94,24.7,24.7,0,0,1,.58-5.35A20.4,20.4,0,0,1,125.4,3.52a4.83,4.83,0,0,1,2.84-.89q8.79,0,17.58,0a4.72,4.72,0,0,1,2.83.9,20,20,0,0,1,8.77,13.58,41.65,41.65,0,0,1,.41,4.18,9.06,9.06,0,0,0,6.44,8.34,7.2,7.2,0,0,0,2.06.32c3.13.05,6.25,0,9.37.08a18.15,18.15,0,0,1,10.18,3,17.3,17.3,0,0,1,7.71,12.31,17.11,17.11,0,0,1-5.37,15.51,17.28,17.28,0,0,1-12.33,4.86Q156.44,65.76,137,65.73ZM136.9,30a9.11,9.11,0,1,0,.22-18.22A9.11,9.11,0,1,0,136.9,30Z"/></svg>