<?xml version="1.0" encoding="utf-8"?>
<!-- Generator: Adobe Illustrator 19.1.1, SVG Export Plug-In . SVG Version: 6.00 Build 0)  -->
<svg version="1.1" xmlns="http://www.w3.org/2000/svg" xmlns:xlink="http://www.w3.org/1999/xlink" x="0px" y="0px"
	 viewBox="0 0 307.5 333.8" width="307.5" height="333.8" style="enable-background:new 0 0 307.5 333.8;" xml:space="preserve">
<style type="text/css">
	.st0{display:none;}
	.st1{display:inline;fill:#BE2227;stroke:#BE1E2D;stroke-miterlimit:10;}
	.st2{display:inline;}
	.st3{fill:#FFFFFF;}
	.st4{display:inline;fill:none;stroke:#BE1E2D;stroke-width:12;stroke-linejoin:round;stroke-miterlimit:10;}
	.st5{fill:url(#SVGID_1_);}
	.st6{fill:#FEC314;}
	.st7{fill:none;stroke:#FFFFFF;stroke-width:8;stroke-miterlimit:10;}
	.st8{fill:none;stroke:#FFFFFF;stroke-width:8;stroke-linejoin:round;stroke-miterlimit:10;}
</style>
<g id="Layer_1" class="st0">
	<path class="st1" d="M0,0v244.6v89.2h307.5v-89.2V0H0z M11,244.6V11h285.5v233.6H11z"/>
	<g class="st2">
		<g>
			<path class="st3" d="M96.3,314.3H85.7v-52.8l0.4-0.1c4-0.7,9-1.1,14.8-1.1c7,0,12.4,1.5,15.8,4.4c3.4,2.8,5.3,7.2,5.3,12
				c0,5.1-1.6,9.4-4.7,12.3c-3.7,3.7-9.7,5.8-17,5.8c-1.7,0-3.1-0.1-4.2-0.2V314.3z M96.3,286.6c1.2,0.2,2.8,0.3,4.2,0.3
				c7,0,11-3.3,11-9.2c0-5.5-3.6-8.5-10.2-8.5c-2.6,0-4.2,0.2-5,0.4V286.6z"/>
		</g>
		<g>
			<path class="st3" d="M146.7,314.7c-4.9,0-9.3-0.2-13-0.7l-0.4-0.1v-52.6l0.4-0.1c4.3-0.7,9.7-1.1,15.4-1.1c9.8,0,16.7,2,21.8,6.2
				c5.6,4.5,8.4,11.2,8.4,19.7c0,9-2.9,16.3-8.4,21.3C165.6,312.1,157.2,314.7,146.7,314.7z M143.8,305.9c1.3,0.2,3.2,0.2,5,0.2
				c6.1,0,10.8-1.7,14.1-4.9c3.4-3.4,5.1-8.3,5.1-14.7c0-5.6-1.5-10-4.5-13c-3.1-3.1-7.7-4.7-13.6-4.7c-2.5,0-4.6,0.2-6.1,0.4V305.9
				z"/>
		</g>
		<g>
			<path class="st3" d="M201,314.1h-10.6v-53.6h31.3v8.9H201v13.5h19.3v8.9H201V314.1z"/>
		</g>
	</g>
	<path class="st4" d="M235,160.7c35.8,12.5,21.6,46.7-8.3,29.9c-38.9-22-70.8-62.7-88.9-108.6C116.7,28.1,149,21.9,158,29
		c19.5,15.6-34.5,130.2-55.8,157.9c-21.2,27.7-40.9,42.6-48.4,33.5C31.4,193.4,168.1,137.3,235,160.7z"/>
</g>
<g id="Layer_2">
	<radialGradient id="SVGID_1_" cx="153.75" cy="122.3232" r="138.9281" gradientUnits="userSpaceOnUse">
		<stop  offset="0" style="stop-color:#2195CE"/>
		<stop  offset="0.2479" style="stop-color:#1F91CB"/>
		<stop  offset="0.5872" style="stop-color:#1A87C2"/>
		<stop  offset="0.9778" style="stop-color:#1076B4"/>
		<stop  offset="1" style="stop-color:#0F75B3"/>
	</radialGradient>
	<rect x="0" class="st5" width="307.5" height="244.6"/>
	<rect x="0" y="244.6" class="st6" width="307.5" height="89.2"/>
	<line class="st7" x1="94.6" y1="0" x2="94.6" y2="244.6"/>
	<line class="st7" x1="307.5" y1="111.2" x2="0" y2="111.2"/>
	<rect x="71.6" y="87.8" class="st8" width="46" height="46"/>
	<g>
		<g>
			<path d="M85.2,315.2c-4.6,0-8.8-0.2-12.3-0.7l-0.4-0.1v-49.9l0.4-0.1c4-0.7,9.2-1,14.6-1c9.3,0,15.9,1.9,20.7,5.9
				c5.3,4.3,7.9,10.6,7.9,18.7c0,8.5-2.7,15.5-7.9,20.2C103.1,312.8,95.2,315.2,85.2,315.2z M82.5,306.8c1.3,0.2,3,0.2,4.7,0.2
				c5.8,0,10.2-1.6,13.4-4.7c3.2-3.2,4.8-7.9,4.8-13.9c0-5.3-1.4-9.4-4.3-12.3c-3-3-7.3-4.5-12.9-4.5c-2.3,0-4.3,0.1-5.7,0.4V306.8z
				"/>
		</g>
		<g>
			<path d="M172.2,314.7h-10.6l-5.3-23.9c-1.1-5.2-1.9-9.1-2.4-13c-0.8,4.6-1.7,8.7-2.8,13l-5.9,23.8h-10.6l-12.5-50.9h10.7l4.8,23
				c1,5,2,10.3,2.8,14.9c0.7-3.8,1.6-7.8,2.5-12l0.7-3l5.5-23h10.3l5,23.3c1.1,5.4,2,10,2.7,14.2c0.9-5,2-10.1,3-14.6l5.3-23h10.3
				L172.2,314.7z"/>
		</g>
		<g>
			<path d="M218.5,315.2c-8.6,0-15.1-2.2-19.9-6.8c-4.6-4.4-7.2-11.2-7.1-18.7c0-15.8,11.4-26.4,28.3-26.4c6.3,0,11.2,1.3,13.5,2.4
				l0.4,0.2l-2.3,8.3l-0.5-0.2c-2.3-1-5.6-2.1-11.1-2.1c-10.9,0-17.6,6.7-17.6,17.4c0,10.8,6.4,17.6,16.8,17.6
				c3.2,0,5.3-0.4,6.4-0.9v-11.6h-8.8v-8.2h18.6v26.1l-0.3,0.1C231,313.7,224.8,315.2,218.5,315.2z"/>
		</g>
	</g>
</g>
</svg>
