<?xml version="1.0" encoding="utf-8"?>
<!-- Generator: Adobe Illustrator 24.0.2, SVG Export Plug-In . SVG Version: 6.00 Build 0)  -->
<svg version="1.1" id="Layer_1" xmlns="http://www.w3.org/2000/svg" xmlns:xlink="http://www.w3.org/1999/xlink" x="0px" y="0px"
	 viewBox="0 0 448 450" style="enable-background:new 0 0 448 450;" xml:space="preserve">
<style type="text/css">
	.st0{fill:#FFFFFF;}
</style>
<path class="st0" d="M400,1H48l0,0C21.5,1,0,22.5,0,49l0,0v352l0,0c0,26.5,21.5,48,48,48h137.2V296.7h-63V225h63v-54.6
	c0-62.2,37-96.5,93.7-96.5c27.1,0,55.5,4.8,55.5,4.8v61h-31.3c-30.8,0-40.4,19.1-40.4,38.7V225h68.8l-11,71.7h-57.8V449H400l0,0
	c26.5,0,48-21.5,48-48V49l0,0C448,22.5,426.5,1,400,1z"/>
</svg>
