<svg id="Layer_1" data-name="Layer 1" xmlns="http://www.w3.org/2000/svg" viewBox="0 0 79.55 79"><defs><style>.cls-1{fill:#6cb33f;}.cls-2{fill:#bed9a8;}.cls-3{fill:#006f51;}.cls-4{fill:#fff;}</style></defs><title>FoodStdsAgency</title><path class="cls-1" d="M19,63.46,18.93,24c0-1.58.93-2.86,2.08-2.87s1.91,1.07,2.06,2.45l0,32c0,1.59.94,2.87,2.08,2.87s2-1.19,2.08-2.68v0c0-.06,0-.11,0-.16l-.05-31.74c.05-1.51.95-2.72,2.06-2.72a2.31,2.31,0,0,1,2,2.08v-6.6h0c0-6.22,3.85-13.44,9.3-16.4A39,39,0,0,0,12.87,10.86,39.58,39.58,0,0,0,11.2,66.61a39,39,0,0,0,13.16,9.24A24,24,0,0,1,19.21,65.5a14.67,14.67,0,0,1-.21-2"/><path class="cls-2" d="M60.3,16l.06,39.51c0,1.58-.93,2.86-2.07,2.86s-1.91-1.06-2.06-2.44l0-32c0-1.59-.94-2.86-2.09-2.87s-2,1.19-2.06,2.69v0a.85.85,0,0,0,0,.16l0,31.75c0,1.51-1,2.71-2.07,2.71-1,0-1.75-.88-2-2.08l0,6.54v.06c0,6-3.61,13-8.79,16.12a39,39,0,0,0,27.4-10.72A39.51,39.51,0,0,0,54.36,3a21.73,21.73,0,0,1,5.73,11.75A3.93,3.93,0,0,1,60.3,16"/><path class="cls-3" d="M40.55.15c-5.45,3-9.32,10.18-9.31,16.4l0,0,0,6.57.06,32.37c0,1.58.94,2.87,2.08,2.86a2.1,2.1,0,0,0,1.85-1.6s0,0,0,0a2.88,2.88,0,0,0,.11-.42.45.45,0,0,1,0-.11c0-.13,0-.25,0-.38s0-.21,0-.31l0-31.15v-.63a3,3,0,0,1,1.23-2.43l.05,0,.06,0a1.48,1.48,0,0,1,.75-.2c1,0,1.8.94,2,2.2l0,.16c0,.16,0,.35,0,.52l0,32.07c.17,1.34,1,2.37,2.05,2.36a1.5,1.5,0,0,0,.75-.2h0s0,0,.06-.05a3.06,3.06,0,0,0,1.21-2.61V24.16l0-.43s0-.09,0-.13a2.2,2.2,0,0,1,0-.37s0-.08,0-.12.07-.28.11-.42v0a2.11,2.11,0,0,1,1.87-1.61C47,21,48,22.33,48,23.91l0,32.38a2.31,2.31,0,0,0,2,2.08c1.11,0,2-1.2,2.07-2.71l0-31.74a1,1,0,0,1,0-.17v0c.07-1.5,1-2.68,2.07-2.69s2.08,1.28,2.08,2.87l0,32c.15,1.38,1,2.45,2.06,2.45s2.07-1.29,2.07-2.87L60.3,16a10.55,10.55,0,0,0-.1-1.38A22.35,22.35,0,0,0,54.36,3,39.21,39.21,0,0,0,40.55.15"/><path class="cls-4" d="M39.26,79c5.44-3,8.81-9.94,8.8-16.16v0l0-6.57,0-32.37C48,22.3,47,21,45.87,21A2.13,2.13,0,0,0,44,22.62a.05.05,0,0,0,0,0c0,.13-.08.27-.11.41a.43.43,0,0,1,0,.11c0,.12,0,.25,0,.38s0,.21,0,.31l0,31.16v.62a3,3,0,0,1-1.24,2.43l0,0a.05.05,0,0,0-.05,0,1.78,1.78,0,0,1-.75.2,2.37,2.37,0,0,1-2-2.21l0-.16a4.34,4.34,0,0,1,0-.51l-.06-32.08c-.17-1.34-1-2.37-2-2.36a1.61,1.61,0,0,0-.74.2h0l-.05.06a3,3,0,0,0-1.22,2.59V55.67a.59.59,0,0,1,0,.13,1.44,1.44,0,0,1-.05.37.5.5,0,0,1,0,.12,2.17,2.17,0,0,1-.11.42v0a2.14,2.14,0,0,1-1.86,1.62c-1.15,0-2.08-1.29-2.08-2.87L31.3,23.1a2.31,2.31,0,0,0-2-2.07c-1.1,0-2,1.2-2.07,2.71l.05,31.74v.19c-.07,1.5-1,2.69-2.07,2.69s-2.08-1.28-2.09-2.87l-.05-32c-.15-1.38-1-2.45-2.06-2.44s-2.07,1.28-2.07,2.86L19,63.42a10.42,10.42,0,0,0,.1,1.38,19.71,19.71,0,0,0,5.26,11A45.45,45.45,0,0,0,39.26,79"/></svg>