<svg xmlns="http://www.w3.org/2000/svg" xmlns:xlink="http://www.w3.org/1999/xlink" version="1.1" id="Layer_1" x="0px" y="0px" viewBox="0 0 63 56" enable-background="new 0 0 63 56" xml:space="preserve"><g><path fill="#FAB72D" d="M62.508,52.313L32.7,0.682C32.457,0.26,32.006,0,31.52,0c-0.487,0-0.938,0.26-1.18,0.682l-29.908,51.8   c-0.243,0.42-0.243,1.679,0,2.101C0.676,55.004,1.125,56,1.612,56h59.815c0.007,0,0.013,0,0.021,0c0.752,0,1.361-1.348,1.361-2.1   C62.809,53.578,62.695,52.546,62.508,52.313z"/><g><path fill="#1D1D1B" d="M31.362,43.916c-2.725,0-4.35,1.643-4.35,4.393c0,2.692,1.625,4.301,4.35,4.301    c2.693,0,4.299-1.607,4.299-4.301C35.661,45.559,34.055,43.916,31.362,43.916z"/><path fill="#1D1D1B" d="M31.362,40.021c1.867,0,3.125-1.164,3.208-2.965l0.898-18.834c0.075-1.435-0.451-2.306-0.906-2.785    c-0.725-0.763-1.803-1.151-3.201-1.151c-1.429,0-2.524,0.391-3.253,1.158c-0.66,0.694-0.965,1.629-0.906,2.77l0.854,18.841    C28.139,38.883,29.405,40.021,31.362,40.021z"/></g></g></svg>