<svg id="Layer_2" data-name="Layer 2" xmlns="http://www.w3.org/2000/svg" viewBox="0 0 452.22 140.36"><defs><style>.cls-1{fill:#a6def3;}.cls-2{fill:#f8e3ee;}.cls-3{fill:#ee8dbb;}</style></defs><title>HIA-logo</title><path class="cls-1" d="M98.18,70.18a70,70,0,0,0,21.54,50.59,70.18,70.18,0,1,1,0-101.18A70,70,0,0,0,98.18,70.18Z"/><ellipse class="cls-2" cx="119.72" cy="70.18" rx="21.54" ry="50.59"/><path class="cls-3" d="M238.51,70.18a70.16,70.16,0,0,1-118.79,50.59,70.18,70.18,0,0,0,0-101.18A70.16,70.16,0,0,1,238.51,70.18Z"/><path class="cls-2" d="M350,103a1.51,1.51,0,0,1-.34,1,2.47,2.47,0,0,1-1.16.69,10.64,10.64,0,0,1-2.15.43,28.61,28.61,0,0,1-3.38.16,30.18,30.18,0,0,1-3.47-.16,10,10,0,0,1-2.14-.43,2.4,2.4,0,0,1-1.13-.69,1.47,1.47,0,0,1-.35-1V74.91h-26V103a1.55,1.55,0,0,1-.32,1,2.21,2.21,0,0,1-1.13.69,10.49,10.49,0,0,1-2.15.43,36.63,36.63,0,0,1-6.84,0,10.7,10.7,0,0,1-2.18-.43,2.38,2.38,0,0,1-1.15-.69,1.47,1.47,0,0,1-.35-1V37.36a1.46,1.46,0,0,1,.35-1,2.39,2.39,0,0,1,1.15-.7,11.43,11.43,0,0,1,2.18-.43,36.63,36.63,0,0,1,6.84,0,11.21,11.21,0,0,1,2.15.43,2.22,2.22,0,0,1,1.13.7,1.54,1.54,0,0,1,.32,1V62.88h26V37.36a1.46,1.46,0,0,1,.35-1,2.41,2.41,0,0,1,1.13-.7,10.62,10.62,0,0,1,2.14-.43,30.18,30.18,0,0,1,3.47-.16,28.61,28.61,0,0,1,3.38.16,11.38,11.38,0,0,1,2.15.43,2.47,2.47,0,0,1,1.16.7,1.5,1.5,0,0,1,.34,1Z"/><path class="cls-2" d="M379.3,103a1.52,1.52,0,0,1-.35,1,2.43,2.43,0,0,1-1.15.69,10.79,10.79,0,0,1-2.15.43,36.74,36.74,0,0,1-6.85,0,10.58,10.58,0,0,1-2.17-.43,2.42,2.42,0,0,1-1.16-.69,1.52,1.52,0,0,1-.35-1V37.36a1.51,1.51,0,0,1,.35-1,2.45,2.45,0,0,1,1.18-.7,12.12,12.12,0,0,1,2.18-.43,28.61,28.61,0,0,1,3.38-.16,29.38,29.38,0,0,1,3.44.16,11.55,11.55,0,0,1,2.15.43,2.44,2.44,0,0,1,1.15.7,1.51,1.51,0,0,1,.35,1Z"/><path class="cls-2" d="M451.38,99.67a19.15,19.15,0,0,1,.81,3.06,1.87,1.87,0,0,1-.43,1.69,3.51,3.51,0,0,1-2.1.7c-1,.09-2.38.13-4.13.13s-3.25,0-4.27-.08a10.49,10.49,0,0,1-2.34-.32,2.11,2.11,0,0,1-1.13-.67,3.72,3.72,0,0,1-.53-1.13l-4.68-14h-26.1l-4.41,13.59a4.32,4.32,0,0,1-.56,1.26,2.32,2.32,0,0,1-1.13.81,8.43,8.43,0,0,1-2.2.4c-.95.07-2.19.1-3.73.1a35.15,35.15,0,0,1-3.87-.16,2.89,2.89,0,0,1-1.93-.77,2.1,2.1,0,0,1-.38-1.75,18,18,0,0,1,.81-3L410.51,37.9a5.24,5.24,0,0,1,.75-1.48,2.65,2.65,0,0,1,1.37-.85,10.35,10.35,0,0,1,2.6-.38c1.11,0,2.58-.08,4.41-.08,2.11,0,3.79,0,5.05.08a12.88,12.88,0,0,1,2.92.38,2.8,2.8,0,0,1,1.51.88,5.49,5.49,0,0,1,.78,1.61Zm-31.9-51h-.06l-9.83,29.54h19.72Z"/></svg>