<svg id="Layer_2" data-name="Layer 2" xmlns="http://www.w3.org/2000/svg" viewBox="0 0 239.42 239.41"><defs><style>.cls-1{fill:#77857d;}.cls-2{fill:#9cbaa8;}.cls-3{fill:#fff;}.cls-4{fill:#b41900;}</style></defs><title>HIA-RSA-logo</title><path class="cls-1" d="M229.52,167.43A119.73,119.73,0,0,1,128.23,239.1l-19.61-15.23h38.5s21.7-.45,16.27-6.78c-4.46-5.2-25.52-4.9-33.87-7.15C141.32,205,180.77,188.19,229.52,167.43Z"/><path class="cls-2" d="M239.42,119.71a119.19,119.19,0,0,1-9.84,47.58.35.35,0,0,1-.06.14c-48.75,20.76-88.2,37.55-100,42.51,8.35,2.25,29.41,1.95,33.87,7.15,5.43,6.33-16.27,6.78-16.27,6.78h-38.5l19.61,15.23q-4.21.32-8.52.31a119.71,119.71,0,1,1,119.71-119.7Z"/><path class="cls-3" d="M129.47,209.93c-1.77-.48-1.76-1.08-2.08-1.87-3.69-9.23-2.74-35.2,1.47-50.92,1.74-6.51,7-13.52,15.1-22.65,7.19-8.11,22.6-18.63,22.14-39.87s-14.46-79.08-14.46-79.08H87.77s-14,57.84-14.46,79.08,15.37,34.8,22.14,39.77,12.32,12.35,15.11,22.75c4.21,15.72,4.36,41.69.67,50.92-1.81,4.51-29.78,2.71-35.21,9s16.27,6.78,16.27,6.78h54.83s21.7-.45,16.27-6.78C158.93,211.89,129.49,209.94,129.47,209.93Z"/><path class="cls-4" d="M148.28,68.64H91.13c-2,12.35-2.51,21-2.4,27a25.54,25.54,0,0,0,8.08,18.17c20,18.75,22.62,26,22.9,28,.27-2.07,2.89-9.29,22.89-28a25.5,25.5,0,0,0,8.08-18.17C150.79,89.63,150.25,81,148.28,68.64Z"/></svg>