<svg viewBox="0 0 64 80" xmlns="http://www.w3.org/2000/svg"><title>Learn HTML icon</title><path d="M2 0h60a2 2 0 0 1 2 2v61.727a2 2 0 0 1-1.151 1.811l-30 14.064a2 2 0 0 1-1.698 0l-30-14.064A2 2 0 0 1 0 63.728V2a2 2 0 0 1 2-2zm42.08 36.045v13.493l-12.127 6.21L20 49.484v-5.458h-4v6.724a2 2 0 0 0 1.082 1.777l14.037 7.25a2 2 0 0 0 1.84-.003l14.043-7.298a2 2 0 0 0 1.077-1.775V34.045a2 2 0 0 0-2-2H20V20h28v-4H18a2 2 0 0 0-2 2v16.045a2 2 0 0 0 2 2h26.08z" fill="currentColor" fill-rule="nonzero"></path></svg>