<svg id="Layer_1" data-name="Layer 1" xmlns="http://www.w3.org/2000/svg" viewBox="0 0 500 500"><defs><style>.cls-1,.cls-2{fill:#e6e6e6;}.cls-2{opacity:0.2;isolation:isolate;}.cls-3{fill:#1a1a1a;}</style></defs><title>img_locked</title><path class="cls-1" d="M227.75,201.48V191.41h2.13v10.07Z"/><path class="cls-1" d="M239.15,201.48h-2.1V197a2.25,2.25,0,0,0-.28-1.25,1,1,0,0,0-.88-.41,1.27,1.27,0,0,0-1.17.59,3.91,3.91,0,0,0-.36,2v3.62h-2.11v-7.7h1.61l.28,1h.12a2.19,2.19,0,0,1,.9-.83,2.88,2.88,0,0,1,1.34-.3,2.43,2.43,0,0,1,2.34,1.13H239a2.16,2.16,0,0,1,.91-.83,3,3,0,0,1,1.36-.3,2.69,2.69,0,0,1,2,.68,3,3,0,0,1,.67,2.15v5h-2.11V197a2.25,2.25,0,0,0-.28-1.25,1,1,0,0,0-.88-.41,1.3,1.3,0,0,0-1.15.55,3.06,3.06,0,0,0-.39,1.75Z"/><path class="cls-1" d="M251,201.48l-.41-1h0a3.2,3.2,0,0,1-1.09.92,3.46,3.46,0,0,1-1.47.26,2.39,2.39,0,0,1-1.75-.63,2.46,2.46,0,0,1-.63-1.81,2,2,0,0,1,.85-1.81,5,5,0,0,1,2.59-.64l1.34,0v-.34a1,1,0,0,0-1.2-1.17,5.31,5.31,0,0,0-2.17.56l-.7-1.42a6.21,6.21,0,0,1,3-.7,3.67,3.67,0,0,1,2.38.68,2.49,2.49,0,0,1,.83,2v5.13Zm-.62-3.57-.81,0a2.64,2.64,0,0,0-1.37.33,1.05,1.05,0,0,0-.45.93c0,.59.34.89,1,.89a1.61,1.61,0,0,0,1.17-.42,1.51,1.51,0,0,0,.44-1.12Z"/><path class="cls-1" d="M261.35,193.78v1.07l-1.21.31a2.1,2.1,0,0,1,.33,1.16,2.35,2.35,0,0,1-.86,1.93,3.77,3.77,0,0,1-2.4.69l-.38,0-.31,0a.69.69,0,0,0-.33.55c0,.3.39.45,1.16.45h1.31a2.92,2.92,0,0,1,1.93.55,1.92,1.92,0,0,1,.67,1.6,2.36,2.36,0,0,1-1.13,2.09,5.82,5.82,0,0,1-3.23.75,4.44,4.44,0,0,1-2.47-.57,1.76,1.76,0,0,1-.85-1.57,1.72,1.72,0,0,1,.43-1.17,2.47,2.47,0,0,1,1.28-.66,1.55,1.55,0,0,1-.57-.46,1.05,1.05,0,0,1-.24-.66,1.07,1.07,0,0,1,.26-.73,2.76,2.76,0,0,1,.74-.58,2.08,2.08,0,0,1-1-.84,2.63,2.63,0,0,1-.35-1.37,2.4,2.4,0,0,1,.82-2,3.55,3.55,0,0,1,2.34-.69,5.87,5.87,0,0,1,.77.06l.57.09Zm-6,8.79a.78.78,0,0,0,.42.69,2.32,2.32,0,0,0,1.17.24,4.1,4.1,0,0,0,1.77-.31.94.94,0,0,0,.64-.84.6.6,0,0,0-.38-.6,3.07,3.07,0,0,0-1.17-.17h-1.09a1.66,1.66,0,0,0-1,.27A.86.86,0,0,0,255.4,202.57Zm.77-6.27a1.55,1.55,0,0,0,.28,1,1,1,0,0,0,.87.37,1,1,0,0,0,.87-.37,1.55,1.55,0,0,0,.28-1c0-.93-.38-1.39-1.15-1.39S256.17,195.37,256.17,196.3Z"/><path class="cls-1" d="M266.1,201.62a4,4,0,0,1-2.9-1,3.9,3.9,0,0,1-1.05-2.91,4.28,4.28,0,0,1,1-3,3.93,3.93,0,0,1,5.22-.13,3.58,3.58,0,0,1,.91,2.58v1h-5a2,2,0,0,0,.53,1.39,1.84,1.84,0,0,0,1.39.51,5.62,5.62,0,0,0,1.32-.15,6.29,6.29,0,0,0,1.29-.46v1.63a5,5,0,0,1-1.18.41A7.33,7.33,0,0,1,266.1,201.62Zm-.29-6.49a1.33,1.33,0,0,0-1.05.42,2,2,0,0,0-.43,1.21h2.95a1.8,1.8,0,0,0-.41-1.21A1.39,1.39,0,0,0,265.81,195.13Z"/><path class="cls-1" d="M226.27,218.42V208.35h2.13v8.31h4.09v1.76Z"/><path class="cls-1" d="M241.08,214.56a4.15,4.15,0,0,1-1,2.94,3.6,3.6,0,0,1-2.77,1.06,3.86,3.86,0,0,1-1.95-.48,3.29,3.29,0,0,1-1.31-1.4,4.73,4.73,0,0,1-.45-2.12,4.16,4.16,0,0,1,1-2.94,3.64,3.64,0,0,1,2.78-1.05,3.79,3.79,0,0,1,1.95.49,3.24,3.24,0,0,1,1.31,1.38A4.7,4.7,0,0,1,241.08,214.56Zm-5.33,0a3.24,3.24,0,0,0,.38,1.73,1.34,1.34,0,0,0,1.22.58,1.31,1.31,0,0,0,1.21-.58,3.25,3.25,0,0,0,.37-1.73,3.16,3.16,0,0,0-.37-1.72,1.59,1.59,0,0,0-2.44,0A3.26,3.26,0,0,0,235.75,214.56Z"/><path class="cls-1" d="M246,218.56c-2.4,0-3.6-1.31-3.6-3.95a4.22,4.22,0,0,1,1-3,3.67,3.67,0,0,1,2.8-1,5.36,5.36,0,0,1,2.4.53l-.62,1.62c-.33-.13-.64-.24-.92-.32a2.85,2.85,0,0,0-.86-.13c-1.09,0-1.64.78-1.64,2.33s.55,2.26,1.64,2.26a3.72,3.72,0,0,0,1.13-.16,4.11,4.11,0,0,0,1-.51V218a3.21,3.21,0,0,1-1,.45A6,6,0,0,1,246,218.56Z"/><path class="cls-1" d="M252.09,214.23l.92-1.17,2.16-2.34h2.37l-3.06,3.34,3.25,4.36H255.3l-2.22-3.12-.9.73v2.39h-2.1V207.7h2.1v4.78l-.11,1.75Z"/><path class="cls-1" d="M262.32,218.56a4,4,0,0,1-2.91-1,3.9,3.9,0,0,1-1.05-2.91,4.28,4.28,0,0,1,1-3,3.46,3.46,0,0,1,2.68-1.06,3.39,3.39,0,0,1,2.54.93,3.52,3.52,0,0,1,.91,2.58v1h-5a2,2,0,0,0,.53,1.39,1.86,1.86,0,0,0,1.39.51,5.56,5.56,0,0,0,1.32-.15,6.36,6.36,0,0,0,1.3-.46V218a5.15,5.15,0,0,1-1.18.41A7.46,7.46,0,0,1,262.32,218.56Zm-.3-6.49a1.36,1.36,0,0,0-1,.42,2,2,0,0,0-.43,1.21h2.95a1.8,1.8,0,0,0-.41-1.21A1.37,1.37,0,0,0,262,212.07Z"/><path class="cls-1" d="M269.61,218.56a2.49,2.49,0,0,1-2.13-1.05,5.9,5.9,0,0,1,0-5.88,2.58,2.58,0,0,1,2.17-1.06,2.52,2.52,0,0,1,2.22,1.13H272a9,9,0,0,1-.16-1.53V207.7h2.11v10.72h-1.61l-.41-1h-.09A2.39,2.39,0,0,1,269.61,218.56Zm.74-1.67a1.44,1.44,0,0,0,1.18-.47,2.69,2.69,0,0,0,.41-1.59v-.23a3.2,3.2,0,0,0-.38-1.78,1.43,1.43,0,0,0-1.25-.54,1.23,1.23,0,0,0-1.09.6,3.17,3.17,0,0,0-.39,1.73,3,3,0,0,0,.39,1.71A1.3,1.3,0,0,0,270.35,216.89Z"/><path class="cls-2" d="M243.23,287.93h-7.52v-6.77a14.29,14.29,0,0,1,28.58,0v6.77h-7.52v-6.77a6.77,6.77,0,1,0-13.54,0Z"/><path class="cls-3" d="M271.06,292.44v18.05a4.51,4.51,0,0,1-4.52,4.51H233.46a4.51,4.51,0,0,1-4.52-4.51h0V292.44a4.51,4.51,0,0,1,4.52-4.51h33.08A4.51,4.51,0,0,1,271.06,292.44Z"/></svg>