<svg id="Layer_1" data-name="Layer 1" xmlns="http://www.w3.org/2000/svg" viewBox="0 0 400 400"><defs><style>.cls-1{font-size:14.12px;font-family:OpenSans-Bold, Open Sans;font-weight:700;}.cls-1,.cls-2{fill:#e6e6e6;}.cls-2{opacity:0.2;isolation:isolate;}.cls-3{fill:#1a1a1a;}</style></defs><title>img_locked</title><text class="cls-1" transform="translate(176.48 151.48)">Image <tspan x="-1.48" y="16.94">Locked</tspan></text><path class="cls-2" d="M191.83,237.3h-9.09v-8.17a17.26,17.26,0,0,1,34.52,0v8.17h-9.09v-8.17a8.17,8.17,0,1,0-16.34,0Z"/><path class="cls-3" d="M225.43,242.75v21.8A5.45,5.45,0,0,1,220,270H180a5.45,5.45,0,0,1-5.45-5.45h0v-21.8A5.45,5.45,0,0,1,180,237.3h40A5.45,5.45,0,0,1,225.43,242.75Z"/></svg>