<?xml version="1.0" encoding="utf-8"?>
<!-- Generator: Adobe Illustrator 24.0.2, SVG Export Plug-In . SVG Version: 6.00 Build 0)  -->
<svg version="1.1" id="Layer_1" xmlns="http://www.w3.org/2000/svg" xmlns:xlink="http://www.w3.org/1999/xlink" x="0px" y="0px"
	 viewBox="0 0 400 400" style="enable-background:new 0 0 400 400;" xml:space="preserve">
<style type="text/css">
	.st0{fill:#E6E6E6;}
	.st1{font-family:'OpenSans-Bold';}
	.st2{font-size:14.12px;}
	.st3{opacity:0.2;fill:#E6E6E6;enable-background:new    ;}
	.st4{fill:#1A1A1A;}
</style>
<text transform="matrix(1 0 0 1 176.48 151.38)" class="st0 st1 st2">Image </text>
<text transform="matrix(1 0 0 1 175 168.32)" class="st0 st1 st2">Locked</text>
<path class="st3" d="M191.8,237.3h-9.1v-8.2c0-9.5,7.7-17.3,17.3-17.3c9.5,0,17.3,7.7,17.3,17.3l0,0v8.2h-9.1v-8.2
	c0-4.5-3.7-8.2-8.2-8.2c-4.5,0-8.2,3.7-8.2,8.2c0,0,0,0,0,0L191.8,237.3z"/>
<path class="st4" d="M225.4,242.8v21.8c0,3-2.4,5.4-5.4,5.5h-40c-3,0-5.4-2.4-5.4-5.5l0,0l0,0v-21.8c0-3,2.4-5.4,5.4-5.4h40
	C223,237.3,225.4,239.7,225.4,242.8z"/>
</svg>
