<?xml version="1.0" encoding="utf-8"?>
<!-- Generator: Adobe Illustrator 24.0.2, SVG Export Plug-In . SVG Version: 6.00 Build 0)  -->
<svg version="1.1" id="Layer_1" xmlns="http://www.w3.org/2000/svg" xmlns:xlink="http://www.w3.org/1999/xlink" x="0px" y="0px"
	 viewBox="0 0 448 450" style="enable-background:new 0 0 448 450;" xml:space="preserve">
<style type="text/css">
	.st0{fill:#FFFFFF;}
</style>
<path class="st0" d="M434,66.2c-9.5-23.7-27.6-41.8-51.2-51.2C347.4,1.1,263.2,4.2,224,4.2C184.8,4.2,100.7,1,65.2,15
	C41.6,24.5,23.4,42.7,14,66.2C0.1,101.6,3.2,185.8,3.2,225C3.2,264.2,0,348.3,14,383.8c9.5,23.7,27.6,41.8,51.2,51.2
	c35.3,13.9,119.6,10.8,158.8,10.8c39.2,0,123.3,3.2,158.8-10.8c23.7-9.5,41.8-27.6,51.2-51.2c14.1-35.3,10.8-119.6,10.8-158.8
	C444.8,185.8,448,101.7,434,66.2z M224,363.1c-76.4,0-138.1-61.7-138.1-138.1S147.6,86.9,224,86.9S362.1,148.6,362.1,225
	S300.4,363.1,224,363.1z M367.7,113.5c-17.9,0-32.2-14.4-32.2-32.2s14.4-32.2,32.2-32.2s32.2,14.4,32.2,32.2
	C399.9,99.2,385.5,113.5,367.7,113.5z"/>
<ellipse transform="matrix(0.7071 -0.7071 0.7071 0.7071 -93.491 224.2929)" class="st0" cx="224" cy="225" rx="89.8" ry="89.8"/>
</svg>
