<?xml version="1.0" encoding="utf-8"?>
<!-- Generator: Adobe Illustrator 24.0.2, SVG Export Plug-In . SVG Version: 6.00 Build 0)  -->
<svg version="1.1" id="Layer_1" xmlns="http://www.w3.org/2000/svg" xmlns:xlink="http://www.w3.org/1999/xlink" x="0px" y="0px"
	 viewBox="0 0 1750.8 1750.8" style="enable-background:new 0 0 1750.8 1750.8;" xml:space="preserve">
<style type="text/css">
	.st0{fill:#2062AF;}
	.st1{fill:#3C9CD7;}
	.st2{fill:#FFFFFF;}
	.st3{fill:url(#SVGID_1_);}
	.st4{fill:url(#SVGID_2_);}
	.st5{fill:url(#SVGID_3_);}
	.st6{opacity:5.000000e-02;enable-background:new    ;}
	.st7{fill:url(#SVGID_4_);}
</style>
<path class="st0" d="M1507.7,1580.6l-632.3,170.2L243,1580.6L97.2,0h1556.3L1507.7,1580.6z"/>
<path class="st1" d="M875.4,128v1487.1l1.4,0.4l511.7-137.8L1506.6,128L875.4,128L875.4,128z"/>
<path class="st2" d="M874.8,523.2L422.3,711.7l15,186.6l437.5-187.1l465.4-199l19.3-190.9L874.8,523.2L874.8,523.2z"/>
<linearGradient id="SVGID_1_" gradientUnits="userSpaceOnUse" x1="434.9611" y1="1357.8854" x2="434.9611" y2="1438.6946" gradientTransform="matrix(4.6418 0 0 -4.6418 -1370.4026 7201.3325)">
	<stop  offset="0.387" style="stop-color:#D1D3D4;stop-opacity:0"/>
	<stop  offset="1" style="stop-color:#D1D3D4"/>
</linearGradient>
<path class="st3" d="M422.3,711.7l15,186.6l437.5-187.1v-188L422.3,711.7z"/>
<linearGradient id="SVGID_2_" gradientUnits="userSpaceOnUse" x1="535.9133" y1="1398.1931" x2="535.9133" y2="1482.1907" gradientTransform="matrix(4.6418 0 0 -4.6418 -1370.4026 7201.3325)">
	<stop  offset="0.387" style="stop-color:#D1D3D4;stop-opacity:0"/>
	<stop  offset="1" style="stop-color:#D1D3D4"/>
</linearGradient>
<path class="st4" d="M1359.5,321.3L874.8,523.2v188l465.4-199L1359.5,321.3z"/>
<linearGradient id="SVGID_3_" gradientUnits="userSpaceOnUse" x1="386.3701" y1="1321.8434" x2="580.4111" y2="1321.8434" gradientTransform="matrix(4.6418 0 0 -4.6418 -1370.4026 7201.3325)">
	<stop  offset="0" style="stop-color:#E8E7E5"/>
	<stop  offset="1" style="stop-color:#FFFFFF"/>
</linearGradient>
<path class="st5" d="M423,711.7l15,186.6l671.3,2.1l-15,248.8l-220.9,62.2L661,1157.8l-12.9-154.4H450.8l25.7,298.1l398.9,118
	l396.8-115.8l51.5-591.9L423,711.7L423,711.7z"/>
<path class="st6" d="M874.8,711.7H422.3l15,186.6l437.5,1.4V711.7L874.8,711.7z M874.8,1210.8l-2.1,0.6l-212.4-53.6l-12.9-154.4
	H450.2l25.7,298.1l398.9,118V1210.8z"/>
<linearGradient id="SVGID_4_" gradientUnits="userSpaceOnUse" x1="377.4296" y1="1461.6276" x2="588.1237" y2="1461.6276" gradientTransform="matrix(4.6418 0 0 -4.6418 -1370.4026 7201.3325)">
	<stop  offset="0" style="stop-color:#E8E7E5"/>
	<stop  offset="1" style="stop-color:#FFFFFF"/>
</linearGradient>
<path class="st7" d="M381.5,321.3h978l-19.3,190.9H405.1L381.5,321.3L381.5,321.3z"/>
<path class="st6" d="M874.8,321.3H381.5l23.6,190.9h469.7V321.3L874.8,321.3z"/>
</svg>
