<?xml version="1.0" encoding="utf-8"?>
<!-- Generator: Adobe Illustrator 24.0.2, SVG Export Plug-In . SVG Version: 6.00 Build 0)  -->
<svg version="1.1" id="Layer_1" xmlns="http://www.w3.org/2000/svg" xmlns:xlink="http://www.w3.org/1999/xlink" x="0px" y="0px"
	 viewBox="0 0 80 80" style="enable-background:new 0 0 80 80;" xml:space="preserve">
<style type="text/css">
	.st0{fill:#539E44;}
</style>
<title>Learn Node.js icon</title>
<path class="st0" d="M76,27.9v21.3c0,8.2,0.3,9.3-0.9,10.8c-1.3,1.8-3.4,2.6-5.4,4.1c-2,1.5-21.7,12.3-24.9,14.1
	C41.5,80,41.1,80,39.5,80s-2.7-1.1-4-1.7c-1.3-0.7-6.9-4-8.7-5c-1.9-0.9,0.6-1.2,1.9-1.9c1.3-0.7,1.8-1.3,2.7-1.3
	c0.9,0,1.9,0.8,4.9,2.6c3,1.8,3.3,2.6,5.7,1.2c1.3-0.8,7.6-4.3,13.7-7.8c7.5-4.3,12.4-6.9,13.6-7.8c1.3-0.9,1.8-1.8,1.8-3v-5.1V24.1
	c0-1.3-0.7-2.4-1.8-3l-27-15.6c-1.1-0.6-2.4-0.6-3.5,0l-27,15.6c-1.1,0.6-1.8,1.8-1.8,3v31.2c0,1.3,0.7,2.4,1.8,3l7.1,4.1
	c2.1,0.9,3.8,0.9,5.4,0c1-0.9,1.5-1.9,1.5-3.1v-2V26.5c0-0.9,0.3-1.4,0.9-1.4h3.6c1.1,0,1,0.9,1,1.4v32.8c0,4.4-1,6-3.3,7.8
	c-1.4,1.1-5,1.8-7.6,1.3c-0.8-0.2-1.9-0.5-3.2-1c-2.1-1.2-3.8-2.2-7.9-4.6C6.6,61.2,5,58.4,5,55.4V24.1c0-3.1,1.6-5.9,4.3-7.4
	l27-15.6c2.6-1.5,5.9-1.5,8.5,0l27,15.6c2.6,1.5,4.3,4.3,4.3,7.4C76,24.1,76,27.9,76,27.9z M48.8,24.2c2.3,0,8.2,0.4,11.2,3.3
	c3,2.8,3.1,6.3,3.1,6.8c0,0.5-0.3,1.1-1.4,1.1h-3.1c-0.7,0-1.3-0.5-1.3-1.1c0-0.1,0-0.4-0.1-0.8c-0.4-1-1.4-2.6-2.7-3.2
	c-1.8-0.9-4.5-0.9-5.7-0.9s-5.1,0-6.6,0.9c-1.5,0.9-2.5,2.5-1.9,4c0.7,1.5,3.6,2.4,8.5,2.8c4.9,0.5,11.2,2,13.2,3.7s2.4,4,2.2,6.4
	c-0.2,2.4-1.6,6-5.6,7.7c-4,1.7-6.9,1.6-9.8,1.6s-6.2-0.3-8.5-1.2c-2.3-1-3.5-1.6-4.3-2.5c-0.9-0.9-1.3-1.4-1.8-2.7
	c-0.5-1.3-0.8-2.9-0.8-3.9s-0.1-1.3,1.9-1.3h1.5c1.3,0,2.1,0,2.1,1.3s0.6,2.1,1,2.5s1.5,1.5,3.1,1.9c1.6,0.4,3.8,0.6,5.8,0.6
	c2,0,5,0,7.1-1.2c2.2-1.1,2.5-2.1,2.5-3c0-0.9-0.1-2.6-3.2-3.4c-3.1-0.9-8.4-1-10.7-1.5s-8.5-2.1-9.7-5.6c-1.2-3.5-0.7-6.7,1.7-8.8
	c2.4-2.1,4.4-2.6,5.7-3C43.5,24.6,46.5,24.2,48.8,24.2L48.8,24.2z"/>
</svg>
