<svg viewBox="0 0 48 48" version="1.1" xmlns="http://www.w3.org/2000/svg" xmlns:xlink="http://www.w3.org/1999/xlink"><title>Create a Back-End App with JavaScript icon</title><desc>Created with sketchtool.</desc><defs><rect id="path-1" x="0" y="0" width="48" height="48" rx="4"/></defs><g id="Container-Completion" stroke="none" stroke-width="1" fill="none" fill-rule="evenodd"><rect id="Rectangle" fill="#FFFFFF" x="-148" y="-195" width="776" height="1009"/><g id="thumbnail-sm-skill-backend"><mask id="mask-2" fill="white"><use xmlns:xlink="http://www.w3.org/1999/xlink" xlink:href="#path-1"/></mask><use id="Rectangle" fill="#3EB38C" xmlns:xlink="http://www.w3.org/1999/xlink" xlink:href="#path-1"/><g id="Group-2" mask="url(#mask-2)" fill="#164032"><g transform="translate(-6.000000, 12.000000)" id="Popout"><rect x="0" y="0" width="19" height="8" rx="2"/></g></g><g id="Group-2-Copy" mask="url(#mask-2)" fill="#164032"><g transform="translate(-6.000000, 22.000000)" id="Popout"><rect x="0" y="0" width="19" height="8" rx="2"/></g></g><g id="Group-2-Copy-2" mask="url(#mask-2)" fill="#164032"><g transform="translate(-6.000000, 32.000000)" id="Popout"><rect x="0" y="0" width="19" height="8" rx="2"/></g></g><g id="Group" mask="url(#mask-2)"><g transform="translate(16.000000, 4.000000)"><path d="M0,44 L32,44 L32,0 L2,0 C0.8954305,2.02906125e-16 -1.3527075e-16,0.8954305 0,2 L0,44 L0,44 Z" id="Window" fill="#91F2D2"/><path d="M6,4 C6,5.10457899 5.10476079,6 4.00011712,6 C2.89547344,6 2,5.10457899 2,4 C2,2.89542101 2.89547344,2 4.00011712,2 C5.10476079,2 6,2.89542101 6,4" id="Dot-2" fill="#164032"/><path d="M12,4 C12,5.10457899 11.1047608,6 10.0001171,6 C8.89547344,6 8,5.10457899 8,4 C8,2.89542101 8.89547344,2 10.0001171,2 C11.1047608,2 12,2.89542101 12,4" id="Dot-2-Copy" fill="#164032"/><path d="M18,4 C18,5.10457899 17.1047608,6 16.0001171,6 C14.8954734,6 14,5.10457899 14,4 C14,2.89542101 14.8954734,2 16.0001171,2 C17.1047608,2 18,2.89542101 18,4" id="Dot-2-Copy-2" fill="#164032"/></g></g><g id="Group" mask="url(#mask-2)" fill="#3EB38C"><g transform="translate(24.000000, 16.000000)" id="Window"><path d="M0,44 L32,44 L32,0 L2,0 C0.8954305,2.02906125e-16 -1.3527075e-16,0.8954305 0,2 L0,44 L0,44 Z"/></g></g><rect id="Rectangle" fill="#164032" mask="url(#mask-2)" x="12" y="25" width="12" height="2"/><rect id="Rectangle-Copy" fill="#164032" mask="url(#mask-2)" x="12" y="15" width="4" height="2"/></g></g></svg>