<?xml version="1.0" encoding="utf-8"?>
<!-- Generator: Adobe Illustrator 24.0.2, SVG Export Plug-In . SVG Version: 6.00 Build 0)  -->
<svg version="1.1" id="Layer_1" xmlns="http://www.w3.org/2000/svg" xmlns:xlink="http://www.w3.org/1999/xlink" x="0px" y="0px"
	 viewBox="0 0 77.5 77.5" style="enable-background:new 0 0 77.5 77.5;" xml:space="preserve">
<style type="text/css">
	.st0{fill-rule:evenodd;clip-rule:evenodd;fill:#EA4F31;}
</style>
<title>Learn Git icon</title>
<path class="st0" d="M25.9,12l7.1,7.1c-0.9,3,0.8,6.3,3.8,7.3v24.7c-3.1,1.1-4.8,4.5-3.7,7.7c1.1,3.1,4.5,4.8,7.7,3.7
	s4.8-4.5,3.7-7.7c-0.6-1.7-1.9-3.1-3.7-3.7V26.9l10.8,10.8c-1.7,2.9-0.7,6.5,2.1,8.2s6.5,0.7,8.2-2.1c1.7-2.9,0.7-6.5-2.1-8.2
	c-1.6-0.9-3.4-1.1-5.1-0.5l-11-11c1.9-2.7,1.2-6.5-1.5-8.3c-2.1-1.4-4.8-1.4-6.8,0l-6.6-6.6l8.6-8.6c0.8-0.8,2-0.8,2.8,0L77,37.4
	c0.8,0.8,0.8,2,0,2.8L40.2,77c-0.8,0.8-2,0.8-2.8,0L0.6,40.2c-0.8-0.8-0.8-2,0-2.8L25.9,12L25.9,12z"/>
</svg>
