<?xml version="1.0" encoding="utf-8"?>
<!-- Generator: Adobe Illustrator 24.0.2, SVG Export Plug-In . SVG Version: 6.00 Build 0)  -->
<svg version="1.1" id="Layer_1" xmlns="http://www.w3.org/2000/svg" xmlns:xlink="http://www.w3.org/1999/xlink" x="0px" y="0px"
	 viewBox="0 0 80 80" style="enable-background:new 0 0 80 80;" xml:space="preserve">
<style type="text/css">
	.st0{fill-rule:evenodd;clip-rule:evenodd;fill:#FFFFFF;}
	.st1{fill:url(#SVGID_1_);}
</style>
<title>Learn Node-SQLite icon</title>
<g>
	<path class="st0" d="M62,72c-0.7-2.1-1.1-4.7-1.1-7.8c0-4.6-0.9-9-1.9-10.3c0-1.2,0.2-2.1,0.5-2.5c0.8,1.8,1.2,2.5,1.4,2.2
		c0.1-0.3-0.2-1.3-1-3.1c-0.1-1,0.1-1.8,0.6-2.5c0.4,0.8,1.2,3.3,1.3,2.7c0.1-0.5-0.2-1.7-0.9-3.8c0.5-3.9,1.8-7.3,3.9-10.4
		c3-4.6,6.9-10.3,10.3-10.5c3.5-0.2,6,3,4.4,9.1s-3.7,9.6-4.8,10.9c-0.9,1-5.7,3.2-6.8,4c-0.3,0.2-0.4,0.7,0,0.6
		c1.2-0.3,2.7-0.7,4.7-1.2c-1.1,2.4-2.6,4.4-4.4,5.9c-2.7,2.2-4.4,3.6-4.9,4.6c0-3.4,1.5-9.3,4.4-15.7s8.4-13.6,8-13.9
		c-1.1-0.9-6.7,8.3-9.1,13.2c-2.3,4.9-4.1,11.6-4.3,13.8C62.1,58.8,62,63.7,62,72L62,72z"/>
	
		<linearGradient id="SVGID_1_" gradientUnits="userSpaceOnUse" x1="34.55" y1="79.3094" x2="34.55" y2="4.801" gradientTransform="matrix(1 0 0 -1 0 82)">
		<stop  offset="0" style="stop-color:#97D9F6"/>
		<stop  offset="9.386492e-02" style="stop-color:#8BCFF1"/>
		<stop  offset="0.5105" style="stop-color:#58A4DD"/>
		<stop  offset="0.8255" style="stop-color:#388AD1"/>
		<stop  offset="1" style="stop-color:#2C80CC"/>
	</linearGradient>
	<path class="st1" d="M18.8,61.7c-1.6,0.8-3.2,0.8-5.2,0l-6.9-4C5.6,57.1,5,56,5,54.7V24.5c0-1.2,0.7-2.3,1.7-3L32.8,6.3
		c1.1-0.6,2.4-0.6,3.4,0l26.3,15.2c1.1,0.6,1.7,1.7,1.7,3v10.4c1-1.7,1.9-3.3,2.6-4.1c0.7-0.8,1.4-1.7,2.3-2.6v-3.7
		c0-3-1.6-5.7-4.1-7.2L38.7,2.1c-2.6-1.5-5.7-1.5-8.3,0L4.1,17.3C1.6,18.7,0,21.5,0,24.5v30.3c0,3,1.6,5.7,4.1,7.2
		c4,2.3,5.7,3.3,7.7,4.5c1.3,0.5,2.3,0.8,3.1,1c2.6,0.5,6-0.2,7.4-1.2c2.3-1.8,3.3-3.3,3.3-7.6V26.8c0-0.5,0.1-1.3-1-1.3h-3.5
		c-0.6,0-0.9,0.4-0.9,1.3v31.9C20.3,59.8,19.8,60.8,18.8,61.7z M20.7,71.5l5.5-2.4l6.6,3.8c1.1,0.6,2.4,0.6,3.4,0l23.1-13
		c0.3,1,0.4,2,0.4,3v2.4l-21,11.8c-2.6,1.5-5.7,1.5-8.3,0C26.9,75.1,22.2,72.4,20.7,71.5z M42.6,24.5c2.2,0,8,0.4,10.9,3.2
		s3,6.1,3,6.6s-0.3,1.1-1.4,1.1h-3c-0.7,0-1.2-0.5-1.2-1.1c0-0.2,0-0.5-0.1-0.7c-0.4-1-1.3-2.5-2.7-3.2c-1.7-0.8-4.4-0.9-5.5-0.9
		s-4.9,0-6.4,0.9s-2.5,2.4-1.8,3.9c0.6,1.5,3.5,2.3,8.3,2.8c4.7,0.5,10.9,1.9,12.8,3.6s2.4,3.9,2.1,6.2s-1.5,5.9-5.4,7.5
		c-3.9,1.7-6.7,1.6-9.5,1.6s-6-0.2-8.3-1.2s-3.4-1.6-4.2-2.4c-0.8-0.9-1.3-1.3-1.8-2.6s-0.8-2.9-0.8-3.7s-0.1-1.2,1.8-1.2h1.5
		c1.3,0,2.1,0,2.1,1.2s0.6,2,1,2.5s1.5,1.5,3.1,1.8c1.6,0.4,3.7,0.6,5.6,0.6c2,0,4.8,0,6.9-1.1c2.1-1.1,2.4-2,2.4-2.9
		s-0.1-2.5-3.1-3.3s-8.2-1-10.4-1.5s-8.3-2-9.4-5.4s-0.7-6.5,1.6-8.6c2.3-2,4.2-2.6,5.6-2.9C37.5,24.9,40.4,24.5,42.6,24.5z"/>
</g>
</svg>
