<svg viewBox="0 0 48 48" version="1.1" xmlns="http://www.w3.org/2000/svg" xmlns:xlink="http://www.w3.org/1999/xlink"><title>Code Foundations icon</title><desc>Created with sketchtool.</desc><defs><rect id="path-1" x="0" y="0" width="48" height="48" rx="4"/></defs><g id="Container-Completion" stroke="none" stroke-width="1" fill="none" fill-rule="evenodd"><rect id="Rectangle" fill="#FFFFFF" x="-496" y="-195" width="776" height="1009"/><g id="thumbnail-sm-career-codefoundations"><mask id="mask-2" fill="white"><use xmlns:xlink="http://www.w3.org/1999/xlink" xlink:href="#path-1"/></mask><use id="Rectangle" fill="#47CCA0" xmlns:xlink="http://www.w3.org/1999/xlink" xlink:href="#path-1"/><rect id="Rectangle" fill="#D957D9" mask="url(#mask-2)" x="28" y="8" width="12" height="12"/><rect id="Rectangle-Copy-7" fill="#D957D9" mask="url(#mask-2)" x="28" y="32" width="12" height="12"/><rect id="Rectangle-Copy-8" fill="#D957D9" mask="url(#mask-2)" x="16" y="32" width="12" height="12"/><rect id="Rectangle-Copy-2" fill="#FFFFFF" mask="url(#mask-2)" x="28" y="20" width="12" height="12"/><rect id="Rectangle-Copy" fill="#FFFFFF" mask="url(#mask-2)" x="16" y="8" width="12" height="12"/><rect id="Rectangle-Copy-3" fill="#10162F" mask="url(#mask-2)" x="16" y="20" width="12" height="12"/><rect id="Rectangle-Copy-4" fill="#10162F" mask="url(#mask-2)" x="4" y="20" width="12" height="12"/><rect id="Rectangle-Copy-5" fill="#10162F" mask="url(#mask-2)" x="4" y="32" width="12" height="12"/><rect id="Rectangle-Copy-6" fill="#10162F" mask="url(#mask-2)" x="40" y="32" width="12" height="12"/><circle id="Oval" stroke="#10162F" stroke-width="2" mask="url(#mask-2)" cx="22" cy="14" r="3"/><circle id="Oval-Copy-2" stroke="#FFFFFF" stroke-width="2" mask="url(#mask-2)" cx="22" cy="38" r="3"/><circle id="Oval-Copy-4" stroke="#FFFFFF" stroke-width="2" mask="url(#mask-2)" cx="10" cy="38" r="3"/><circle id="Oval-Copy-5" stroke="#FFFFFF" stroke-width="2" mask="url(#mask-2)" cx="10" cy="26" r="3"/><circle id="Oval-Copy-3" stroke="#FFFFFF" stroke-width="2" mask="url(#mask-2)" cx="34" cy="38" r="3"/><circle id="Oval-Copy" stroke="#FFFFFF" stroke-width="2" mask="url(#mask-2)" cx="34" cy="14" r="3"/><rect id="Rectangle" fill="#FFFFFF" mask="url(#mask-2)" x="21" y="22" width="2" height="8"/><rect id="Rectangle-Copy-10" fill="#FFFFFF" mask="url(#mask-2)" x="45" y="34" width="2" height="8"/><rect id="Rectangle-Copy-9" fill="#10162F" mask="url(#mask-2)" x="33" y="22" width="2" height="8"/></g></g></svg>