<?xml version="1.0" encoding="utf-8"?>
<!-- Generator: Adobe Illustrator 24.0.2, SVG Export Plug-In . SVG Version: 6.00 Build 0)  -->
<svg version="1.1" id="Layer_1" xmlns="http://www.w3.org/2000/svg" xmlns:xlink="http://www.w3.org/1999/xlink" x="0px" y="0px"
	 viewBox="0 0 80 80" style="enable-background:new 0 0 80 80;" xml:space="preserve">
<style type="text/css">
	.st0{fill:#E4E4E4;}
	.st1{fill:#E0E0E0;}
	.st2{fill:#DEDEDE;}
	.st3{fill:#DDDDDD;}
	.st4{fill:#DEDFDF;}
	.st5{fill:#CECFCF;}
	.st6{fill:#C9CACA;}
	.st7{fill:#E1E1E1;}
	.st8{fill:#C7C8C8;}
	.st9{fill:#CBCCCC;}
	.st10{fill:#CCCDCD;}
	.st11{fill:#EEEEEE;}
	.st12{fill:#F1F2F2;}
	.st13{fill:#E3E3E3;}
	.st14{fill:#D2D3D3;}
	.st15{fill:#E6E6E6;}
	.st16{fill:#C6C7C7;}
	.st17{fill:#EEEFEF;}
	.st18{fill:#DFDFDF;}
	.st19{fill:#EBECEC;}
	.st20{fill:#DBDBDB;}
	.st21{fill:#CFD0D0;}
	.st22{fill:#E3E4E4;}
	.st23{fill:#D4D5D5;}
	.st24{fill:#E5E6E6;}
	.st25{fill:#E8E9E9;}
	.st26{fill:#D9D9D9;}
	.st27{fill:#E1E2E2;}
	.st28{fill:#D6D7D7;}
	.st29{fill:#F0F0F0;}
	.st30{fill:#EDEDED;}
	.st31{fill:#EAEAEA;}
	.st32{fill:#E7E7E7;}
	.st33{fill:#E8E8E8;}
	.st34{fill:#F1F1F1;}
	.st35{fill:#F2F2F2;}
	.st36{fill:#F3F3F3;}
	.st37{fill:#EDECED;}
	.st38{fill:#F6F7F7;}
	.st39{fill:#F5F5F5;}
	.st40{fill:#F4F4F4;}
	.st41{fill:#EFEFEF;}
	.st42{fill:#EBEBEB;}
	.st43{fill:#E9E9E9;}
	.st44{fill:#E5E5E5;}
	.st45{fill:#ECECEC;}
	.st46{fill:#DFDEDF;}
	.st47{fill:#D1067B;}
	.st48{fill:#B9719A;}
	.st49{fill:#B7729A;}
	.st50{fill:#B6739A;}
	.st51{fill:#B2B2B2;}
	.st52{fill:#AFAFAF;}
	.st53{fill:#BA709B;}
	.st54{fill:#BC6F9B;}
	.st55{fill:#BD6F9C;}
	.st56{fill:#C36C9E;}
	.st57{fill:#C16D9D;}
	.st58{fill:#C2C3C3;}
	.st59{fill:#BF6E9C;}
	.st60{fill:#C86AA0;}
	.st61{fill:#C1C1C1;}
	.st62{fill:#B5B6B6;}
	.st63{fill:#BABBBB;}
	.st64{fill:#B6B7B7;}
	.st65{fill:#BDBDBD;}
	.st66{fill:#C5C6C6;}
	.st67{fill:#E80488;}
	.st68{fill:#E40485;}
	.st69{fill:#DF0483;}
	.st70{fill:#DC0481;}
	.st71{fill:#D4057D;}
	.st72{fill:#DB0480;}
	.st73{fill:#C50674;}
	.st74{fill:#B6076C;}
	.st75{fill:#BD0770;}
	.st76{fill:#B9076E;}
	.st77{fill:#CC0678;}
	.st78{fill:#D1057B;}
	.st79{fill:#B3B4B4;}
	.st80{fill:#E4E5E5;}
	.st81{fill:#BC709B;}
	.st82{fill:#DDB5CD;}
	.st83{fill:#DEB6CD;}
	.st84{fill:#BE6F9D;}
	.st85{fill:#DDB5CC;}
	.st86{fill:#A00A60;}
	.st87{fill:#A40963;}
	.st88{fill:#9D0C60;}
	.st89{fill:#CE6DA5;}
	.st90{fill:#AD0867;}
	.st91{fill:#A80965;}
	.st92{fill:#E6E7E7;}
	.st93{fill:#BEBFBF;}
	.st94{fill:#DCDDDD;}
	.st95{fill:#DDDEDE;}
	.st96{fill:#E680BB;}
	.st97{fill:#D5057D;}
	.st98{fill:#C00672;}
	.st99{fill:#CC0578;}
	.st100{fill:#E181B9;}
	.st101{fill:#B00869;}
	.st102{fill:#B5076C;}
	.st103{fill:#DC82B6;}
	.st104{fill:#D582B2;}
	.st105{fill:#C06B9D;}
	.st106{fill:#DFB6CD;}
	.st107{fill:#CE83AE;}
	.st108{fill:#D083AF;}
	.st109{fill:#CD85AE;}
	.st110{fill:#AD0967;}
	.st111{fill:#DCDCDC;}
	.st112{fill:#E7E8E8;}
	.st113{fill:#DFE0E0;}
	.st114{fill:#C90676;}
	.st115{fill:#C40674;}
	.st116{fill:#D2057B;}
	.st117{fill:#D383B1;}
	.st118{fill:#990D5E;}
	.st119{fill:#9B0C5F;}
	.st120{fill:#9D0B5F;}
	.st121{fill:#A90965;}
</style>
<title>How to Deploy a Website icon</title>
<g>
	<path class="st0" d="M61.3,7.7c0.5,0.6,0.9,1.3,1,2.1c0.2,1.4-0.4,2.4-1.6,2.9c-1.5,0.6-2.1,1.8-2.6,3.1
		c-2.9,7.8-5.9,15.5-8.9,23.2c-2.5,6.5-5,12.9-7.4,19.4c-1.9,5-3.8,10-5.7,15.1c-1.2,3.3-3.6,5.4-7,6.3c-0.2,0.1-0.4,0-0.6,0.1
		c-1,0.2-1.5-0.4-2-1.1c0-0.1,0-0.1,0-0.2c0.2-0.6,0.5-1.2,0.8-1.8c0.2-0.1,0.4-0.2,0.6-0.2c0.1,0,0.1,0,0.2,0.1
		c0,0.8-0.5,1.4-0.5,2.2c0.3,0,0.6,0,0.9-0.1c0.3-0.1,0.6-0.2,0.9-0.3c0.2-0.1,0.5-0.2,0.7-0.3c0.4-0.2,0.8-0.3,1.1-0.6
		c0.4-0.3,1-0.5,1.3-1c0.3-0.2,0.7-0.5,0.9-0.9c0.5-0.6,0.9-1.2,1.2-1.8c1.5-3.7,2.9-7.5,4.3-11.3c0.6-1.6,1.2-3.2,1.8-4.8
		c2.3-6.2,4.7-12.4,7.1-18.6c2-5.2,4-10.5,6-15.8c1.3-3.3,2.5-6.6,3.9-9.9c0.1-0.4,0.3-0.7,0.5-1c0.2-0.2,0.4-0.2,0.6-0.4
		c0.4-0.2,0.7-0.4,1.1-0.6c1.5-1,1.8-1.7,1.3-3.4c0-0.2-0.1-0.3-0.1-0.5C61.1,7.7,61.2,7.6,61.3,7.7z"/>
	<path class="st1" d="M40.3,10.4c0.3-0.7,0.4-1.5,0.8-2.2c0.5-1,0.4-1.9,0-2.8c0.4,0,0.4,0.3,0.6,0.5c0.1,0.2,0.3,0.4,0.5,0.7
		c0.1,0.1,0.2,0.2,0.3,0.4c0.1,0.2,0.3,0.3,0.2,0.5c-0.5,1.3-0.9,2.6-1.4,3.8c-0.7,2-1.4,3.9-2.1,5.9c-0.6,1.7-1.1,3.4-1.7,5.1
		c-0.4,1.2-0.9,2.4-1.3,3.6c-0.8,2.3-1.6,4.6-2.4,6.8c-0.5,1.4-1.1,2.9-1.5,4.3c-0.5,1.6-1.3,3.2-1.6,4.8c-0.1,0.5-0.6,0.9-0.3,1.4
		c-0.2,1.1-0.7,2.1-1.1,3.2c-1,2.6-2,5.2-3,7.8c-1.3,3.4-2.6,6.8-3.9,10.2c0,0.1-0.1,0.2-0.2,0.2c-0.6,0-0.6-0.3-0.5-0.7
		c0-0.1,0-0.1,0.1-0.2c0.9-2.2,1.6-4.4,2.4-6.6c0.9-2.5,1.7-5,2.6-7.5c0.2-0.7,0.7-1.2,0.7-1.9c0.5-1.4,1-2.9,1.5-4.3
		c0.4-1,0.7-2.1,1-3.1c0.5-1.4,1-2.9,1.4-4.3c0.1-0.5,0.5-0.9,0.5-1.4c0.4-0.8,0.6-1.6,0.9-2.5c0.4-1.1,0.8-2.1,1.1-3.2
		c0.1-0.4,0.3-0.8,0.3-1.2c0.6-1,0.9-2.1,1.1-3.3c0.7-1.1,1-2.4,1.4-3.6c0.8-2.3,1.5-4.6,2.4-6.9c0.4-1,0.8-2,1.1-3
		C40.2,10.7,40.3,10.6,40.3,10.4z"/>
	<path class="st2" d="M35.3,24.4c0.1,0.1,0.2,0.2,0.2,0.3c-0.5,1-0.5,2.1-1.2,3c0,0-0.1,0-0.2,0c-0.2,1.1-0.7,2.1-1.1,3.2
		c-0.5,1.2-0.7,2.5-1.2,3.8c0.1,0.1,0.2,0.2,0.2,0.2c-0.3,0.6-0.5,1.2-0.7,1.9c-0.2,0.5-0.5,1.1-0.6,1.7c-0.2,1-0.7,1.8-1,2.8
		c-0.3,1.3-0.8,2.5-1.3,3.7c-0.4,1-0.5,2-1.1,2.9c-0.7,1.3-1,2.7-1.5,4.1c-0.4,1.1-0.8,2.2-1.2,3.4c-0.6,1.7-1.2,3.5-1.8,5.1
		c-0.4,0.9-0.5,2-1,2.9c-0.1,0.2-0.1,0.5-0.1,0.7c-0.1,0.1-0.3,0.2-0.3,0.3c-0.3,1.5-0.9,2.8-1.4,4.2c0,0.1,0,0.2,0,0.4
		c0.1,0.4,0,0.8-0.1,1.2c-0.5,1.2-0.8,2.4-1.2,3.6c-0.1,0.2-0.1,0.5-0.4,0.4c-0.3-0.7-0.5-1.4-0.6-2.2c0.4-1.7,1.3-3.3,1.6-5
		c0.1-0.5,0.4-0.8,0.6-1.2c0.4-0.8,0.5-1.7,0.8-2.5c0.4-1.3,1-2.6,1.4-3.9c0.3-1.1,0.8-2.1,1.1-3.2c0.4-1.2,0.9-2.4,1.2-3.6
		c0.1-0.6,0.4-1.2,0.6-1.7c0.9-1.9,1.3-4,2.1-5.9c0.1-0.1,0.1-0.3,0-0.4c0.8-2.2,1.7-4.4,2.5-6.6c1.8-4.6,3.5-9.1,5.3-13.7
		c0-0.1,0.1-0.2,0.1-0.2C35.6,23.8,35.4,24.2,35.3,24.4z"/>
	<path class="st3" d="M27.1,44.5c0.2,0,0.3,0.1,0.2,0.4c-0.3,0.7-0.7,1.5-0.8,2.3c-0.1,0.9-0.7,1.5-0.8,2.4c0,0.5-0.6,1-0.7,1.6
		c-0.1,0.4-0.3,0.8-0.5,1.2c-0.1,0.4-0.4,0.8-0.3,1.3c0.1,0.4-0.2,0.7-0.4,1c-0.4,0.9-0.7,1.8-0.9,2.7c-0.3,1.1-0.9,2.1-1,3.2
		c-0.1,0.6-0.6,1.2-0.8,1.8c-0.3,1.2-0.6,2.4-1.1,3.4c-0.6,1.2-0.7,2.6-1.4,3.9c-0.2,0.4-0.5,1-0.5,1.6c0,0.2,0,0.6-0.4,0.6
		c-0.5-2.7,0.6-5.1,1.6-7.5c2.2-5.7,4.4-11.4,6.7-17.2C26.3,46.3,26.7,45.4,27.1,44.5z"/>
	<path class="st4" d="M35.3,24.4c-0.1-0.1,0-0.4-0.3-0.4c0.8-2.1,1.6-4.2,2.4-6.3c0.9-2.3,1.8-4.6,2.7-7c0-0.1,0.1-0.2,0.2-0.3
		c0.4,0.4,0,0.9-0.1,1.2c-0.5,1.2-0.7,2.5-1.3,3.7c-0.5,1-0.8,2.1-1.1,3.1c-0.5,1.6-1.2,3.2-1.6,4.9C36,23.7,35.8,24.2,35.3,24.4z"
		/>
	<path class="st5" d="M42.6,7.4c-0.1-0.1-0.2-0.3-0.3-0.4c0.8-1,1-2.2,1.3-3.3c0.1-0.4,0.2-0.7,0.4-0.9c0.4-0.7,0.7-1.3,0.7-2.1
		c0-0.2,0.1-0.4,0.2-0.5c0.3,0,0.7-0.1,1,0.1c-0.3,0.9-0.5,1.9-1,2.7c-0.1,0.1-0.1,0.3-0.2,0.4c-0.1,0.2,0,0.4-0.1,0.6
		c-0.5,1.1-0.8,2.2-1.2,3.3c-0.1,0.2-0.1,0.4-0.4,0.5C42.8,7.7,42.6,7.6,42.6,7.4z"/>
	<path class="st6" d="M41.5,5.9c-0.2-0.2-0.4-0.4-0.6-0.6c-0.1-0.3-0.3-0.5-0.3-0.9C41,4.4,41,4.8,41.4,4.8c0.1-1.2,0.7-2.2,0.9-3.3
		c0-0.2,0-0.4,0.2-0.5c0.2-0.4,0.3-0.5,0.1-0.8C43-0.1,43.5,0.1,44,0c0,0.5-0.2,1-0.4,1.4C43.4,2,43.4,2.6,43.1,3
		c-0.3,0.4-0.3,0.8-0.5,1.1c-0.2,0.4-0.4,0.9-0.6,1.4C42,5.7,41.9,6,41.5,5.9z"/>
	<path class="st1" d="M18.3,74c0.4-0.1,0.4-0.6,0.5-0.8c0.3-0.9,0.6-1.8,0.9-2.7c0.2-0.5,0.4-1.1,0.4-1.6c0.1-0.4,0.2-0.8,0.4-1.2
		c0.1-0.3,0.3-0.5,0.6-0.1c-0.2,1-0.4,2.1-0.4,3.1c-0.2,1.1-0.8,2-1,3.1c-0.1,0.4-0.2,1-0.9,1.1C18.6,74.6,18.5,74.3,18.3,74z"/>
	<path class="st7" d="M18.8,74.9c0.7-0.5,0.6-1.5,1-2.2c0.4-0.6,0.2-1.4,0.7-1.9c0.1,0.1,0.2,0.2,0.2,0.3c0,0.1,0,0.1,0.1,0.2
		c0,0.2,0.1,0.4,0.1,0.6c0.1,0.3,0.3,0.6,0.2,0.9c-0.3,1-0.8,1.9-1.1,2.9c0,0.2-0.1,0.5-0.4,0.4C19.2,75.9,19,75.4,18.8,74.9z"/>
	<path class="st8" d="M42.6,0.2c0.2,0.2,0.9,0.3,0.5,0.6c-0.8,0.4-0.5,1.2-0.8,1.8c-0.3,0.6-0.6,1.3-0.6,2c0,0.2-0.1,0.6-0.2,0.6
		c-0.4,0.1-0.4-0.4-0.7-0.6c-0.2-0.2-0.2-0.5-0.3-0.7c0.5-0.4,0.5-1,0.7-1.5c0.3-0.7,0.3-1.4,0.9-2C42.1,0.1,42.4,0.2,42.6,0.2z"/>
	<path class="st9" d="M41.5,5.9C42,5.8,41.9,5.4,42,5.1c0.2-0.6,0.4-1.4,0.8-1.9c0.4-0.6,0.3-1.4,0.7-2C43.7,0.9,43.6,0.4,44,0
		c0.1,0,0.3,0,0.4,0c0.1,0.4,0.1,0.9-0.1,1.2c-0.8,1.6-1.1,3.4-1.8,5c-0.1,0.3-0.2,0.5-0.6,0.4C41.9,6.4,41.5,6.3,41.5,5.9z"/>
	<path class="st0" d="M20.6,77.4c-0.2-0.1-0.3-0.2-0.4-0.4c0-0.4,0.2-0.8,0.4-1.1c0.2-0.4,0.5-0.9,0.5-1.4c0-0.3,0.2-0.6,0.6-0.6
		c0.3,0,0.4,0.3,0.5,0.4c0.2,0.2,0.4,0.4,0.4,0.7c-0.4,0.7-0.7,1.5-0.9,2.3c-0.2,0.7-0.3,0.7-0.9,0.3C20.7,77.4,20.7,77.4,20.6,77.4
		z"/>
	<path class="st10" d="M42,6.7c0.6-0.2,0.5-0.8,0.7-1.3c0.6-1.4,0.8-2.8,1.5-4.1c0.2-0.3,0-0.8,0.2-1.2c0.1,0,0.3,0,0.4,0
		c0,1-0.2,1.9-0.7,2.7C44,3,43.3,3.3,43.9,3.8c-0.6,0.2-0.2,0.8-0.5,1.1C43.2,5.2,43.1,5.6,43,6c-0.1,0.5-0.3,0.7-0.8,0.9
		C42.2,6.8,42.1,6.8,42,6.7z"/>
	<path class="st11" d="M26.5,78.7c0.5,0.5,1,1.2,1.9,1.2c-1.1,0.3-2.3,0.2-3.4-0.1c-1.2-0.3-2.4-0.7-3.4-1.5c0-0.2,0.1-0.2,0.3-0.2
		c0.3,0.1,0.6,0.3,1,0.4c0.3,0.1,0.7,0.2,1,0.3c0.3,0.1,0.7,0.2,1.1,0.2C25.5,79.3,26,78.8,26.5,78.7z"/>
	<path class="st12" d="M58.7,5.2c0.5,0.4,1.1,0.6,1.4,1.2c0,0,0.1,0.1,0,0.1c0,0,0,0.1,0,0.1c-0.4,0-0.6,0.2-0.7,0.7
		c-0.2,0.6-0.2,1.3-0.9,1.7c-0.1,0-0.1,0-0.2-0.1c-0.2-0.4-0.3-0.7-0.5-1.1C58.2,6.9,58.2,6,58.7,5.2z"/>
	<path class="st13" d="M21.6,73.9c-0.4,0.1-0.5,0.4-0.5,0.6c0,0.9-0.6,1.6-1,2.4c-0.3-0.1-0.4-0.4-0.6-0.7c0.3-0.7,0.6-1.4,0.9-2.1
		c0.2-0.4,0.2-0.9,0.5-1.2c0.1,0,0.2,0.1,0.3,0.1c0.1,0.2,0.3,0.4,0.4,0.7C21.7,73.8,21.7,73.9,21.6,73.9z"/>
	<path class="st14" d="M46.3,0.2c0.4,0.1,0.8,0.1,1.2,0.3c0.1,0.1,0.1,0.2,0,0.3c-0.4,0.6-0.3,1.3-0.5,2c-0.1,0.1-0.2,0.1-0.3,0.1
		c-0.1,0-0.1,0-0.2,0c-0.1,0,0,0-0.1,0c-1.2-0.2-1.2-0.2-0.7-1.4C45.9,1.2,46,1,46,0.7C45.9,0.5,46.1,0.3,46.3,0.2z"/>
	<path class="st15" d="M21.9,78.1c-0.1,0-0.2,0-0.3,0.1c-0.4-0.3-0.8-0.4-1-0.9c0.7,0.5,0.9,0.1,1-0.5c0.1-0.7,0.3-1.4,0.9-1.9
		c0.4-0.1,0.5,0.2,0.7,0.4c0,0.1,0,0.1,0,0.2c-0.4,0.5-0.4,1.2-0.7,1.8C22.4,77.6,22.3,77.9,21.9,78.1z"/>
	<path class="st16" d="M42,0.3c-0.5,1-0.7,2.1-1.1,3.1c-0.1,0.3-0.1,0.5-0.5,0.4c-0.1-0.6-0.2-1.1-0.1-1.7C40.6,1.1,41.1,0.5,42,0.3
		z"/>
	<path class="st17" d="M57.4,4.3c0.2,0.1,0.5,0.3,0.7,0.4c0.4,0.7,0.1,1.7-0.7,2.4c-0.4,0.1-0.6-0.2-0.8-0.4
		c-0.1-0.1-0.1-0.2-0.1-0.3c0.2-0.5,0.3-1,0.4-1.6C56.9,4.6,57.1,4.4,57.4,4.3z"/>
	<path class="st3" d="M50.4,1.2c0.3,0.1,0.6,0.2,0.9,0.3c0.1,0.1,0.3,0.2,0.2,0.3c-0.2,0.7-0.4,1.4-1,1.9c-0.3,0-0.6,0-0.9-0.3
		C49.6,2.6,49.9,1.9,50.4,1.2z"/>
	<path class="st18" d="M50.5,3.6c0.2-0.7,1-1.3,0.7-2.2c0.4,0.1,0.8,0.3,1.2,0.4c0.1,0.5-0.2,0.8-0.4,1.2c-0.1,0.3-0.3,0.6-0.1,0.9
		c-0.1,0-0.1,0.1-0.2,0.1c-0.3,0-0.5-0.2-0.8-0.2C50.7,3.9,50.5,3.9,50.5,3.6z"/>
	<path class="st19" d="M56,3.5c0.3,0.2,0.7,0.4,1,0.6c-0.4,0.7-0.4,1.6-0.9,2.2c-0.4-0.1-0.7-0.2-0.9-0.6C55.3,4.9,55.5,4.1,56,3.5z
		"/>
	<path class="st20" d="M50.4,1.2c0,0.6-0.4,1.1-0.5,1.7c0,0.2-0.2,0.3-0.2,0.5c-0.4,0.2-0.6,0.1-0.9-0.2c0.2-0.8,0.3-1.6,0.8-2.3
		C49.8,1,50.1,1.1,50.4,1.2z"/>
	<path class="st21" d="M46.3,0.2c-0.2,0.6-0.1,1.2-0.5,1.7c0,0-0.8,0.4-0.1,0.6c0.3,0.1,0.6,0,0.9,0.2c-0.6,0.3-1.2,0.3-1.9,0.2
		C45.2,2,45.3,1,45.9,0.2C46,0.2,46.2,0.2,46.3,0.2z"/>
	<path class="st22" d="M53,2.2c0.3,0,0.5,0.1,0.7,0.3c0.2,0.8-0.3,1.5-0.5,2.2c-0.4,0.2-0.6-0.1-0.8-0.3c-0.1-0.1-0.2-0.2-0.2-0.3
		C52.4,3.5,52.4,2.7,53,2.2z"/>
	<path class="st23" d="M47,2.8c-0.3-0.6,0-1.1,0.1-1.7c0.1-0.2,0.3-0.4,0.3-0.6c0.3,0,0.5,0,0.7,0.2C48.5,1.1,48,1.5,47.9,2
		c-0.1,0.3,0.1,0.8-0.5,0.9C47.3,2.9,47.1,2.9,47,2.8z"/>
	<path class="st24" d="M53.1,4.6c0-0.4,0-0.7,0.3-1c0.3-0.3-0.1-0.8,0.3-1.2c0.3,0.1,0.6,0.2,0.9,0.3c-0.2,0.8-0.3,1.6-0.9,2.2
		C53.4,5,53.1,5,53.1,4.6z"/>
	<path class="st25" d="M54.7,2.9c0.2,0.1,0.5,0.2,0.7,0.3c0.5,0.4,0,0.7,0,1.1c0,0.4-0.2,0.8-0.3,1.2c-0.1,0-0.1,0.1-0.2,0.1
		c-0.3,0-0.5-0.2-0.7-0.4c-0.2-0.3,0-0.5,0.1-0.8C54.5,3.9,54.5,3.4,54.7,2.9z"/>
	<path class="st26" d="M49.5,0.9c-0.1,0.8-0.2,1.5-0.7,2.2c-0.1,0.1-0.2,0.1-0.3,0.1c-0.1,0-0.1-0.1-0.2-0.1c-0.3-0.6-0.1-1.5,0.4-2
		c0.1-0.1,0.1-0.2,0.2-0.3C49.1,0.8,49.3,0.8,49.5,0.9z"/>
	<path class="st27" d="M53,2.2c-0.3,0.6-0.2,1.3-0.8,1.8c0,0,0.1,0.2,0.2,0.3c-0.3,0.2-0.4,0.1-0.6-0.2c-0.5-0.6,0.2-1,0.3-1.5
		c0-0.1,0.1-0.5,0.3-0.6C52.6,1.9,52.8,2.1,53,2.2z"/>
	<path class="st28" d="M48.9,0.7c-0.4,0.4-0.4,1-0.6,1.5c-0.1,0.2,0.2,0.5,0.2,0.8c-0.4,0.1-0.8,0.2-1-0.3c0.4-0.2,0.2-0.6,0.3-0.8
		c0.1-0.5,0.4-0.9,0.5-1.4C48.4,0.6,48.7,0.7,48.9,0.7z"/>
	<path class="st29" d="M57.4,7.1c0.4-0.4,0.4-0.9,0.7-1.4c0.2-0.3,0-0.6,0-1c0.2,0.1,0.4,0.3,0.6,0.4C58.5,6,58.5,6.9,58,7.7
		C57.6,7.7,57.4,7.5,57.4,7.1z"/>
	<path class="st30" d="M56.1,6.2c0.2-0.7,0.2-1.6,0.9-2.2c0.1,0.1,0.3,0.2,0.4,0.3c-0.2,0.3-0.5,0.6-0.4,1c0.1,0.5-0.2,0.8-0.4,1.2
		C56.3,6.7,56.1,6.6,56.1,6.2z"/>
	<path class="st31" d="M55,5.5c0-0.6,0.1-1.1,0.4-1.6c0.1-0.2,0.1-0.4,0.1-0.7c0.2,0.1,0.4,0.2,0.6,0.3c-0.2,0.7-0.5,1.4-0.7,2.2
		C55.1,5.7,55,5.6,55,5.5z"/>
	<path class="st32" d="M54.7,2.9c0,0.6,0.1,1.3-0.5,1.8c-0.1,0.1,0,0.3,0,0.4c-0.1,0.1-0.2,0.1-0.3,0.1c-0.1,0-0.3-0.1-0.3-0.3
		c0.4-0.7,0.4-1.5,0.9-2.1C54.6,2.8,54.6,2.9,54.7,2.9z"/>
	<path class="st33" d="M61.3,7.7c0,0-0.1,0.1-0.1,0.1c-0.1,0.1-0.2,0-0.2-0.1c-0.1-0.1-0.2-0.3-0.3-0.5c0-0.1,0-0.1,0-0.2
		c0-0.1,0.1-0.1,0.1-0.2C60.9,7.2,61.1,7.4,61.3,7.7z"/>
	<path class="st11" d="M60.7,6.9c0,0,0,0.1,0,0.1c-0.2,0.1-0.4-0.1-0.5-0.2c-0.1-0.1-0.2-0.2-0.1-0.4c0,0,0-0.1,0-0.1
		C60.4,6.5,60.6,6.7,60.7,6.9z"/>
	<path class="st34" d="M47.9,39.4c-0.9,2.4-1.8,4.8-2.7,7.3c-1.4,3.8-2.9,7.6-4.3,11.4c-0.6-0.3-0.4-0.9-0.2-1.2
		c0.3-0.5,0.4-1,0.5-1.5c0.5-1.1,1-2.3,1.4-3.5c0.3-1,0.7-1.9,1-2.8c0.3-0.9,0.6-1.7,0.8-2.6c0.2-0.7,0.5-1.3,0.7-1.9
		c0.6-1.7,1.3-3.3,1.8-5c0.3-0.9,0.7-1.7,0.8-2.7c0.1-0.7,0.6-1.2,0.8-1.8c0.7-2.6,1.7-5,2.6-7.5c0.9-2.4,1.5-5,2.6-7.4
		c0.2-0.4,0.2-0.8,0.3-1.2c0.1-0.3,0.2-0.6,0.7-0.6c0.5,0.2,0.4,0.5,0.3,0.9c-0.5,1.5-1.1,3-1.6,4.5c-0.3,1-0.8,2.1-1.1,3.1
		c-0.4,1.3-0.9,2.6-1.3,3.9c-0.4,1.3-0.8,2.7-1.4,4c-0.3,0.5-0.3,1.1-0.5,1.7c-0.4,0.9-0.7,1.8-1,2.7C47.8,39.2,47.8,39.3,47.9,39.4
		z"/>
	<path class="st35" d="M47.9,39.4c-0.3,0-0.4-0.1-0.2-0.5c0.5-1.1,0.9-2.3,1.3-3.5c0.4-1.5,0.9-2.9,1.4-4.3c0.4-1,0.6-2.2,1.1-3.1
		c0.3-0.5,0.4-1.2,0.6-1.8c0,0,0-0.1,0-0.2c0.4-0.5,0.3-1.2,0.6-1.7c0.3-0.5,0.4-1.1,0.6-1.6c0.4-1,0.9-2,1-3c0-0.2,0.1-0.2,0.2-0.3
		c0.3-0.3,0.3-0.6,0-0.9c0,0,0-0.1,0-0.1c0.4-0.4,0.5-0.9,0.6-1.4c0.8-2.5,1.7-5,2.5-7.5c0-0.1,0.1-0.1,0.1-0.2
		c0.2-0.2,0.4-0.4,0.7-0.4c0,0,0.1,0,0.1,0c0.2,0.1,0.3,0.3,0.2,0.6c-0.4,1.1-0.8,2.2-1.2,3.3c-0.6,1.7-1.1,3.4-1.7,5.1
		c-0.4,1.2-0.9,2.5-1.3,3.7c-0.2,0.6-0.4,1.2-0.7,1.8c-0.1,0.2-0.1,0.3,0.1,0.5c-1.9,5-3.8,10-5.8,15.1C48.1,39,48,39.2,47.9,39.4z"
		/>
	<path class="st11" d="M33.3,75.9c-0.1,0.5-0.5,0.7-0.9,0.9c-0.2,0.1-0.3,0.1-0.3-0.2c0-0.6,0.2-1.1,0.4-1.7
		c0.2-0.5,0.4-1.1,0.6-1.6c0.6-1.6,1.1-3.1,1.7-4.7c0.1-0.2-0.3-0.2-0.2-0.5c0.3-1.4,0.9-2.7,1.4-4c1.7-4.4,3.4-8.8,5.1-13.2
		c0.1-0.2,0.2-0.3,0.4-0.4c0.2,0.1,0.2,0.4,0.1,0.6c-0.3,1.5-0.8,2.9-1.4,4.4c-0.5,1.3-0.9,2.7-1.3,4.1c-0.1,0.5-0.3,0.9-0.6,1.3
		c-0.2,0.2-0.2,0.4-0.3,0.7c-0.2,1.3-0.8,2.5-1.3,3.7c-0.6,1.7-1.1,3.5-1.8,5.2c-0.1,0.1-0.1,0.3-0.1,0.4c0,0.1,0,0.1-0.1,0.2
		c-0.6,1.2-1,2.5-1.4,3.8C33.6,75.2,33.4,75.6,33.3,75.9z"/>
	<path class="st29" d="M41.1,55.4c0.3,0.5,0.1,0.9-0.2,1.3c-0.3,0.4-0.3,0.8-0.1,1.3c-1.2,3.2-2.4,6.4-3.6,9.5
		c-0.8,2.2-1.6,4.4-2.6,6.6c-0.4,0-0.5-0.1-0.3-0.5c0.3-0.7,0.3-1.4,0.7-2.1c0.1-0.2-0.1-0.4,0-0.6c0.5-0.5,0.5-1.2,0.8-1.9
		c0.4-1,0.8-2.1,1.2-3.1c0.5-1.5,1-3,1.5-4.4c0.3-0.9,0.8-1.8,1-2.8c0.1-1,0.8-1.7,0.9-2.7C40.4,55.7,40.6,55.4,41.1,55.4
		C41.1,55.4,41.1,55.4,41.1,55.4z"/>
	<path class="st36" d="M54,23.7c-0.2,0-0.5,0-0.3-0.3c0.5-0.9,0.6-1.8,1-2.7c0.6-1.3,1-2.7,1.5-4c0.3-0.9,0.5-1.8,0.9-2.7
		c0.2-0.6,0.5-1.2,0.7-1.7c0.3-1.1,0.8-2,1.1-3.1c0-0.1,0-0.2-0.1-0.3c0.4-0.6,0.7-1.1,0.8-1.8c0-0.5,0.4-0.7,0.8-0.5
		c0,0.1,0.1,0.2,0.1,0.3c-0.2,0.2-0.4,0.4-0.4,0.8c0,0.7-0.4,1.3-0.6,1.9c-0.3,0.7-0.4,1.4-0.8,2.1c-0.2,0.4-0.3,0.7-0.3,1.2
		c-1.2,2.5-2,5.1-3.1,7.7C54.8,21.5,54.4,22.6,54,23.7z"/>
	<path class="st37" d="M34.9,68.2c0.4,0.3,0,0.6,0,0.9c-0.2,1-0.5,2-0.9,3c-0.6,1.4-1,2.8-1.6,4.2c-0.1,0.2-0.2,0.4,0.1,0.5
		c-0.3,0.6-0.9,0.6-1.3,1c-0.6,0-0.5-0.2-0.3-0.6c0.5-0.9,0.7-1.9,1.1-2.8c1.2-1.6,1.7-3.6,2.4-5.4C34.5,68.7,34.5,68.3,34.9,68.2z"
		/>
	<path class="st38" d="M61,7.7c0,0,0.1,0.1,0.1,0.1c0.1,0.3,0.2,0.6,0.3,0.9c0.4,1.5-0.1,2.5-1.6,3.2c0-0.9-0.1-1.8,0.4-2.6
		c0.2-0.3,0.3-0.8,0.4-1.3C60.7,7.8,60.8,7.6,61,7.7z"/>
	<path class="st39" d="M61,7.7c-0.2,0.3-0.3,0.7-0.4,1.1c-0.1,0.3-0.2,0.5-0.3,0.7c-0.1,0.5-0.5,0.9-0.2,1.5
		c0.1,0.3-0.1,0.6-0.2,0.9c-0.3,0.3-0.6,0.5-1,0.6c-0.4-0.1-0.5-0.1-0.3-0.5c0.7-1.3,0.9-2.8,1.5-4.1c0.1-0.3,0.1-0.7,0.7-0.6
		C60.8,7.4,60.9,7.5,61,7.7z"/>
	<path class="st40" d="M60.7,7.2c-0.7,0.3-0.6,1-0.8,1.5c-0.3,0.6-0.6,1.3-0.7,2c-0.1,0.5-0.3,0.9-0.6,1.4c-0.2,0.2,0,0.3,0.2,0.4
		c-0.1,0.2-0.3,0.3-0.6,0.3c-0.2-0.2-0.3-0.4-0.2-0.6c0.5-0.7,0.5-1.6,0.9-2.3c0.3-0.7,0.7-1.5,0.7-2.4c0-0.2,0.1-0.7,0.6-0.6
		c0.1,0.1,0.3,0.2,0.4,0.3C60.7,7.1,60.7,7.2,60.7,7.2z"/>
	<path class="st41" d="M35.1,71c0.3,0.3,0.3,0.6,0.1,0.9c-0.5,0.6-0.3,1.5-0.8,2.1c-0.1,0.1,0.2,0.2,0.3,0.2
		c-0.4,0.6-0.7,1.3-1.3,1.7c-0.3-0.4,0.1-0.8,0.2-1.2c0.3-1.2,0.8-2.4,1.3-3.6C34.8,71.1,35,71.1,35.1,71z"/>
	<path class="st42" d="M32,74.5c0,0.4-0.2,0.7-0.3,1c-0.3,0.6-0.3,1.4-0.8,1.9c-0.3,0.3,0.1,0.3,0.2,0.4c-0.3,0.3-0.7,0.5-1.2,0.6
		c-0.1-0.1-0.2-0.3-0.1-0.5c0.4-0.8,0.4-1.7,0.9-2.5C31.2,75.1,31.4,74.5,32,74.5z"/>
	<path class="st43" d="M31,75.4c-0.5,0.9-0.7,2-1,2.9c-0.2,0.2-0.4,0.3-0.7,0.3c-0.4-0.2-0.5-0.7-0.2-1.2c0.2-0.4,0.5-0.8,0.4-1.2
		c0-0.1,0.1-0.2,0.1-0.2c0.1-0.1,0.3-0.1,0.4-0.2c0.3-0.1,0.5-0.3,0.7-0.4C30.9,75.4,30.9,75.4,31,75.4z"/>
	<path class="st44" d="M28.4,79c-0.3,0.3-0.6,0.1-1,0.1c-0.1,0-0.2,0-0.1-0.3c0.2-0.7,0.4-1.4,0.7-2.1c0.1-0.1,0.2-0.2,0.3-0.3
		c0.2-0.1,0.3-0.1,0.5,0c0.2,0.1,0.3,0.3,0.1,0.5C28.6,77.5,28.5,78.2,28.4,79z"/>
	<path class="st32" d="M28.4,79c-0.2,0-0.2-0.1-0.1-0.3c0.2-0.7,0.4-1.4,0.6-2.2c0-0.1,0-0.1,0-0.2c0.1-0.1,0.3-0.2,0.5-0.2
		c0.1,0,0.2,0,0.3,0.1c0.2,0.4,0.1,0.7-0.1,1c-0.3,0.4-0.5,0.9-0.2,1.4C29,78.9,28.7,78.9,28.4,79z"/>
	<path class="st27" d="M27.3,76.8C27.3,76.8,27.3,76.8,27.3,76.8c-0.1,0.7-0.3,1.3-0.7,1.7c-0.5,0-0.7-0.4-0.7-0.9
		C26.2,76.6,26.4,76.4,27.3,76.8z"/>
	<path class="st45" d="M25.8,77.7c0.2,0.3,0.4,0.7,0.7,0.9c0,0,0,0.1,0,0.1c-0.5,0.4-0.9,0.8-1.6,0.4C24.9,78.1,25,77.8,25.8,77.7
		C25.8,77.6,25.8,77.6,25.8,77.7z"/>
	<path class="st46" d="M27.3,76.8c-0.6,0-1.2-0.1-1.2,0.8c0,0-0.2,0.1-0.3,0.1c0,0,0,0,0,0C25.4,77.3,25,77,25,76.4
		c0.1-0.1,0.2-0.1,0.3-0.1c0.2,0,0.3,0.1,0.5,0.1c0.2,0.1,0.4,0.1,0.6,0.1c0.2,0,0.5,0,0.7,0c0.2,0,0.4,0,0.5,0c0.1,0,0.1,0,0.2,0.1
		c0,0,0,0.1,0.1,0.1C27.7,76.8,27.5,76.8,27.3,76.8z"/>
	<path class="st47" d="M28.3,76.5c-0.1,0-0.2,0.1-0.3,0.1c-0.1,0-0.1,0-0.2,0l0-0.1c0-0.3,0.1-0.5,0.4-0.6
		C28.5,76.2,28.5,76.4,28.3,76.5z"/>
	<path class="st7" d="M42.6,7.4c0.1,0.1,0.3,0.2,0.4,0.3c0.2,0.1,0.4,0.2,0.5,0.4c0,0.1,0,0.1,0,0.2c-0.8,2.2-1.4,4.5-2.4,6.7
		c-0.1,0.3-0.2,0.6-0.2,0.9c0,0.3-0.1,0.7-0.6,0.7c-0.4,0.4-0.5,1-0.6,1.5c-0.1,0.6-0.3,1.2-0.6,1.8c-0.2,0.3-0.2,0.6-0.1,0.9
		c0.1,0.1,0.1,0.2,0.1,0.4c-0.6,1.3-1,2.6-1.4,3.9c-0.6,2-1.4,4-2,6c-0.4,1.3-0.8,2.7-1.4,3.9c-0.1,0.2-0.2,0.4-0.1,0.6
		c-0.4,0.8-1,1.5-1.4,2.3c-0.8,1.4-1.3,3-1.9,4.5c-0.1,0.3-0.2,0.7-0.5,0.8C30,43,30,42.7,30.1,42.6c0.6-0.8,0.7-1.8,1-2.7
		c0.6-1.5,1-3,1.6-4.5c0.7-1.9,1.4-3.8,2-5.8c0.4-1.5,1-2.9,1.5-4.3c0.3-0.9,0.7-1.8,1-2.7c0.4-1.1,0.8-2.2,1.1-3.4
		c0.2-0.6,0.4-1.3,0.7-1.8c0.6-1.1,0.8-2.3,1.3-3.4c0.3-0.8,0.7-1.7,0.9-2.6c0.2-1,0.5-1.9,1-2.8C42.3,8.2,42.1,7.6,42.6,7.4z"/>
	<path class="st48" d="M20.6,71.2c0-0.1-0.1-0.2-0.1-0.3c-0.1-1.2,0.1-2.3,0.5-3.5c0.2-1,0.5-1.9,1.1-2.8c0-0.1,0.1-0.1,0.1-0.2
		c0.6-0.7,0.7-1.6,1.1-2.5c0.7-1.6,1.5-3.2,2.1-4.9c1.2-3,2.7-5.9,3.9-9c0.4-1.1,0.9-2.1,1.4-3.2c0.6-1.3,1.1-2.6,1.7-3.9
		c0.8-1.8,1.5-3.6,2.3-5.3c0.2-0.4,0.4-0.8,0.4-1.3c0-0.1,0.1-0.3,0.2-0.4c0.3-0.2,0.6-0.6,1.1-0.5c0,1-0.4,1.9-0.9,2.8
		c-0.5,0.9-0.9,1.9-1.3,2.9c-0.3,0.8-0.7,1.4-1,2.2c-0.8,2.3-2,4.4-2.8,6.6c-0.6,1.5-1.3,3-1.9,4.5c-0.7,1.5-1.3,3-1.9,4.6
		c-1,2.3-2,4.6-3,6.9c-0.7,1.5-1.3,2.9-1.9,4.4C21.2,69.3,20.9,70.3,20.6,71.2z"/>
	<path class="st49" d="M35.2,34.5c0.1,0.7-0.4,1.3-0.6,1.9c-0.4,1.3-1,2.5-1.6,3.7c-0.4,0.9-0.7,1.9-1.2,2.8
		c-0.3,0.6-0.5,1.3-0.8,1.9c-0.4,1-0.9,2-1.3,3c-0.4,1-0.9,2-1.3,3.1c-0.6,1.3-1.2,2.7-1.8,4c-0.4,1-0.8,2-1.2,3
		c-0.3,0.8-0.7,1.6-1.1,2.4c-0.2,0.4-0.5,0.7-0.4,1.2c0,0.2-0.3,0.2-0.4,0.5c-0.4,0.9-0.6,2-1.2,2.7c0,0,0,0-0.1,0c0,0,0,0-0.1-0.1
		c0.4-1.5,1.1-2.9,1.6-4.4c0.7-2,1.5-4,2.3-6c0.4-0.1,0.3-0.5,0.4-0.7c0.4-0.9,0.7-1.7,1.1-2.6c0.3-0.8,0.6-1.6,1-2.3
		c0.6-1.2,1.2-2.5,1.7-3.7c0.9-2.4,2.1-4.7,3-7.1c0.3-0.8,0.8-1.5,1-2.4C34.4,34.8,34.6,34.4,35.2,34.5z"/>
	<path class="st50" d="M34.3,35.3c0.2,0.2,0,0.4-0.1,0.6c-0.4,0.9-0.7,1.9-1.1,2.7c-0.5,0.8-0.7,1.8-1.1,2.6
		c-0.4,0.8-0.8,1.6-1.1,2.4c-0.4,1-0.9,2-1.3,3c-0.4,0.9-0.9,1.7-1.2,2.7c-0.1,0.4-0.1,1-0.7,1.3c-0.4,0.2,0.1,0.5-0.2,0.9
		c-0.5,0.6-0.6,1.5-1.1,2.2c-0.1,0.1,0,0.3,0,0.5c-0.1,0.4-0.2,0.1-0.4,0c1.3-3.5,2.7-7,4-10.5c0.1-0.2,0.1-0.3,0.1-0.5
		c0.5-1.2,0.9-2.4,1.4-3.5c0.6-1.5,1.4-2.8,2.3-4.1C34.1,35.4,34.2,35.3,34.3,35.3z"/>
	<path class="st4" d="M21.8,63.9c-0.3-0.2-0.2-0.5-0.1-0.7c0.5-0.9,0.7-1.9,1-2.9c0.4-1.2,0.9-2.4,1.2-3.6c0.2-0.8,0.6-1.6,0.9-2.4
		c0.5-1.5,1.1-3,1.5-4.5c0.2-0.7,0.2-1.6,1-2c0.3,0.2,0,0.3,0,0.5c-0.4,1.1-0.8,2.1-1.1,3.2c-0.3,1.2-0.8,2.3-1.2,3.5
		c-0.5,1.4-0.8,2.8-1.4,4.1c-0.5,1-0.6,2.1-1.1,3.1C22.2,62.8,22.1,63.4,21.8,63.9z"/>
	<path class="st4" d="M31.9,34.6c0-0.2-0.3-0.3-0.1-0.6c0.5-0.6,0.6-1.3,0.7-2c0.1-0.8,0.6-1.5,0.8-2.3c0.2-0.7,0.5-1.3,0.7-1.9
		c0-0.1,0.1-0.1,0.2-0.2c0.3,0.3,0.1,0.7,0,1c-0.5,1.5-1,2.9-1.5,4.4c-0.2,0.4-0.3,0.9-0.4,1.3C32.2,34.6,32.1,34.6,31.9,34.6z"/>
	<path class="st4" d="M22,64.7c-0.3,0.9-0.6,1.9-1.1,2.8c-0.3,0-0.3,0.2-0.4,0.4c-0.2,0.3-0.1,0.8-0.5,1c-0.1-0.1-0.3-0.2-0.1-0.4
		c0.6-1.1,0.6-2.4,1.3-3.4c0.1-0.2,0-0.4,0-0.5c0-0.4,0.1-0.6,0.5-0.5C21.9,64.2,21.6,64.5,22,64.7z"/>
	<path class="st51" d="M47.5,2.8c0.3,0.2,0.7,0.1,1,0.3c0,0,0,0,0,0c0,0.4-0.3,0.4-0.5,0.4c-0.3,0-0.6-0.1-0.8-0.1
		c-0.6-0.1-0.8,0.3-0.9,0.7c-0.1,0.4,0,0.9-0.5,1.2c-0.5,0.1-0.7-0.3-0.9-0.6c-0.1-0.2-0.3-0.4-0.2-0.7c-0.1-0.2-0.2-0.4,0-0.6
		c0.3-0.4,0.8-0.4,1.2-0.4c0.3,0,0.7,0.1,1-0.1c0.1,0,0.2,0,0.3,0C47.2,2.8,47.3,2.8,47.5,2.8z"/>
	<path class="st21" d="M44.6,3.9c0.1,0.2,0.3,0.3,0.3,0.6c0.1,0.3,0,0.5-0.1,0.8c-0.3,0.8-0.7,1.6-0.9,2.4c-0.1,0.3-0.2,0.5-0.5,0.4
		C43.2,8,43.1,7.9,43,7.7c0.2-0.4,0.4-0.8,0.5-1.2C43.8,5.6,44,4.7,44.6,3.9z"/>
	<path class="st52" d="M46.7,2.8C46.7,3.1,46.3,3,46.1,3c-0.5,0-1.1,0.1-1.5,0.3c0.1-0.1,0.1-0.3,0.2-0.4c0.6-0.2,1.2-0.2,1.9-0.2
		C46.7,2.8,46.7,2.8,46.7,2.8z"/>
	<path class="st53" d="M20.6,71.2c0-0.9,0.3-1.6,0.7-2.5c0.5-1.1,0.9-2.2,1.4-3.3c0.6-1.4,1.2-2.8,1.9-4.2c0.5-1,0.8-2,1.2-3
		c0.7-1.7,1.5-3.3,2.2-5c0.6-1.3,1-2.8,1.7-4.1c0.6-1.1,0.8-2.4,1.4-3.5c0.6-1,0.9-2.1,1.5-3.1c0.5-0.7,0.6-1.7,1-2.5
		c0.7-1.5,1.2-3,2-4.4c0.4-0.6,0.3-1.4,0.7-2c0-0.1,0-0.1,0-0.2c0.2-0.2,0.4-0.4,0.8-0.2c0.2,0.5-0.2,0.8-0.3,1.2
		c-1,2.3-1.9,4.6-2.9,6.9c-0.2,0.3-0.3,0.6-0.4,0.9c-1.1,2.6-2.2,5.2-3.3,7.9c-1,2.3-2,4.6-3,6.9c-0.4,1.1-1,2.1-1.4,3.2
		c-0.8,1.9-1.6,3.7-2.4,5.5c-0.7,1.8-1.5,3.5-2.3,5.3c-0.1,0.2-0.2,0.4-0.5,0.3C20.6,71.3,20.6,71.2,20.6,71.2z"/>
	<path class="st54" d="M20.6,71.3c0.5-0.4,0.6-1.1,0.9-1.7c0.6-1.3,1.1-2.6,1.7-3.9c0.4-0.8,0.6-1.7,1-2.5c0.9-2,1.8-4,2.7-6
		c0.6-1.4,1.1-2.9,1.8-4.4c0.6-1.2,1.1-2.5,1.6-3.7c1-2.3,2-4.6,3-6.9c0.2,0.1,0.3,0.4,0.4,0.6c0,0.9-0.6,1.6-0.8,2.4
		c-0.4,1.3-1.1,2.5-1.6,3.7c-0.4,0.9-0.7,1.8-1.2,2.6c-0.1,0.2,0.1,0.3,0,0.4c0,0.3-0.2,0.6-0.4,0.8c-0.5,0.9-0.9,1.9-1.3,2.8
		c-0.1,0.3-0.2,0.5-0.4,0.8c-0.5,0.4-0.5,0.9-0.6,1.4c-0.5,1.1-1.1,2.1-1.5,3.2c-0.6,1.9-1.6,3.6-2.3,5.4c-0.6,1.4-1,2.8-1.8,4.1
		c-0.3,0.5-0.2,1.1-0.7,1.5c-0.3,0.2-0.3,0.3-0.5,0C20.6,71.7,20.6,71.5,20.6,71.3z"/>
	<path class="st55" d="M20.8,71.9c0.7,0.6,0.6-0.4,0.6-0.4c0.4-1.1,1-2,1.4-3.1c0.5-1.3,1-2.5,1.5-3.7c0.5-1.2,1-2.4,1.5-3.6
		c0.4-1.2,0.9-2.3,1.6-3.4c0.2,0,0.3,0.1,0.4,0.3c0.1,0.2,0.1,0.5,0,0.7c-1,2.1-1.9,4.2-2.8,6.4c-0.7,1.7-1.5,3.4-2.2,5.1
		c-0.3,0.8-0.7,1.6-1,2.5c-0.1,0.3-0.2,0.5-0.5,0.4c-0.1,0-0.1-0.1-0.2-0.1C21,72.5,20.7,72.3,20.8,71.9z"/>
	<path class="st56" d="M23.2,75.4c-0.2-0.1-0.5-0.3-0.7-0.4c-0.1-0.2-0.3-0.4-0.4-0.6c0-0.8,0.6-1.3,0.8-2c0.2-0.6,0.2-1.4,0.9-1.7
		c-0.1-1.2,0.8-2.2,1.2-3.2c0.8-2.2,1.9-4.4,2.8-6.5c0.2-0.4,0.4-0.7,0.7-0.1c0.1,0.4-0.2,0.8-0.3,1.2c-0.5,1.4-1,2.7-1.5,4.1
		c-0.5,1.6-1.1,3.1-1.6,4.7c-0.2,0.6-0.4,1.1-0.4,1.7c-0.1,0.3-0.1,0.7-0.2,1.1c-0.4,0.5-0.3,1.1-0.6,1.6
		C23.7,75.2,23.6,75.6,23.2,75.4z"/>
	<path class="st57" d="M28.4,60.6c-0.1-0.1-0.3-0.3-0.4,0c-0.3,0.8-0.7,1.6-1,2.4c-0.2,0.6-0.6,1.2-0.9,1.8c-0.4,1.1-1,2.2-1.4,3.3
		c-0.2,0.5-0.4,1-0.7,1.4c-0.1,0.2-0.2,0.3-0.2,0.5c0,0.9-0.8,1.5-0.9,2.4c-0.1,0.7-0.6,1.2-0.9,1.8c-0.1-0.1-0.3-0.3-0.4-0.4
		c0,0,0-0.1,0-0.1c-0.1-0.5,0.2-0.8,0.4-1.2c1.3-2.9,2.5-5.9,3.8-8.8c0.7-1.6,1.5-3.2,2.1-4.9c0.1-0.2,0.2-0.4,0.4-0.6
		c0.5,0,0.8-0.6,1.4-0.6c0.1,0.8-0.4,1.5-0.6,2.2C28.9,60.2,28.9,60.6,28.4,60.6z"/>
	<path class="st32" d="M21.9,78.1c0.5-0.7,0.7-1.6,1-2.5c0.1-0.2,0.2-0.1,0.3-0.1c0.3-0.1,0.4,0.1,0.6,0.2c0.1,0.1,0.3,0.2,0.3,0.4
		c-0.2,0.7-0.5,1.3-0.7,2c-0.1,0.3-0.2,0.6-0.6,0.4C22.5,78.5,22.2,78.3,21.9,78.1z"/>
	<path class="st31" d="M25,76.3c0.3,0.4,0.6,0.9,0.9,1.3c-0.5,0.1-0.7,0.5-0.7,1c0,0.2-0.1,0.3-0.2,0.5c-0.4,0-0.8,0-1.2-0.3
		c0.1-0.9,0.6-1.6,0.9-2.5C24.7,76.3,24.8,76.3,25,76.3C24.9,76.3,24.9,76.3,25,76.3z"/>
	<path class="st43" d="M24.8,76.3c-0.2,0.7-0.6,1.4-0.7,2.2c0,0.1-0.2,0.2-0.3,0.3c-0.4,0-0.7-0.1-1-0.3c0.3,0,0.5-0.2,0.5-0.4
		c0-0.7,0.6-1.2,0.5-1.9c0-0.1,0.2-0.2,0.4-0.2C24.4,76,24.7,75.9,24.8,76.3z"/>
	<path class="st58" d="M58.5,8.8c-0.1,0.2-0.3,0.4-0.6,0.4c-0.2,0-0.2-0.1-0.2-0.2c0.1-0.9-0.1-1.2-0.9-1.7
		c-0.3-0.1-0.6-0.3-0.9-0.5c-0.2-0.3-0.7-0.2-0.7-0.7c0.3-0.2,0.5,0,0.8,0.1c0.2,0.2,0.4,0.4,0.7,0.3c0.2,0.1,0.5,0.3,0.7,0.4
		c0.1,0.2,0.3,0.4,0.6,0.6C58.2,8,58.5,8.4,58.5,8.8z"/>
	<path class="st59" d="M28.3,58.3c-0.6,1.8-1.5,3.5-2.2,5.3c-0.5,1.1-1,2.2-1.5,3.3c-0.5,1.1-0.9,2.2-1.4,3.3
		c-0.5,1.2-0.8,2.4-1.6,3.5c-0.2-0.2-0.4-0.4-0.4-0.7c0.1-0.1,0.3-0.1,0.3-0.3c0.6-1.6,1.3-3.2,2.1-4.8c0.4-0.9,0.8-1.9,1.2-2.8
		c0.3-0.8,0.6-1.6,1-2.3c0.7-1.4,1.3-2.8,1.9-4.2c0.1-0.2,0-0.4,0-0.5C28,57.9,28.2,58.1,28.3,58.3z"/>
	<path class="st60" d="M23.8,75.8c-0.2-0.1-0.4-0.2-0.6-0.3c0,0,0-0.1,0-0.1c0.6-0.2,0.7-0.8,0.9-1.3c0.1-0.2,0-0.5,0.3-0.6
		c0.1,0,0.1,0.1,0.1,0.2c0.1,0.4,0.2,0.8,0.2,1.2c0,0.1,0,0.1-0.1,0.2c-0.2,0.1-0.3,0.3-0.4,0.6C24.2,75.9,24,75.9,23.8,75.8z"/>
	<path class="st61" d="M56.7,6.7c-0.3,0.2-0.4,0-0.6-0.1c-0.3-0.2-0.5-0.3-0.8-0.3c-0.1,0.1-0.2,0.1-0.4,0c-0.2-0.1-0.4-0.2-0.6-0.3
		c-0.4-0.1-0.6,0-0.7,0.4c0,0.3-0.2,0.7-0.3,0.9c-0.3,0.4-0.5,0.8-0.1,1.3c0.1,0.1-0.1,0.2-0.2,0.3c-0.2,0.1-0.3,0-0.5,0
		c-0.3-0.1-0.5-0.2-0.8-0.3c-0.1-0.1-0.2-0.1-0.2-0.2c-0.3-0.6-0.2-1.1,0.3-1.6c0.3-0.3,0.3-0.8,0.4-1.2C52.4,5,52.6,4.9,53,5
		c0.6,0.2,1.2,0.4,1.8,0.5c0.1,0,0.1,0,0.2,0c0.1,0,0.2,0.1,0.3,0.1c0.3,0.2,0.6,0.4,0.9,0.6c0.1,0.2,0.2,0.3,0.4,0.3
		C56.6,6.6,56.7,6.6,56.7,6.7z"/>
	<path class="st62" d="M47.9,3.3c0.2,0,0.4-0.1,0.6-0.3c0.1,0,0.2,0,0.3,0c0.3,0.2,0.6,0.3,0.9,0.3c0.3,0.2,0.5,0.3,0.9,0.3
		c0.1,0.2,0.3,0.1,0.4,0.1C51,4,50.8,4,50.7,4.1c-0.2,0-0.4,0-0.5,0c-1.7-0.4-1.6-0.5-2.1,1.4c-0.1,0.5-0.6,0.6-0.9,0.8
		c-0.3,0-0.5-0.1-0.6-0.3c0-0.7,0.3-1.4,0.5-2C47.3,3.2,47.5,3.3,47.9,3.3z"/>
	<path class="st63" d="M50.1,3.9c0.2,0,0.4,0,0.6,0c0.3,0.1,0.7,0.2,1,0.1c0,0,0.1,0,0.1,0c0.2,0.1,0.4,0.1,0.6,0.2
		c0.2,0.2,0.4,0.4,0.7,0.4c0.1,0.2,0.4,0.2,0.6,0.3C53.8,5,53.9,5,54,5.1c0,0.2-0.1,0.2-0.3,0.2C53.5,5.2,53.3,5.1,53,5
		c-0.1,0-0.1,0-0.2,0c-0.2-0.1-0.5,0-0.7-0.1c-0.1,0-0.1,0-0.2-0.1c-0.8-0.2-0.9-0.2-1.2,0.5c-0.2,0.5-0.3,1.1-0.5,1.6
		c-0.1,0.2,0,0.4,0.2,0.5c0.2,0.3,0,0.3-0.2,0.4c-0.2,0-0.4-0.1-0.6-0.1c-0.1-0.1-0.2-0.1-0.3-0.2c-0.2-0.1-0.5-0.2-0.7-0.3
		C48.4,7.1,48.1,7,48,6.7c0.2-0.9,0.5-1.7,0.9-2.5C49.2,3.6,49.6,3.8,50.1,3.9z"/>
	<path class="st64" d="M51.7,4.1c-0.4,0.2-0.7,0.1-1-0.1c0.1,0,0.2,0,0.3-0.1C51.2,3.9,51.4,4,51.7,4.1z"/>
	<path class="st65" d="M53,4.9c0.4-0.1,0.6,0.4,1,0.2c0.1,0,0.2,0,0.3,0c0.2,0.1,0.4,0.3,0.6,0.4c-0.7,0.2-1.3-0.1-1.9-0.4
		C52.9,5,52.9,5,53,4.9C52.9,4.9,52.9,4.9,53,4.9z"/>
	<path class="st29" d="M54.5,18.3c-0.7,0.1-0.6,0.7-0.7,1.1c-0.2,0.9-0.7,1.7-0.9,2.6c-0.2,1.1-0.8,2-1,3.1
		c-0.1,0.7-0.5,1.4-0.8,2.1c-0.5,0.9-0.7,2-1,3.1c-0.2,0.8-0.5,1.5-0.8,2.3c-0.3,0.9-0.6,1.8-0.9,2.7c-0.1,0.4-0.2,0.7-0.5,1
		c-0.2,0.2-0.2,0.4-0.2,0.6c-0.1,1.2-0.7,2.2-1.1,3.3c-0.2,0.6-0.4,1.3-0.6,1.9c-0.1,0.5-0.2,1-0.6,1.4c-0.3,0.3-0.3,0.8-0.4,1.2
		c-0.1,0.4-0.2,0.8-0.3,1.2c-0.5,1.4-0.9,2.9-1.5,4.3c-0.5,1.1-0.6,2.3-1.2,3.4c-0.2,0.4-0.5,0.9-0.5,1.4c0,0.3-0.1,0.5-0.4,0.5
		c-0.8-0.4-0.3-1-0.1-1.3c0.4-0.6,0.4-1.2,0.6-1.8c0.5-1.1,0.9-2.2,1.2-3.4c0.3-1.3,1-2.5,1.3-3.8c0.3-1.2,0.8-2.4,1.3-3.6
		c0.4-0.9,0.5-1.9,0.9-2.8c0.4-0.7,0.6-1.5,0.6-2.3c0.2-1.1,0.8-2.1,1.1-3.2c0.1-0.3,0.2-0.5,0.3-0.8c0.9-2.2,1.7-4.4,2.5-6.6
		c0.2-1,0.6-1.8,0.9-2.8c0.3-1.3,0.9-2.5,1.4-3.7c0.4-1.1,0.9-2.3,1.2-3.5c0.3-1,0.7-2,1.1-2.9c0.5-1.1,0.5-2.3,1.1-3.3
		c0.1-0.1,0.1-0.3,0.2-0.3c0.1-0.1,0.3-0.1,0.4,0c0.5,0.3,0.1,0.8,0,1.1c-0.5,1.5-1,3-1.6,4.4c-0.1,0.3-0.1,0.6-0.2,0.9
		c-0.1,0.6-0.6,1.2-0.7,1.8C54.7,17.9,54.6,18.1,54.5,18.3z"/>
	<path class="st66" d="M55,6.1c0.1,0.1,0.2,0.1,0.3,0.1c0.1,0.4,0.6,0.2,0.7,0.6c-0.3,0.4-0.4,0.9-0.6,1.4c-0.1,0.3-0.1,0.6,0.4,0.7
		c0.5,0.1,1.1,0.3,1.6,0c0.2-0.3-0.1-0.5-0.1-0.7c0-0.4-0.5-0.5-0.4-0.9c0.9,0.4,1.2,1,1,2c0,0,0,0.1,0,0.1
		c-0.1,0.1-0.2,0.2-0.3,0.2c-0.6-0.2-1.2,0.1-1.8,0c-0.1,0-0.2,0-0.2,0c-0.2-0.1-0.5-0.1-0.7-0.2c-0.2-0.1-0.4-0.1-0.6-0.2
		c-0.1,0-0.1-0.1-0.1-0.2c0-0.2-0.3-0.1-0.4-0.2c-0.3-0.2-0.5-0.5-0.3-0.8c0.3-0.4,0.3-0.9,0.5-1.4C54.2,5.8,54.2,5.8,55,6.1z"/>
	<path class="st34" d="M57.6,9.4c0.1,0,0.2,0,0.3,0c-0.5,1.7-1,3.4-1.6,5.1c-0.4,1.1-0.7,2.2-1.1,3.3c-0.1,0.3-0.2,0.6-0.6,0.6
		c-0.1-0.1-0.3-0.2-0.2-0.3c0.5-0.4,0.1-1.2,0.7-1.5c0.2-0.2,0.2-0.6,0.2-0.7c0.1-1.1,0.8-2,1.1-3.1c0.3-1,0.7-2,1-2.9
		c0-0.1-0.1-0.1-0.1-0.2C57.3,9.4,57.5,9.5,57.6,9.4z"/>
	<path class="st41" d="M47,36.7c0.3,0.7,0,1.3-0.3,1.8c-0.5,0.8-0.7,1.7-0.9,2.6c-0.2,0.8-0.7,1.5-0.8,2.3c-0.1,0.8-0.5,1.3-0.7,2.1
		c-0.2,0.8-0.5,1.7-1,2.4c-0.1,0.2-0.2,0.3-0.1,0.4c0.1,0.7-0.5,1.2-0.6,1.9c-0.2,1.1-0.9,2.1-1,3.3c0,0.4-0.4,0.8-0.6,1.2
		c-0.1,0.3-0.1,0.5,0.1,0.7c-0.8,0.3-0.7,1.2-0.9,1.8c-0.5,1.1-0.7,2.3-1.1,3.4c-0.1,0.4-0.5,0.8-0.6,1.3c-0.3,1.3-1,2.4-1.2,3.8
		c0,0.3-0.2,0.6-0.4,0.8c-0.3,0.4-0.4,0.9-0.5,1.4c0,0.1,0.1,0.4-0.2,0.4c-0.2,0-0.2,0.3-0.2,0.4c-0.3,0.8-0.1,1.8-1,2.2
		c-0.2-0.3-0.1-0.5,0-0.7c0.4-1.1,0.7-2.3,1.1-3.4c0.5-1.3,0.8-2.6,1.4-3.8c0.3-0.6,0.5-1.2,0.5-1.8c0-0.4,0.4-0.6,0.5-1
		c0.3-0.9,0.5-1.9,0.8-2.8c0.3-0.9,0.7-1.8,1-2.7c0.4-1.3,0.8-2.5,1.2-3.8c0-0.1,0-0.3,0-0.4c-0.2-0.3,0-0.6,0.1-0.8
		c1-2.4,1.9-4.9,2.8-7.3c0-0.1,0-0.1,0.1-0.2c0.2-0.3,0.3-0.7,0.4-1c0-0.1,0-0.1,0.1-0.2c0.1-0.2,0.2-0.4,0.2-0.7
		c0.4-1.2,0.9-2.3,1.4-3.4C46.7,36.8,46.8,36.6,47,36.7z"/>
	<path class="st67" d="M31,75.4c0,0-0.1,0-0.1,0c-0.2-0.2-0.1-0.5,0-0.7c0.8-1.8,1.6-3.6,2.3-5.4c1.5-3.7,3.2-7.4,4.8-11
		c1-2.2,1.9-4.5,2.9-6.7c0.1-0.3,0.2-0.6,0.6-0.6c-1.1,2.8-2.1,5.6-3.2,8.3c-1.1,2.8-2.1,5.6-3.2,8.4c-0.1,0.2-0.1,0.4-0.2,0.5
		c-0.5,1.2-1,2.3-1.4,3.5c-0.4,1-0.8,1.9-1.5,2.8C31.7,74.8,31.3,75.1,31,75.4z"/>
	<path class="st68" d="M41.4,51c-0.4,0.3-0.5,0.7-0.7,1.2c-0.8,2-1.7,4.1-2.6,6.1c-1.2,2.7-2.3,5.4-3.5,8.1c-1,2.3-1.9,4.6-2.9,6.8
		c-0.3,0.7-0.8,1.5-0.9,2.3c-0.2,0.2-0.4,0.4-0.7,0.4c-0.2-0.2,0-0.5,0.1-0.7c0.8-1.9,1.7-3.8,2.5-5.7c1.1-2.7,2.3-5.5,3.5-8.2
		c1.5-3.5,3-7,4.5-10.4c1.1-2.5,2.1-5,3.2-7.5c0.2-0.4,0.2-1,0.8-1c-0.9,2.4-1.8,4.8-2.7,7.1c-0.1,0.4-0.3,0.8-0.4,1.1
		C41.6,50.7,41.5,50.8,41.4,51z"/>
	<path class="st69" d="M44.8,42.3c-0.7,0.6-0.8,1.5-1.1,2.2c-0.9,2.1-1.8,4.2-2.7,6.3c-1.1,2.5-2.2,4.9-3.2,7.3
		c-1.2,2.7-2.3,5.5-3.5,8.2c-1.4,3.2-2.7,6.4-4.1,9.5C30,76,29.9,76.1,29.7,76c-0.2-0.2-0.1-0.4,0-0.7c0.7-1.8,1.5-3.6,2.3-5.4
		c0.8-1.9,1.7-3.7,2.4-5.6c1.3-3.1,2.7-6.1,3.9-9.1c1-2.5,2.2-4.9,3.2-7.4c1.9-4.4,3.9-8.8,5.7-13.3c0.2-0.5,0.5-1,0.7-1.5
		c0.1-0.2,0.2-0.5,0.5-0.4c-0.5,1.3-1,2.7-1.5,4c-0.6,1.3-1.2,2.6-1.6,3.9c-0.1,0.2-0.2,0.4-0.2,0.6l0,0
		C44.9,41.5,44.9,41.9,44.8,42.3L44.8,42.3z"/>
	<path class="st70" d="M48.5,32.6c-0.7,0.8-1,1.9-1.4,2.9c-0.7,1.7-1.5,3.4-2.2,5.1c-0.8,1.8-1.6,3.5-2.3,5.3
		c-0.6,1.4-1.2,2.8-1.8,4.3c-0.8,1.9-1.5,3.7-2.4,5.6c-0.7,1.5-1.3,3-2,4.5c-0.9,1.8-1.6,3.8-2.4,5.6c-0.5,1.2-1,2.3-1.5,3.5
		c-0.7,1.7-1.4,3.4-2.1,5.1c-0.2,0.5-0.5,0.9-0.6,1.4c0,0-0.1,0.1-0.1,0.1c-0.1,0-0.2,0-0.3,0.1c-0.2-0.3,0-0.5,0-0.7
		c0.8-2,1.7-3.9,2.5-5.9c1.3-3.1,2.7-6.2,4-9.4c1.1-2.6,2.3-5.1,3.4-7.7c0.9-2.2,1.9-4.4,2.8-6.6c1.2-2.8,2.4-5.6,3.6-8.5
		c0.9-2.1,1.8-4.2,2.7-6.3c0.7-1.5,1.3-3.1,1.9-4.6c0-0.1,0.1-0.3,0.2-0.4c0.1-0.1,0.2-0.4,0.5-0.2C50.2,28.2,49.3,30.4,48.5,32.6z"
		/>
	<path class="st71" d="M28.3,76.5c0.1-0.2,0.1-0.3,0-0.5c0,0,0-0.1,0-0.1c0.2-0.4,0.3-0.8,0.4-1.2c0.4-1.4,1.2-2.5,1.7-3.8
		c0.6-1.5,1.3-2.9,1.8-4.4c0.1-0.3,0.2-0.6,0.5-0.9c0.1-0.1,0.3-0.1,0.4,0c0.3,0.5,0,0.9-0.2,1.3c-1.3,2.9-2.6,5.8-3.8,8.8
		c-0.1,0.2-0.2,0.4-0.4,0.6c0,0,0,0.1,0,0.1C28.7,76.5,28.5,76.5,28.3,76.5z"/>
	<path class="st72" d="M28.9,76.4c1.2-3.2,2.7-6.3,4-9.4c0.2-0.4,0.2-0.8,0.3-1.2c0.1-0.4,0.5-0.7,0.5-1.2c1.1-2.5,2.2-5,3.3-7.5
		c1.1-2.6,2.3-5.2,3.3-7.8c1.5-3.5,3-7,4.5-10.5c0.7-1.7,1.5-3.5,2.3-5.2c0.9-2.2,1.9-4.3,2.8-6.5c0.1-0.3,0.3-0.6,0.7-0.6
		c-0.1,0.8-0.5,1.5-0.8,2.3c-1.6,3.7-3.2,7.4-4.8,11.2c-1.3,2.9-2.5,5.8-3.8,8.8c-1.2,2.7-2.3,5.5-3.6,8.2c-1.1,2.4-2.1,4.9-3.1,7.4
		c-0.9,2-1.8,3.9-2.6,5.9c-0.8,2-1.8,3.9-2.4,6C29.2,76.3,29,76.3,28.9,76.4z"/>
	<path class="st73" d="M27.1,76.6c-0.3,0-0.6,0-0.9,0c0-0.1,0-0.1,0-0.2c0.6-0.9,0.9-1.9,1.3-2.8c1.4-3.2,2.9-6.4,4.2-9.7
		c1-2.5,2.2-5,3.2-7.6c1-2.4,2-4.8,3.1-7.1c0.1-0.2,0.2-0.4,0.4-0.5c0.2-0.1,0.4-0.1,0.6,0c0.3,0.3,0,0.5-0.1,0.8
		c-1,2.3-1.9,4.6-3,6.9c-0.9,2-1.8,4.1-2.7,6.2c-0.2,0.5-0.5,0.9-0.6,1.4c-0.3,0.4-0.7,0.6-0.7,1.1c0,0.6-0.3,1.1-0.5,1.6
		c-1.1,2.2-1.9,4.5-2.9,6.6C28.1,74.5,27.8,75.6,27.1,76.6z"/>
	<path class="st74" d="M25.2,76.4c-0.1,0-0.2,0-0.3,0c0,0,0,0,0,0c-0.2-0.1-0.3-0.3-0.2-0.5c0.7-1.1,1.1-2.3,1.6-3.5
		c0.6-1.4,1.3-2.8,1.8-4.2c0.7-1.8,1.5-3.6,2.3-5.4c0.9-2.2,1.9-4.4,2.9-6.6c0.2-0.4,0.4-0.8,0.5-1.2c0.3-0.6,0.2-1.2,0.5-1.8
		c0.2,0.1,0.2,0.1,0.2,0.4c0.6-1.7,1.4-3.4,2.1-5c0.2-0.4,0.3-0.9,0.5-1.3c0.1-0.2,0.2-0.5,0.5-0.6c0.1,0,0.1,0,0.2,0.1
		c0.1,0.4-0.2,0.8-0.2,1.3c-0.4,1.6-1.3,3.1-1.9,4.7c-0.9,2.1-1.7,4.2-2.7,6.2c-1.4,3.2-2.7,6.3-4.1,9.5c-1.1,2.5-2.1,5-3.2,7.5
		C25.6,76,25.6,76.3,25.2,76.4z"/>
	<path class="st75" d="M26.3,76.5c0,0,0,0.1,0,0.1c-0.2,0-0.4,0-0.6-0.1c-0.1-0.2,0-0.5,0.1-0.7c1.1-2.2,2-4.5,3-6.8
		c1.2-2.7,2.3-5.4,3.5-8.1c1.7-3.9,3.3-7.8,5.1-11.7c0.1-0.3,0.2-0.7,0.4-1c0.3,0,0.5,0.2,0.5,0.5c-0.3,1-0.8,1.9-1.2,2.8
		c-0.9,2.2-1.8,4.3-2.8,6.5c-1.4,3.3-2.8,6.6-4.2,9.8C28.7,70.7,27.5,73.6,26.3,76.5z"/>
	<path class="st76" d="M37.7,48.2c0,0.8-0.4,1.6-0.8,2.2c-0.7,1.3-1.1,2.8-1.8,4.1c-1,2-1.8,4.1-2.7,6.2c-0.6,1.5-1.2,3-1.9,4.5
		c-0.5,1-0.9,2-1.3,3c-1,2.3-2,4.6-2.9,6.9c-0.2,0.4-0.4,0.9-0.6,1.3c-0.2,0-0.3,0-0.4-0.1c0.9-2,1.8-4.1,2.7-6.1
		c0.7-1.7,1.4-3.4,2.2-5c0.8-1.8,1.4-3.7,2.3-5.5c1.1-2.3,2-4.7,3.1-7c0.7-1.6,1.3-3.2,2-4.8C37.7,47.9,37.8,48,37.7,48.2z"/>
	<path class="st77" d="M27.1,76.6c0.2-1,0.7-1.8,1.1-2.7c0.9-2.1,1.8-4.2,2.7-6.3c0.4-0.8,0.9-1.6,1-2.6c0.4,0,0.4,0.3,0.5,0.6
		c-0.3,1.2-0.9,2.3-1.4,3.4c-0.9,2.1-1.9,4.2-2.7,6.3c-0.2,0.4-0.4,0.8-0.7,1.2C27.5,76.6,27.3,76.6,27.1,76.6z"/>
	<path class="st78" d="M27.7,76.6c0.9-2.1,1.8-4.2,2.7-6.4c0.6-1.5,1.3-3,1.9-4.6c0.2-0.1,0.3,0,0.4,0.2c-0.9,2.3-1.8,4.5-2.9,6.8
		c-0.4,0.8-0.8,1.5-1,2.3c-0.3,0.3-0.3,0.8-0.6,1.2c-0.1,0.2-0.3,0.4-0.4,0.6C27.8,76.6,27.8,76.6,27.7,76.6z"/>
	<path class="st13" d="M34.3,35.3c-0.1,0.1-0.2,0.1-0.3,0.2c-0.1,0-0.2,0-0.1-0.2c0.2-0.6,0.5-1.1,0.6-1.7c0.4-1.3,1-2.5,1.3-3.8
		c0.2-1,0.7-1.8,1-2.8c0.3-1.1,0.6-2.3,1.1-3.3c0.4-0.9,0.5-1.8,1-2.6c0.2-0.2-0.1-0.2-0.1-0.3c0.4-1.1,0.8-2.2,1.1-3.3
		c0.1-0.4,0.4-0.7,0.3-1.2c0.5,0.2,0.5-0.4,0.5-0.5c-0.2-0.8,0.4-1.4,0.6-2c0.4-1,0.7-2.1,1.1-3.1c0.3-0.8,0.5-1.7,1-2.5
		c0.4,0,0.6,0.2,0.8,0.5c-3,8.5-5.9,17-8.8,25.4c-0.1,0.1-0.1,0.2-0.2,0.3C34.8,34.7,34.5,34.9,34.3,35.3z"/>
	<path class="st14" d="M44.1,8.8c-0.2-0.2-0.5-0.4-0.7-0.6c0,0,0-0.1,0-0.1C43.6,8,43.8,8,43.8,7.7c0.2-1.2,0.8-2.2,1.1-3.3
		c0.3,0.1,0.5,0.6,0.9,0.6c0.2,0,0.2,0.2,0.2,0.3c-0.3,0.9-0.7,1.7-0.8,2.6c-0.1,0.4-0.4,0.7-0.6,1.1C44.3,9,44.2,9,44.1,8.8z"/>
	<path class="st27" d="M40.3,16.3c0.1,0.2,0.3,0.4,0.1,0.6c-0.5,1.1-0.9,2.3-1.2,3.4c-0.1,0.2-0.1,0.4-0.4,0.4
		c-0.1-0.4-0.1-0.8,0.2-1.3c0.4-0.5,0.4-1.2,0.6-1.8C39.7,17.2,39.8,16.7,40.3,16.3z"/>
	<path class="st0" d="M44.1,8.8c0.1,0,0.2,0.1,0.3,0.1c0.3,0.1,0.6,0.2,0.7,0.6c-0.4,1.3-0.8,2.5-1.4,3.7c-0.5,0.5-0.6,1.2-0.8,1.8
		c-0.1,0.2-0.1,0.4-0.1,0.6c-0.7,1.8-1.3,3.7-2,5.5c-0.6,1.5-1,3-1.6,4.4c-0.4,1.1-0.7,2.3-1.2,3.5c-0.6,1.3-0.8,2.8-1.4,4.1
		c-0.1,0.1-0.2,0.3-0.2,0.5c0,0,0,0.1,0,0.1c-0.3,0.2-0.7,0.4-1,0.6c-0.1,0-0.2,0-0.2-0.2c0.5-1.2,1.1-2.4,1.4-3.7
		c0.3-1.3,1-2.4,1.3-3.7c0.3-1.2,0.7-2.4,1.2-3.5c0.4-1,0.8-2.1,1.1-3.2c0.3-0.9,0.7-1.7,0.9-2.6c0.3-1,0.8-1.8,1-2.9
		c0.1-0.7,0.6-1.4,0.8-2.2c0.3-1.1,0.8-2.1,1.1-3.2C44,8.9,44,8.8,44.1,8.8z"/>
	<path class="st79" d="M45.9,5.4c-0.1-0.1-0.1-0.2-0.2-0.3c0.1-0.4,0.4-0.8,0.2-1.2c0.5,0.1,0.1-0.6,0.5-0.7c0.5-0.1,1-0.2,1.5,0.1
		c-1,0.1-0.8,1.1-1.1,1.6c-0.1,0.2-0.2,0.5-0.2,0.8c-0.1,0-0.1,0.1-0.2,0C46.2,5.7,46,5.6,45.9,5.4z"/>
	<path class="st80" d="M36.4,33.5c-0.1-0.4,0.1-0.7,0.3-1c0.3-0.9,0.7-1.8,0.8-2.8c0-0.3,0.4-0.3,0.4-0.4c0.1-0.8,0.5-1.4,0.6-2.2
		c0-0.5,0.4-1.1,0.6-1.6c0.4-1,0.7-2,1.1-3c0.3-0.9,0.7-1.9,1-2.8c0.5-1.6,1.1-3.2,1.7-4.8c0.2-0.6,0.1-1.4,0.9-1.7
		c0.2,0,0.4,0.1,0.3,0.4c-0.3,0.7-0.4,1.4-0.8,2c-0.1,0.2-0.2,0.3-0.2,0.5c-0.4,1.8-1.2,3.5-1.7,5.2c-0.8,2.6-1.7,5.1-2.6,7.7
		c-0.3,1-0.7,2-1.1,3c-0.1,0.4-0.3,0.7-0.1,1.1c0,0.1,0,0.2-0.2,0.2C36.8,33.3,36.6,33.4,36.4,33.5z"/>
	<path class="st81" d="M37.1,33.2c0-0.1,0.1-0.1,0.1-0.2c0.2-0.2,0.4-0.4,0.7-0.3c0.3,0.2,0.1,0.4,0,0.6c-0.5,1.1-1,2.3-1.5,3.4
		c-0.6,1.3-1.1,2.6-1.6,3.9c-0.1,0.2-0.2,0.5-0.4,0.6c-0.2,0.1-0.5,0.2-0.7,0c0.8-1.9,1.5-3.9,2.4-5.7C36.5,34.8,36.9,34,37.1,33.2z
		"/>
	<path class="st82" d="M33.8,41.3c0.2-0.1,0.5-0.1,0.7-0.1c0.3-0.1,0.4,0.1,0.6,0.3c0.4,0.9,0.2,1.5-0.8,1.7c-0.3,0-0.5-0.2-0.6-0.4
		c-0.2-0.2-0.3-0.4-0.3-0.6C33.3,41.8,33.4,41.5,33.8,41.3z"/>
	<path class="st55" d="M33.6,42.8c0.2,0.1,0.4,0.2,0.6,0.3c0.3,0.2,0.1,0.5,0,0.7c-0.8,1.7-1.5,3.5-2.3,5.2
		c-0.3,0.8-0.6,1.7-1.1,2.4c-0.2,0.3-0.4,0.6-0.8,0.5c-0.1-0.8,0.4-1.3,0.7-1.9c0.2-0.3,0.1-0.6,0.2-0.9c0.7-1.4,1.4-2.9,1.9-4.4
		C33.1,44,33.4,43.4,33.6,42.8z"/>
	<path class="st83" d="M28.3,58.3c-0.2-0.1-0.4-0.2-0.6-0.3c-0.1-0.1-0.2-0.2-0.3-0.3c-0.1-0.6-0.1-1.2,0.6-1.6
		c0.5-0.3,0.9-0.2,1.4,0.1c0.3,0.3,0.5,0.7,0.3,1.2c0,0-0.1,0.1-0.1,0.1C29.3,58,28.9,58.4,28.3,58.3z"/>
	<path class="st84" d="M29.3,56.4c-0.4-0.3-0.8-0.3-1.3-0.3c0.3-1.1,1-2,1.3-3.1c0-0.2,0.1-0.4,0.3-0.5c0.3,0.3,0.1,0.6,0.1,0.9
		c0,0.4,0.1,0.8,0.3,1.2c0.1,0.1,0.1,0.3,0.1,0.4C29.8,55.4,29.6,55.9,29.3,56.4z"/>
	<path class="st85" d="M29.9,54.7c-0.5-0.7-0.4-1.4-0.3-2.2c0.2-0.2,0.4-0.4,0.4-0.7c0.2-0.2,0.5-0.4,0.7-0.6c0-0.1,0.1-0.1,0.2-0.1
		c0.2,0.2,0.3,0.5,0.2,0.6c-0.4,0.3-0.2,0.8-0.5,1.1c-0.3,0.4-0.4,0.9-0.5,1.4C30.1,54.5,30.2,54.7,29.9,54.7z"/>
	<path class="st86" d="M24.5,72.3c0-0.8,0.3-1.5,0.6-2.3c0.5-1.4,1-2.8,1.5-4.2c0.2-0.1,0.3-0.3,0.3-0.5c1.2-3.1,2.6-6.1,3.8-9.2
		c0.1-0.2,0.1-0.3,0.3-0.4c0.1-0.1,0.3-0.1,0.4,0c0.4,0.3,0.3,0.6,0.1,1c-1.4,2.9-2.5,5.8-3.8,8.7c-0.9,2-1.7,4-2.5,5.9
		C25.1,71.7,25.1,72.3,24.5,72.3z"/>
	<path class="st87" d="M24.5,72.3c0.7-1,1.1-2.2,1.6-3.3c0.9-2.2,1.8-4.4,2.8-6.5c0.7-1.6,1.3-3.2,2-4.7c0.2-0.4,0.4-0.7,0.6-1.1
		c0.1-0.2,0.3-0.5,0-0.7c0-0.1,0.1-0.1,0.2-0.1c0.2,0,0.4,0.1,0.6,0.2c0,0.6-0.4,1.2-0.6,1.7c-1.2,2.8-2.4,5.6-3.6,8.4
		c-1.1,2.2-1.9,4.6-3,6.8c-0.1,0.2-0.1,0.7-0.6,0.6c0,0,0-0.1,0-0.1C24.4,73.1,24.3,72.7,24.5,72.3z"/>
	<path class="st88" d="M31,55.8c-0.6,2-1.6,3.8-2.3,5.7c-0.5,1.4-1.3,2.6-1.7,4c0,0.1-0.1,0.5-0.4,0.3c0.6-1.7,1.3-3.4,1.8-5.2
		c0.5-1,0.8-2,1.1-3.1l0,0c0.1-0.5,0.2-1,0.4-1.5c0.1-0.2,0.2-0.5,0.5-0.6c0.2,0,0.4,0,0.5,0.1C31,55.7,31.1,55.7,31,55.8z"/>
	<path class="st89" d="M24.8,75.8c0,0.2,0.1,0.4,0.1,0.5c-0.1,0-0.1,0-0.2,0c-0.2-0.1-0.5-0.2-0.7-0.3c-0.1-0.1-0.2-0.2-0.3-0.3
		c0.3,0.1,0.2-0.1,0.3-0.3c0.1-0.2-0.1-0.6,0.4-0.4c0.1,0,0.2,0.1,0.3,0.3C24.8,75.5,24.9,75.6,24.8,75.8z"/>
	<path class="st8" d="M56.9,7.2c0.1,0.3,0.6,0.5,0.6,0.9c-0.1,0.1-0.2,0-0.3,0c-0.3-0.1-0.3,0.1-0.3,0.3c-0.1,0.2,0.1,0.4,0.3,0.3
		c0.3-0.1,0.4,0,0.5,0.3c-0.6,0.3-2,0.3-2.3,0c-0.1-0.1-0.3-0.4-0.1-0.7c0.3-0.5,0.2-1.2,0.8-1.4C56.3,7,56.5,7.2,56.9,7.2z"/>
	<path class="st90" d="M24.7,75.3c-0.1-0.1-0.1-0.2-0.2-0.3c0-0.1,0-0.1,0-0.2c0-0.9,0.5-1.6,0.8-2.3c1-2.2,1.9-4.4,2.8-6.6
		c1-2.1,1.9-4.1,2.7-6.2c0.1-0.3,0.2-0.6,0.5-0.7c0.1,0.1,0.2,0.2,0.2,0.3c-0.1,1.3-0.9,2.5-1.4,3.7c-1,2.3-1.9,4.6-2.9,6.9
		c-0.7,1.6-1.4,3.3-2.2,4.9C25.1,75,25,75.3,24.7,75.3z"/>
	<path class="st91" d="M28.3,66c-0.3,1-0.8,2-1.2,3c-0.5,1.2-1,2.3-1.5,3.5c-0.3,0.8-0.7,1.6-1.1,2.5c0-0.4-0.2-0.8-0.2-1.3
		c0.4-0.1,0.4-0.6,0.5-0.9c1-2.2,1.9-4.4,2.9-6.6C28,66,28.1,65.9,28.3,66z"/>
	<path class="st13" d="M51.7,8.2c0,0,0.1,0.1,0.1,0.1c-0.3,1.3-0.9,2.6-1.3,3.9c-0.4,1.4-1,2.7-1.4,4.2c-0.3,0.9-0.6,1.8-0.9,2.7
		c-0.1,0.1-0.2,0.2-0.2,0.4c0,0.3-0.1,0.7-0.2,1c-0.6,0.5-0.7,1.3-0.9,2c-0.6,1.9-1.4,3.7-2,5.6c-0.3,1.1-0.9,2.2-1.1,3.4
		c-0.1,0.3-0.4,0.2-0.6,0.3c-0.1,0-0.3,0-0.4,0c-0.2-0.2-0.2-0.4-0.1-0.7c0.7-1.9,1.3-3.9,2-5.8c0.7-1.9,1.3-3.8,2-5.7
		c0.6-1.6,1.1-3.1,1.6-4.7c0.7-2.1,1.4-4.3,2.2-6.3C50.7,8.4,50.7,8.1,51,8C51.3,7.9,51.5,8,51.7,8.2z"/>
	<path class="st92" d="M52.5,8.7c0.2,0,0.4,0,0.6,0c0,0.1,0.1,0.1,0,0.2c-0.5,1.4-0.9,2.8-1.5,4.1c-0.7,0.9-0.8,2.1-1.2,3.1
		c0,0.1,0,0.1-0.1,0.2c-0.5,1.9-1.4,3.6-1.8,5.5c-0.1,0.3-0.4,0.4-0.5,0.7c-0.3,0.3-0.3,0.8-0.4,1.2c-0.1,0.2-0.1,0.3-0.2,0.5
		c-0.1,0.2-0.3,0.3-0.5,0.3c-0.2-0.1-0.3-0.3-0.2-0.5c0.4-1.1,0.7-2.3,1.2-3.4c0.2-0.7,0.3-1.4,0.7-2c0.3-0.5,0.5-1.1,0.6-1.7
		c0.1-0.9,0.7-1.7,0.9-2.6c0.4-1.6,1.1-3.1,1.6-4.6C51.7,9.2,51.9,8.7,52.5,8.7z"/>
	<path class="st44" d="M52.5,8.7c-0.4,0.2-0.6,0.5-0.7,0.9c-0.2,0.8-0.6,1.6-0.9,2.4c-0.4,0.9-0.4,2-0.8,2.9
		c-0.3,0.7-0.7,1.4-0.8,2.1c-0.2,1-0.9,1.8-1,2.9c0,0.3-0.1,0.5-0.2,0.8c-0.2,0.1-0.2,0-0.3-0.1c-0.1-0.4,0-0.7,0.1-1
		c0.1-0.1,0.1-0.2,0.1-0.3c0.2-0.9,0.6-1.8,0.8-2.7c0.2-0.8,0.6-1.6,0.8-2.5c0.2-0.8,0.5-1.7,0.8-2.4c0.4-0.9,0.7-1.9,1.1-2.8
		c0.1-0.1,0.2-0.3,0.3-0.4C52.1,8.4,52.3,8.5,52.5,8.7z"/>
	<path class="st93" d="M51.7,8.2c-0.2-0.1-0.5-0.1-0.7-0.2c0,0-0.1-0.1-0.1-0.2c-0.2-0.3-0.2-0.8,0-1c0.2-0.2,0.3-0.4,0.3-0.6
		c-0.1-0.6,0.3-1,0.5-1.4c0.1-0.3,0.3-0.2,0.4-0.1v0c0.2,0.2,0.5,0,0.7,0.1c0,0,0.1,0,0.1,0c0,0,0,0.1,0,0.1
		c-0.8,0.1-0.4,0.9-0.7,1.3c0,0.1-0.1,0.3-0.2,0.5c-0.2,0.4-0.8,0.6-0.2,1.2C51.9,8,51.9,8.3,51.7,8.2z"/>
	<path class="st58" d="M53.1,8.8c0,0,0-0.1,0-0.1c-0.6-0.6-0.2-1.1,0.1-1.6c0.1-0.1,0.2-0.3,0.2-0.4C53.7,5.5,54,5.4,55,6.1
		c-0.8-0.3-1,0.4-1.1,0.9c-0.1,0.3-0.1,0.6-0.3,0.9c-0.3,0.6,0.1,0.9,0.6,0.9c0,0,0,0,0,0c-0.1,0-0.1,0.1-0.2,0.1
		C53.7,9.2,53.4,9.1,53.1,8.8z"/>
	<path class="st64" d="M50.1,3.9c-0.5,0-1.2-0.1-1.1,0.8c-0.8,0.4-0.4,1.4-1,1.9c0,0-0.1,0.1-0.2,0.1c-0.3-0.1-0.5-0.2-0.7-0.5
		c0-0.1,0-0.1,0-0.2c0.9-0.3,0.8-1.2,1-1.8c0.2-0.7,0.6-0.8,1.1-0.7C49.5,3.7,49.8,3.7,50.1,3.9z"/>
	<path class="st28" d="M47.2,6.1c0,0,0,0.1,0,0.1c-0.3,1.1-0.7,2-1.1,3.1c-0.1,0.4-0.3,0.4-0.6,0.5c-0.1,0-0.2-0.1-0.2-0.2
		c-0.3-0.7,0.3-1.2,0.3-1.8c0.1-0.5,0.6-0.9,0.5-1.5c0-0.2,0.2-0.4,0.4-0.5c0,0,0.1,0,0.1,0C46.8,6,46.9,6.1,47.2,6.1z"/>
	<path class="st94" d="M48.6,7.1c0.3,0,0.5,0.1,0.7,0.3c-1.1,2.7-2,5.6-2.9,8.4c-0.6,1-0.8,2.2-1.2,3.3c-0.4,1.2-0.9,2.3-1.2,3.5
		c-0.1,0.3-0.1,0.7-0.6,0.6c-0.3-0.4-0.3-0.8,0-1.2c0.3-0.5,0.6-1.1,0.4-1.7c0.3-1.5,1-2.8,1.5-4.2c0.5-1.5,1.1-2.9,1.7-4.4
		c0.1-0.3,0.2-0.6-0.1-0.9c0-0.1-0.1-0.1-0.1-0.2c0.5-1,0.7-2.1,1.3-3C48.2,7.4,48.2,6.9,48.6,7.1z"/>
	<path class="st18" d="M49.6,7.5c0.2,0,0.4,0.1,0.6,0.1c0,0.1,0.1,0.1,0.1,0.2c-0.3,1.3-0.9,2.6-1.3,3.8c-0.1,0.3-0.2,0.6-0.2,0.9
		c0,0.3-0.1,0.6-0.4,0.8c-0.3,0.1-0.4,0.6-0.8,0.5c-0.3-0.2-0.2-0.3-0.2-0.6c0.2-0.9,0.7-1.7,0.9-2.5c0.2-1,0.7-1.8,0.9-2.7
		C49.2,7.7,49.3,7.4,49.6,7.5z"/>
	<path class="st95" d="M49.6,7.5c-0.5,0.3-0.4,0.9-0.6,1.3c-0.3,0.5-0.5,1.1-0.6,1.7c-0.2,1-0.7,1.9-1,2.9c0,0.1,0.1,0.2,0.1,0.3
		c0,0,0,0.1,0,0.1c-0.2,0.4-0.3,0.8-0.4,1.3c0,0.3-0.2,0.6-0.5,0.7c0,0-0.1,0-0.1,0c-0.1-0.1-0.2-0.2-0.2-0.2
		c0.5-0.5,0.2-1.2,0.6-1.8c0.6-0.9,0.6-2,1-2.9c0.4-1,0.7-2.1,1.1-3.1c0-0.1,0.1-0.4,0.3-0.4C49.5,7.4,49.6,7.4,49.6,7.5z"/>
	<path class="st65" d="M50.2,7.8c0,0,0-0.1,0-0.1c0.1,0,0.1-0.1,0.2-0.1c-0.5-0.3-0.4-0.6-0.1-1c0.3-0.4,0.2-1,0.5-1.5
		c0.5-0.7,0.6-0.8,1.4-0.3c-0.6,0.1-0.6,0.7-0.6,1c-0.1,0.6-0.3,1-0.5,1.5c-0.1,0.3-0.1,0.3,0.1,0.5C51.2,7.9,51,7.9,50.9,8
		C50.6,8.1,50.4,8,50.2,7.8z"/>
	<path class="st20" d="M48.6,7.1c-0.3,0-0.3,0.4-0.4,0.6c-0.4,0.8-0.6,1.7-1,2.5c-0.1,0.1-0.2,0.2-0.4,0.3c-0.2,0.1-0.3,0-0.5-0.1
		c-0.1-0.1-0.3-0.2-0.3-0.4c0.7-0.9,0.8-2,1.2-3c0.1-0.3,0.1-0.6,0.5-0.4c0,0,0.1,0,0.1,0C48.2,6.8,48.4,6.9,48.6,7.1z"/>
	<path class="st65" d="M52.8,4.9c-0.2,0-0.5,0.1-0.7-0.1C52.3,4.8,52.6,4.7,52.8,4.9z"/>
	<path class="st41" d="M51.1,26c-0.2,0-0.3,0.2-0.4,0.2c-0.3,0-0.3-0.1-0.3-0.3c0-0.2,0-0.5,0.1-0.7c0.5-0.7,0.6-1.5,0.9-2.3
		c0.2-0.6,0.4-1.2,0.4-1.9c0-0.1,0-0.1,0.1-0.2c0.4-0.2,0.4-0.6,0.5-1c0.5-1.5,1.2-3.1,1.5-4.7c0.1-0.5,0.4-1,0.6-1.5
		c0.5-1.1,0.9-2.2,1.2-3.4c0.1-0.5,0.3-1,1-0.8c-0.3,0.8-0.6,1.5-0.8,2.3c-0.3,1.2-1,2.3-1.3,3.5c-0.2,1-0.6,2-0.9,3
		c-0.3,1-0.7,2-1.1,3c-0.3,0.9-0.8,1.7-0.9,2.7c-0.1,0.5-0.4,1-0.6,1.4C51,25.7,51.1,25.9,51.1,26z"/>
	<path class="st11" d="M56.7,9.5c-0.4-0.1-0.7,0.2-0.8,0.5c-0.2,0.6-0.4,1.3-0.6,1.9c-0.2,0.6-0.4,1.1-0.6,1.7
		c-0.5,1-0.8,2.1-1.1,3.2c-0.1,0.7-0.4,1.4-0.8,2c-0.3,0.6-0.5,1.3-0.6,1.9c-0.1,0.6-0.4,0-0.4,0.2c-0.3-0.3-0.3-0.6-0.1-1
		c0.4-0.7,0.6-1.5,0.8-2.3c0.2-0.9,0.6-1.7,0.9-2.5c0.5-1.6,1.3-3.2,1.7-4.9c0.1-0.3,0.2-0.6,0.4-0.8c0.7,0,1.3,0,2,0
		c-0.1,0.2-0.3,0.1-0.4,0.1C57,9.5,56.9,9.5,56.7,9.5z"/>
	<path class="st42" d="M54.1,9.1c0.2,0,0.4-0.1,0.6,0.1c-0.8,2-1.5,4-2.2,6c-0.3,0.9-0.8,1.6-0.9,2.5c-0.2,0.9-0.6,1.7-0.8,2.6
		c-0.3,1.1-0.7,2.1-1.1,3.1c-0.4,1.1-0.8,2.1-1.1,3.2c-0.3,0.9-0.7,1.7-0.8,2.6c-0.1,0.3-0.3,0.5-0.5,0.6c-0.1,0.1-0.3,0.2-0.5,0.2
		c-0.4,0-0.5-0.2-0.3-0.5c0.5-1.1,0.5-2.3,1.1-3.3c0.2-0.3,0.1-0.7,0.5-1c0.5-1,1-2.1,1.1-3.2c0-0.1,0-0.1,0.1-0.2
		c0.6-0.8,0.6-1.8,1-2.6c0.6-1.2,0.7-2.5,1.2-3.6c0.2-0.3,0.2-0.6,0-1c0.3-1,0.6-2,1-2.9c0.3-0.5,0.2-1.2,0.5-1.7
		C53.4,9.7,53.3,9,54.1,9.1z"/>
	<path class="st45" d="M47.7,29.3c0.1-0.7,0-1.4,0.6-2c0.2-0.3,0.1-0.7,0.3-1c0.5-1.1,0.8-2.3,1.2-3.5c0.2-0.6,0.5-1.2,0.6-1.8
		c0.2-1,0.7-1.9,1-2.9c0.2-0.8,0.4-1.6,0.8-2.3c0.3-0.4,0.3-1,0.4-1.5c0.3-1,0.7-1.9,1-2.8c0.3-0.7,0.6-1.4,0.6-2.2
		c0-0.2,0.4-0.1,0.5-0.3c0.2,0,0.5-0.1,0.7,0.1c-0.5,0.3-0.6,1-0.7,1.5c-0.5,1.4-1.1,2.8-1.5,4.3c-0.4,1.6-1,3.2-1.6,4.7
		c-0.6,1.7-1,3.4-1.7,5c-0.4,0.9-0.7,2-1.1,2.9c-0.1,0.2-0.1,0.4-0.1,0.6c0,0.4-0.3,0.6-0.6,0.8C48,29.3,47.8,29.4,47.7,29.3z"/>
	<path class="st43" d="M48,25.4c0.1,0.2-0.2,0.3-0.3,0.5c-0.4,1.3-0.8,2.5-1.2,3.7c-0.1,0.2-0.2,0.5,0.2,0.4c0,0.1,0,0.1,0,0.2
		c-0.2,0.2-0.5,0.4-0.8,0.5c-0.1,0-0.2,0-0.3,0c-0.3-0.3-0.1-0.6,0-0.8c0.4-1.2,0.7-2.5,1.2-3.6c0.1-0.2,0.1-0.5,0.2-0.7
		c0.3-0.3,0.2-0.7,0.4-1.1c0.2-0.5,0.3-0.9,0.5-1.4c0.5-0.9,0.8-2,1.1-3c0.3-0.9,0.6-1.7,0.9-2.6c0.2-0.4,0.2-0.9,0.3-1.3
		c0.6-1,0.9-2.2,1.2-3.3c0.4-1,0.7-2,1.1-3c0.1-0.3-0.1-0.9,0.5-1c0.3,0,0.7,0.1,1,0.1c0,0,0,0.1,0,0.1c-0.6,0.1-0.7,0.6-0.8,1
		c-0.3,1.2-0.9,2.3-1.1,3.4c-0.1,0.5-0.6,0.7-0.5,1.2c0,0.3,0,0.6-0.2,0.9c-0.3,0.6-0.5,1.2-0.7,1.8c-0.5,1.5-1,3.1-1.6,4.6
		C48.9,23.2,48.4,24.3,48,25.4z"/>
	<path class="st30" d="M48.6,28.4c-0.4-0.4,0.1-0.8,0.1-1.2c0.1-0.8,0.6-1.4,0.7-2.2c0.1-0.6,0.4-1.2,0.7-1.8
		c0.4-0.9,0.4-1.8,0.9-2.7c0.3-0.5,0.4-1.1,0.6-1.7c0.3-0.7,0.3-1.5,0.7-2.2c0.7-1.2,0.8-2.7,1.5-4c0.2-0.4,0.2-1.2,0.5-1.6
		c0.3-0.6,0.1-1.6,1.1-1.7c0,0,0.1,0,0.1,0c-0.5,1.4-0.9,2.8-1.4,4.1c-0.4,1-0.7,2.1-1.1,3.1c-0.2,0.6-0.5,1.1-0.5,1.8
		c0,0.2-0.1,0.6-0.4,0.9c-0.4,0.4-0.5,1-0.4,1.6c-0.7,2-1.5,3.9-2.1,5.9c-0.1,0.2-0.1,0.4,0,0.6c-0.1,0.5-0.5,0.8-0.9,1.1
		C48.8,28.5,48.7,28.5,48.6,28.4z"/>
	<path class="st6" d="M57.6,9c-0.1,0-0.2-0.3-0.3-0.2c-0.2,0.2-0.5,0.3-0.7,0c-0.2-0.3,0-0.7,0.2-0.9c0.3-0.4,0.4,0.2,0.7,0.2
		C57.5,8.4,57.8,8.6,57.6,9z"/>
	<path class="st68" d="M44.7,42.3c-0.1-0.5,0.1-0.9,0.5-1.2C45.1,41.6,45,42,44.7,42.3z"/>
	<path class="st68" d="M45.2,41.2c-0.1-0.3,0-0.5,0.2-0.6C45.4,40.8,45.3,41,45.2,41.2z"/>
	<path class="st11" d="M49.6,27.4c-0.4-0.1-0.1-0.3-0.1-0.5c0.3-0.9,0.5-1.8,0.9-2.6c0.5-1.1,0.6-2.3,1.2-3.3c0,0,0.1,0,0.2-0.1
		c0.1,0.2,0.3,0.3,0.2,0.5c-0.4,0.5-0.3,1.1-0.5,1.7c-0.3,0.9-0.8,1.8-1,2.7c-0.1,0.3,0,0.4,0.2,0.5c-0.1,0.1-0.1,0.2-0.2,0.3
		c-0.2,0.2-0.4,0.3-0.5,0.6C49.8,27.3,49.9,27.5,49.6,27.4z"/>
	<path class="st96" d="M32.7,65.8c-0.1-0.1-0.3-0.1-0.4-0.2c-0.1-0.2-0.3-0.4-0.4-0.6c0-0.5,0.3-0.9,0.7-1.1
		c0.2-0.2,0.4-0.1,0.6-0.1c0.1,0,0.1,0.1,0.2,0.1c0.3,0.2,0.4,0.3,0.4,0.7c0,0.5-0.2,0.9-0.6,1.2C33,65.8,32.9,65.8,32.7,65.8z"/>
	<path class="st47" d="M28.3,76.1c0.2-0.4,0.2-0.9,0.6-1.2C28.7,75.3,28.7,75.8,28.3,76.1z"/>
	<path class="st97" d="M33.8,64.7c-0.1-0.2-0.3-0.4-0.4-0.6c0-0.2,0.2-0.4,0.3-0.6c0.2-0.3,0.3-0.7,0.4-1c0-0.3,0.2-0.5,0.3-0.7
		c0.1-0.1,0.2-0.3,0.2-0.5c0.1-0.3,0.1-0.6,0.3-0.9c0.1-0.2,0.2-0.3,0.3-0.5c0-0.1,0-0.1,0.1-0.2c0.1-0.2,0.2-0.4,0.2-0.6
		c0-0.1,0-0.1,0.1-0.2c0.1-0.2,0.2-0.4,0.2-0.6c0-0.1,0.1-0.3,0.2-0.4c0.1-0.2,0.3-0.4,0.3-0.6c0-0.3,0.1-0.5,0.2-0.7
		c0.2-0.2,0.3-0.5,0.4-0.8c0-0.1,0-0.1,0.1-0.2c0.1-0.1,0.2-0.2,0.2-0.4c0-0.2,0-0.3,0.1-0.4c0.4-0.4,0.5-1,0.6-1.5
		c0.1-0.3,0.2-0.7,0.4-1c0.2-0.2,0.4-0.5,0.5-0.8c0-0.1,0-0.1,0.1-0.2c0.1-0.2,0.2-0.4,0.2-0.6c0-0.3,0.1-0.6,0.3-0.8
		c0.3-0.2,0.4-0.5,0.5-0.9c0.1-0.2,0-0.4,0.2-0.5c0.2-0.2,0.3-0.5,0.3-0.8c0.1-0.3,0.2-0.5,0.3-0.7c0.2-0.2,0.2-0.5,0.3-0.7
		c0.2-0.4,0.3-0.9,0.6-1.3c0.3-0.3,0.3-0.6,0.5-1c1-2.5,2.2-5,3.2-7.5c0.5-1.1,1-2.2,1.4-3.3c0.7-1.6,1.3-3.2,2-4.7
		c0.3-0.3,0.6-0.7,0.9-1c0.1-0.1,0.2-0.2,0.3-0.3c-0.5,1.6-1.2,3.1-1.9,4.6c-0.4,1-0.9,2-1.3,3c-0.5,1.1-1,2.3-1.5,3.4
		c-0.6,1.4-1.2,2.9-1.9,4.3c-0.8,1.9-1.7,3.8-2.5,5.7c-0.8,1.9-1.6,3.8-2.4,5.6c-0.4,0.8-0.7,1.6-1.1,2.5c-0.4,0.9-0.7,1.8-1.1,2.7
		c-0.6,1.2-0.9,2.4-1.6,3.6C34.3,63.2,34.3,64.1,33.8,64.7z"/>
	<path class="st98" d="M26.3,76.5c-0.1-0.1-0.1-0.2-0.1-0.3c0.9-2,1.7-4,2.6-6c1-2.3,2-4.5,2.9-6.8c0.5-1.3,1.1-2.6,1.7-3.9
		c0.7-1.6,1.4-3.3,2.1-4.9c0.9-2,1.6-4,2.6-5.9c0.1-0.1,0.2-0.1,0.3,0c0,0,0.1,0.1,0,0.1c0,0,0,0.1,0,0.1c-0.4,1.1-0.9,2.1-1.3,3.2
		c-0.6,1.2-1,2.4-1.6,3.6c-0.7,1.4-1.2,2.9-1.8,4.3c-1.2,2.6-2.3,5.3-3.4,8c-0.7,1.5-1.4,3-2,4.6c-0.5,1.1-0.9,2.2-1.4,3.3
		C26.7,76,26.7,76.4,26.3,76.5z"/>
	<path class="st99" d="M33.2,64.1C33,64,32.8,64,32.6,64c0-0.8,0.6-1.4,0.8-2.1c0.5-1.6,1.2-3.1,1.9-4.6c1.4-2.8,2.4-5.8,3.8-8.5
		c0.1-0.3,0.3-0.5,0.6-0.3c0.2,0.3,0,0.6-0.1,0.9c-0.8,1.8-1.6,3.6-2.3,5.4c-1.2,2.9-2.6,5.9-3.8,8.8C33.4,63.7,33.3,63.9,33.2,64.1
		z"/>
	<path class="st100" d="M39.7,48.5c-0.2,0-0.4,0.2-0.6,0.3c-0.2,0-0.5,0-0.7,0c0,0,0-0.1,0-0.1c-0.1-0.1-0.2-0.2-0.1-0.4
		c0.3-0.7,0.4-1.4,0.9-2c0.1,0,0.1-0.1,0.2-0.1c0.2,0,0.3,0.1,0.4,0.2c0.2,0.1,0.3,0.3,0.3,0.5c0,0.2,0,0.4,0,0.6
		C40.1,47.9,40.1,48.3,39.7,48.5z"/>
	<path class="st101" d="M43.3,31.8c0.2-0.1,0.4-0.2,0.6-0.3c0.1-0.1,0.2-0.1,0.3,0c0.1,0.6-0.2,1-0.4,1.5c-0.8,1.9-1.6,3.7-2.4,5.6
		c-1.1,2.5-2.1,5-3.2,7.5c-0.1,0.2-0.1,0.4-0.4,0.5c-0.7,0.9-0.9,2.1-1.4,3.1c-0.6,1.3-1.1,2.6-1.7,3.9c-0.2-0.2,0-0.5-0.2-0.7
		c0,0,0-0.1-0.1-0.1c0-0.1,0-0.1,0-0.2c0.9-2.1,1.8-4.3,2.8-6.4c1.1-2.4,2.1-4.9,3.2-7.3c1-2.3,2-4.6,2.9-6.9
		C43.2,32,43.3,31.9,43.3,31.8z"/>
	<path class="st101" d="M24.7,75.3c0.7-1.4,1.3-2.8,1.9-4.2c1.6-3.6,3.1-7.3,4.7-10.9c0.1-0.3,0-0.7,0.3-0.9c0.2-0.9,0.6-1.7,1-2.5
		c0.2-0.3,0.4-0.7,0.4-1.1c0-0.1,0-0.1,0.1-0.2c0.3-0.2,0.5-0.6,0.9-0.5c-0.3,1.4-1,2.5-1.5,3.8c-0.9,2.1-1.8,4.1-2.7,6.2
		c-0.9,2.2-1.9,4.3-2.8,6.5c-0.5,1.2-1,2.5-1.6,3.7c-0.1,0.2-0.1,0.6-0.5,0.6C24.8,75.6,24.7,75.5,24.7,75.3z"/>
	<path class="st102" d="M37.7,46.6c0.6-1.5,1.3-3,1.9-4.5c0.8-1.9,1.6-3.8,2.4-5.7c0.5-1.1,1-2.2,1.5-3.4c0.2-0.5,0.4-1,0.7-1.6
		c0.1-0.2,0.2-0.3,0.4-0.3c0.3,0.1,0.2,0.4,0.1,0.6c-1.3,2.9-2.5,5.9-3.8,8.8c-0.8,1.7-1.5,3.4-2.2,5.1c-0.1,0.2-0.2,0.4-0.3,0.6
		c-0.2,0.1-0.3,0.3-0.5,0.2C37.7,46.6,37.7,46.6,37.7,46.6z"/>
	<path class="st103" d="M37.8,46.6c0.1-0.1,0.3-0.2,0.4-0.3c0.1-0.2,0.3-0.2,0.5-0.3c0.2,0,0.4,0,0.5,0.1c0.1,0.1,0.1,0.1,0,0.2
		c-0.3,0.8-0.7,1.5-0.9,2.3c-0.1,0-0.2,0-0.3,0c-0.1-0.1-0.3-0.3-0.4-0.4c0-0.1-0.1-0.2-0.1-0.3C37.5,47.5,37.5,47,37.8,46.6z"/>
	<path class="st104" d="M33.9,55c-0.3,0.2-0.5,0.5-0.9,0.6c-0.2-0.2-0.1-0.5,0-0.7c0.2-0.6,0.5-1.1,0.7-1.6c0.1-0.2,0.2-0.4,0.6-0.3
		c0,0,0.1,0,0.1,0C34.4,53.7,34.3,54.4,33.9,55z"/>
	<path class="st23" d="M46.5,5.8c-0.2,0.7-0.3,1.3-0.6,2c-0.3,0.6-0.4,1.2-0.6,1.8c-0.1,0.1-0.2,0.1-0.3,0c-0.2-0.2-0.4-0.4-0.6-0.6
		c0.1-0.2-0.1-0.7,0.4-0.6c0-0.1,0-0.2,0-0.3c0.2-0.5,0-1,0.5-1.5c0.2-0.2,0.1-0.7,0.3-1c0.1-0.1,0.1-0.2,0.3-0.3
		C46.1,5.5,46.4,5.5,46.5,5.8z"/>
	<path class="st15" d="M45,9.5c0.1,0,0.2,0,0.3,0c0,0,0.1,0.1,0.1,0.1c0.1,0.1,0.4,0.1,0.3,0.3c-0.3,1.1-0.9,2.2-1.1,3.3
		c-0.4,1.6-1.1,3.1-1.5,4.7c-0.3,1-0.6,1.9-1.1,2.9c-0.5,1.1-0.7,2.2-1.1,3.2c-0.5,1.4-0.9,2.8-1.5,4.1c-0.5,1.3-0.9,2.6-1.3,3.9
		c-0.1,0.2,0,0.4,0,0.6c0,0.2-0.2,0.2-0.3,0.2c-0.2,0.1-0.5,0.2-0.7,0.2c-0.2-0.1-0.4,0-0.3-0.3c0.3-1,0.5-2,1-2.9
		c0.8-1.6,1.1-3.4,1.8-5c0.5-1.1,0.7-2.3,1.1-3.4c0.4-1.2,0.9-2.5,1.3-3.7c0.5-1.5,1.1-2.9,1.6-4.3c0,0-0.1-0.1-0.2-0.2
		c0.4-1.1,1-2.1,1.2-3.3C44.8,9.7,44.9,9.6,45,9.5z"/>
	<path class="st55" d="M38,32.8c0.1-0.1,0.2-0.1,0.3-0.2c0.1-0.1,0.2-0.1,0.4-0.1c0.4,0.2,0.1,0.4,0.1,0.6c-0.3,1-0.9,1.9-1.2,2.9
		c-0.7,1.7-1.5,3.4-2.2,5.1c-0.1,0.2,0,0.5-0.4,0.3c-0.1-0.1-0.3-0.2-0.4-0.3c0.6-1.4,1.1-2.9,1.8-4.3c0.5-1,0.9-2.2,1.5-3.2
		C37.8,33.5,37.9,33.1,38,32.8z"/>
	<path class="st59" d="M34.9,41.4c0.4-0.8,0.8-1.7,1.1-2.5c0.9-2.1,1.8-4.1,2.7-6.2c0,0,0-0.1-0.1-0.1c0-0.1,0-0.1,0.1-0.2
		c0.2-0.1,0.3-0.1,0.4,0c0.2,0.4,0,0.7-0.2,1.1c-1.5,4-3,8-4.6,11.9c-0.1,0.2-0.2,0.5-0.2,0.7c-0.7,1.6-1.2,3.3-1.9,4.9
		c0,0.1-0.1,0.1-0.2,0.1c-0.4,0-0.8,0.3-1.2,0.1c0,0-0.1,0-0.1,0c0.9-1.8,1.6-3.7,2.4-5.6c0.4-0.8,1-1.7,1-2.6
		C35.1,42.7,35.3,42.4,34.9,41.4z"/>
	<path class="st105" d="M30.6,55.5c-0.5,0.3-0.4,0.9-0.7,1.4c-0.1,0.2-0.2,0.5-0.3,0.7c0-0.4,0-0.8-0.3-1.2c0-0.6,0.2-1.1,0.7-1.4
		c0.2,0,0.3,0.1,0.4,0.2C30.5,55.3,30.6,55.4,30.6,55.5z"/>
	<path class="st106" d="M30.3,55.3c-0.1-0.1-0.2-0.2-0.3-0.3c0-0.1-0.1-0.2-0.1-0.3c0.2-0.8,0.4-1.5,0.8-2.2
		c0.2-0.3,0.4-0.8,0.2-1.2c0.4-0.1,0.7-0.3,1.2-0.2c0.2,0.3,0.1,0.5,0,0.7c-0.4,1-0.7,2-1.1,2.9C30.8,55,30.8,55.4,30.3,55.3z"/>
	<path class="st107" d="M31,55.8c0,0,0-0.1,0-0.1c0-0.6,0.4-1.1,0.6-1.6c0.4-0.9,0.8-1.9,1.2-2.9c0.1,0,0.1-0.1,0.2-0.1
		c0.2,0,0.4,0.1,0.5,0.3c0,0.1,0,0.1,0,0.2c-0.6,1.4-1.1,2.9-2,4.1c0,0-0.1,0-0.1,0C31.3,55.9,31.2,55.9,31,55.8z"/>
	<path class="st91" d="M28.3,66c-0.1,0-0.3,0.1-0.4,0.1c0.6-1.5,1.3-3,1.9-4.5c0.8-1.9,1.6-3.7,2.4-5.6c0,0,0.1,0,0.1-0.1
		c0.3-0.1,0.6-0.1,0.5,0.3c-0.3,1-0.7,2-1.3,2.8c-0.7,1-0.9,2.1-1.4,3.1c-0.5,1-0.9,2-1.4,2.9C28.5,65.4,28.6,65.8,28.3,66z"/>
	<path class="st108" d="M31.6,55.9c0.5-1.4,1.2-2.9,1.9-4.2c0.2,0,0.4,0.1,0.5,0.3c0,0.1,0,0.1,0,0.2c-0.5,0.6-0.7,1.4-1,2.2
		c-0.2,0.5-0.4,1-0.6,1.5c0,0.1-0.1,0.1-0.1,0.2c0,0,0,0,0,0C32,55.9,31.8,55.9,31.6,55.9z"/>
	<path class="st109" d="M32.9,51.3c-0.4,1.6-1.2,3-1.9,4.5c-0.1-0.1-0.3-0.1-0.4-0.2c-0.1-0.1-0.2-0.2-0.3-0.2
		c0.2,0,0.3-0.2,0.3-0.4c0.5-1.3,0.9-2.5,1.4-3.8c0.1,0,0.1,0,0.2,0c0.1-0.1,0.3-0.1,0.4-0.1C32.7,51,32.9,51.1,32.9,51.3z"/>
	<path class="st110" d="M32.2,56c0,0,0-0.1,0-0.1c0.3-0.2,0.5-0.3,0.9-0.2c0.1,0.1,0.2,0.2,0.1,0.3c-0.5,1.1-1,2.2-1.6,3.3
		c0-0.1-0.1-0.2-0.1-0.3c0.4-1,0.8-2,1.2-3C32.5,56,32.3,56,32.2,56z"/>
	<path class="st27" d="M50.2,7.8c0.2,0.1,0.5,0.1,0.7,0.2c0,0,0,0.1,0,0.1c-0.3,0.7-0.5,1.4-0.8,2.2c-0.4,1-0.8,2.1-1.1,3.1
		c-0.4,1.4-0.9,2.7-1.3,4c-0.4,1.3-0.8,2.6-1.4,3.8c-0.4,0.9-0.6,2-1,3c-0.2,0.7-0.5,1.4-0.8,2.1c-0.6,1.6-1.1,3.3-1.8,4.9
		c-0.1,0.2,0,0.4,0,0.6c0,0.1-0.1,0.2-0.2,0.2c-0.1,0-0.1,0-0.2,0.1c-0.2,0-0.3,0-0.5,0c-0.1,0-0.1-0.1-0.2-0.1c0-1.2,0.6-2.2,1-3.2
		c0.4-1.2,0.7-2.4,1.2-3.5c0.6-1.5,1.1-3.1,1.6-4.6c0.6-1.6,1.2-3.2,1.7-4.9c0.2-0.8,0.6-1.6,0.9-2.5c0.2,0,0.3-0.1,0.3-0.3
		c0.1-1.4,0.8-2.5,1.3-3.8C50,8.7,50,8.2,50.2,7.8z"/>
	<path class="st90" d="M42.7,31.9c0.1,0,0.1-0.1,0.2-0.1c0.1,0,0.3,0,0.4,0c0.4,0,0.2,0.3,0.1,0.4c-0.9,2.1-1.8,4.2-2.7,6.2
		c-0.8,1.7-1.4,3.5-2.2,5.2c-0.8,1.7-1.6,3.4-2.3,5.2c-0.5,1.2-1.1,2.3-1.5,3.5c-0.1,0.2-0.2,0.5-0.4,0.6c-0.3-0.1-0.3-0.3-0.3-0.5
		c0-0.1,0.1-0.2,0.1-0.3c0.2-0.3,0.3-0.6,0.3-0.9c0.1-0.5,0.2-1,0.6-1.4c0.5,0.1,0-0.3,0.2-0.4c0-0.5,0.3-1,0.6-1.4
		c0.4-0.6,0.7-1.3,0.9-2c0-0.1,0.1-0.2,0.2-0.4c0.2-0.3,0.3-0.5,0.4-0.8c0-0.1,0-0.1,0.1-0.2c0.1-0.2,0.2-0.4,0.2-0.6
		c1.1-2.2,2-4.4,2.9-6.6c0.7-1.5,1.4-3,2-4.6C42.7,32.4,42.8,32.2,42.7,31.9z"/>
	<path class="st44" d="M44.6,31.3c-0.2,0-0.3,0.1-0.4,0.2c-0.1,0-0.2,0-0.3,0c-0.4-0.3,0-0.8,0.1-0.9c0.6-1.2,0.8-2.6,1.3-3.9
		c0.4-1.1,0.9-2.1,1.1-3.3c0.2-0.9,0.6-1.7,0.9-2.5c0.1-0.2,0.3-0.3,0.5-0.4c0.1,0,0.2,0.1,0.3,0.1c-0.4,0.8-0.7,1.7-0.9,2.6
		c-0.1,0.4-0.5,0.7-0.3,1.2c0.1,0.7-0.2,1.3-0.4,1.9c-0.5,1.7-1.2,3.2-1.8,4.9C44.7,31.2,44.6,31.3,44.6,31.3z"/>
	<path class="st44" d="M48,19.2c0.2,0.2,0,0.3-0.1,0.3c0-0.1-0.1-0.2-0.1-0.3C47.9,19.2,48,19.2,48,19.2z"/>
	<path class="st32" d="M44.6,31.2c0.1-0.7,0.3-1.4,0.7-2c0.4-0.8,0.7-1.8,1-2.6c0.2-0.7,0.4-1.4,0.7-2.2c0.1-0.1,0.3-0.2,0.4-0.3
		c0.1,0,0.2,0,0.2,0.1c-0.2,0.4,0,0.9-0.3,1.3c0.4,0.5-0.2,0.8-0.3,1.3c-0.2,1.3-1,2.5-1.1,3.8c0,0.1,0,0.1,0,0.2
		c-0.2,0.2-0.4,0.2-0.6,0.3C45,31.2,44.8,31.3,44.6,31.2z"/>
	<path class="st33" d="M50.4,16.2c0.3,0.3,0.1,0.7,0,1c-0.7,1.8-1.3,3.7-1.9,5.5c-0.1,0.2-0.1,0.4-0.4,0.4c0,0-0.1,0-0.1,0
		c-0.2-0.2-0.1-0.4-0.1-0.7c0.5-0.5,0.7-1.1,0.8-1.7c0.1-1,0.8-1.8,1-2.7C49.8,17.4,50.1,16.8,50.4,16.2z"/>
	<path class="st33" d="M51.5,12.9c0.1,0.1,0.2,0.2,0.2,0.3c-0.5,1-0.5,2.1-1.2,3c0,0-0.1,0-0.2,0C50.6,15,50.9,13.9,51.5,12.9z"/>
	<path class="st33" d="M47.2,25.6c-0.1-0.5,0.3-0.9,0.1-1.4c0-0.2,0-0.3,0.1-0.4c0.2-0.2,0.1-0.6,0.6-0.6c0.2,0.1,0,0.3,0,0.4
		c0,0.6-0.6,0.9-0.4,1.6C47.7,25.2,47.5,25.5,47.2,25.6z"/>
	<path class="st32" d="M48,23.1c-0.2,0.2-0.4,0.4-0.6,0.6c0.1-0.4,0.1-0.9,0.4-1.3C48,22.6,48,22.9,48,23.1z"/>
	<path class="st26" d="M45.7,10c-0.1-0.1-0.2-0.2-0.3-0.3c0.5-0.1,0.4-0.7,0.6-1c0.2-0.5,0.4-1,0.7-1.5c0.2-0.3,0-0.8,0.5-1
		c0.2,0.1,0.5,0.2,0.7,0.4c-0.1,0-0.3,0.1-0.3,0.1c-0.1,0.9-0.7,1.6-0.8,2.5c0,0.4-0.3,0.7-0.7,0.9C46,10.3,45.8,10.2,45.7,10z"/>
	<path class="st111" d="M43.9,20.4c0.5,0.6,0,1.2-0.2,1.6c-0.3,0.4-0.2,0.8-0.2,1.2c0.3,0.1,0.4,0.2,0.2,0.5
		c-0.7,1.2-0.8,2.5-1.4,3.8c-0.2,0.5-0.4,1.1-0.6,1.7c-0.1,0.2-0.2,0.3-0.3,0.4c-0.6,0.6-0.7,1.5-0.9,2.3c0.1,0.2,0.3,0.2,0.4,0.4
		c0,0.1,0,0.1-0.1,0.2c-0.3,0.1-0.6,0.1-0.8,0.2c-0.2,0-0.5,0.1-0.7-0.1c-0.2-0.4,0-0.7,0.2-1.1c0.8-2.2,1.7-4.4,2.5-6.5
		c0.5-1.2,0.9-2.4,1.4-3.7C43.5,20.8,43.5,20.5,43.9,20.4z"/>
	<path class="st2" d="M40.9,32.1c-0.2-0.1-0.5,0-0.6-0.2c0.5-0.8,0.8-1.7,1-2.6c0.4-0.4,0.6-0.9,0.7-1.3c0.4-1.5,0.9-3,1.5-4.5
		c0.1-0.2-0.1-0.3-0.1-0.4c0.3-0.2,0.4-0.5,0.5-0.8c0.3-1,0.6-2,1-2.9c0.2-0.5,0.2-1.1,0.5-1.5c0.4-0.7,0.2-1.7,1-2.1
		c0.2,0.2,0.2,0.5,0.1,0.7c-0.6,1.4-1,2.9-1.5,4.3c-0.5,1.3-0.8,2.6-1.3,3.8c-0.1,0.2-0.2,0.5-0.1,0.8c-0.1,0.9-0.4,1.7-0.7,2.4
		c-0.4,1.1-0.8,2.3-1.2,3.4c-0.1,0.3,0,0.4,0.2,0.6c0.1,0,0.1,0,0.2,0c0,0.1,0,0.2-0.1,0.2C41.6,32.3,41.2,32.3,40.9,32.1z"/>
	<path class="st43" d="M43.9,20.4c-0.6,1.5-1.2,3-1.7,4.5c-0.6-0.1-0.4-0.5-0.3-0.8c0.5-0.9,0.6-1.9,1-2.7c0.1-0.2,0.1-0.4,0.1-0.6
		c0-0.1,0.1-0.3,0.1-0.4c0.9-1.6,1.1-3.4,1.9-5c0.5-1.2,0.9-2.6,1.3-3.9c0.1-0.3,0.2-0.7,0.7-0.7c0.6,0,0.6,0.4,0.4,0.8
		C46.1,14.4,45,17.4,43.9,20.4z"/>
	<path class="st112" d="M46.9,10.7c-0.3,0.3-0.5,0.6-0.6,1c-0.3,1.3-0.8,2.6-1.2,3.8c-0.4,1.1-0.8,2.1-1.1,3.3
		c-0.1,0.6-0.5,1.1-0.8,1.6c-0.4,0-0.3-0.3-0.3-0.5c0.4-1,0.7-2,1-3c0.4-1.3,0.9-2.5,1.3-3.7c0.2-0.9,0.6-1.7,1-2.6
		c0.1-0.1,0.2-0.3,0.3-0.2c0.1,0,0.3,0.1,0.4,0.1C46.9,10.6,46.9,10.6,46.9,10.7z"/>
	<path class="st113" d="M41.9,31.9c-0.4,0-0.7,0-0.5-0.5c0.4-1.1,0.8-2.3,1.2-3.4c0.3-0.8,0.8-1.6,0.8-2.5c1.1-2.6,1.9-5.3,2.8-8
		c0.4-1.2,1-2.4,1.2-3.7c0.4,0,0.3-0.6,0.7-0.6c0.4,0.4-0.1,0.7-0.2,1c-0.3,1.1-0.8,2.1-1,3.3c-0.1,0.3-0.2,0.6-0.3,0.8
		c-0.3,0.7-0.5,1.3-0.7,2c-0.2,0.7-0.5,1.4-0.8,2.1c-0.2,0.6-0.3,1.3-0.6,1.9c-0.6,1.4-1,2.9-1.5,4.4C42.7,29.7,42.1,30.8,41.9,31.9
		z"/>
	<path class="st4" d="M47.5,13.7c0,0.2,0.3,0.2,0.1,0.5c-0.2,0.3-0.2,0.8-0.4,1.1c-0.8,1.7-1.1,3.6-1.9,5.3c-0.4,1-0.8,2-1.1,3
		c-0.2,0.7-0.4,1.3-0.9,1.8c-0.2-0.6,0.3-1.1,0.4-1.7c0.3-1.4,0.8-2.7,1.3-4c0.5-1.2,0.8-2.5,1.3-3.8c0-0.1,0-0.2,0-0.3
		c0.6-0.3,0.4-0.9,0.6-1.3C47.1,14.2,47.2,13.9,47.5,13.7z"/>
	<path class="st32" d="M46.5,10.4c-0.5,1-1,1.9-1.1,3c0,0.4-0.3,0.7-0.4,1.1c-0.1,0.7-0.6,1.2-0.7,1.9c0,0.5-0.5,1.1-0.6,1.6
		c-0.2,0.7-0.5,1.3-0.7,2c-0.1,0.2,0.1,0.2,0.2,0.3c0,0.1,0,0.2-0.1,0.3c-0.5,1.4-1.1,2.9-1.5,4.4c-0.3,1-0.9,2-1.1,3
		c-0.3,1.4-1.1,2.6-1.3,4c0,0.3-0.3,0.3-0.4,0.5c0,0,0,0.1,0,0.1c-0.1,0-0.3,0-0.4,0c-0.5-0.1-0.3-0.4-0.2-0.6
		c0.7-1.7,1.1-3.5,1.8-5.2c0.4-0.9,0.7-1.9,1-2.9c0.2-0.7,0.6-1.4,0.7-2.1c0.2-1,0.7-1.9,1-2.8c0.6-1.6,1-3.2,1.7-4.7
		c0.3-0.6,0.4-1.3,0.6-1.9c0.1-0.2,0.1-0.5,0.3-0.7c0.2-0.3,0.4-0.5,0.3-0.9c-0.1-0.2,0.1-0.6,0.4-0.9c0.1,0,0.3,0.1,0.4,0.1
		C46.3,10.2,46.4,10.3,46.5,10.4z"/>
	<path class="st99" d="M40,47.5c0-0.2,0-0.4,0-0.6c0.2-1,0.6-1.9,1-2.7c1-2.1,1.8-4.3,2.7-6.4c1.2-2.5,2.2-5,3.3-7.6
		c0-0.1,0.1-0.2,0.1-0.3c0.2-0.2,0.4-0.4,0.5-0.5c0.1-0.1,0.2-0.1,0.4-0.2c0.2,0.3,0,0.5-0.1,0.8c-2.1,4.9-4.2,9.8-6.3,14.6
		c-0.4,0.8-0.6,1.7-1,2.5C40.5,47.2,40.4,47.7,40,47.5z"/>
	<path class="st114" d="M47.1,29.9c0.2,0.1,0.1,0.3,0.1,0.4c-0.7,1.5-1.3,3-2,4.5c-0.8,2.1-1.9,4.1-2.7,6.2
		c-0.6,1.5-1.3,2.9-1.9,4.4c-0.2,0.5-0.3,1.1-0.7,1.5c-0.1-0.1-0.2-0.3-0.3-0.4c0.7-1.6,1.3-3.2,2-4.7c1.4-3.1,2.7-6.1,4-9.2
		c0.3-0.8,0.7-1.6,1.1-2.3c0,0,0-0.1,0-0.1C46.9,30,47,29.9,47.1,29.9z"/>
	<path class="st31" d="M49.2,22.1c-0.1-0.2,0-0.4,0.1-0.7c0.3-0.8,0.6-1.7,0.9-2.5c0.5-1.2,0.5-2.5,1.3-3.5c0.2-0.2-0.1-0.6,0.2-0.7
		c0.1,0.2,0.4,0.3,0.2,0.6c-0.7,1-0.8,2.3-1.2,3.4c-0.4,0.9-0.7,1.9-1,2.8C49.6,21.8,49.5,22,49.2,22.1z"/>
	<path class="st31" d="M48,25.4c-0.2-0.5,0.2-0.9,0.3-1.4c0.2-0.7,0.3-1.4,0.8-1.9c0.3,0.3,0.1,0.6,0,0.8c-0.3,0.7-0.7,1.5-0.8,2.3
		C48.4,25.4,48.2,25.4,48,25.4z"/>
	<path class="st78" d="M40,47.5c0.7-0.5,0.8-1.4,1.1-2.1c0.9-2,1.8-4.1,2.6-6.1c1.1-2.7,2.4-5.3,3.4-8c0.3-0.7,0.7-1.4,0.9-2.1
		c0.2-0.2,0.4-0.5,0.6-0.7c0,0,0.1,0,0.1,0c0.2,0.5-0.2,0.9-0.3,1.2c-0.7,1.6-1.3,3.2-2,4.8c-1,2.2-1.9,4.4-2.9,6.5
		c-0.3,0.7-0.7,1.4-0.9,2.2c-0.1,0.3-0.2,0.6-0.5,0.9c-0.2,0.3-0.2,0.7-0.4,1c-0.2,0.4-0.4,0.9-0.6,1.3c-0.1,0.2-0.2,0.5-0.3,0.7
		c-0.1,0.2-0.2,0.5-0.3,0.7c-0.2,0.3-0.3,0.6-0.4,0.9c0,0.1-0.1,0.2-0.1,0.3c-0.1,0.4-0.3,0.7-0.4,1c-0.2,0.3-0.3,0.5-0.3,0.9
		c-0.2,0.2-0.2,0.4-0.3,0.6c-0.1,0.3-0.3,0.7-0.4,1c-0.3,0.3-0.2,0.7-0.4,1c-0.3,0.5-0.4,1.1-0.7,1.6c-0.2,0.1,0,0.2,0,0.3
		c-0.1,0.1-0.2,0.3-0.3,0.4c-0.1,0.3-0.3,0.7-0.4,1c-0.2,0.2-0.2,0.5-0.3,0.7c0,0.2-0.2,0.4-0.3,0.6c0,0.1-0.1,0.3-0.1,0.4
		c-0.1,0.2-0.1,0.4-0.3,0.6c-0.1,0.2-0.2,0.5-0.3,0.7c0,0,0,0.1,0,0.1c-0.2,0.1-0.2,0.4-0.3,0.6c-0.1,0.3-0.3,0.6-0.4,0.9
		c-0.1,0.1-0.1,0.3-0.1,0.4c-0.1,0.2-0.2,0.5-0.3,0.7c-0.1,0.4-0.4,0.7-0.4,1.2c-0.1,0.1-0.3,0.3-0.4,0.4c0,0-0.1,0-0.1,0
		c0.1-0.9,0.6-1.7,1-2.6c0.8-2,1.7-4,2.6-6c0.6-1.4,1.3-2.9,1.9-4.3c0.3-0.9,0.9-1.7,1-2.6C39.7,48.1,40.1,47.9,40,47.5z"/>
	<path class="st115" d="M46.7,30.1c0,0.9-0.6,1.6-0.9,2.4c-0.7,1.7-1.4,3.3-2.1,4.9c-1.1,2.7-2.3,5.4-3.5,8
		c-0.1,0.3-0.2,0.7-0.6,0.9c-0.1-0.1-0.2-0.1-0.3-0.2c0.1-0.7,0.4-1.3,0.7-2c0.6-1.4,1.3-2.8,1.8-4.3c0.6-1.6,1.4-3.1,2.1-4.7
		c0.7-1.6,1.3-3.2,2-4.8C46.2,30.4,46.5,30.2,46.7,30.1z"/>
	<path class="st98" d="M46,30.6c0.3,0.3,0,0.5-0.1,0.7c-1,2.1-1.9,4.3-2.8,6.4c-0.3,0.8-0.9,1.5-1.2,2.3c-0.4,1.3-1,2.5-1.5,3.7
		c-0.4,0.9-0.8,1.7-1.2,2.6c0,0-0.1,0-0.1,0c0,0,0-0.1,0-0.1c-0.3-0.4,0-0.7,0.1-1.1c1.1-2.5,2.2-5,3.2-7.5c0.9-2.1,1.7-4.2,2.7-6.3
		c0.1-0.2,0.3-0.4,0.4-0.7c0,0,0-0.1,0-0.1C45.8,30.6,45.9,30.6,46,30.6z"/>
	<path class="st116" d="M37.4,55c0.1-0.6,0.3-1.1,0.7-1.6C38,54,37.9,54.6,37.4,55z"/>
	<path class="st116" d="M39.5,49.9c0-0.4,0.2-0.7,0.4-1C40.1,49.4,39.9,49.7,39.5,49.9z"/>
	<path class="st116" d="M33.8,63.7c-0.3-0.5,0.3-0.8,0.4-1.2C34.2,62.9,34,63.3,33.8,63.7z"/>
	<path class="st116" d="M36.6,56.7c0-0.4,0.2-0.7,0.4-1C37.1,56.1,36.9,56.4,36.6,56.7z"/>
	<path class="st116" d="M41.7,45c0.1-0.4,0.1-0.7,0.4-1C42.1,44.4,42.1,44.8,41.7,45z"/>
	<path class="st116" d="M38.5,52.4c0-0.4,0.2-0.7,0.4-1C39,51.8,38.8,52.1,38.5,52.4z"/>
	<path class="st116" d="M40.1,48.6c0-0.4,0.1-0.7,0.4-0.9C40.5,48.1,40.3,48.4,40.1,48.6z"/>
	<path class="st116" d="M35.3,59.8c-0.1-0.3,0.1-0.5,0.3-0.7C35.6,59.3,35.7,59.6,35.3,59.8z"/>
	<path class="st116" d="M40.8,47.1c-0.1-0.3,0.1-0.5,0.3-0.7C41.1,46.6,41.1,46.9,40.8,47.1z"/>
	<path class="st116" d="M36.1,58c-0.1-0.3,0.2-0.4,0.3-0.6C36.5,57.8,36.3,57.9,36.1,58z"/>
	<path class="st116" d="M35.1,60.5c0-0.2-0.1-0.5,0.3-0.6C35.3,60.1,35.2,60.3,35.1,60.5z"/>
	<path class="st116" d="M37.1,55.7c0-0.2,0-0.4,0.3-0.4C37.4,55.5,37.3,55.6,37.1,55.7z"/>
	<path class="st116" d="M39,51.4c0-0.2,0-0.5,0.3-0.6C39.2,51,39.1,51.2,39,51.4z"/>
	<path class="st116" d="M34.5,61.8c-0.1-0.2,0-0.3,0.1-0.4C34.7,61.5,34.7,61.7,34.5,61.8z"/>
	<path class="st116" d="M35.6,59c0-0.2,0.1-0.4,0.3-0.6C35.9,58.7,35.9,58.9,35.6,59z"/>
	<path class="st117" d="M34.2,52.3c0,0.2,0,0.4,0.2,0.6c0,0.1,0,0.1,0,0.2C34.2,53,34,53,34,53.2c-0.2,0.8-0.9,1.5-0.9,2.4
		c0,0,0,0.1,0,0.1c-0.3,0-0.5,0.2-0.9,0.2c-0.2-0.5,0.3-0.7,0.4-1.1c0.2-0.8,0.6-1.5,0.9-2.3c0.1-0.2,0.2-0.4,0.4-0.4
		C34.1,52,34.1,52.2,34.2,52.3z"/>
	<path class="st76" d="M44.6,31.2c0.2-0.1,0.4-0.1,0.5-0.2c0.3,0.2,0.2,0.4,0.1,0.6c-1.4,2.9-2.6,5.9-3.9,8.9
		c-0.8,1.7-1.6,3.4-2.3,5.2c-0.1,0.2-0.2,0.4-0.4,0.4c-0.1,0-0.3,0.1-0.4,0.1c0.6-1.4,1.2-2.9,1.9-4.3c0.6-1.4,1.2-2.8,1.9-4.2
		c0.7-1.4,1.2-2.8,1.8-4.2c0.3-0.7,0.5-1.4,0.9-2c0.1-0.1,0-0.2-0.1-0.3C44.6,31.3,44.6,31.2,44.6,31.2z"/>
	<path class="st75" d="M38.7,46.2c0.6-1.2,1.1-2.5,1.7-3.7c0.9-1.9,1.7-3.9,2.5-5.8c0.6-1.5,1.3-3,1.9-4.5c0.1-0.4,0.6-0.6,0.4-1.1
		c0.2-0.1,0.4-0.2,0.6-0.3c-1.7,3.9-3.3,7.8-5,11.7c-0.5,1.3-1.3,2.4-1.5,3.8C39,46.2,38.9,46.2,38.7,46.2z"/>
	<path class="st118" d="M39.3,32.4c0.2,0,0.5,0,0.7-0.1c0.5,0,0.3,0.4,0.2,0.6c-0.5,1-0.7,2-1.3,2.9c-0.4,0.5-0.5,1.2-0.6,1.8
		c-0.4,0.6-0.7,1.2-1,1.9c-0.6,1.6-1.3,3.2-2,4.7c-0.2,0.5-0.4,1-0.6,1.5c-0.1,0.3-0.2,0.6-0.7,0.5c0,0,0,0,0-0.1c0,0,0,0,0-0.1
		c0.5-1.6,1.2-3.1,1.7-4.7c1-2.8,2.1-5.5,3.2-8.3c0.1-0.2,0.1-0.4,0.2-0.6C39.1,32.4,39.2,32.4,39.3,32.4z"/>
	<path class="st112" d="M39.3,32.4c0,0-0.1,0.1-0.1,0.1c-0.1,0-0.3,0-0.4,0c0.3-0.3,0.2-0.7,0.3-1c0.1-0.8,0.7-1.4,0.9-2.2
		c0.3-1.7,1.2-3.2,1.7-4.9c0.2-0.8,0.4-1.7,0.9-2.5c0.2-0.3,0.1-0.7,0.2-1c0.1-0.2,0.2-0.3,0.4-0.3c0.2,0.2,0.2,0.3,0.1,0.5
		c-0.5,0.9-0.6,2.1-1.1,3c-0.1,0.2-0.2,0.5,0.1,0.6C41.2,27.3,40.2,29.9,39.3,32.4z"/>
	<path class="st119" d="M34,46.2c0.3,0.2,0.4-0.2,0.5-0.3c0.6-1.4,1.2-2.8,1.8-4.1c0.5-1,0.7-2.2,1.4-3.2c0.1-0.1,0.1-0.3,0-0.4
		c-0.1-0.4,0.2-0.4,0.5-0.4c0.3,0.1,0.2,0.4,0.1,0.6c-0.7,1.4-1.2,2.8-1.8,4.2c-0.6,1.3-1.2,2.6-1.7,4c-0.4,1.1-0.9,2.2-1.4,3.2
		c-0.3,0.5-0.2,1.2-0.8,1.5c-0.1,0-0.3,0-0.4,0c0.1-0.7,0.4-1.3,0.7-2C33.2,48.1,33.5,47.1,34,46.2z"/>
	<path class="st120" d="M32.6,51.1c0.5-1.2,1.1-2.3,1.5-3.5c0.6-1.5,1.3-3.1,2-4.6c0.8-1.6,1.4-3.3,2.1-4.9c0.1-0.2,0-0.3,0-0.4
		c-0.1-0.2-0.3-0.2-0.2-0.5c0.7-1.4,1.3-2.8,2-4.3c0.1-0.2,0.2-0.5-0.1-0.6c0.3-0.2,0.6-0.1,0.9-0.1c0.4-0.1,0.6,0,0.5,0.4
		c0,0.2-0.1,0.4-0.2,0.6c-1.1,2.2-2,4.4-2.9,6.6c-1.3,3.1-2.6,6.1-3.9,9.2c-0.2,0.6-0.5,1.2-0.8,1.8c-0.1,0.2-0.1,0.5-0.5,0.4
		c0,0-0.1,0-0.1,0C32.8,51.2,32.7,51.1,32.6,51.1z"/>
	<path class="st86" d="M33,51.2c0.7-1.2,1.2-2.6,1.8-3.9c1-2.2,2-4.4,2.9-6.6c0.9-2.4,2-4.6,3-7c0.2-0.4,0.5-0.7,0.5-1.2
		c0-0.3-0.2-0.3-0.4-0.3c0,0,0.1-0.1,0.1-0.1c0.4,0,0.7,0,1.1-0.1c0.2,0.4-0.1,0.7-0.2,0.9c-2,4.4-3.8,9-5.8,13.4
		c-0.7,1.5-1.4,3.1-2,4.6c-0.1,0.2-0.1,0.5-0.5,0.5C33.3,51.4,33.2,51.3,33,51.2z"/>
	<path class="st87" d="M33.5,51.5c0.7-1,1-2.2,1.5-3.3c1.3-2.9,2.6-5.9,3.8-8.9c1-2.4,2.1-4.9,3.1-7.3c0,0,0-0.1,0-0.1
		c0.2,0,0.4,0,0.6,0c0.1,0.2,0,0.5-0.1,0.7c-1.4,3.1-2.7,6.3-4.1,9.4c-0.8,1.8-1.5,3.6-2.3,5.4c-0.6,1.4-1.2,2.8-1.8,4.1
		c-0.1,0.2-0.1,0.4-0.4,0.4c-0.1-0.1-0.3-0.2-0.4-0.3C33.5,51.6,33.5,51.6,33.5,51.5z"/>
	<path class="st91" d="M33.9,52c1.3-2.9,2.5-5.8,3.7-8.7c1.4-3.3,2.9-6.5,4.2-9.9c0.2-0.5,0.4-1,0.7-1.5c0,0,0.1,0,0.1,0
		c0.4,0,0.3,0.4,0.2,0.5c-0.7,1.6-1.4,3.2-2.1,4.8c-0.7,1.6-1.5,3.2-2,4.9c-0.2,0.7-0.8,1.2-0.9,1.9c-0.2,0.1-0.2,0.4-0.3,0.6
		c-0.1,0.4-0.3,0.7-0.4,1c0,0.1-0.1,0.2-0.1,0.3c-0.4,0.6-0.5,1.4-0.9,2c-0.2,0.5-0.6,0.9-0.6,1.4c-0.1,0.1-0.1,0.3-0.3,0.4
		c-0.2,0.5-0.4,1-0.6,1.4c0,0.3-0.2,0.6-0.3,0.9c-0.1,0.1-0.1,0.1-0.2,0.2c-0.1-0.1-0.2-0.1-0.3-0.2C33.9,52.1,33.9,52,33.9,52z"/>
	<path class="st121" d="M36.1,47.9c0.2-0.7,0.3-1.5,0.9-2C36.8,46.6,36.5,47.3,36.1,47.9z"/>
	<path class="st121" d="M37.1,45.6c0-0.4,0.2-0.7,0.4-1C37.6,45.1,37.3,45.3,37.1,45.6z"/>
	<path class="st121" d="M34.3,52.1c-0.2-0.4,0.2-0.6,0.3-0.9C34.7,51.6,34.6,51.9,34.3,52.1z"/>
	<path class="st121" d="M37.5,44.6c0-0.2-0.1-0.5,0.3-0.6C37.8,44.3,37.7,44.5,37.5,44.6z"/>
	<path class="st121" d="M35.2,49.8c0-0.2,0.1-0.4,0.3-0.4C35.4,49.5,35.7,49.9,35.2,49.8z"/>
	<path class="st3" d="M41.3,29.3c0.3,0.3,0,0.5-0.1,0.8c-0.1,0.7-0.2,1.4-0.9,1.8c0-0.8,0.5-1.5,0.6-2.3
		C40.9,29.4,41.1,29.4,41.3,29.3z"/>
</g>
</svg>
