<svg id="Layer_2" data-name="Layer 2" xmlns="http://www.w3.org/2000/svg" viewBox="0 0 500 500"><defs><style>.cls-1{fill:#61dafb;}</style></defs><title>logo_react</title><path class="cls-1" d="M495.3,250.05c0-32.5-40.7-63.3-103.1-82.4,14.4-63.6,8-114.2-20.2-130.4a43.84,43.84,0,0,0-22.4-5.6V54a23.16,23.16,0,0,1,11.4,2.6c13.6,7.8,19.5,37.5,14.9,75.7-1.1,9.4-2.9,19.3-5.1,29.4a484.62,484.62,0,0,0-63.5-10.9,487.8,487.8,0,0,0-41.6-50c32.6-30.3,63.2-46.9,84-46.9V31.55h0c-27.5,0-63.5,19.6-99.9,53.6C213.4,51.35,177.4,32,149.9,32v22.3c20.7,0,51.4,16.5,84,46.6a472.31,472.31,0,0,0-41.3,49.9,467,467,0,0,0-63.6,11c-2.3-10-4-19.7-5.2-29-4.7-38.2,1.1-67.9,14.6-75.8,3-1.8,6.9-2.6,11.5-2.6V32.05h0a44.59,44.59,0,0,0-22.6,5.6c-28.1,16.2-34.4,66.7-19.9,130.1C45.2,187,4.7,217.65,4.7,250.05s40.7,63.3,103.1,82.4c-14.4,63.6-8,114.2,20.2,130.4,6.5,3.8,14.1,5.6,22.5,5.6,27.5,0,63.5-19.6,99.9-53.6,36.4,33.8,72.4,53.2,99.9,53.2a44.59,44.59,0,0,0,22.6-5.6c28.1-16.2,34.4-66.7,19.9-130.1C454.8,313.25,495.3,282.45,495.3,250.05Zm-130.2-66.7c-3.7,12.9-8.3,26.2-13.5,39.5-4.1-8-8.4-16-13.1-24s-9.5-15.8-14.4-23.4C338.3,177.55,352,180.15,365.1,183.35Zm-45.8,106.5c-7.8,13.5-15.8,26.3-24.1,38.2-14.9,1.3-30,2-45.2,2s-30.2-.7-45-1.9q-12.45-17.85-24.2-38-11.4-19.65-20.8-39.8c6.2-13.4,13.2-26.8,20.7-39.9,7.8-13.5,15.8-26.3,24.1-38.2,14.9-1.3,30-2,45.2-2s30.2.7,45,1.9q12.45,17.85,24.2,38Q330.6,229.8,340,250C333.7,263.35,326.8,276.75,319.3,289.85Zm32.3-13c5.4,13.4,10,26.8,13.8,39.8-13.1,3.2-26.9,5.9-41.2,8,4.9-7.7,9.8-15.6,14.4-23.7S347.5,284.85,351.6,276.85ZM250.2,383.55a412.27,412.27,0,0,1-27.8-32c9,.4,18.2.7,27.5.7s18.7-.2,27.8-.7A390.33,390.33,0,0,1,250.2,383.55Zm-74.4-58.9c-14.2-2.1-27.9-4.7-41-7.9,3.7-12.9,8.3-26.2,13.5-39.5,4.1,8,8.4,16,13.1,24S170.9,317.05,175.8,324.65Zm73.9-208.1a412.27,412.27,0,0,1,27.8,32c-9-.4-18.2-.7-27.5-.7s-18.7.2-27.8.7A390.33,390.33,0,0,1,249.7,116.55Zm-74,58.9c-4.9,7.7-9.8,15.6-14.4,23.7s-8.9,16-13,24c-5.4-13.4-10-26.8-13.8-39.8C147.6,180.25,161.4,177.55,175.7,175.45ZM85.2,300.65c-35.4-15.1-58.3-34.9-58.3-50.6s22.9-35.6,58.3-50.6c8.6-3.7,18-7,27.7-10.1a480.28,480.28,0,0,0,22.5,60.9,473.51,473.51,0,0,0-22.2,60.6C103.3,307.75,93.9,304.35,85.2,300.65ZM139,443.55c-13.6-7.8-19.5-37.5-14.9-75.7,1.1-9.4,2.9-19.3,5.1-29.4a484.62,484.62,0,0,0,63.5,10.9,487.8,487.8,0,0,0,41.6,50c-32.6,30.3-63.2,46.9-84,46.9A23.87,23.87,0,0,1,139,443.55Zm237.2-76.2c4.7,38.2-1.1,67.9-14.6,75.8-3,1.8-6.9,2.6-11.5,2.6-20.7,0-51.4-16.5-84-46.6a472.31,472.31,0,0,0,41.3-49.9,467,467,0,0,0,63.6-11A279.94,279.94,0,0,1,376.2,367.35Zm38.5-66.7c-8.6,3.7-18,7-27.7,10.1a480.28,480.28,0,0,0-22.5-60.9,473.51,473.51,0,0,0,22.2-60.6c9.9,3.1,19.3,6.5,28.1,10.2,35.4,15.1,58.3,34.9,58.3,50.6S450.1,285.65,414.7,300.65Z"/><circle class="cls-1" cx="249.9" cy="250.05" r="45.7"/></svg>