<svg id="Layer_1" data-name="Layer 1" xmlns="http://www.w3.org/2000/svg" xmlns:xlink="http://www.w3.org/1999/xlink" viewBox="0 0 48 48"><defs><style>.cls-1{fill:none;}.cls-2,.cls-7{fill:#2d5dcc;}.cls-2{fill-rule:evenodd;}.cls-3{clip-path:url(#clip-path);}.cls-4{fill:#a5befa;}.cls-5{fill:#141c3a;}.cls-6{clip-path:url(#clip-path-5);}</style><clipPath id="clip-path"><polyline class="cls-1" points="12 4 48 4 48 48 12 48 12 4"/></clipPath><clipPath id="clip-path-5"><polyline class="cls-1" points="8 16 40 16 40 44 8 44 8 16"/></clipPath></defs><title>logo_buildWebsites_color</title><path class="cls-2" d="M4,0H44a4,4,0,0,1,4,4V44a4,4,0,0,1-4,4H4a4,4,0,0,1-4-4V4A4,4,0,0,1,4,0"/><g class="cls-3"><path class="cls-4" d="M15.9,10A1.92,1.92,0,0,1,14,8a2,2,0,0,1,1.9-2,1.92,1.92,0,0,1,1.9,2,1.92,1.92,0,0,1-1.9,2m5.8,0a1.92,1.92,0,0,1-1.9-2,2,2,0,0,1,1.9-2,1.92,1.92,0,0,1,1.9,2,1.86,1.86,0,0,1-1.9,2m5.9,0a1.92,1.92,0,0,1-1.9-2,2,2,0,0,1,1.9-2,1.92,1.92,0,0,1,1.9,2,2,2,0,0,1-1.9,2M48,4H14a2,2,0,0,0-2,2V16H38a2,2,0,0,1,2,2V42a2,2,0,0,1-2,2H12v4H44a4,4,0,0,0,4-4V4h0"/></g><g class="cls-3"><path class="cls-5" d="M15.9,6A1.92,1.92,0,0,0,14,8a2,2,0,0,0,1.9,2,1.92,1.92,0,0,0,1.9-2,1.92,1.92,0,0,0-1.9-2"/></g><g class="cls-3"><path class="cls-5" d="M21.7,6a1.92,1.92,0,0,0-1.9,2,2,2,0,0,0,1.9,2,1.92,1.92,0,0,0,1.9-2,1.86,1.86,0,0,0-1.9-2"/></g><g class="cls-3"><path class="cls-5" d="M27.6,6a1.92,1.92,0,0,0-1.9,2,2,2,0,0,0,1.9,2,1.92,1.92,0,0,0,1.9-2,2,2,0,0,0-1.9-2"/></g><g class="cls-6"><path class="cls-5" d="M12,16H10a2,2,0,0,0-2,2V42a2,2,0,0,0,2,2h2V16"/></g><g class="cls-6"><path class="cls-5" d="M12,36l7.8-16,6.6,13.5L30.6,25,36,36H12M38,16H12V44H38a2,2,0,0,0,2-2V18a2,2,0,0,0-2-2"/></g><g class="cls-6"><polyline class="cls-7" points="19.8 20 12 36 36 36 30.6 25 26.4 33.5 19.8 20"/></g></svg>