<?xml version="1.0" encoding="utf-8"?>
<!-- Generator: Adobe Illustrator 24.0.2, SVG Export Plug-In . SVG Version: 6.00 Build 0)  -->
<svg version="1.1" id="Layer_1" xmlns="http://www.w3.org/2000/svg" xmlns:xlink="http://www.w3.org/1999/xlink" x="0px" y="0px"
	 viewBox="0 0 80 80" style="enable-background:new 0 0 80 80;" xml:space="preserve">
<style type="text/css">
	.st0{fill-rule:evenodd;clip-rule:evenodd;fill:#82CE2A;}
</style>
<title>Learn Express icon</title>
<path class="st0" d="M40,80C17.9,80,0,62.1,0,40S17.9,0,40,0s40,17.9,40,40S62.1,80,40,80z M33.4,37.5H15.6c0.1-1.2,0.3-2.3,0.8-3.4
	c0.4-1,1-2,1.8-2.8c0.8-0.8,1.7-1.4,2.7-1.9s2.2-0.7,3.6-0.7c1.3,0,2.5,0.2,3.5,0.7c1,0.4,2,1.1,2.8,1.9c0.8,0.8,1.4,1.7,1.9,2.8
	S33.3,36.3,33.4,37.5z M38.3,46.2h-5c-0.4,2-1.4,3.6-2.7,4.6s-3.1,1.5-5.3,1.5c-1.7,0-3.1-0.3-4.4-0.8s-2.3-1.3-3.1-2.2
	s-1.4-2-1.7-3.2c-0.4-1.2-0.5-2.5-0.5-3.9h23.2c0.1-1.9-0.1-3.9-0.5-5.9c-0.4-2.1-1.2-4-2.3-5.8s-2.6-3.2-4.4-4.4s-4.1-1.7-6.9-1.7
	c-2.1,0-4.1,0.4-5.9,1.2c-1.8,0.8-3.3,1.9-4.6,3.4s-2.3,3.1-3,5.1c-0.7,2-1.1,4.1-1.1,6.5c0.1,2.4,0.4,4.5,1.1,6.5s1.6,3.7,2.8,5.2
	s2.8,2.6,4.6,3.4s4,1.2,6.4,1.2c3.5,0,6.4-0.9,8.8-2.6S37.6,49.6,38.3,46.2z M50.2,39.7L38.5,56h6.2l8.6-12.8L62,56h6.5l-12-16.7
	L67.2,25h-6.1l-7.7,10.9L45.9,25h-6.5C39.4,25,50.2,39.7,50.2,39.7z"/>
</svg>
