<svg viewBox="0 0 48 48" version="1.1" xmlns="http://www.w3.org/2000/svg" xmlns:xlink="http://www.w3.org/1999/xlink"><title>Web Development icon</title><desc>Created with sketchtool.</desc><defs><rect id="path-1" x="0" y="0" width="48" height="48" rx="4"/></defs><g id="Container-Completion" stroke="none" stroke-width="1" fill="none" fill-rule="evenodd"><rect id="Rectangle" fill="#FFFFFF" x="-670" y="-195" width="776" height="1009"/><g id="thumbnail-sm-career-webdev"><mask id="mask-2" fill="white"><use xmlns:xlink="http://www.w3.org/1999/xlink" xlink:href="#path-1"/></mask><use id="Rectangle" fill="#3069F0" xmlns:xlink="http://www.w3.org/1999/xlink" xlink:href="#path-1"/><rect id="Rectangle" fill="#FFFFFF" mask="url(#mask-2)" x="4" y="4" width="24" height="8"/><g id="Group" mask="url(#mask-2)"><g transform="translate(12.000000, 4.000000)"><path d="M0,44 L36,44 L36,0 L2,0 C0.8954305,2.02906125e-16 -1.3527075e-16,0.8954305 0,2 L0,44 L0,44 Z" id="Window" fill="#10162F"/><path d="M5.83783784,4 C5.83783784,5.10457899 4.96679428,6 3.89200584,6 C2.8172174,6 1.94594595,5.10457899 1.94594595,4 C1.94594595,2.89542101 2.8172174,2 3.89200584,2 C4.96679428,2 5.83783784,2.89542101 5.83783784,4" id="Dot-2" fill="#FFFFFF"/><path d="M11.6756757,4 C11.6756757,5.10457899 10.8046321,6 9.72984368,6 C8.65505524,6 7.78378378,5.10457899 7.78378378,4 C7.78378378,2.89542101 8.65505524,2 9.72984368,2 C10.8046321,2 11.6756757,2.89542101 11.6756757,4" id="Dot-2-Copy" fill="#FFFFFF"/><path d="M17.5135135,4 C17.5135135,5.10457899 16.64247,6 15.5676815,6 C14.4928931,6 13.6216216,5.10457899 13.6216216,4 C13.6216216,2.89542101 14.4928931,2 15.5676815,2 C16.64247,2 17.5135135,2.89542101 17.5135135,4" id="Dot-2-Copy-2" fill="#FFFFFF"/></g></g><rect id="Rectangle" fill="#FFFFFF" mask="url(#mask-2)" x="19" y="22" width="4" height="6" rx="2"/><rect id="Rectangle-Copy" fill="#FFFFFF" mask="url(#mask-2)" x="25" y="21" width="4" height="8" rx="2"/><rect id="Rectangle-Copy-2" fill="#FFFFFF" mask="url(#mask-2)" x="31" y="15" width="4" height="20" rx="2"/><rect id="Rectangle-Copy-3" fill="#FFFFFF" mask="url(#mask-2)" x="37" y="19" width="4" height="12" rx="2"/><rect id="Rectangle-Copy-4" fill="#FFFFFF" mask="url(#mask-2)" x="43" y="19" width="4" height="12" rx="2"/><rect id="Rectangle-Copy-5" fill="#FFFFFF" mask="url(#mask-2)" x="4" y="14" width="8" height="8"/><rect id="Rectangle-Copy-6" fill="#FFFFFF" mask="url(#mask-2)" x="4" y="24" width="8" height="8"/><g id="Group-2" mask="url(#mask-2)"><g transform="translate(8.000000, 36.000000)"><circle id="Oval" fill="#47CCA0" cx="12" cy="12" r="12"/><polygon id="Triangle" fill="#10162F" transform="translate(13.000000, 12.000000) rotate(-270.000000) translate(-13.000000, -12.000000) " points="13 8 19 16 7 16"/></g></g></g></g></svg>