<svg id="Layer_1" data-name="Layer 1" xmlns="http://www.w3.org/2000/svg" xmlns:xlink="http://www.w3.org/1999/xlink" viewBox="0 0 48 48"><defs><style>.cls-1{fill:none;}.cls-2{fill:#47cca0;fill-rule:evenodd;}.cls-3{clip-path:url(#clip-path);}.cls-4{fill:#d957d9;}.cls-5{clip-path:url(#clip-path-2);}.cls-6{clip-path:url(#clip-path-3);}.cls-7{clip-path:url(#clip-path-4);}.cls-8{fill:#fff;}.cls-9{clip-path:url(#clip-path-5);}.cls-10{clip-path:url(#clip-path-6);}.cls-11{fill:#10162f;}.cls-12{clip-path:url(#clip-path-7);}.cls-13{clip-path:url(#clip-path-8);}.cls-14{clip-path:url(#clip-path-9);}.cls-15{clip-path:url(#clip-path-10);}.cls-16{clip-path:url(#clip-path-11);}.cls-17{clip-path:url(#clip-path-12);}.cls-18{clip-path:url(#clip-path-13);}.cls-19{clip-path:url(#clip-path-14);}.cls-20{clip-path:url(#clip-path-15);}.cls-21{clip-path:url(#clip-path-16);}.cls-22{clip-path:url(#clip-path-17);}</style><clipPath id="clip-path"><polyline class="cls-1" points="28 8 40 8 40 20 28 20 28 8"/></clipPath><clipPath id="clip-path-2"><polyline class="cls-1" points="28 32 40 32 40 44 28 44 28 32"/></clipPath><clipPath id="clip-path-3"><polyline class="cls-1" points="16 32 28 32 28 44 16 44 16 32"/></clipPath><clipPath id="clip-path-4"><polyline class="cls-1" points="28 20 40 20 40 32 28 32 28 20"/></clipPath><clipPath id="clip-path-5"><polyline class="cls-1" points="16 8 28 8 28 20 16 20 16 8"/></clipPath><clipPath id="clip-path-6"><polyline class="cls-1" points="16 20 28 20 28 32 16 32 16 20"/></clipPath><clipPath id="clip-path-7"><polyline class="cls-1" points="4 20 16 20 16 32 4 32 4 20"/></clipPath><clipPath id="clip-path-8"><polyline class="cls-1" points="4 32 16 32 16 44 4 44 4 32"/></clipPath><clipPath id="clip-path-9"><polyline class="cls-1" points="18 10 26 10 26 18 18 18 18 10"/></clipPath><clipPath id="clip-path-10"><polyline class="cls-1" points="18 34 26 34 26 42 18 42 18 34"/></clipPath><clipPath id="clip-path-11"><polyline class="cls-1" points="6 34 14 34 14 42 6 42 6 34"/></clipPath><clipPath id="clip-path-12"><polyline class="cls-1" points="6 22 14 22 14 30 6 30 6 22"/></clipPath><clipPath id="clip-path-13"><polyline class="cls-1" points="30 34 38 34 38 42 30 42 30 34"/></clipPath><clipPath id="clip-path-14"><polyline class="cls-1" points="30 10 38 10 38 18 30 18 30 10"/></clipPath><clipPath id="clip-path-15"><polyline class="cls-1" points="21 22 23 22 23 30 21 30 21 22"/></clipPath><clipPath id="clip-path-16"><polyline class="cls-1" points="45 34 47 34 47 42 45 42 45 34"/></clipPath><clipPath id="clip-path-17"><polyline class="cls-1" points="33 22 35 22 35 30 33 30 33 22"/></clipPath></defs><title>logo_codeFoundations_color</title><path class="cls-2" d="M4,0H44a4,4,0,0,1,4,4V44a4,4,0,0,1-4,4H4a4,4,0,0,1-4-4V4A4,4,0,0,1,4,0"/><g class="cls-3"><path class="cls-4" d="M34,12a2,2,0,1,0,2,2,2,2,0,0,0-2-2h0m0-2h0a4,4,0,0,1,0,8h0a4,4,0,0,1-4-4h0a4,4,0,0,1,4-4m6-2H28V20H40V8"/></g><g class="cls-5"><path class="cls-4" d="M34,36a2,2,0,1,0,2,2,2,2,0,0,0-2-2h0m0-2h0a4,4,0,0,1,0,8h0a4,4,0,0,1-4-4h0a4,4,0,0,1,4-4m6-2H28V44H40V32"/></g><g class="cls-6"><path class="cls-4" d="M22,36a2,2,0,1,0,2,2,2,2,0,0,0-2-2h0m0-2h0a4,4,0,0,1,0,8h0a4,4,0,0,1-4-4h0a4,4,0,0,1,4-4m6-2H16V44H28V32"/></g><g class="cls-7"><path class="cls-8" d="M33,22h2v8H33V22m7-2H28V32H40V20"/></g><g class="cls-9"><path class="cls-8" d="M22,12a2,2,0,1,0,2,2,2,2,0,0,0-2-2h0m0-2h0a4,4,0,0,1,0,8h0a4,4,0,0,1-4-4h0a4,4,0,0,1,4-4m6-2H16V20H28V8"/></g><g class="cls-10"><path class="cls-11" d="M21,22h2v8H21V22m7-2H16V32H28V20"/></g><g class="cls-12"><path class="cls-11" d="M10,24a2,2,0,1,0,2,2,2,2,0,0,0-2-2h0m0-2h0a4,4,0,1,1-4,4H6a4,4,0,0,1,4-4m6-2H4V32H16V20"/></g><g class="cls-13"><path class="cls-11" d="M10,36a2,2,0,1,0,2,2,2,2,0,0,0-2-2h0m0-2h0a4,4,0,0,1,0,8h0a4,4,0,0,1-4-4H6a4,4,0,0,1,4-4m6-2H4V44H16V32"/></g><polyline class="cls-11" points="40 32 40 44 48 44 48 32 40 32"/><g class="cls-14"><path class="cls-11" d="M22,16a2,2,0,0,1,0-4h0a2,2,0,0,1,0,4m0-6h0a4,4,0,0,0-4,4h0a4,4,0,0,0,4,4h0a4,4,0,0,0,0-8"/></g><g class="cls-15"><path class="cls-8" d="M22,40a2,2,0,0,1,0-4h0a2,2,0,0,1,0,4m0-6h0a4,4,0,0,0-4,4h0a4,4,0,0,0,4,4h0a4,4,0,0,0,0-8"/></g><g class="cls-16"><path class="cls-8" d="M10,40a2,2,0,0,1,0-4h0a2,2,0,0,1,0,4m0-6h0a4,4,0,0,0-4,4H6a4,4,0,0,0,4,4h0a4,4,0,0,0,0-8"/></g><g class="cls-17"><path class="cls-8" d="M10,28a2,2,0,0,1,0-4h0a2,2,0,0,1,0,4m0-6h0a4,4,0,0,0-4,4H6a4,4,0,1,0,4-4"/></g><g class="cls-18"><path class="cls-8" d="M34,40a2,2,0,0,1,0-4h0a2,2,0,0,1,0,4m0-6h0a4,4,0,0,0-4,4h0a4,4,0,0,0,4,4h0a4,4,0,0,0,0-8"/></g><g class="cls-19"><path class="cls-8" d="M34,16a2,2,0,0,1,0-4h0a2,2,0,0,1,0,4m0-6h0a4,4,0,0,0-4,4h0a4,4,0,0,0,4,4h0a4,4,0,0,0,0-8"/></g><g class="cls-20"><polyline class="cls-8" points="23 22 21 22 21 30 23 30 23 22"/></g><g class="cls-21"><polyline class="cls-8" points="47 34 45 34 45 42 47 42 47 34"/></g><g class="cls-22"><polyline class="cls-11" points="35 22 33 22 33 30 35 30 35 22"/></g></svg>