<svg id="Layer_1" data-name="Layer 1" xmlns="http://www.w3.org/2000/svg" xmlns:xlink="http://www.w3.org/1999/xlink" viewBox="0 0 48 48"><defs><style>.cls-1{fill:none;}.cls-2,.cls-3{fill:#3069f0;}.cls-2{fill-rule:evenodd;}.cls-4{clip-path:url(#clip-path);}.cls-5{fill:#fff;}.cls-6{clip-path:url(#clip-path-2);}.cls-7{fill:#10162f;}.cls-8{clip-path:url(#clip-path-9);}.cls-9{clip-path:url(#clip-path-10);}.cls-10{clip-path:url(#clip-path-11);}.cls-11{clip-path:url(#clip-path-12);}.cls-12{clip-path:url(#clip-path-13);}.cls-13{clip-path:url(#clip-path-14);}.cls-14{clip-path:url(#clip-path-15);}.cls-15{clip-path:url(#clip-path-16);}.cls-16{fill:#47cca0;}</style><clipPath id="clip-path"><polyline class="cls-1" points="4 4 28 4 28 12 4 12 4 4"/></clipPath><clipPath id="clip-path-2"><polyline class="cls-1" points="12 4 48 4 48 48 12 48 12 4"/></clipPath><clipPath id="clip-path-9"><polyline class="cls-1" points="19 22 23 22 23 28 19 28 19 22"/></clipPath><clipPath id="clip-path-10"><polyline class="cls-1" points="25 21 29 21 29 29 25 29 25 21"/></clipPath><clipPath id="clip-path-11"><polyline class="cls-1" points="31 15 35 15 35 35 31 35 31 15"/></clipPath><clipPath id="clip-path-12"><polyline class="cls-1" points="37 19 41 19 41 31 37 31 37 19"/></clipPath><clipPath id="clip-path-13"><polyline class="cls-1" points="43 19 47 19 47 31 43 31 43 19"/></clipPath><clipPath id="clip-path-14"><polyline class="cls-1" points="4 14 12 14 12 22 4 22 4 14"/></clipPath><clipPath id="clip-path-15"><polyline class="cls-1" points="4 24 12 24 12 32 4 32 4 24"/></clipPath><clipPath id="clip-path-16"><polyline class="cls-1" points="8 36 32 36 32 48 8 48 8 36"/></clipPath></defs><title>logo_webDev_color</title><path class="cls-2" d="M4,0H44a4,4,0,0,1,4,4V44a4,4,0,0,1-4,4H4a4,4,0,0,1-4-4V4A4,4,0,0,1,4,0"/><polyline class="cls-3" points="4 4 4 4 4 12 12 12 12 12 4 12 4 4"/><g class="cls-4"><path class="cls-5" d="M14,4H4v8h8V6h0a2,2,0,0,1,2-2"/></g><g class="cls-6"><path class="cls-7" d="M19,24a2,2,0,0,1,4,0v2a2,2,0,0,1-2,2h0a2,2,0,0,1-2-2h0V24h0m6-1a2,2,0,0,1,4,0v4a2,2,0,0,1-2,2h0a2,2,0,0,1-2-2h0V23h0m12-2a2,2,0,0,1,4,0v8a2,2,0,0,1-2,2h0a2,2,0,0,1-2-2h0V21h0m6,0a2,2,0,0,1,4,0v8a2,2,0,0,1-2,2h0a2,2,0,0,1-2-2h0V21h0M31,17a2,2,0,0,1,4,0V33a2,2,0,0,1-2,2h0a2,2,0,0,1-2-2h0V17h0M48,4H28V6a2,2,0,0,1,1.5,2A2,2,0,0,1,28,10v2H12V39.1A12.35,12.35,0,0,1,19.9,36h.2A12,12,0,0,1,32,48H44a4,4,0,0,0,4-4V4h0"/></g><g class="cls-6"><polyline class="cls-7" points="28 12 12 12 12 12 28 12"/></g><g class="cls-6"><path class="cls-7" d="M15.9,10A1.92,1.92,0,0,1,14,8a2,2,0,0,1,1.9-2,1.92,1.92,0,0,1,1.9,2,1.92,1.92,0,0,1-1.9,2m5.8,0a1.92,1.92,0,0,1-1.9-2,2,2,0,0,1,1.9-2,1.92,1.92,0,0,1,1.9,2,1.86,1.86,0,0,1-1.9,2M28,4H14a2,2,0,0,0-2,2v6H28V10h-.4a1.92,1.92,0,0,1-1.9-2,2,2,0,0,1,1.9-2H28V4"/></g><g class="cls-6"><path class="cls-5" d="M15.9,6A1.92,1.92,0,0,0,14,8a2,2,0,0,0,1.9,2,1.92,1.92,0,0,0,1.9-2,1.92,1.92,0,0,0-1.9-2"/></g><g class="cls-6"><path class="cls-5" d="M21.7,6a1.92,1.92,0,0,0-1.9,2,2,2,0,0,0,1.9,2,1.92,1.92,0,0,0,1.9-2,1.86,1.86,0,0,0-1.9-2"/></g><g class="cls-6"><path class="cls-5" d="M28,6v4a2,2,0,0,0,1.5-2A2,2,0,0,0,28,6"/></g><g class="cls-6"><path class="cls-5" d="M27.6,6a1.92,1.92,0,0,0-1.9,2,2,2,0,0,0,1.9,2H28V6h-.4"/></g><path class="cls-7" d="M21,28h0"/><g class="cls-8"><path class="cls-5" d="M21,22a2,2,0,0,0-2,2v2a2,2,0,0,0,2,2h0a2,2,0,0,0,2-2V24a2,2,0,0,0-2-2"/></g><g class="cls-9"><path class="cls-5" d="M27,21a2,2,0,0,0-2,2v4a2,2,0,0,0,2,2h0a2,2,0,0,0,2-2V23a2,2,0,0,0-2-2"/></g><g class="cls-10"><path class="cls-5" d="M33,15a2,2,0,0,0-2,2V33a2,2,0,0,0,2,2h0a2,2,0,0,0,2-2V17a2,2,0,0,0-2-2"/></g><path class="cls-7" d="M39,31h0"/><g class="cls-11"><path class="cls-5" d="M39,19a2,2,0,0,0-2,2v8a2,2,0,0,0,2,2h0a2,2,0,0,0,2-2V21a2,2,0,0,0-2-2"/></g><path class="cls-7" d="M45,31h0"/><g class="cls-12"><path class="cls-5" d="M45,19a2,2,0,0,0-2,2v8a2,2,0,0,0,2,2h0a2,2,0,0,0,2-2V21a2,2,0,0,0-2-2"/></g><polyline class="cls-3" points="4 14 4 14 4 22 12 22 12 22 4 22 4 14"/><g class="cls-13"><polyline class="cls-5" points="12 14 4 14 4 22 12 22 12 14"/></g><polyline class="cls-3" points="4 24 4 24 4 32 12 32 12 32 4 32 4 24"/><g class="cls-14"><polyline class="cls-5" points="12 24 4 24 4 32 12 32 12 24"/></g><g class="cls-15"><path class="cls-5" d="M17,48h0m15,0h0"/></g><g class="cls-15"><polyline class="cls-5" points="25 48 17 48 17 48 25 48 25 48"/></g><g class="cls-15"><path class="cls-16" d="M12,39.1A11.81,11.81,0,0,0,8,48h4V39.1"/></g><g class="cls-15"><path class="cls-16" d="M20.1,36h-.2A11.84,11.84,0,0,0,12,39.1V48h5V42l8,6h7A12,12,0,0,0,20.1,36"/></g><g class="cls-15"><polyline class="cls-7" points="17 42 17 48 25 48 17 42"/></g></svg>