<?xml version="1.0" encoding="utf-8"?>
<!-- Generator: Adobe Illustrator 24.0.2, SVG Export Plug-In . SVG Version: 6.00 Build 0)  -->
<svg version="1.1" id="Layer_1" xmlns="http://www.w3.org/2000/svg" xmlns:xlink="http://www.w3.org/1999/xlink" x="0px" y="0px"
	 viewBox="0 0 80 80" style="enable-background:new 0 0 80 80;" xml:space="preserve">
<style type="text/css">
	.st0{fill:none;}
	.st1{fill:#427EEF;}
	.st2{fill:#FFFFFF;}
	.st3{fill-rule:evenodd;clip-rule:evenodd;fill:#3DC93F;}
	.st4{fill-rule:evenodd;clip-rule:evenodd;fill:#F9BD2E;}
	.st5{fill-rule:evenodd;clip-rule:evenodd;fill:#F66058;}
	.st6{fill-rule:evenodd;clip-rule:evenodd;fill:url(#SVGID_1_);}
</style>
<title>Learn Responsive Design icon</title>
<circle class="st0" cx="13.8" cy="5.1" r="2"/>
<circle class="st0" cx="5.8" cy="5.1" r="2"/>
<circle class="st0" cx="21.8" cy="5.1" r="2"/>
<polygon class="st0" points="24,24 52,24.1 52,38 35,38 35,42 52,42 52,53.6 39.8,59.8 28,53.6 28,48.1 24,48.1 24,56 39.8,64.3 
	56,56 56,20.1 24,20 "/>
<path class="st1" d="M0,10.1V78c0,1.1,1.5,2,3.3,2h73.3c1.8,0,3.3-0.9,3.3-2V10.1H0z"/>
<g>
	<path class="st2" d="M21.5,30.7c0.2-2.6-0.3-5.1,0.3-7.5c0.7-2.6,3.1-4.4,5.8-4.4c3,0,6,0,9,0c9.3,0,18.6,0,27.9,0
		c2.6,0,4.6,1.1,5.7,3.4C70.7,23,71,24,71,24.9c0.1,7.7,0,15.3,0,23c0,1.7,0,3.4,0,5.1c0,3.7-2.6,6.3-6.3,6.3c-3.8,0-7.6,0-11.4,0
		c-0.4,0-0.8,0-1.3,0c0,1.4,0,2.7,0,4.1c0.2,0,0.4,0,0.6,0c1.6,0,3.1,0,4.7,0c1.8,0,2.7,0.9,2.7,2.7c0,0.8,0,1.6,0,2.4
		c0,1.6-1,2.5-2.6,2.6c-2.5,0-4.9,0-7.4,0c-1.1,0-2.2,0-3.4,0c0.1-0.3,0.3-0.5,0.3-0.8c0.2-0.9,0.5-1.8,0.5-2.7
		c0.1-5.6,0-11.1,0-16.7c0-0.6,0.2-0.8,0.8-0.8c4.8,0,9.5,0,14.3,0c0.4,0,0.9,0,1.3-0.1c1.1-0.2,1.9-1.2,1.9-2.4c0-4.8,0-9.6,0-14.5
		c0-2.4,0-4.8,0-7.1c0-1.6-0.9-2.6-2.5-2.6c-11.3,0-22.6,0-33.8,0c-1.5,0-2.4,1-2.4,2.5c0,1.3,0,2.7,0,4c0,0.3-0.1,0.5-0.5,0.5
		C24.8,30.7,23.3,30.7,21.5,30.7z M63.7,54.5c0-1.1-0.9-1.9-1.9-1.9c-1,0-1.9,0.9-1.9,1.9c0,1.1,0.9,1.9,1.9,1.9
		C62.9,56.4,63.7,55.5,63.7,54.5z"/>
	<path class="st2" d="M28.9,69c1,0.4,2,0.4,2.6-0.6c0.4-0.7,0.4-1.6-0.2-2.2c-0.6-0.7-1.3-0.8-2.5-0.4c0-1.2,0-2.4,0-3.6
		c3.6,0,7.1,0,10.8,0c0-7.7,0-15.3,0-23c-6.5,0-12.9,0-19.4,0c0,0.9,0,1.8,0,2.7c-1.6,0-3.1,0-4.6,0c0-1.8-0.1-3.6,0-5.3
		c0.2-1.6,1.7-2.7,3.6-2.7c4.1,0,8.2,0,12.2,0c3,0,6.1,0,9.1,0c1.8,0,3.1,0.9,3.5,2.5c0.1,0.4,0.1,0.9,0.1,1.4c0,10,0,20,0,30
		c0,2.3-1.4,3.7-3.6,3.7c-3.9,0-7.8,0-11.7,0c-0.1,0-0.2,0-0.3,0C28.7,70.5,28.8,69.8,28.9,69z"/>
	<path class="st2" d="M25.7,57.9c0,3.6,0,7.2,0,10.8c0,1.7-0.8,2.5-2.5,2.5c-3.9,0-7.9,0-11.8,0c-1.7,0-2.5-0.8-2.5-2.5
		c0-7.2,0-14.4,0-21.5c0-1.8,0.8-2.5,2.6-2.5c3.9,0,7.9,0,11.8,0c1.6,0,2.4,0.8,2.4,2.4C25.7,50.7,25.7,54.3,25.7,57.9
		C25.7,57.9,25.7,57.9,25.7,57.9z M12.4,48.8c0,4.9,0,9.8,0,14.6c3.3,0,6.6,0,9.9,0c0-4.9,0-9.8,0-14.6C19,48.8,15.7,48.8,12.4,48.8
		z M17.4,70c0.8,0,1.6-0.7,1.6-1.6c0-0.9-0.7-1.6-1.6-1.6c-0.8,0-1.6,0.7-1.6,1.6C15.8,69.3,16.5,70,17.4,70z"/>
</g>
<g>
	<circle class="st3" cx="22" cy="5.1" r="2"/>
	<circle class="st4" cx="14" cy="5.1" r="2"/>
	<circle class="st5" cx="6" cy="5" r="2"/>
	<radialGradient id="SVGID_1_" cx="42.0829" cy="-14.9282" r="79.1287" gradientUnits="userSpaceOnUse">
		<stop  offset="0" style="stop-color:#E5E5E5"/>
		<stop  offset="1" style="stop-color:#CDCDCD"/>
	</radialGradient>
	<path class="st6" d="M78,0.1H65.5v0H45.5v0h-10h-2.1H2c-1.1,0-2,0.9-2,2v8h33.5v0h2.1h10v0h19.9H80v-8C80,1,79.1,0.1,78,0.1z
		 M6,7.1c-1.1,0-2-0.9-2-2s0.9-2,2-2s2,0.9,2,2S7.1,7.1,6,7.1z M14,7.1c-1.1,0-2-0.9-2-2s0.9-2,2-2s2,0.9,2,2S15.1,7.1,14,7.1z
		 M22,7.1c-1.1,0-2-0.9-2-2s0.9-2,2-2s2,0.9,2,2S23.1,7.1,22,7.1z"/>
</g>
</svg>
