<?xml version="1.0" encoding="utf-8"?>
<!-- Generator: Adobe Illustrator 24.0.2, SVG Export Plug-In . SVG Version: 6.00 Build 0)  -->
<svg version="1.1" id="Layer_1" xmlns="http://www.w3.org/2000/svg" xmlns:xlink="http://www.w3.org/1999/xlink" x="0px" y="0px"
	 viewBox="0 0 80 80" style="enable-background:new 0 0 80 80;" xml:space="preserve">
<style type="text/css">
	.st0{fill:#1A535C;}
	.st1{fill:#FFFFFF;}
</style>
<title>Learn the Command Line icon</title>
<path class="st0" d="M73.3,0H6.7C3,0,0,3,0,6.7v66.6C0,77,3,80,6.7,80h66.7c3.7,0,6.7-3,6.7-6.7V6.7C80,3,77,0,73.3,0z M14,34.6
	l-3.6-3.9l8.7-8.1l-8.9-9.3l3.9-3.6l12.4,13.2L14,34.6z M42.7,34H26.8v-5.3h15.9V34z"/>
<polygon class="st1" points="26.5,22.9 14,34.6 10.4,30.7 19.1,22.6 10.2,13.3 14.1,9.7 "/>
<rect x="26.8" y="28.7" class="st1" width="15.9" height="5.3"/>
</svg>
