<?xml version="1.0" encoding="utf-8"?>
<!-- Generator: Adobe Illustrator 24.0.2, SVG Export Plug-In . SVG Version: 6.00 Build 0)  -->
<svg version="1.1" id="Layer_1" xmlns="http://www.w3.org/2000/svg" xmlns:xlink="http://www.w3.org/1999/xlink" x="0px" y="0px"
	 viewBox="0 0 80 80" style="enable-background:new 0 0 80 80;" xml:space="preserve">
<style type="text/css">
	.st0{fill:#8AA1AA;}
	.st1{fill:#7C959B;}
	.st2{fill:#B5C3CA;}
	.st3{fill:#A7B3BB;}
</style>
<title>Learn SQL icon</title>
<g>
	<path class="st0" d="M40,11L57.1,1C52.2,0.4,46.3,0,40,0C23.4,0,10,2.5,10,5.5S23.4,11,40,11z"/>
	<path class="st1" d="M70,5.5C70,3.6,64.9,2,57.1,1L40,11C56.6,11,70,8.5,70,5.5z"/>
	<g>
		<path class="st2" d="M8,8v15.9c0,5,14.3,9.1,32,9.1V14C22.5,14,11.8,12,8,8z"/>
		<path class="st3" d="M72,23.9V8c-3.8,4-14.5,6-32,6v19C57.7,33,72,28.9,72,23.9z"/>
		<path class="st3" d="M72,47.9V30c-6,3-14,6-32,6v21C57.7,57,72,52.9,72,47.9z"/>
		<path class="st2" d="M8,47.9c0,5,14.3,9.1,32,9.1V36c-18,0-28-3-32-7V47.9z"/>
		<path class="st2" d="M8,70.9c0,5,14.3,9.1,32,9.1V60c-20,0-29-4-32-7V70.9z"/>
		<path class="st3" d="M72,70.9V54c-8,4-12,6-32,6v20C57.7,80,72,75.9,72,70.9z"/>
	</g>
</g>
</svg>
