<svg xmlns="http://www.w3.org/2000/svg" viewBox="0 0 301.9 62.48"><defs><style>.cls-1{fill:#ee926a;}</style></defs><title>ME-Horiz-Sunset</title><g id="Layer_2" data-name="Layer 2"><g id="Layer_1-2" data-name="Layer 1"><path class="cls-1" d="M8.61,6.67C6.24,3.42,3.43.87,0,.87V.34H20.56l19.15,37-5.1,12.39H32.33S10.63,9.48,9.05,7.2"/><path class="cls-1" d="M68.31,52V62.1H54.6l.09-51.56c0-6.42-.53-9.67-5.62-9.67V.34H68.31V52Z"/><path class="cls-1" d="M89.92.34l3,12.83h-.44C89.92,7.46,84.91.87,76.13.87h-2.2A9.91,9.91,0,0,0,72.26,1V.34Z"/><path class="cls-1" d="M72.26,62.1v-.52a11.13,11.13,0,0,0,1.67.08h4.92c8.87,0,14.5-9.4,17.57-15.11L92.73,62.1Z"/><circle class="cls-1" cx="6.06" cy="56.42" r="6.06"/><circle class="cls-1" cx="78.32" cy="31.09" r="6.06"/><path class="cls-1" d="M147,14.9,155.86.35h3.3V24.66h-4.68V11.11l-5.84,9.55h-3.26l-5.84-9.55V24.66h-4.68V.35h3.29Z"/><path class="cls-1" d="M170.62,24.66,181,.35h3.3l10.42,24.31h-4.9l-2.29-5.39h-9.75l-2.3,5.39Zm9-9.55h6.18l-3.09-7.19Z"/><path class="cls-1" d="M210.89,12.71v12H206.2V.35h4.69v9.72L220.1.35h6.18l-10.7,11.11,12,13.2h-6Z"/><path class="cls-1" d="M243.7,4.51v5h7.47v4.17H243.7v6.77H254v4.17H239V.35H253.6V4.51Z"/><path class="cls-1" d="M267.94,18.16a8,8,0,0,0,5.73,2.68c2.08,0,3.54-1.29,3.54-3.06,0-3.13-4.51-3.51-7.78-5.42A6.14,6.14,0,0,1,266,6.84C266,2.5,270,0,274,0a11.29,11.29,0,0,1,7.05,2.29l-2.44,3.47a6.5,6.5,0,0,0-4.2-1.59c-1.77,0-3.75.76-3.75,2.64,0,3.92,11.22,2.7,11.22,10.9C281.9,22,278,25,273.67,25a13,13,0,0,1-8.79-3.64Z"/><path class="cls-1" d="M139.54,41.62v5H147v4.17h-7.47v6.77h10.25v4.17H134.86V37.45h14.58v4.17Z"/><path class="cls-1" d="M160.72,37.45h4.83l6.63,16.6,6.67-16.6h4.83l-9.83,24.31h-3.3Z"/><path class="cls-1" d="M200.16,41.62v5h7.47v4.17h-7.47v6.77h10.25v4.17H195.48V37.45h14.58v4.17Z"/><path class="cls-1" d="M223.25,37.45h3.3L240.1,53.28V37.45h4.68V61.76h-3.3L227.94,45.92V61.76h-4.69Z"/><path class="cls-1" d="M274.64,37.45v4.17h-6.42V61.76h-4.69V41.62h-6.42V37.45Z"/><path class="cls-1" d="M287.94,55.26a8,8,0,0,0,5.73,2.68c2.08,0,3.54-1.29,3.54-3.06,0-3.12-4.51-3.51-7.78-5.42A6.12,6.12,0,0,1,286,43.94c0-4.34,4-6.84,8-6.84a11.29,11.29,0,0,1,7.05,2.29l-2.44,3.48a6.46,6.46,0,0,0-4.2-1.6c-1.77,0-3.75.76-3.75,2.64,0,3.92,11.22,2.71,11.22,10.9,0,4.31-3.86,7.29-8.23,7.29a13,13,0,0,1-8.79-3.64Z"/></g></g></svg>