<svg xmlns="http://www.w3.org/2000/svg" xmlns:xlink="http://www.w3.org/1999/xlink" viewBox="0 0 379.51 194"><defs><style>.cls-1{stroke:#116637;stroke-miterlimit:10;fill:url(#linear-gradient);}.cls-2{fill:#fff;}.cls-3{fill:#5ab949;}.cls-4{fill:#19773e;}.cls-5{font-size:12.23px;font-family:SFProText-Regular, SF Pro Text;letter-spacing:-0.02em;}</style><linearGradient id="linear-gradient" x1="36.27" y1="23.87" x2="159.58" y2="172.35" gradientUnits="userSpaceOnUse"><stop offset="0" stop-color="#62cc53"/><stop offset="1" stop-color="#116637"/></linearGradient></defs><title>NCASS_Logo</title><g id="Layer_2" data-name="Layer 2"><circle class="cls-1" cx="97" cy="97" r="96.5"/><path class="cls-2" d="M100,150,96,35H88v99s-1,3-4,3-4-3-4-3V35H72v99a2.94,2.94,0,0,1-3,3c-4,0-4-3-4-3V35H57v99s-1,3-4,3-4-3-4-3V35H42L37,149l25.6,29v9.39A95.31,95.31,0,0,0,77,192l0-14Z" transform="translate(-1.75 -2)"/><path class="cls-2" d="M114,87c-4,43-3,44-3,44l20,23v35.06a96.16,96.16,0,0,0,18.45-8.79L148,31S118.68,36.73,114,87Z" transform="translate(-1.75 -2)"/></g><g id="Layer_3" data-name="Layer 3"><path class="cls-3" d="M231.47,32.88q3.54,10.83,7.09,21.75l.39-.09c-.25-7.1-.5-14.2-.75-21.49h9.29V74.64H237.38c-2.32-7-4.67-14.09-7-21.19-.38,7,.42,14,.14,21.17h-9.21V32.88Z" transform="translate(-1.75 -2)"/><path class="cls-3" d="M266.6,67.39a4.44,4.44,0,0,0,4.67,0c2.12-2.7,1-6,1.58-9h9.77c-.13,3.14.43,6.25-.47,9.31-1.44,4.94-5.24,7-9.93,7.85a20.74,20.74,0,0,1-7.16,0c-5.8-1-8.87-4.32-9.23-10.44a203,203,0,0,1,0-22.2c.28-5.52,2.62-9.42,9.2-10.74a19.5,19.5,0,0,1,10.6.67,9.45,9.45,0,0,1,6.23,6.27,21.22,21.22,0,0,1,.58,8.27h-9.7a27.76,27.76,0,0,0-.62-5.43c-.77-2.44-3.18-3.27-5.13-1.75a4.1,4.1,0,0,0-1.3,3.21c-.1,1.26,0,2.54,0,3.81q0,8.09,0,16.15A6.85,6.85,0,0,0,266.6,67.39Z" transform="translate(-1.75 -2)"/><path class="cls-3" d="M310,32.86c3,13.91,6.06,27.76,9.13,41.79H309c-.47-2.58-.93-5.06-1.43-7.8a52.17,52.17,0,0,0-7.32-.1c-.92,2.61-.62,5.39-1.57,7.92h-9.89c3.08-14,6.13-27.89,9.18-41.81ZM306.62,59c-1.08-5.88-1.45-11.67-2.84-17.34-.68,5.79-2.06,11.48-2.48,17.47A32.45,32.45,0,0,0,306.62,59Z" transform="translate(-1.75 -2)"/><path class="cls-3" d="M370.16,39.93a3.81,3.81,0,0,0-3.62.13c-1.76,2.49-1.45,4.71,1,6.6a44,44,0,0,0,6.85,4.22c7.13,3.73,7.62,11.13,6.39,16.35s-5.17,8.25-10.48,8.46A20.81,20.81,0,0,1,363,75c-4.4-1.41-6.86-4.3-7.43-8.81a17.69,17.69,0,0,1,.1-5.47h9c.17,1.57.26,3.06.49,4.51a3.31,3.31,0,0,0,6.46.45,5,5,0,0,0-1.46-5.49,37.9,37.9,0,0,0-5.41-3.55,22.74,22.74,0,0,1-6.21-5c-3.13-4.12-3.28-11.23-.24-15.37a10.72,10.72,0,0,1,6.11-3.87,14.93,14.93,0,0,1,10.29.71c4.49,2,6.82,6.47,6.47,12-1.39.56-6.66.67-9,.17C371.37,43.5,372,41.28,370.16,39.93Z" transform="translate(-1.75 -2)"/><path class="cls-3" d="M349.35,45.34h-8.91c-.59-.86-.31-1.79-.42-2.66a3.16,3.16,0,0,0-2.26-3,2.79,2.79,0,0,0-3.1.68,3.66,3.66,0,0,0-.65,4,5.57,5.57,0,0,0,2.52,2.77c2.09,1.3,4.22,2.54,6.31,3.83a14.47,14.47,0,0,1,5.36,18.75A9.54,9.54,0,0,1,341.92,75c-4.56,1.27-9,1.23-13.23-1.17a9.32,9.32,0,0,1-4.8-8.11c-.07-1.62,0-3.26,0-5H333a11.45,11.45,0,0,1,.3,3.4c.13,1.36.3,2.72,1.64,3.49,2.42,1.39,4.89,0,5.21-2.75a5.37,5.37,0,0,0-2.66-5.49c-1.88-1.2-3.83-2.31-5.72-3.51-3-1.88-5.52-4.12-6.58-7.61-1.62-5.36-.55-12.46,5-15,5.82-2.65,14-1.75,17.35,3.65A12.73,12.73,0,0,1,349.35,45.34Z" transform="translate(-1.75 -2)"/><path class="cls-4" d="M331.94,89.28q.38-4,.77-8a35.64,35.64,0,0,1,5.47-.13c-1.31,7.85-2.58,15.47-3.87,23.18a45.65,45.65,0,0,1-6.42.18c-.52-4.88-1-9.59-1.52-14.31h-.22c-.54,4.71-1.08,9.42-1.63,14.18a52.94,52.94,0,0,1-6.32.13c-1.3-7.73-2.58-15.35-3.89-23.11a16.79,16.79,0,0,1,5.48-.14c.51,4.89,1,9.7,1.54,14.82,1.06-5,1.42-9.89,2.2-14.75a22.53,22.53,0,0,1,5.51-.09L331,95.76l.27-.06c.11-1,.23-2,.35-3C332.2,91.62,331.93,90.44,331.94,89.28Z" transform="translate(-1.75 -2)"/><path class="cls-4" d="M301.29,111.88c4,.1,7.87-.27,11.72.28a5.24,5.24,0,0,1,4.77,4.66c.58,3.13.53,6.15-2.63,8.44,2.47.95,2.73,2.9,2.8,5a28.14,28.14,0,0,0,.83,7.85,43,43,0,0,1-6.72.07c-1-3,.23-6.3-1-9.31-.81-1.06-1.93-1.11-3.4-.8v10a40.78,40.78,0,0,1-6.34.05Zm6.35,5c.07,2.16-.21,4.19.17,6.21,1.4.11,2.72.33,3.39-1a4.37,4.37,0,0,0-.25-4.78A5.54,5.54,0,0,0,307.64,116.85Z" transform="translate(-1.75 -2)"/><path class="cls-4" d="M342.86,111.9c3.9.06,7.77-.32,11.6.26,2.88.43,4.44,2.21,4.88,5.07.56,3.61,0,5.41-2.59,8,2.17,1,2.68,2.75,2.63,4.89,0,1.34.16,2.68.25,4a10.31,10.31,0,0,0,.66,3.89h-6.8c-1.05-3.1.33-6.47-1.08-9.4A3.42,3.42,0,0,0,349,128v10.09h-6.17ZM349.13,123c2.51.17,3.12,0,3.58-1a4.53,4.53,0,0,0-.42-4.86c-1.08-.2-2.11-.7-3.16-.11Z" transform="translate(-1.75 -2)"/><path class="cls-4" d="M236.86,121.18a33.71,33.71,0,0,1-6-.05c-.56-1.74.43-3.87-1.66-4.9a2.25,2.25,0,0,0-1.94.39c-1,1.89-1.05,14.85-.09,17a2.18,2.18,0,0,0,3.22-.65c.58-1.62.15-3.32.57-5a49.93,49.93,0,0,1,6.12-.07,15.32,15.32,0,0,1-.23,5.91,6.29,6.29,0,0,1-4.34,4.45,12.94,12.94,0,0,1-6.62.46c-3.38-.68-5.36-2.61-5.58-6.06a112.07,112.07,0,0,1,0-15c.24-3.52,2.29-5.5,5.77-6.14a14.32,14.32,0,0,1,2.44-.25C234.86,111.23,237.74,114.54,236.86,121.18Z" transform="translate(-1.75 -2)"/><path class="cls-4" d="M337.09,122.12v5.07a22.22,22.22,0,0,1-3.87.17,13.17,13.17,0,0,0-3.58.21,20.69,20.69,0,0,0-.05,5.17c2.64.36,5.32,0,8.07.23a32.26,32.26,0,0,1,.13,5.13H323.17V112h14.09a34.27,34.27,0,0,1,.1,5.29h-7.58a11.73,11.73,0,0,0-.21,4.49C332,122.28,334.45,121.74,337.09,122.12Z" transform="translate(-1.75 -2)"/><path class="cls-4" d="M363.45,129.49a29.11,29.11,0,0,1,5.75,0c.84,4.66.84,4.66,3.4,4.32,1.65-2,1.45-3.76-.69-5.25-1.35-.93-2.82-1.69-4.18-2.61a8.49,8.49,0,0,1-3.5-10,6.22,6.22,0,0,1,1.6-2.66c2.17-2.1,6.62-2.68,9.7-1.25,2.87,1.32,4.2,3.88,3.91,7.68a21.57,21.57,0,0,1-5.51.08c-.46-1.12-.12-2.5-1.25-3.29a2,2,0,0,0-1.9-.19c-1.44,1.77-1.38,3,.38,4.31,1.26.92,2.66,1.65,4,2.48,4,2.51,5.47,6.17,4.16,10.76a6.07,6.07,0,0,1-3.25,4.08,10.36,10.36,0,0,1-9.3-.1,6,6,0,0,1-3.31-5.24C363.38,131.63,363.45,130.66,363.45,129.49Z" transform="translate(-1.75 -2)"/><path class="cls-4" d="M259.88,138a26.91,26.91,0,0,1-6.18.13c-1-1.51-.49-3.3-1.26-4.86a15.39,15.39,0,0,0-4.34,0c-.7,1.51-.34,3.18-1,4.78a25.4,25.4,0,0,1-6.29,0c1.93-8.8,3.83-17.44,5.74-26.14h7.67ZM250,119.33c-.07.44-.13.88-.2,1.32-.65.62-.35,1.39-.35,2.12,0,1.84-.73,3.62-.57,5.6a5.36,5.36,0,0,0,3-.17c-.27-2.15-.53-4.21-.78-6.28.09-.45.21-.91-.21-1.28l-.2-1.44a2,2,0,0,0-.23-1.54A1.3,1.3,0,0,0,250,119.33Z" transform="translate(-1.75 -2)"/><path class="cls-4" d="M365.84,146.11a19.32,19.32,0,0,1,5.69-.07q1.82,5.49,3.62,11l.19-.05V146.19a14.5,14.5,0,0,1,5-.13v23.19a30.44,30.44,0,0,1-5.58.17c-1.19-3.56-2.37-7-3.54-10.55l-.33,0v10.3a18.54,18.54,0,0,1-5.07.15Z" transform="translate(-1.75 -2)"/><path class="cls-4" d="M229.72,84.73a12.62,12.62,0,0,1,0-3.42c1.68-.4,3.36-.11,5.18-.16v23.27a39.7,39.7,0,0,1-5.77,0c-1.24-3.72-2.47-7.44-3.85-11.58-.31,4.07.25,7.68.22,11.4-1.7.58-3.39.1-5.23.31V81.3a28,28,0,0,1,5.69-.13l3.22,9.94a1.93,1.93,0,0,0,1,2C229.9,90.14,230.48,87.41,229.72,84.73Z" transform="translate(-1.75 -2)"/><path class="cls-4" d="M312.11,104.41h-5.65c-1.25-3.78-2.53-7.63-3.8-11.49l-.28,0c.15,3.73.29,7.46.43,11.3a18.64,18.64,0,0,1-5.24.16V81.31a27.39,27.39,0,0,1,5.69-.14c1.25,3.79,2.51,7.59,3.91,11.8.21-4.14-.25-7.86-.22-11.61a20.66,20.66,0,0,1,5.16-.2Z" transform="translate(-1.75 -2)"/><path class="cls-4" d="M296.26,132.88a32.93,32.93,0,0,1,.14,5.25c-4.89.26-9.69.05-14.65.1V112.05h14.09a18.57,18.57,0,0,1,0,5.22h-7.67a15.41,15.41,0,0,0-.14,4.75h7.48a26.22,26.22,0,0,1,.08,5.15c-2.52.45-5,0-7.52.31v5.4Z" transform="translate(-1.75 -2)"/><path class="cls-4" d="M349.62,81.14c2.82,0,5.44-.1,8,0,4.7.21,6.58,2.22,6.61,6.9,0,3.44,0,6.88,0,10.32-.05,3.94-2,6-5.9,6.1-2.89.09-5.79,0-8.74,0Zm5.7,4.57V100a2.77,2.77,0,0,0,2.43-.24c1.15-2.06,1.12-12-.05-13.9A3,3,0,0,0,355.32,85.71Z" transform="translate(-1.75 -2)"/><path class="cls-4" d="M279.44,92.62c0-1.86-.06-3.73,0-5.59a6.18,6.18,0,0,1,5.94-6.36,15.63,15.63,0,0,1,3.35,0c3.26.36,5.43,2.35,5.68,5.61a68.18,68.18,0,0,1-.11,13.4c-.37,3.18-2,4.76-5.16,5.3a13.79,13.79,0,0,1-2.22.21c-5,0-7.38-2.38-7.48-7.42C279.41,96.06,279.44,94.34,279.44,92.62Zm7.63-7.73a1.81,1.81,0,0,0-1.8,1.85c-.18,4-.2,8,0,12.05.07,1.37.83,2.19,2.26,1.93a2.54,2.54,0,0,0,1.24-2.36c0-3.72,0-7.44,0-11.16A2.08,2.08,0,0,0,287.07,84.89Z" transform="translate(-1.75 -2)"/><path class="cls-4" d="M348.57,157.42c0-1.78-.06-3.58,0-5.36.15-3.81,2-5.83,5.75-6.54a10.54,10.54,0,0,1,4.87.24,5.35,5.35,0,0,1,4.23,4.67,63.28,63.28,0,0,1-.12,14.94,2.94,2.94,0,0,1-.19.64c-1,2.86-3.42,4.09-7.71,3.93-3.49-.13-5.69-1.66-6.42-4.5a8.25,8.25,0,0,1-.32-1.76c0-2.08,0-4.17,0-6.25Zm8.42,7.91a2.58,2.58,0,0,0,.95-2.12c0-3.74,0-7.48,0-11.22,0-1.12-.4-2.16-1.72-2.21s-1.85.87-1.86,2.05c0,3.88-.07,7.77,0,11.65C354.46,165.14,355.05,165.45,357,165.33Z" transform="translate(-1.75 -2)"/><path class="cls-4" d="M282.54,157.38c0,2,.1,4,0,6-.24,4.24-2.46,6.35-6.68,6.51a17.12,17.12,0,0,1-2.68-.09c-3.08-.41-5-2-5.41-5.08a60,60,0,0,1-.09-14c.28-2.75,2.08-4.35,4.71-5a10.72,10.72,0,0,1,4.88-.1,6.07,6.07,0,0,1,5.31,6.2c.06,1.86,0,3.72,0,5.59ZM274,150.05c-1.26,2.65-1.16,14,.13,15.23a1.82,1.82,0,0,0,1.86,0,2.17,2.17,0,0,0,.79-1.78c0-3.89.1-7.77,0-11.65C276.73,150.05,276,149.69,274,150.05Z" transform="translate(-1.75 -2)"/><path class="cls-4" d="M290.92,165.32a2.45,2.45,0,0,0,2.05,0c1.42-1.34.62-3.23,1.06-5,1.72-.5,3.49-.09,5.2-.22,1.62,5.6-1.15,9.59-6.73,9.82a14.79,14.79,0,0,1-2.9-.1,5.49,5.49,0,0,1-4.77-4.15,9.54,9.54,0,0,1-.43-2.65c0-3.58-.07-7.17,0-10.76.11-4.46,2.4-6.71,6.83-6.89h.9c5.48,0,8,3,7.19,8.63a22.12,22.12,0,0,1-5.35.1c-.41-1.32.08-2.8-.93-3.92-1.9-.68-2.82-.29-2.86,1.54-.09,4,0,8.07,0,12.1A1.82,1.82,0,0,0,290.92,165.32Z" transform="translate(-1.75 -2)"/><path class="cls-4" d="M219,169.4c1.75-8,3.42-15.63,5.11-23.34a49,49,0,0,1,6.87-.13l5.09,23.29c-2,.43-3.76.13-5.5.22-.74-1.43-.65-2.9-1.13-4.34a8.67,8.67,0,0,0-3.86,0c-.74,1.33-.18,2.9-1,4.25A33.3,33.3,0,0,1,219,169.4Zm8.06-16c0,2.35-.93,4.61-.81,7a3.33,3.33,0,0,0,2.56-.18c-.11-2.79-.76-5.47-1.17-8.46l-.34.69C226.89,152.71,226.92,153.05,227.06,153.42Z" transform="translate(-1.75 -2)"/><path class="cls-4" d="M325.85,169.35h-5.52c-.82-1.28-.59-2.79-1.13-4.21a8.22,8.22,0,0,0-3.82-.1c-.82,1.33-.21,2.92-1.09,4.27a19.11,19.11,0,0,1-5.48-.07L313.89,146a57.94,57.94,0,0,1,6.85-.09Zm-7.28-9a58.32,58.32,0,0,0-1.26-8.38,60.75,60.75,0,0,0-1.41,8.41A4.74,4.74,0,0,0,318.57,160.38Z" transform="translate(-1.75 -2)"/><path class="cls-4" d="M242.54,165.34a2.34,2.34,0,0,0,1.92,0c1.3-2,1.14-3.23-.7-4.54-1.21-.86-2.53-1.57-3.77-2.4a7.1,7.1,0,0,1-3.31-4.83c-.53-3.2.47-5.9,2.76-7.25,2.52-1.47,6.79-1.24,8.91.56,1.79,1.51,2.34,3.55,2.28,5.93a16.33,16.33,0,0,1-5.14.15c-.3-.95-.14-2-.92-2.85a1.57,1.57,0,0,0-2.41.42,2.09,2.09,0,0,0,.53,2.82,15.86,15.86,0,0,0,3.75,2.4c4.32,2.28,4.76,6.18,3.89,9.71-.06.21-.1.43-.18.64-1.12,3-4.56,4.47-8.7,3.73a5.75,5.75,0,0,1-5.2-6c0-.73.07-1.45.11-2.28h4.87C242,162.61,241.14,164.24,242.54,165.34Z" transform="translate(-1.75 -2)"/><path class="cls-4" d="M242,81.21a52.5,52.5,0,0,1,6.87,0c1.67,7.65,3.33,15.27,5,23-1.9.54-3.72.15-5.53.28-.71-1.41-.57-2.89-1.08-4.29a11.67,11.67,0,0,0-3.78-.1c-.82,1.26-.2,2.85-1.12,4.24a23.73,23.73,0,0,1-5.48,0C238.66,96.57,240.34,88.9,242,81.21Zm2.91,7.51c0,2.33-1,4.58-.75,7.07.92-.07,1.71.29,2.49-.29.06-2.62-.83-5.11-.93-7.7,0-.39.26-.86-.33-1.09C244.7,87.26,244.87,88,244.94,88.72Z" transform="translate(-1.75 -2)"/><path class="cls-4" d="M251.63,161.49a28.85,28.85,0,0,1,4.85.06c.57,1.18,0,2.64,1.13,3.69a2.28,2.28,0,0,0,2,.12c1.37-2,1.17-3.38-.75-4.71-1.23-.84-2.56-1.54-3.79-2.38-3.28-2.23-3.75-5.15-2.92-8.9a4.33,4.33,0,0,1,2.1-2.81,8.35,8.35,0,0,1,8.34-.3c2.54,1.31,3.28,3.69,3.25,6.5a14.71,14.71,0,0,1-5.08.19c-.45-1-.09-2.24-1.11-2.9a1.66,1.66,0,0,0-1.89,0c-1,1.77-.9,2.64.67,3.76,1.22.86,2.55,1.54,3.81,2.35a8.18,8.18,0,0,1,2.9,10.41,5.4,5.4,0,0,1-1.85,2.2c-2.52,1.68-7.15,1.64-9.57-.14S251.3,164.35,251.63,161.49Z" transform="translate(-1.75 -2)"/><path class="cls-4" d="M379.87,90a23.17,23.17,0,0,1,0,4.66c-2.13.54-4.31,0-6.54.38-.4,1.48-.1,3-.19,4.53,2.43.53,4.81,0,7.26.35v4.4H367.45V81.23h12.44c.54,1.45.15,2.92.26,4.48-2.32.58-4.56,0-6.82.38-.44,1.26-.16,2.5-.22,3.94Z" transform="translate(-1.75 -2)"/><path class="cls-4" d="M272.3,138.12h-6.45V117.59c-1.63-.51-3.07-.12-4.58-.33-.52-1.73-.13-3.47-.24-5.29h16c.44,1.66.15,3.35.17,5.09-1.53.62-3.14,0-4.88.53Z" transform="translate(-1.75 -2)"/><path class="cls-4" d="M328.75,151c-1.47-.53-2.77-.06-4.08-.43-.45-1.43-.18-2.9-.18-4.51h14.17c.6,1.42.14,2.88.28,4.4-1.41.53-2.79,0-4.29.42v18.3a18.23,18.23,0,0,1-5.9.11Z" transform="translate(-1.75 -2)"/><path class="cls-4" d="M257.89,86H253.7a16.77,16.77,0,0,1-.18-4.69h14.39a14.89,14.89,0,0,1-.08,4.52c-1.3.37-2.59,0-4.13.32v18.22a31.44,31.44,0,0,1-5.81.1Z" transform="translate(-1.75 -2)"/><path class="cls-4" d="M301.9,146.07a21.24,21.24,0,0,1,5.47-.06V169.3a28.44,28.44,0,0,1-5.47.06Z" transform="translate(-1.75 -2)"/><path class="cls-4" d="M346.21,169.28a21.46,21.46,0,0,1-5.49,0V146.13a15.12,15.12,0,0,1,5.49,0Z" transform="translate(-1.75 -2)"/><path class="cls-4" d="M270.66,81.21h5.47v23.17h-5.47Z" transform="translate(-1.75 -2)"/><path class="cls-4" d="M346,104.36a32.62,32.62,0,0,1-5.5.09V81.18a37.41,37.41,0,0,1,5.5,0Z" transform="translate(-1.75 -2)"/><path class="cls-3" d="M229.72,84.73c.76,2.68.18,5.41.45,8.36a1.93,1.93,0,0,1-1-2c.84-.37.52-1.12.54-1.74A42.25,42.25,0,0,1,229.72,84.73Z" transform="translate(-1.75 -2)"/><path class="cls-3" d="M331.94,89.28c0,1.16.26,2.34-.35,3.43A7.83,7.83,0,0,1,331.94,89.28Z" transform="translate(-1.75 -2)"/><path class="cls-3" d="M250.69,119.2l-.74.13a1.3,1.3,0,0,1,.51-1.67A2,2,0,0,1,250.69,119.2Z" transform="translate(-1.75 -2)"/><path class="cls-3" d="M249.75,120.65a2.87,2.87,0,0,1-.35,2.12C249.4,122,249.1,121.27,249.75,120.65Z" transform="translate(-1.75 -2)"/><path class="cls-3" d="M251.1,121.92a1.16,1.16,0,0,1-.21-1.28C251.31,121,251.19,121.47,251.1,121.92Z" transform="translate(-1.75 -2)"/><path class="cls-3" d="M227.3,152.48a.76.76,0,0,1-.24.94C226.92,153.05,226.89,152.71,227.3,152.48Z" transform="translate(-1.75 -2)"/><path class="cls-3" d="M245.75,87.8c-.5.1-.48.68-.81.92-.07-.72-.24-1.46.48-2C246,86.94,245.76,87.41,245.75,87.8Z" transform="translate(-1.75 -2)"/><text class="cls-5" transform="translate(361.22 21.19) scale(0.92 1)">TM</text></g></svg>