<?xml version="1.0" encoding="utf-8"?>
<!-- Generator: Adobe Illustrator 24.0.2, SVG Export Plug-In . SVG Version: 6.00 Build 0)  -->
<svg version="1.1" id="Layer_1" xmlns="http://www.w3.org/2000/svg" xmlns:xlink="http://www.w3.org/1999/xlink" x="0px" y="0px"
	 viewBox="0 0 281.5 85.2" style="enable-background:new 0 0 281.5 85.2;" xml:space="preserve">
<style type="text/css">
	.st0{fill:#FFFFFF;}
</style>
<title>logo</title>
<path class="st0" d="M69.5,1.4c-3.3,0-7.1,0.2-11,0.2s-7.7-0.2-11-0.2c-1.2,0-1.3,0.5-1.3,1.1c0,1.6,2.5,0.7,5.2,1.8
	c2.9,1.3,6,4.4,6,12.2v28.7h-0.2L22.4,1.5H11.6C8,1.5,4.4,1.4,1.2,1.4C0.4,1.4,0,1.6,0,2.4c0,1.1,0.7,1.1,2.2,1.3
	c3.1,0.4,5.8,1.6,9,6.3v42.3c0,7.8-3.1,10.9-6,12.2C2.5,65.6,0,64.7,0,66.3c0,0.6,0.2,1.1,1.4,1.1c3.3,0,7.1-0.2,11-0.2
	s7.7,0.2,11,0.2c1.2,0,1.4-0.5,1.4-1.1c0-1.7-2.5-0.7-5.2-1.8c-2.9-1.3-6-4.5-6-12.2V13h0.2l42.6,54.2c0.9,1.2,1.5,2.3,2.4,2.3
	s0.9-1.4,0.9-3.2V16.5c0-7.8,3.1-10.9,6-12.2c2.7-1.2,5.2-0.2,5.2-1.8C70.8,1.8,70.6,1.4,69.5,1.4z M131.4,40.9
	c-1.5,0-0.6,1.8-2.5,7.5c-2.8,8-10.7,18-20.4,18c-12,0-19.6-9.3-19.6-32s7.6-32,19-32c9.2,0,15.6,7.8,19.2,16.2
	c3.1,7.4,2.2,10.4,3.8,10.4c0.8,0,1.1-0.6,1.1-1.9V2.5c0-1.1-0.5-1.4-1.2-1.4c-2,0,0,4.3-3.9,4.3c-4.4,0-9.1-5.4-20.1-5.4
	C88.3,0,73,14.9,73,34.4s13.7,34.4,33.7,34.4c11,0,15.8-4.7,19.6-4.7c4.6,0,2.9,5.4,4.7,5.4c0.7,0,1.2-0.3,1.2-1.7V42.4
	C132.2,41.3,132,40.9,131.4,40.9z M199.9,59.6l-7.3-14c-3.8-7.3-9.4-9.8-19.7-9.8v-0.2c19.9-2.1,25-8.9,25-17
	c0-9.9-8.8-17.2-25.4-17.2c-6.4,0-10.6,0.2-15.4,0.2c-3.9,0-8.5-0.2-13.4-0.2c-1.6,0-1.9,0.5-1.9,1.2c0,2.7,8.3-1.1,8.3,6.7v50.1
	c0,7.7-8.3,4-8.3,6.7c0,0.8,0.4,1.3,1.9,1.3c4.9,0,9.6-0.2,13.4-0.2s8.5,0.2,13.4,0.2c1.6,0,1.9-0.5,1.9-1.3c0-2.7-8.3,1.1-8.3-6.7
	V36.2c5.6,0,10.2,1.7,12.5,6.5l11.7,24.5h10.4c3.5,0,7,0.2,10.4,0.2c0.9,0,1-0.5,1-1.1C210.2,63.6,203.8,67.3,199.9,59.6z
	 M164.2,34.5V3.7h6.1c8.2,0,13.4,4.4,13.4,15.1c0,10.3-4.8,15.7-15.8,15.7H164.2z M280.7,70.8c-0.9,0-0.8,1.3-1.9,2.8
	c-1.7,2.2-4.3,4.1-8.9,4.1c-7.7,0-17.3-6.4-26.3-8.8l0.2-0.2c0.4,0.1,0.8,0.1,1.3,0.1c21.5,0,35.8-16.3,35.8-34.4S266.5,0,245.1,0
	s-35.8,16.3-35.8,34.4c0,12.6,7,24.2,18.2,29.9v0.2c-9.3,0.8-13.6,7.2-13.6,9.3c-0.1,0.5,0.2,0.9,0.7,1c0.1,0,0.1,0,0.2,0
	c1.1,0,1.2-1.6,2.5-3.1c1.7-1.9,4.1-2.9,6.6-2.9c12.8,0,22.7,16.5,36.6,16.5c17.9,0,21.1-12,21.1-13.4
	C281.5,71.2,281.1,70.8,280.7,70.8z M225.1,34.4c0-20.4,7.7-32,19.9-32c12.2,0,20,11.6,20,32s-7.7,32-19.9,32S225.1,54.8,225.1,34.4
	z"/>
</svg>
