<svg xmlns="http://www.w3.org/2000/svg" xmlns:xlink="http://www.w3.org/1999/xlink" viewBox="0 0 400 400"><defs><style>.cls-1{isolation:isolate;}.cls-2{fill:url(#linear-gradient);}.cls-3{fill:#1d1d1b;opacity:0.5;mix-blend-mode:screen;}.cls-4{fill:#fff;}</style><linearGradient id="linear-gradient" x1="70.78" y1="423.82" x2="343.98" y2="-49.39" gradientUnits="userSpaceOnUse"><stop offset="0" stop-color="#1c2c59"/><stop offset="0.1" stop-color="#283059"/><stop offset="0.28" stop-color="#473a5b"/><stop offset="0.52" stop-color="#7a4a5d"/><stop offset="0.81" stop-color="#bf6060"/><stop offset="1" stop-color="#f27062"/></linearGradient></defs><title>Sample_Img</title><g class="cls-1"><g id="BG"><rect class="cls-2" width="400" height="400"/></g><g id="Layer_1" data-name="Layer 1"><circle class="cls-3" cx="200" cy="200" r="160.87"/><path class="cls-4" d="M209.66,178.89l24.9-21.78a4,4,0,0,0,1.36-3V118.18h12a4,4,0,1,0,0-8H152.1a4,4,0,1,0,0,8h12V154.1a4,4,0,0,0,1.36,3l24.89,21.78a55.87,55.87,0,0,0-19.09,102.93H160.09a4,4,0,1,0,0,8h79.82a4,4,0,1,0,0-8H228.75a55.86,55.86,0,0,0-19.09-102.93ZM212,134.14v32.12l-12,10.48-12-10.48V134.14Zm-23.95-8v-8H212v8ZM220,159.27V134.14h8v18.15Zm8-33.11h-8v-8h8Zm-47.9-8v8h-8v-8Zm-8,16h8v25.13l-8-7ZM200,281.83a47.9,47.9,0,1,1,47.89-47.9A48,48,0,0,1,200,281.83Z"/><path class="cls-4" d="M200,194a39.92,39.92,0,1,0,39.91,39.92A40,40,0,0,0,200,194Zm0,71.85a31.93,31.93,0,1,1,31.93-31.93A32,32,0,0,1,200,265.86Z"/><path class="cls-4" d="M215.39,225.33H206l-2.9-8.94a3.24,3.24,0,0,0-6.16,0l-2.9,8.94h-9.41a3.24,3.24,0,0,0-1.9,5.86l7.61,5.52-2.91,8.95a3.24,3.24,0,0,0,5,3.62l7.61-5.53,7.61,5.53a3.24,3.24,0,0,0,5-3.62l-2.91-8.95,7.61-5.52a3.24,3.24,0,0,0-1.9-5.86ZM204,232.86a3.23,3.23,0,0,0-1.18,3.62l.55,1.7-1.45-1.05a3.21,3.21,0,0,0-3.8,0l-1.46,1.05.56-1.7a3.23,3.23,0,0,0-1.18-3.62l-1.45-1.06h1.8a3.22,3.22,0,0,0,3.07-2.23l.56-1.71.55,1.71a3.25,3.25,0,0,0,3.08,2.23h1.8Z"/><path class="cls-4" d="M128.16,174.06a12,12,0,1,0,12,12A12,12,0,0,0,128.16,174.06Zm0,16a4,4,0,1,1,4-4A4,4,0,0,1,128.16,190Z"/><path class="cls-4" d="M269.85,257.87a10,10,0,1,0,10,10A10,10,0,0,0,269.85,257.87Zm0,12a2,2,0,1,1,2-2A2,2,0,0,1,269.85,269.85Z"/><path class="cls-4" d="M269.85,174.06a14,14,0,1,0-14-14A14,14,0,0,0,269.85,174.06Zm0-20a6,6,0,1,1-6,6A6,6,0,0,1,269.85,154.1Z"/><path class="cls-4" d="M259.87,134.14a4,4,0,1,0-4-4A4,4,0,0,0,259.87,134.14Z"/><path class="cls-4" d="M275.84,198a4,4,0,1,0,4,4A4,4,0,0,0,275.84,198Z"/><path class="cls-4" d="M251.89,281.83a4,4,0,1,0,4,4A4,4,0,0,0,251.89,281.83Z"/><path class="cls-4" d="M148.11,281.83a4,4,0,1,0,4,4A4,4,0,0,0,148.11,281.83Z"/><path class="cls-4" d="M148.11,150.11a4,4,0,1,0-4,4A4,4,0,0,0,148.11,150.11Z"/><path class="cls-4" d="M128.15,245.9a4,4,0,1,0,4,4A4,4,0,0,0,128.15,245.9Z"/></g></g></svg>