<svg id="Layer_1" data-name="Layer 1" xmlns="http://www.w3.org/2000/svg" viewBox="0 0 200 200"><defs><style>.cls-1{fill:#be1428;}.cls-2{fill:#fff;}.cls-3{fill:none;}</style></defs><title>electricLogo</title><path class="cls-1" d="M32,100.5q0,36.94,28.71,56.11l-4.14,17A85,85,0,0,1,100,15.5c2.5,0,5,.11,7.42.33L96.78,32.57C59.12,34.26,32,62.43,32,100.5Z"/><path class="cls-1" d="M185,100.5a85,85,0,0,1-85,85q-3,0-6-.22l11.18-17C141.9,165.67,168,137.92,168,100.5q0-36.77-28.42-55.92l2.94-17.69A85,85,0,0,1,185,100.5Z"/><polygon class="cls-2" points="43.5 122 135.5 1 114.5 80 156.5 80 65.5 200 85.5 122 43.5 122"/><line class="cls-3" x1="143" y1="24.5" x2="142.52" y2="26.89"/><line class="cls-3" x1="110" y1="12.5" x2="107.42" y2="15.83"/></svg>