<svg id="tafegosa" xmlns="http://www.w3.org/2000/svg" viewBox="0 0 482.91 259.71"><defs><style>.cls-1{fill:#be1428;}.cls-2{fill:#fff;}</style></defs><title>TAFESA</title><rect class="cls-1" width="482.91" height="259.71"/><g id="tafesa-group"><g id="tafesa-inner"><path id="t" class="cls-2" d="M60.46,146.87v-26.7H36.06v26.7H21.26v16.3h14.8v52.3c0,4.5.7,8,2.2,10.8a16.55,16.55,0,0,0,6,6.3,26.56,26.56,0,0,0,9,3,75.14,75.14,0,0,0,10.8.8c2.3,0,4.8,0,7.3-.2a62.15,62.15,0,0,0,6.8-.7v-18.6l-3.7.5a25.5,25.5,0,0,1-4,.2c-4.2,0-6.8-.7-8.2-2s-2-4.2-2-8.2v-44.2h17.8v-16.3Z"/><path id="a" class="cls-2" d="M83.56,174.17h24.3c.5-4.8,2-8.2,4.8-10.3s6.5-3.2,11.3-3.2a36.36,36.36,0,0,1,6,.5,10.6,10.6,0,0,1,5,1.7,7.88,7.88,0,0,1,3.5,3.7,13.16,13.16,0,0,1,1.3,6.2,6.72,6.72,0,0,1-2.2,5.8,19.64,19.64,0,0,1-6.5,3,55.77,55.77,0,0,1-9.5,1.5c-3.5.3-7.2.8-10.8,1.3a86.1,86.1,0,0,0-11,2.3,28.25,28.25,0,0,0-9.7,4.3,23.56,23.56,0,0,0-6.8,7.8,26,26,0,0,0-2.5,12.3,28.57,28.57,0,0,0,2.2,11.8,25.15,25.15,0,0,0,6.5,8.2,26,26,0,0,0,9.7,4.8,45.42,45.42,0,0,0,11.8,1.5,59.81,59.81,0,0,0,16.2-2.3,32.27,32.27,0,0,0,13.7-8.3l.5,4.5,1.2,4.2h24.7c-1.2-1.8-2-4.5-2.3-8.2a85.6,85.6,0,0,1-.7-11.5v-46.2a20,20,0,0,0-3.7-12.8,24.37,24.37,0,0,0-9.3-7.7,45.41,45.41,0,0,0-12.5-3.7,89.26,89.26,0,0,0-28.3.5,36.82,36.82,0,0,0-13,4.8,29.33,29.33,0,0,0-9.7,9.2,32.44,32.44,0,0,0-4.2,14.3m56.4,18v9.2a50.62,50.62,0,0,1-.5,5.5,18.18,18.18,0,0,1-2.2,6.8,17.58,17.58,0,0,1-5.8,5.7,20.75,20.75,0,0,1-11.2,2.3,35.53,35.53,0,0,1-5.7-.5,12.07,12.07,0,0,1-4.8-1.7,10,10,0,0,1-3.3-3.7,11.47,11.47,0,0,1-1.2-5.5,11,11,0,0,1,4.4-9.4,14.72,14.72,0,0,1,4.7-2.3,54.73,54.73,0,0,1,5.5-1.3,57.71,57.71,0,0,1,5.8-.8,73.64,73.64,0,0,0,10.5-2,12.05,12.05,0,0,0,3.8-2.3"/><path id="f" class="cls-2" d="M181.56,163.27v72.5h24.3v-72.5h16.8v-16.4h-16.8v-5.3c0-3.7.7-6.2,2-7.7,1.5-1.7,3.8-2.3,7.2-2.3a87.23,87.23,0,0,1,9,.5v-18.2c-2-.2-4.2-.2-6.3-.3s-4.3-.3-6.5-.3c-10,0-17.3,2.5-22.3,7.5s-7.3,11.5-7.3,19.3v6.8H167v16.3h14.6v.1Z"/><path id="e" class="cls-2" d="M286.26,181.67h-39.7a50.6,50.6,0,0,1,1-5.8,20.69,20.69,0,0,1,3.3-6.2,19.83,19.83,0,0,1,6.2-4.8,22,22,0,0,1,9.8-2c6,0,10.3,1.7,13.2,4.8s5,7.9,6.2,14m-39.7,15.5h64a64.12,64.12,0,0,0-1.7-19.7,51,51,0,0,0-7.8-16.8,37.9,37.9,0,0,0-13.7-11.7,41.49,41.49,0,0,0-19.7-4.5,44.28,44.28,0,0,0-42.1,28.5,50.41,50.41,0,0,0-3.3,18.5,51.54,51.54,0,0,0,3.2,18.8,44,44,0,0,0,9.2,14.8,40.76,40.76,0,0,0,14.2,9.7,51.11,51.11,0,0,0,18.8,3.3c10,0,18.7-2.3,25.7-6.8a40.46,40.46,0,0,0,15.8-22.8h-21.5c-.8,2.7-3,5.3-6.5,7.8a22.91,22.91,0,0,1-12.7,3.7c-6.8,0-12.2-1.8-15.8-5.3-3.8-3.8-5.8-9.5-6.1-17.5"/><path id="S" class="cls-2" d="M326.06,206.87c.3,5,1.5,9.2,3.7,12.3,4,5.8,11,8.8,21.2,8.8a36.47,36.47,0,0,0,12.3-2q10.8-3.75,10.8-13.5c0-4.8-1.5-8.3-4.5-10.3s-7.8-3.8-14.5-5.3l-12.2-2.7a58.44,58.44,0,0,1-16.8-5.8,18.58,18.58,0,0,1-8.5-16.7,26,26,0,0,1,8.3-19.8c5.5-5.2,13.3-7.7,23.7-7.7a41.05,41.05,0,0,1,23.8,6.8c6.5,4.5,9.8,11.7,9.8,21.7h-11.3c-.7-4.8-1.8-8.5-3.8-11-3.7-4.7-10-7-18.8-7q-10.8,0-15.3,4.5a13.87,13.87,0,0,0-4.7,10.5,10.54,10.54,0,0,0,5.5,9.7c2.3,1.3,7.8,2.8,16.2,4.8l12.5,2.8c6,1.3,10.7,3.3,14,5.7a21.11,21.11,0,0,1,8.5,18.2c0,9.8-3.7,17-10.8,21.2a47.71,47.71,0,0,1-25,6.3,36.89,36.89,0,0,1-26-8.5,28.66,28.66,0,0,1-9.2-22.8h11.2v-.2Z"/><path id="A-2" data-name="A" class="cls-2" d="M435.56,199.07l-13.5-39.5-14.4,39.5Zm-19.9-52.7h13.7l32.3,89.3h-13.3l-9-26.7h-35.3l-9.7,26.7h-12.3l33.6-89.3Z"/></g><path id="circle1" class="cls-2" d="M363.76,105.87c0,15.8-23.3,28.7-52,28.7s-52-12.8-52-28.7,23.3-28.7,52-28.7S363.76,90.07,363.76,105.87Z"/><path id="circle2" class="cls-2" d="M453.36,85.37c0,12.7-18.7,23-41.5,23-23,0-41.5-10.3-41.5-23s18.7-23,41.5-23S453.36,72.77,453.36,85.37Z"/><path id="circle3" class="cls-2" d="M388.86,49.77c0,9.2-13.3,16.5-29.8,16.5s-29.8-7.3-29.8-16.5,13.3-16.5,29.8-16.5S388.86,40.57,388.86,49.77Z"/><path id="circle4" class="cls-2" d="M439.56,32.77c0,6.3-9.3,11.5-21,11.5-11.5,0-21-5.2-21-11.5s9.3-11.5,21-11.5C430.16,21.07,439.56,26.27,439.56,32.77Z"/></g></svg>