<svg id="Layer_1" data-name="Layer 1" xmlns="http://www.w3.org/2000/svg" viewBox="0 0 395.19 123.37"><defs><style>.cls-1{fill:#fff;}</style></defs><title>the-open-university-logo_horizontal</title><path class="cls-1" d="M102.06,69.41V6.48c0-2.78-2.86-5.74-5.59-5.74H8.38c-2.74,0-6,2.67-6,5.45V69.77c0,27.92,22.32,47.64,49.83,47.64s49.83-19.72,49.83-47.64m-56-11.43A22.5,22.5,0,0,1,18.53,42.48,22.5,22.5,0,0,1,34.88,15.19h0A22.51,22.51,0,0,1,62.47,31.09h0A22.5,22.5,0,0,1,46.1,58.34" transform="translate(-2.4 -0.63)"/><polygon class="cls-1" points="380.36 104.3 388.26 80.99 395.19 80.99 379.01 123.37 372.65 123.37 377.28 111.81 365.91 80.99 373.43 80.99 380.36 104.3"/><path class="cls-1" d="M321.71,29.14c0-5.78-1-11-7.32-11a19.2,19.2,0,0,0-7.32,1.54V38.19a19.2,19.2,0,0,0,7.32,1.54c6.35.39,7.32-4.62,7.32-10.59Zm-17-16.86.58,2.61a20.45,20.45,0,0,1,9.44-2.7c11.17,0,13.48,6.93,13.48,17,0,10.21-3.08,17-14.06,17a14.49,14.49,0,0,1-7.12-1.73v10.3h-7.71V12.28Z" transform="translate(-2.4 -0.63)"/><polygon class="cls-1" points="148.64 42.47 140.94 42.47 140.94 5.87 129.38 5.87 129.38 0.1 160.2 0.1 160.2 5.87 148.64 5.87 148.64 42.47"/><path class="cls-1" d="M189.57,21.11c0-3.17-2.38-4.17-5.55-4.17a21.78,21.78,0,0,0-7.93,1.59V45h-7.71V.73h7.71V12.58a21.24,21.24,0,0,1,8.33-2c7.78,0,10.93,3.71,10.93,10V44l-5.78-.19V21.11Z" transform="translate(-2.4 -0.63)"/><path class="cls-1" d="M265.46,23.17c0,9,1.54,16.18,10.6,16.18s10.4-7.32,10.4-16.18c0-9.06-1.54-16.18-10.6-16.18s-10.4,7.12-10.4,16.18m-7.13,0c0-11.75,3.47-22.54,17.53-22.54,14.45,0,17.53,10.79,17.53,22.54S289.92,45.7,275.86,45.7c-14.64,0-17.53-10.78-17.53-22.53" transform="translate(-2.4 -0.63)"/><path class="cls-1" d="M384.5,18.35c.77,0,5.39-.19,5.39,4.24V45h5.78V22.59c0-6.55-3.28-10.4-11.37-10.4a19.25,19.25,0,0,0-9.82,2.7l-.58-2.61h-5.2V45h7.71V20.09a15.71,15.71,0,0,1,7.32-1.74" transform="translate(-2.4 -0.63)"/><path class="cls-1" d="M340.39,25.77h13.87c0-4.24-1.16-8.86-6.55-8.86C342.31,17.1,340.77,21,340.39,25.77Zm0,7.7c.58,4.34,2.89,6.65,9.44,6.65a26,26,0,0,0,9.24-1.93v6a24.85,24.85,0,0,1-11,2.12c-11.17,0-14.64-6.93-14.64-17,0-10.21,3.86-16.95,14.64-16.95,11.37,0,12.91,8.28,12.91,17.14v2l-20.61,1.93Z" transform="translate(-2.4 -0.63)"/><path class="cls-1" d="M209.22,27.69h13.87c0-4.23-1.16-8.86-6.55-8.86C211.34,19,209.41,22.68,209.22,27.69Zm0,5.78c.58,4.34,3.08,6.65,9.44,6.65a28.11,28.11,0,0,0,9.43-1.93v6a24.83,24.83,0,0,1-11,2.12c-11.18,0-14.64-6.93-14.64-17,0-10.21,3.85-16.95,14.64-16.95,11.55,0,12.9,8.28,12.9,17.14v2l-20.8,1.93Z" transform="translate(-2.4 -0.63)"/><path class="cls-1" d="M158.75,72V100.1c0,10-5.89,10.81-9.63,10.81s-9.63-.79-9.63-10.81V72h-7.7v29c0,14.2,10.25,16.37,16.37,16.37,6.31,0,16.37-2.17,16.37-16.37V72Z" transform="translate(-2.4 -0.63)"/><path class="cls-1" d="M210.76,72.48a4.43,4.43,0,1,1-4.43-4.43,4.36,4.36,0,0,1,4.43,4.43" transform="translate(-2.4 -0.63)"/><polygon class="cls-1" points="237.54 80.99 244.77 80.99 232.4 113.74 227.07 113.74 214.5 80.99 221.74 80.99 229.73 105.74 237.54 80.99"/><path class="cls-1" d="M269.89,95.11c0-4.24-1.15-8.86-6.35-8.86s-7.13,3.66-7.52,8.86Zm-14.83,5.58c.59,5.7,2.95,8.06,9.43,8.06a33.38,33.38,0,0,0,9.83-1.77v6.52s-6.93,2.12-10.78,2.12c-11,0-14.26-6.74-14.26-17,0-10.4,3.85-17,14.26-17,11.17,0,12.9,8.48,12.71,17.15v2H255.06Z" transform="translate(-2.4 -0.63)"/><path class="cls-1" d="M299.16,87.4A38.51,38.51,0,0,0,294.5,87a16.58,16.58,0,0,0-6.7,1.35v26H282V81.62h3.75l.61,1.74a16.21,16.21,0,0,1,8.51-2.51,33.29,33.29,0,0,1,4.46.2V87.4Z" transform="translate(-2.4 -0.63)"/><path class="cls-1" d="M325.52,104.8c0,5-3.16,10.22-12.46,10.22a29.8,29.8,0,0,1-9.85-1.67v-6.13a30,30,0,0,0,9.85,1.85c5,0,6.51-2,6.51-4.27s-.74-3.53-5.58-3.9c-9.1-.75-11-4.28-11-8.92s3-10,11.89-10a23.32,23.32,0,0,1,9.48,1.86v5.94a27.83,27.83,0,0,0-9.48-1.85c-4.83,0-5.76,1.85-5.76,3.9,0,1.86.93,2.79,5.58,3.16,8.55,1.11,10.78,4.27,10.78,9.85" transform="translate(-2.4 -0.63)"/><path class="cls-1" d="M366.78,115.43a32.81,32.81,0,0,1-6.17.39c-5.2,0-9.24-2.7-9.24-9.06V89.33h-5.78V83.75l5.78-.4V74.6l5.78-1v9.92h9.63v5.78h-9.63v17.53c0,2.69,1.67,3.66,5.23,3.66a32.4,32.4,0,0,0,4.4-.2Z" transform="translate(-2.4 -0.63)"/><path class="cls-1" d="M186.3,87.69c.77,0,5.2-.19,5.2,4.24v22.44h5.78V91.93c0-6.55-3.28-10.4-11.18-10.4a18.57,18.57,0,0,0-9.63,2.7l-.57-2.61h-3.66v32.75H178V89.23a22,22,0,0,1,7.52-1.54" transform="translate(-2.4 -0.63)"/><path class="cls-1" d="M339.81,72.48a4.43,4.43,0,1,1-4.43-4.43,4.36,4.36,0,0,1,4.43,4.43" transform="translate(-2.4 -0.63)"/><path class="cls-1" d="M203.05,106.66v-25h5.78V107c.77,1.15.77,1.73,2.7,1.63h1.16v6.07c-1,0-2.12.19-3.09.19-3.85-.19-6.55-3-6.55-8.19" transform="translate(-2.4 -0.63)"/><path class="cls-1" d="M332,106.66v-25h5.78V107c.77,1.15.77,1.73,2.69,1.63h1.16v6.07c-1,0-2.12.19-3.08.19-3.85-.19-6.55-3-6.55-8.19" transform="translate(-2.4 -0.63)"/></svg>