<svg id="Layer_1" data-name="Layer 1" xmlns="http://www.w3.org/2000/svg" viewBox="0 0 192.36 48.63"><defs><style>.cls-1{fill:#fff;}.cls-2{fill:#005a9c;}.cls-3{fill:#ed1b2e;}.cls-4{fill:#b38808;}</style></defs><title>UAD</title><path class="cls-1" d="M58.31,12.24a4.89,4.89,0,0,0-.82-.09,4.78,4.78,0,0,0-.82.09l-.15,0,0-.14c.07-1.47.13-2.95.13-4.42V4.76c0-1.15,0-2.28-.05-3.42a34.05,34.05,0,0,0-3.53.18l-.17,0,0-.17a1.65,1.65,0,0,0,.09-.51A2,2,0,0,0,53,.35l0-.15h.15c1.47,0,2.94.09,4.41.09s2.94,0,4.4-.09h.15l0,.15a1.89,1.89,0,0,0-.09.52,1.75,1.75,0,0,0,.09.49l0,.17-.16,0a31.47,31.47,0,0,0-3.53-.19c0,1.15,0,2.28,0,3.43V7.68c0,1.47.07,3,.13,4.42v.15Zm16.34,0a4.78,4.78,0,0,0-.82-.09,4.89,4.89,0,0,0-.82.09l-.14,0v-.14C73,10.65,73,9.17,73,7.7V6.27l-3.45,0c-1.16,0-2.3,0-3.46,0V7.7c0,1.47.07,3,.13,4.42v.14l-.14,0a4.78,4.78,0,0,0-.82-.09,4.89,4.89,0,0,0-.82.09l-.14,0v-.14c.07-1.47.13-2.95.13-4.42V4.76c0-1.47-.06-2.95-.13-4.42V.19l.14,0a6.13,6.13,0,0,0,.82.08A6,6,0,0,0,66.1.22l.14,0V.34c-.07,1.47-.13,3-.13,4.42v.48c1.16,0,2.3,0,3.46,0s2.3,0,3.45,0V4.76c0-1.47-.07-2.95-.13-4.42V.19l.14,0a6.13,6.13,0,0,0,.82.08,6,6,0,0,0,.82-.08l.14,0V.34c-.07,1.47-.13,3-.13,4.42V7.7c0,1.47.07,3,.13,4.42v.14Zm9.95,0c-1-.05-2-.09-3.07-.09s-2.06,0-3.11.09h-.13v-.12c.07-1.49.13-3,.13-4.44V4.75c0-1.47-.07-3-.13-4.41V.22h.13c1,.05,2,.08,3.06.08s2,0,3-.08h.15l0,.14a2.83,2.83,0,0,0-.05.5,4.52,4.52,0,0,0,.05.49l0,.14h-.15c-1.4-.09-2.24-.22-4.37-.22,0,.69-.06,1.27-.06,2.06s0,1.68,0,2.15c1.94,0,3-.09,4-.17h.16l0,.14a2.94,2.94,0,0,0-.05.51,2.72,2.72,0,0,0,.05.49l0,.16h-.16c-1.12-.11-3.14-.15-4-.16,0,.38,0,.87,0,2.36,0,1.19,0,2,0,2.44A31.51,31.51,0,0,0,84.6,11l.17,0,0,.17a2.15,2.15,0,0,0,0,.51,1.93,1.93,0,0,0,0,.47l0,.14-.17,0ZM101.88.36l0-.17.17,0a2.93,2.93,0,0,0,.67.08,1.4,1.4,0,0,0,.47-.08l.17-.06V.34c-.14,1.59-.28,4.59-.3,7.08,0,3.06-1.85,5-5,5h0a5.09,5.09,0,0,1-3.79-1.23A5.1,5.1,0,0,1,93,7.45c0-1.07.09-1.85.09-2.69,0-1.88-.08-3.44-.11-4.42V.19l.14,0A6.4,6.4,0,0,0,94,.3a4.17,4.17,0,0,0,.71-.08l.16,0,0,.16c-.09,1-.2,3.32-.2,5.85,0,2.35,0,5.23,3.7,5.23a3,3,0,0,0,3.16-1.95A9.76,9.76,0,0,0,102,5.88C102,2.65,102,1,101.88.36ZM117,12.47h-.24v-.13l.08-.07-.08.07v.13h0l0,0c-2.53-3-5.56-6.19-8.43-9.24,0,.65,0,1.63,0,3.19s.08,5.09.15,5.75l0,.17-.17-.05a2.11,2.11,0,0,0-.56-.09,2.65,2.65,0,0,0-.6.09l-.17,0,0-.16c.14-.79.36-5.17.36-7.41s0-3.81,0-4.57l0-.12h.45l0,0C110.38,3,114,7,116.13,9.1c0-3,0-6.19-.13-8.73l0-.15.16,0a2.11,2.11,0,0,0,.55.09,2,2,0,0,0,.52-.09l.16,0,0,.17c-.1,1-.27,4.39-.27,5.71,0,1.74,0,5.52,0,6.29v.12H117Zm5.61-.23a4.78,4.78,0,0,0-.82-.09,4.89,4.89,0,0,0-.82.09l-.14,0v-.14c.07-1.47.13-2.95.13-4.42V4.76c0-1.47-.07-2.95-.13-4.42V.19l.14,0a6.13,6.13,0,0,0,.82.08,6,6,0,0,0,.82-.08l.14,0V.34c-.07,1.47-.13,3-.13,4.42V7.7c0,1.47.06,3,.13,4.42v.14ZM125.16.34a5.35,5.35,0,0,0,.89.08,5.35,5.35,0,0,0,.89-.08c1,3,2.46,6.65,3.89,10.09C132.09,7.66,134,2.58,134.71.34a2.87,2.87,0,0,0,.64.08A2.79,2.79,0,0,0,136,.34c-1.77,3.92-3.42,7.85-4.92,11.79a2.18,2.18,0,0,0-.56-.09,2,2,0,0,0-.57.09C128.89,9.31,126.81,4.26,125.16.34Zm19.5,11.9c-1-.05-2-.09-3.07-.09s-2.06,0-3.11.09h-.12v-.12c.07-1.48.13-3,.13-4.43V4.76c0-1.47-.07-2.95-.13-4.4V.23h.12c1,0,2,.09,3.06.09s2,0,3-.09h.14l0,.14a2.12,2.12,0,0,0,0,.5,2,2,0,0,0,0,.49l0,.15-.14,0c-1.41-.09-2.24-.21-4.37-.21,0,.68-.06,1.26-.06,2.06s0,1.67,0,2.14a40.23,40.23,0,0,0,4-.17h.16l0,.14a2.94,2.94,0,0,0,0,.51,2.72,2.72,0,0,0,0,.49l0,.16h-.16c-1.12-.11-3.14-.15-4-.16,0,.39,0,.87,0,2.36,0,1.19,0,2,0,2.45a31.2,31.2,0,0,0,4.48-.22l.17,0,0,.17a2.92,2.92,0,0,0,0,.51,2.56,2.56,0,0,0,0,.47l0,.14ZM158,11.47l-.06-.06,0-.08a4.42,4.42,0,0,0,.32-1.49V9.73h.3v0h.07l0,.06a2.81,2.81,0,0,0,2.6,1.71,2.22,2.22,0,0,0,2.32-2.36c0-1.48-1.25-1.9-2.62-2.47s-2.77-1.26-2.76-3.33S159.73,0,162,0a3.87,3.87,0,0,1,2.6.83l.07.06-.05.09a5.14,5.14,0,0,0-.44,1.4l0,.1h-.38l0-.07A2,2,0,0,0,161.86.88a2,2,0,0,0-2.09,2c0,1.5,1.26,2,2.62,2.49s2.77,1.18,2.76,3.14a4,4,0,0,1-4.3,4,4.34,4.34,0,0,1-2.88-1Zm11.7.77a4.67,4.67,0,0,0-.81-.09,4.78,4.78,0,0,0-.82.09l-.15,0v-.14c.08-1.47.14-2.95.14-4.42V4.76c0-1.47-.08-2.95-.14-4.42V.19l.15,0a6,6,0,0,0,.82.08,5.84,5.84,0,0,0,.81-.08l.15,0V.34c-.07,1.47-.13,3-.13,4.42V7.7c0,1.47.06,3,.13,4.42v.14l-.16,0Zm7.78,0a4.67,4.67,0,0,0-.81-.09,4.78,4.78,0,0,0-.82.09l-.15,0v-.14c.08-1.47.14-2.95.14-4.42V4.76c0-1.15,0-2.28,0-3.42a31.33,31.33,0,0,0-3.53.19l-.17,0,.05-.16a1.77,1.77,0,0,0,.08-.52,1.86,1.86,0,0,0-.08-.5l-.05-.14h.16c1.47.05,2.94.08,4.41.08s2.93,0,4.4-.08h.16l0,.14a1.88,1.88,0,0,0-.08.52,1.74,1.74,0,0,0,.08.5l0,.16-.17,0a33.72,33.72,0,0,0-3.53-.19c0,1.14-.05,2.27-.05,3.42V7.7c0,1.47.07,3,.14,4.42v.14l-.14,0ZM182.34.4,182.2.18l.25.05a5.84,5.84,0,0,0,.93.08,5.82,5.82,0,0,0,.92-.08h.08l0,.07c1,1.89,2,3.77,3.15,5.74A55.62,55.62,0,0,0,190.69.29l0-.09.08,0a2.87,2.87,0,0,0,.64.08,2.8,2.8,0,0,0,.64-.08l.27-.06-.15.24c-2.16,3.31-3.39,5.29-4.12,6.71,0,1.67,0,4,.13,5v.14l-.14,0a4.78,4.78,0,0,0-.82-.09,4.89,4.89,0,0,0-.82.09l-.14,0V12.1c.13-1.19.13-3,.13-4.8-.69-1.22-3.41-5.84-4.11-6.9Zm-123,27.18a6.57,6.57,0,0,1-1.86,4A3.34,3.34,0,0,1,55,32.75c-1.12,0-1.85-.82-1.75-2.33a6.58,6.58,0,0,1,1.91-3.9,3.37,3.37,0,0,1,2.41-1.13C58.78,25.39,59.39,26.32,59.32,27.58Zm-3.17-.83a10.15,10.15,0,0,0-1.74,4.36c0,.61.2,1.12.71,1.12s.81-.16,1.37-.9a10.7,10.7,0,0,0,1.62-4.26c0-.54-.08-1.15-.69-1.15C57.07,25.91,56.66,26.06,56.15,26.75Zm7.36-.47c-.11.3-.24.85-.46,1.63-.53,1.95-1,3.62-1.55,5.54a7,7,0,0,1-1.37,2.8,3.29,3.29,0,0,1-2.1.94c-.94,0-1.28-.59-1.28-.85a1,1,0,0,1,.4-.79.28.28,0,0,1,.4.07,2.09,2.09,0,0,0,1.32.72c.35,0,.73-.12,1.12-1.47.81-2.76,1.41-5.76,2.26-8.6H60.8a.44.44,0,0,1,.12-.65h1.51a10.63,10.63,0,0,1,1.95-4.16A3.53,3.53,0,0,1,67.17,20a1.27,1.27,0,0,1,1.34,1.15c0,.46-.47,1-.75,1a.26.26,0,0,1-.24-.27c0-1-.54-1.28-1-1.28a1.8,1.8,0,0,0-1.26.94,13.2,13.2,0,0,0-1.62,4.06h2.18a.49.49,0,0,1-.17.65H63.51Zm8.65,5a44.77,44.77,0,0,0-2.51,7.05,5.3,5.3,0,0,0-1.11-.16,6.74,6.74,0,0,0-1.18.16c2.4-5.22,6.39-14,8.29-18.84a3.75,3.75,0,0,0,.67.09,1.83,1.83,0,0,0,.59-.09c2.08,5.65,8,18.73,8.07,18.84a7.5,7.5,0,0,0-1.59-.16,11.47,11.47,0,0,0-1.72.16,48.94,48.94,0,0,0-2.72-7Zm3.36-8L72.69,30h5.73ZM94.59,38.37c-.26,0-3.57-.11-4.27-.11s-1.35,0-2.88.11c.19-2.72.33-4.58.33-10.77,0-4,0-5-.22-7.91,1.48,0,2.94.09,4.41.09,4.81,0,7.39,0,9.9,2a8.21,8.21,0,0,1,3,6.78C104.82,35.36,100,38.37,94.59,38.37Zm4.53-15.93C97.24,21,95,21,92.8,21a18.8,18.8,0,0,0-2.37.1c-.11,2.49-.13,5.22-.13,7.7,0,4.93,0,5.49.08,8.15a21,21,0,0,0,2.88.16c1.15,0,3.74,0,5.57-1.29,2.51-1.77,3-4.82,3-7S101.38,24.14,99.12,22.44Zm17.47,5.25a4.82,4.82,0,0,0-.11.91,7.22,7.22,0,0,0,.11.83,33.27,33.27,0,0,0-4.17-.26c-.72,0-1.51,0-2.18,0,0,1.15,0,2.37,0,3.53,0,1.39,0,3.44.07,4.16a64.5,64.5,0,0,0,7.09-.32,4.82,4.82,0,0,0-.11.91,3,3,0,0,0,.11.86,29.41,29.41,0,0,0-3.74-.16c-2.07,0-4.17.09-6.25.16.16-2,.3-3.77.3-9.64,0-2.68,0-6.32-.21-9,1.87.16,3.74.16,5.62.16a39.64,39.64,0,0,0,4.08-.16,5.39,5.39,0,0,0-.11.94,3.4,3.4,0,0,0,.11.86,19.51,19.51,0,0,0-4.27-.35c-1,0-1.46,0-2.62.05,0,1,0,1.5,0,3.09,0,1.75,0,2.07,0,3.49a43.39,43.39,0,0,0,6.35-.15Zm10,9.2a34.57,34.57,0,0,0,4.86-.33,4.08,4.08,0,0,0-.11.9,3.23,3.23,0,0,0,.11.91c-1.74,0-2.88-.16-5.82-.16-2.37,0-3,.09-4.49.16.22-3.44.24-6.3.24-9.83s-.15-7.64-.21-8.8a6.63,6.63,0,0,0,1.45.16,10.81,10.81,0,0,0,1.7-.16c-.24,6.89-.24,8.72-.24,17.09C125.33,36.89,125.87,36.89,126.55,36.89Zm10.33-5.58a45.85,45.85,0,0,0-2.51,7.05,5.3,5.3,0,0,0-1.1-.16,6.61,6.61,0,0,0-1.18.16c2.39-5.22,6.37-14,8.28-18.84a3.88,3.88,0,0,0,.68.09,1.92,1.92,0,0,0,.59-.09c2.07,5.65,8,18.73,8.07,18.84a7.65,7.65,0,0,0-1.59-.16,11.48,11.48,0,0,0-1.73.16,47.77,47.77,0,0,0-2.72-7Zm3.36-8L137.41,30h5.73l-2.9-6.68ZM153,19.75a5.18,5.18,0,0,0,1.48.16,5.9,5.9,0,0,0,1.57-.16c-.16,3.21-.22,6.41-.22,9.61,0,4.84.11,7,.19,9a10.57,10.57,0,0,0-1.67-.15,7.73,7.73,0,0,0-1.42.15c.18-2.94.26-4.31.26-9.57,0-3.89,0-4.13-.19-9.06Zm15.26,18.62c-.27,0-3.58-.11-4.28-.11s-1.35,0-2.88.11c.2-2.72.33-4.58.33-10.77,0-4,0-5-.22-7.91,1.48,0,2.94.09,4.42.09,4.82,0,7.4,0,9.9,2a8.21,8.21,0,0,1,3,6.78c0,6.82-4.85,9.83-10.23,9.83Zm4.53-15.93C170.92,21,168.64,21,166.48,21a18.9,18.9,0,0,0-2.37.1c-.11,2.49-.13,5.22-.13,7.7,0,4.93,0,5.49.08,8.15a21.11,21.11,0,0,0,2.88.16c1.16,0,3.73,0,5.56-1.29,2.51-1.77,3-4.82,3-7S175.07,24.14,172.81,22.44Zm18.53,5.25a4.82,4.82,0,0,0-.11.91c0,.3.09.55.11.83a33.27,33.27,0,0,0-4.17-.26c-.72,0-1.5,0-2.18,0,0,1.15,0,2.37,0,3.53,0,1.39,0,3.44.08,4.16a64.43,64.43,0,0,0,7.08-.32,4.82,4.82,0,0,0-.11.91,3.4,3.4,0,0,0,.11.86,29.25,29.25,0,0,0-3.74-.16c-2.08,0-4.17.09-6.24.16.15-2,.29-3.77.29-9.64,0-2.68,0-6.32-.22-9,1.88.16,3.75.16,5.62.16a40,40,0,0,0,4.1-.16,5.39,5.39,0,0,0-.11.94,3.4,3.4,0,0,0,.11.86,19.56,19.56,0,0,0-4.28-.35c-1,0-1.45,0-2.61.05-.05,1-.05,1.5-.05,3.09,0,1.75,0,2.07,0,3.49a43.15,43.15,0,0,0,6.33-.15Z"/><polygon class="cls-1" points="53.04 15.96 191.88 15.96 191.88 15.67 53.04 15.67 53.04 15.96"/><path class="cls-1" d="M156.41,12c-.93-1.06-3.58-4.45-4.55-5.66,1.34-.23,3.4-1.15,3.41-3.35a2.43,2.43,0,0,0-1.11-2.2,4.81,4.81,0,0,0-2.56-.6c-.67,0-1.32.08-1.95.08s-1.29,0-1.94-.08h-.14l0,.13c.07,1.47.13,2.95.13,4.42V7.71c0,1.47-.07,3-.13,4.42l0,.14.15,0a4.78,4.78,0,0,1,.82-.09,4.89,4.89,0,0,1,.82.09l.14,0v-.14c-.07-1.47-.13-3-.13-4.42V6.58h.48a46.44,46.44,0,0,1,4.37,5.62l0,.06h.07a6.61,6.61,0,0,1,1-.09,7,7,0,0,1,1,.09l.31.05-.22-.26Zm-6-6.33a6.4,6.4,0,0,1-1-.06V4.77c0-1.19,0-2.39.1-3.6A13.73,13.73,0,0,1,151,1.1c1.15,0,2.53.41,2.53,2.12C153.54,5.15,151.77,5.7,150.38,5.71Z"/><path class="cls-1" d="M20.32,40.07C10,35.57,4.67,27.48,4.59,16H36.05C36,27.48,30.68,35.57,20.32,40.07Z"/><path d="M29.75,18.8h-1V17.56H27.43V16.34l-.61.22a7.69,7.69,0,0,1-3.23.58,5.1,5.1,0,0,0-3.32.81,5,5,0,0,0-3.3-.81,7.69,7.69,0,0,1-3.23-.58l-.61-.23v1.22H11.81v1.24H10.48V31.67h8.65l0,0a1.06,1.06,0,0,0,2.12,0l.13-.07h8.65V18.8Z"/><path class="cls-2" d="M36,1.53V15.24H4.59V1.53Z"/><path class="cls-1" d="M20.32,40.07C10,35.57,4.67,27.48,4.59,16H36.05C36,27.48,30.68,35.57,20.32,40.07ZM36,1.53V15.24H4.59V1.53ZM37.58,0H3.05V15.77c0,12.39,5.71,21.08,17,25.85l.3.13.3-.13c11.26-4.77,17-13.46,17-25.85Z"/><path class="cls-3" d="M41.23,33a21.06,21.06,0,0,0-9.42,4.23l0,0-.1,0,1.46,3.25A27.93,27.93,0,0,1,20.73,43h-.19A27.94,27.94,0,0,1,8,40.43L9.36,37.3l.07-.12C7.36,35.32,4,33.83,0,33v5.16A11.25,11.25,0,0,1,4.25,40.2l-.48,1-1,1.91h0l-.19.36c3.39,3,10.18,5.19,17.92,5.19h.19c7.74,0,14.52-2.16,17.91-5.19L37,40.2a11.27,11.27,0,0,1,4.23-2.08V33Z"/><path class="cls-1" d="M5.27,42.91l0,.07c-.12.23-.14.35,0,.43s.22,0,.29-.12,0-.3-.1-.5a1.9,1.9,0,0,1-.23-.55.88.88,0,0,1,.1-.46.65.65,0,0,1,1-.28.65.65,0,0,1,.32,1l0,.07-.47-.25,0,0c.1-.19.09-.32,0-.39a.18.18,0,0,0-.26.1c-.09.16,0,.29.14.52a1.34,1.34,0,0,1,.22.54.81.81,0,0,1-.11.43.69.69,0,0,1-1,.33.68.68,0,0,1-.3-1l.08-.12ZM8,42.38l-.58,1.46c-.13.32-.19.49,0,.56s.25-.09.37-.38c0,0,0,0,0,0l.59-1.46.55.22-.53,1.3a1.34,1.34,0,0,0-.07.18,1.28,1.28,0,0,1-.33.55.7.7,0,0,1-.77,0,.67.67,0,0,1-.5-.54A2,2,0,0,1,7,43.4l.51-1.25Zm1.85,1.7.16-.54h.06c.2.06.28.19.22.35s-.19.25-.41.19Zm-1,1.3.66.2a.86.86,0,0,0,.7,0,.81.81,0,0,0,.38-.48.58.58,0,0,0-.16-.65.67.67,0,0,0,.41-.43.59.59,0,0,0-.11-.59,1.17,1.17,0,0,0-.57-.27L9.55,43Zm.69-.26.19-.62h0c.25.08.34.2.27.4s-.21.29-.46.22Zm4.67.55a.59.59,0,0,1,0,.13c-.11.6-.42.84-1,.74a.76.76,0,0,1-.62-.45,2,2,0,0,1,0-1,2,2,0,0,1,.32-.94.78.78,0,0,1,.74-.2c.54.1.75.45.64,1v0l-.56-.1c.05-.32,0-.47-.15-.5s-.29.19-.38.74a.06.06,0,0,0,0,0c-.11.58-.15.84.09.87s.26-.09.31-.39a.52.52,0,0,1,0-.11Zm.67,1.08.57.07.12-1h.12c.22,0,.26.15.23.43,0,.07,0,.15,0,.25a1,1,0,0,0,0,.35l.68.08c-.14-.14-.1-.36-.07-.68s0-.45-.22-.61a.62.62,0,0,0,.38-.56.61.61,0,0,0-.15-.54,1.15,1.15,0,0,0-.69-.22l-.66-.08Zm.74-1.39.08-.61h.07c.24,0,.32.12.3.33s-.13.31-.37.28ZM18,44.54l-.09,1.56c0,.35,0,.52.18.54s.2-.16.22-.48v0l.09-1.56.58,0L18.9,46a1.21,1.21,0,0,1,0,.19,1.28,1.28,0,0,1-.14.63.71.71,0,0,1-.72.29.66.66,0,0,1-.64-.35,1.92,1.92,0,0,1-.06-.91l.08-1.35Zm3.31,1.62v.13c0,.6-.26.9-.82.9a.78.78,0,0,1-.7-.33,2,2,0,0,1-.14-1,2.06,2.06,0,0,1,.14-1,.73.73,0,0,1,.69-.32c.55,0,.82.31.82.91v0h-.57c0-.32-.06-.46-.24-.46s-.25.24-.25.79v.05c0,.58,0,.84.24.84s.24-.14.24-.45v-.11Z"/><polygon class="cls-1" points="22.01 44.61 23.37 44.54 23.4 45.02 22.62 45.06 22.65 45.52 23.36 45.48 23.39 45.99 22.67 46.02 22.7 46.57 23.48 46.53 23.5 47.04 22.14 47.11 22.01 44.61"/><polygon class="cls-1" points="25.61 46.83 25.27 44.36 25.85 44.27 26.13 46.25 26.82 46.16 26.89 46.66 25.61 46.83"/><path class="cls-1" d="M27.68,44,28,45.51c.07.34.11.51.31.47s.16-.21.09-.52v0l-.31-1.54.57-.12.28,1.38a1.16,1.16,0,0,0,0,.18A1.29,1.29,0,0,1,29,46a.71.71,0,0,1-.62.46.69.69,0,0,1-.71-.17,2.06,2.06,0,0,1-.3-.87l-.27-1.32.58-.1Zm1.64-.34.79-.24.52,1s.1.21.25.54c-.05-.36-.08-.56-.09-.59l-.09-1.08.78-.23.72,2.4-.53.16-.51-1.87.17,2-.43.13L30,44l.6,1.84L30,46Z"/><polygon class="cls-1" points="32.09 42.75 33.35 42.21 33.54 42.66 32.82 42.97 33 43.39 33.66 43.11 33.86 43.57 33.19 43.85 33.4 44.36 34.12 44.05 34.32 44.52 33.07 45.05 32.09 42.75"/><path class="cls-1" d="M33.9,42l.53-.31,1.2,1.09c-.28-.41-.49-.73-.62-1l-.2-.34.45-.27,1.26,2.17-.53.31-1.22-1.13a10.2,10.2,0,0,1,.64,1l.22.37-.46.26ZM20,29.8a3,3,0,0,0-2.33-1.13l-.79.07c-.85.09-2,.21-2.59.21H13.14V18.24H12.5V29.69h1.81c.53,0,1.73-.12,2.52-.21l.86-.08a3.55,3.55,0,0,1,2.33.46Zm7.41-11.56V29H26.26c-.57,0-1.74-.12-2.59-.21l-.79-.07a3,3,0,0,0-2.32,1.13l0,0v.05a3.45,3.45,0,0,1,2.36-.49l.86.08c.8.08,2,.21,2.53.21h1.81V18.24Z"/><path class="cls-1" d="M17.69,28l-.86.08c-.79.08-2,.2-2.52.2h-.49V17.32a8.34,8.34,0,0,0,3.15.5c2.53,0,3,.78,3,.79l.05.08v10A3.61,3.61,0,0,0,17.69,28Zm9.06.28h-.48c-.53,0-1.73-.12-2.53-.2L22.88,28a3.59,3.59,0,0,0-2.36.77v-10l.05-.08s.49-.79,3-.79a8.34,8.34,0,0,0,3.15-.5C26.75,18.19,26.75,27.65,26.75,28.26Z"/><path d="M17.17,21a11.81,11.81,0,0,1-2.62-.21v.35a11.41,11.41,0,0,0,2.62.2h.63a5.13,5.13,0,0,1,1.44.25v-.36A6.13,6.13,0,0,0,17.82,21Zm0,1.36a15.38,15.38,0,0,1-2.65-.09v.35a17.91,17.91,0,0,0,2.66.09h.57a4.45,4.45,0,0,1,1.46.26v-.36a4.9,4.9,0,0,0-1.45-.24H17.2Zm0,1.38a24.48,24.48,0,0,1-2.69,0v.34a24.63,24.63,0,0,0,2.7,0h.5a4.21,4.21,0,0,1,1.48.28v-.37a4.63,4.63,0,0,0-1.47-.25Zm0,1.43-.29,0c-.77.05-1.8.13-2.42.11v.34c.64,0,1.67-.06,2.44-.12l.3,0,.43,0a3.72,3.72,0,0,1,1.49.28v-.37a4.5,4.5,0,0,0-1.49-.26Zm.43,1.39-.85.08c-.7.07-1.71.18-2.31.2v.34c.61,0,1.64-.13,2.34-.2l.81-.08a3.43,3.43,0,0,1,1.51.29v-.37A3.89,3.89,0,0,0,17.7,26.51Zm-.58-6.92a9.37,9.37,0,0,1-2-.18v-.88a3.73,3.73,0,0,1-.59-.16v1.24a8.48,8.48,0,0,0,2.57.32,7.08,7.08,0,0,1,2.13.27v-.35A7.55,7.55,0,0,0,17.12,19.59Zm6.34.39A8.51,8.51,0,0,0,26,19.66v-.37a7.92,7.92,0,0,1-2.58.34,9.41,9.41,0,0,0-1.48.11v-1l-.33.07-.27.08v1.32A8.08,8.08,0,0,1,23.46,20Zm0,1h-.66a6.23,6.23,0,0,0-1.39.22v.36a5.43,5.43,0,0,1,1.41-.25h.63A11.33,11.33,0,0,0,26,21.12v-.35A10.44,10.44,0,0,1,23.43,21Zm0,1.36h-.6a4.89,4.89,0,0,0-1.42.23V23a5,5,0,0,1,1.44-.26h.57A16.66,16.66,0,0,0,26,22.6v-.34A15.07,15.07,0,0,1,23.39,22.36Zm0,1.37h-.53a4.78,4.78,0,0,0-1.45.24v.36a4,4,0,0,1,1.46-.26h.5c.91,0,2,.08,2.7,0v-.34C25.37,23.81,24.27,23.77,23.36,23.73Zm.26,1.45-.3,0-.47,0a4.22,4.22,0,0,0-1.48.25v.37a3.88,3.88,0,0,1,1.49-.28l.43,0,.3,0c.78.05,1.81.13,2.45.11v-.34C25.42,25.31,24.4,25.24,23.62,25.18Zm.11,1.45-.84-.08a3.81,3.81,0,0,0-1.51.26v.37a3.43,3.43,0,0,1,1.51-.29l.8.08c.71.07,1.73.18,2.35.2v-.34C25.44,26.81,24.42,26.71,23.73,26.63Z"/><path class="cls-1" d="M17.69,30.08l-.79.08c-.85.09-2,.21-2.59.21H11.82V19.48h-.65V31h3.14c.53,0,1.73-.13,2.52-.21l.86-.08a5.65,5.65,0,0,1,1.83,0l0,0A2.89,2.89,0,0,0,17.69,30.08Zm11.07-10.6V30.37H26.27c-.57,0-1.74-.12-2.59-.21l-.79-.08a2.86,2.86,0,0,0-1.93.67v0a5,5,0,0,1,1.92-.06l.86.08c.8.08,2,.21,2.53.21h3.14V19.48Z"/><polygon class="cls-1" points="22.91 11.78 24.05 11.78 24.53 10.97 25 11.78 26.15 11.78 25.59 12.74 26.15 13.69 25 13.69 24.53 14.5 24.05 13.69 22.91 13.69 23.47 12.74 22.91 11.78"/><polygon class="cls-1" points="26.93 5.29 27.65 6.26 28.86 6.19 28.52 7.32 29.32 8.22 28.19 8.66 27.98 9.82 26.93 9.26 25.85 9.81 25.65 8.67 24.54 8.19 25.33 7.31 25 6.19 26.22 6.24 26.93 5.29"/><polygon class="cls-1" points="20.39 2.34 21.1 3.31 22.32 3.24 21.98 4.37 22.78 5.27 21.65 5.71 21.43 6.87 20.39 6.31 19.31 6.86 19.11 5.72 18 5.24 18.79 4.36 18.46 3.24 19.68 3.29 20.39 2.34"/><polygon class="cls-1" points="20.43 9.85 21 10.65 21.96 10.93 21.34 11.7 21.36 12.66 20.43 12.33 19.48 12.67 19.5 11.7 18.91 10.93 19.86 10.64 20.43 9.85"/><polygon class="cls-1" points="17.68 10.99 16.84 10.16 16.84 8.92 15.54 8.92 14.64 8.03 13.73 8.92 12.48 8.92 12.48 10.13 11.59 10.99 12.48 11.85 12.48 13.07 13.73 13.07 14.64 13.95 15.54 13.07 16.84 13.07 16.84 11.82 17.68 10.99"/><path class="cls-3" d="M30.76,28V23.27h.3V21.85h-.3V20.19h-.67V31.67H21.44l-.13.07a1.06,1.06,0,0,1-2.12,0l0,0H10.49V20.19H9.84v1.65H9.57v1.42h.26V28H9.57v1.43h.26v2.88h8.71a1.9,1.9,0,0,0,1.74,1.14A1.92,1.92,0,0,0,22,32.29h8.73V29.41h.3V28Z"/><path class="cls-4" d="M4.59,16C4.66,27.48,10,35.57,20.31,40.07V33.43h0a1.9,1.9,0,0,1-1.74-1.14H9.83V29.41H9.57V28h.26V23.27H9.57V21.85h.26V20.19h.65v-1.4h1.33V17.55h1.32V16.33l.61.23a7.69,7.69,0,0,0,3.23.58,5,5,0,0,1,3.3.81l0,0V16Z"/></svg>