<?xml version="1.0" encoding="utf-8"?>
<!-- Generator: Adobe Illustrator 24.0.2, SVG Export Plug-In . SVG Version: 6.00 Build 0)  -->
<svg version="1.1" id="Layer_2_1_" xmlns="http://www.w3.org/2000/svg" xmlns:xlink="http://www.w3.org/1999/xlink" x="0px" y="0px"
	 viewBox="0 0 394.8 106.5" style="enable-background:new 0 0 394.8 106.5;" xml:space="preserve">
<style type="text/css">
	.st0{fill:#FFFFFF;}
</style>
<title>VW-logo-long</title>
<path class="st0" d="M18.5,65.3l-6.8-40.5H2.2l11.6,53.7h8.9l11.6-53.7h-9.5L18.5,65.3z M39.5,78.5h22.6v-7.4H48V55.3h12.1v-7.9H48
	V32.2h14.2v-7.4H39.6L39.5,78.5z M84.8,69.5c-0.9,1.4-2.5,2.2-4.2,2.1c-1.6,0-3.2-0.8-4.2-2.1c-1.6-2.6-2.1-7.9-2.1-17.9
	s0.5-15.2,2.1-17.9c0.9-1.4,2.5-2.2,4.2-2.1c2.1,0,3.2,0.5,3.7,2.1c1.1,1.6,1.1,3.2,1.1,5.3h8.4c0-4.7-1.6-9-4.2-11
	s-5.3-3.7-9.5-3.7c-5.3,0-7.9,2.1-10.5,4.7c-4.2,4.7-3.7,12.6-3.7,23.1s0,18.4,3.7,22.6c2.1,2.6,5.3,4.7,10.5,4.7
	c3.5,0.2,6.8-1,9.5-3.2c2.6-2.6,4.2-6.8,4.2-11.6h-8.4C86.4,66.4,85.9,68,84.8,69.5L84.8,69.5z M97.5,32.2h8.9V78h8.4V32.2h9.5v-7.4
	H98v7.4H97.5z M140.6,79c5.3,0,7.9-2.1,10.5-4.7c4.2-4.7,3.7-12.1,3.7-23.1c0-10.5,0-18.4-3.7-23.1c-2.1-2.6-5.3-4.7-10.5-4.7
	s-7.9,2.1-10.5,4.7c-4.2,4.7-3.7,12.1-3.7,23.1c0,10.5,0,18.4,3.7,23.1C132.7,76.9,135.9,79,140.6,79z M136.9,33.8
	c0.9-1.4,2.5-2.2,4.2-2.1c1.7,0,3.2,0.8,4.2,2.1c1.6,2.6,1.6,7.9,1.6,17.9s0,15.3-1.6,17.9c-0.9,1.4-2.5,2.2-4.2,2.1
	c-1.6,0-3.2-0.8-4.2-2.1c-1.6-2.6-2.1-7.9-2.1-17.9S135.3,36.4,136.9,33.8L136.9,33.8z M189,40.6c0-11-3.7-15.8-13.7-15.8h-13.7
	v53.7h8.4V56.4h4.7l6.8,22.1h8.9l-7.9-23.7C187.9,52.2,189,47.4,189,40.6L189,40.6z M175.3,49h-5.3V32.2h5.3c4.7,0,5.3,3.7,5.3,8.4
	C180.6,44.8,180.1,49,175.3,49z M245.8,24.8h-9.5l-5.3,40.5l-6.8-40.5h-9.5l-7.4,40.5l-5.3-40.5h-9.5l10.5,53.7h8.9l7.4-40.5
	l7.9,40.5h8.9L245.8,24.8z M273.7,74.2c4.2-4.7,3.7-12.1,3.7-23.1c0-10.5,0-18.4-3.7-23.1c-2.1-2.6-5.3-4.7-10.5-4.7
	s-7.9,2.1-10.5,4.7c-4.2,4.7-3.7,12.1-3.7,23.1c0,10.5,0,18.4,3.7,23.1c2.1,2.6,5.3,4.7,10.5,4.7S271.6,76.9,273.7,74.2L273.7,74.2z
	 M259.5,69.5c-1.6-2.6-2.1-7.9-2.1-17.9s0.5-15.2,2.1-17.9c0.9-1.4,2.5-2.2,4.2-2.1c1.6,0,3.2,0.8,4.2,2.1c1.6,2.6,1.6,7.9,1.6,17.9
	s0,15.3-1.6,17.9c-1.6,1-2.6,2.1-4.7,2.1C261.7,71.8,260.2,70.9,259.5,69.5z M311.5,40.6c0-11-3.7-15.8-13.7-15.8h-13.6v53.7h8.4
	V56.4h4.7l6.8,22.1h9l-7.9-23.7C310,52.2,311.5,47.4,311.5,40.6z M297.9,49h-5.3V32.2h5.3c4.7,0,5.3,3.7,5.3,8.4
	C303.2,44.8,302.6,49,297.9,49z M340.5,78.5h8.9l-12.6-31.6l10.5-22.1h-8.4l-11.6,25.3V24.8h-8.4v53.7h8.4V64.8l4.2-8.4L340.5,78.5z
	 M375.3,75.3c2.6-2.6,3.7-6.3,3.7-11.6c0-8.9-1.6-12.6-7.9-15.2l-6.3-2.6c-3.7-1.6-4.2-2.6-4.2-7.4c0-2.1,0.5-4.2,1.6-5.3
	c0.9-1,2.3-1.6,3.7-1.6c1.6,0,3.2,0.5,3.7,1.6c1,1.6,1,3.2,1,5.8h8.4c0-5.3-1-9-3.7-11.6c-2.1-2.1-5.3-3.2-9.5-3.1
	c-4.7,0-7.9,1-10,3.1c-3.1,2.6-4.2,6.3-4.2,11.5c0,8.4,2.1,11,7.4,13.7l6.3,2.6c4.2,1.6,5.3,3.2,5.3,8.9c0,2.6-0.5,4.7-1.6,5.8
	c-1.1,1.1-2.6,1.7-4.2,1.6c-2.1,0-3.2-0.5-3.7-1.6c-1.1-1.7-1.7-3.7-1.6-5.8H351c0,5.8,1,8.9,3.7,11.6c2.1,2.1,5.8,3.7,10.5,3.7
	C369.4,79,373.1,77.4,375.3,75.3L375.3,75.3z M386.3,24.8c-2.4,0.2-4.3,2.3-4.2,4.7c0.1,2.6,2.3,4.6,5,4.5c2.4-0.1,4.4-2.1,4.5-4.5
	C391.5,26.9,388.9,24.8,386.3,24.8z M386.3,33.2c-2.1,0-3.7-1.6-3.7-4.2s1.6-4.2,3.7-4.2s3.7,1.6,3.7,4.2S388.9,33.2,386.3,33.2z
	 M388.4,28.5c0.1-0.8-0.4-1.5-1.2-1.6c-0.1,0-0.3,0-0.4,0h-1.6v5.3h0.5v-2.1h1.1l1,2.1h0.5l-1-2.6C387.9,29.5,388.3,29.1,388.4,28.5
	L388.4,28.5z M385.7,29.6v-2.1h1.1c0.6,0.1,1,0.6,1,1.2c0,0.5-0.4,0.9-1,1H385.7z M134.3,90.1l-4.8,12.6h2.6l1-2.6h5.3l1,2.6h2.6
	L137,90.1H134.3z M134.3,97.4l1.6-4.7l1.6,4.7H134.3z M156.9,98.4l-5.3-8.4H149v12.6h2.1v-8.4l5.3,8.4h2.6V90.1h-2.1V98.4z
	 M165.3,96.9h6.3v-2.1h-6.3v-2.6h6.8v-2.1h-9.5v12.6h9.5v-2.1h-6.8V96.9z M181.6,98.4l-2.1-8.4h-3.7v12.6h2.1v-10l2.6,10h2.6l2.6-10
	v10h1.6V90.1h-3.7L181.6,98.4z M193.7,96.9h6.3v-2.1h-6.3v-2.6h6.8v-2.1h-9.5v12.6h9.5v-2.1h-6.8V96.9z M202.7,92.1h3.7v10.5h2.6
	V92.2h3.7v-2.1h-10V92.1z M222.7,95.8c-0.5-0.5-1.6-0.5-2.6-1s-2.1-0.5-2.1-1l-0.5-0.5c0-0.5,0-0.5,0.5-0.5c0.9-0.7,2.2-0.7,3.1,0
	c0.5,0.5,0.5,0.5,0.5,1.6h2.6c0-1-0.4-1.9-1-2.6c-1.1-0.6-2.4-1-3.7-1c-0.9-0.1-1.8,0.1-2.6,0.5c-0.5,0.5-1.1,0.5-1.6,1
	c-0.4,0.4-0.6,1-0.5,1.6c0,1,0.5,1.6,1,2.6c0.7,0.7,1.7,1,2.6,1.1c1.1,0,1.6,0.5,2.1,0.5s0.5,0.5,1,0.5V99c0,0.5,0,1-0.5,1
	c-0.5,0.5-1,0.5-2.1,0.5c-0.5,0-1.6,0-1.6-0.5c-0.5-0.5-0.5-1-1-1.6h-2.6c-0.2,1.3,0.5,2.5,1.6,3.2c1.1,0.6,2.4,1,3.7,1
	c1,0,2.1,0,2.6-0.5s1-0.5,1.6-1.6c0.5-0.5,0.5-1,0.5-2.1s0-1.6-0.5-2.1C223.7,96.4,223.2,95.8,222.7,95.8L222.7,95.8z M234.8,100
	c-0.4,0.4-1,0.6-1.6,0.5c-0.8,0-1.6-0.4-2.1-1c-1.4-1.9-1.4-4.4,0-6.3c0.6-0.5,1.3-0.9,2.1-1c0.6-0.1,1.2,0.1,1.6,0.5
	c0.5,0.5,0.5,1,1,1.6l2.6-0.5c-0.5-1-0.5-1.6-1-2.1c-0.9-1-2.3-1.6-3.7-1.6c-1.5,0-3,0.5-4.1,1.5c-1.1,1.3-1.7,3-1.6,4.7
	c-0.1,1.7,0.4,3.4,1.6,4.7c1.1,1.1,2.7,1.6,4.2,1.6c1.1,0.1,2.3-0.3,3.2-1c1-0.5,1.6-1.6,2.1-3.2l-3.2-0.5
	C235.3,99,235.3,99.5,234.8,100L234.8,100z M249,94.7h-4.8v-4.7h-2.6v12.6h2.6v-5.3h4.7v5.3h2.6V90.1H249L249,94.7z M257.4,96.9h6.3
	v-2.1h-6.3v-2.6h6.8v-2.1h-9.5v12.6h9.5v-2.1h-6.8V96.9z M278.4,90h-3.2l-5.3,5.8v-5.7h-2.6v12.6h2.6V99l2.1-2.1l3.7,5.8h3.2
	l-4.7-7.9L278.4,90z M293.6,100c-0.4,0.4-1,0.6-1.6,0.5c-0.8,0-1.6-0.4-2.1-1c-1.4-1.9-1.4-4.4,0-6.3c0.6-0.5,1.3-0.9,2.1-1
	c0.6-0.1,1.2,0.1,1.6,0.5c0.5,0.5,0.5,1,1,1.6l2.6-0.5c-0.5-1-0.5-1.6-1-2.1c-0.9-1-2.3-1.6-3.7-1.6c-1.6,0-3.1,0.5-4.2,1.6
	c-1.1,1.3-1.7,3-1.6,4.7c-0.1,1.7,0.4,3.4,1.6,4.7c1.1,1.1,2.7,1.6,4.2,1.6c1.1,0.1,2.3-0.3,3.2-1c1-0.5,1.6-1.6,2.1-3.2l-3.1-0.6
	C294.2,99,294.2,99.5,293.6,100L293.6,100z M305.7,90c-1,0-2.1,0-2.6,0.5c-0.5,0-1,0.5-1.6,1s-1,1.2-1,1.7c-0.4,1-0.6,2.1-0.5,3.2
	c-0.1,1.7,0.4,3.4,1.6,4.7c1.1,1.1,2.7,1.6,4.2,1.6c1.6,0.1,3.1-0.4,4.2-1.6c1.1-1.3,1.7-3,1.5-4.7c0.1-1.7-0.4-3.4-1.6-4.7
	C308.8,90.6,307.3,90,305.7,90L305.7,90z M308.4,99.5c-1.5,1.4-3.8,1.4-5.3,0c-1.4-1.9-1.4-4.4,0-6.3c1.5-1.4,3.8-1.4,5.3,0
	c0.7,0.9,1.1,2,1,3.2C308.9,98,308.9,99,308.4,99.5L308.4,99.5z M320.5,98.5l-2.1-8.4h-3.7v12.6h2.1v-10l2.6,10h2.6l2.1-10v10h2.1
	V90.1h-3.7L320.5,98.5z M337.4,90.1H330v12.6h2.6V98h4.2c0.4-0.1,0.7-0.3,1-0.5l1-1.1c0.5-0.5,0.5-1,0.5-2.1
	c0.1-0.9-0.1-1.8-0.5-2.6L337.4,90.1z M336.8,94.8c0,0.5-0.5,0.5-1,0.5h-3.7v-3.7h2.6c0.5,0,0.5,0,1.1,0.5s0.5,0.5,0.5,1
	C337.3,94.3,336.8,94.8,336.8,94.8L336.8,94.8z M344.7,90.1l-4.7,12.6h2.6l1-2.6h5.3l1,2.6h2.6l-5.3-12.6H344.7z M344.7,97.4
	l1.6-4.7l1.6,4.7H344.7z M362.6,98.4l-5.3-8.4h-2.6v12.6h2.1v-8.4l5.3,8.4h2.6V90.1h-2.1V98.4z M373.1,95.3l-3.2-4.7h-3.2l4.7,7.5
	v5.3h2.6V98l4.7-7.4h-3.2L373.1,95.3z"/>
</svg>
