<svg id="Layer_2" data-name="Layer 2" xmlns="http://www.w3.org/2000/svg" viewBox="0 0 535.25 106.48"><defs><style>.cls-1{fill:#fff;}</style></defs><title>VW-logo-long</title><path class="cls-1" d="M159,65.34l-6.84-40.51h-9.47l11.57,53.66h8.95L174.8,24.83h-9.47Zm21,13.15h22.62V71.13h-14.2V55.35h12.1v-7.9h-12.1V32.2h14.2V24.83H180.06Zm45.24-8.94a4.69,4.69,0,0,1-4.21,2.1,5.49,5.49,0,0,1-4.21-2.1c-1.57-2.63-2.1-7.89-2.1-17.89s.53-15.25,2.1-17.88a4.7,4.7,0,0,1,4.21-2.11c2.11,0,3.16.53,3.69,2.11,1.05,1.58,1.05,3.15,1.05,5.26h8.41c0-4.74-1.57-8.95-4.2-11s-5.26-3.68-9.47-3.68c-5.26,0-7.89,2.1-10.52,4.73-4.21,4.74-3.69,12.63-3.69,23.15s0,18.41,3.69,22.62c2.1,2.63,5.26,4.73,10.52,4.73A13.74,13.74,0,0,0,230,76.39c2.63-2.63,4.2-6.84,4.2-11.58h-8.41C226.88,66.39,226.35,68,225.3,69.55ZM237.93,32.2h8.94V78h8.42V32.2h9.47V24.83H238.45V32.2ZM281.06,79c5.27,0,7.9-2.11,10.53-4.74,4.2-4.73,3.68-12.1,3.68-23.14,0-10.52,0-18.42-3.68-23.15-2.11-2.63-5.26-4.73-10.53-4.73s-7.89,2.1-10.52,4.73c-4.2,4.73-3.68,12.1-3.68,23.15,0,10.52,0,18.41,3.68,23.14C273.17,76.91,276.33,79,281.06,79Zm-3.68-45.24a4.7,4.7,0,0,1,4.21-2.11,5.44,5.44,0,0,1,4.21,2.11c1.58,2.63,1.58,7.89,1.58,17.88s0,15.26-1.58,17.89a4.71,4.71,0,0,1-4.21,2.1,5.48,5.48,0,0,1-4.21-2.1c-1.58-2.63-2.1-7.89-2.1-17.89S275.8,36.41,277.38,33.78Zm52.08,6.84c0-11-3.68-15.79-13.67-15.79H302.11V78.49h8.41V56.4h4.74l6.84,22.09H331l-7.89-23.67C328.41,52.19,329.46,47.45,329.46,40.62ZM315.79,49h-5.27V32.2h5.27c4.73,0,5.26,3.68,5.26,8.42C321.05,44.82,320.52,49,315.79,49Zm70.49-24.2h-9.47l-5.26,40.51-6.84-40.51h-9.47l-7.36,40.51-5.26-40.51h-9.47l10.52,53.66h8.94L360,38l7.89,40.5h8.94Zm27.88,49.45c4.21-4.73,3.68-12.1,3.68-23.14,0-10.52,0-18.42-3.68-23.15-2.1-2.63-5.26-4.73-10.52-4.73s-7.89,2.1-10.52,4.73c-4.21,4.73-3.68,12.1-3.68,23.15,0,10.52,0,18.41,3.68,23.14,2.1,2.63,5.26,4.74,10.52,4.74S412.06,76.91,414.16,74.28ZM400,69.55c-1.58-2.63-2.11-7.89-2.11-17.89s.53-15.25,2.11-17.88a4.68,4.68,0,0,1,4.21-2.11,5.43,5.43,0,0,1,4.2,2.11C410,36.41,410,41.67,410,51.66s0,15.26-1.58,17.89c-1.57,1-2.63,2.1-4.73,2.1A3.77,3.77,0,0,1,400,69.55ZM452,40.62c0-11-3.69-15.79-13.68-15.79H424.68V78.49h8.42V56.4h4.73l6.84,22.09h8.95l-7.9-23.67C450.46,52.19,452,47.45,452,40.62ZM438.36,49H433.1V32.2h5.26c4.73,0,5.26,3.68,5.26,8.42C443.62,44.82,443.09,49,438.36,49ZM481,78.49h8.94L477.29,46.93l10.52-22.1h-8.42L467.82,50.09V24.83H459.4V78.49h8.42V64.81L472,56.4Zm34.72-3.15c2.63-2.63,3.68-6.32,3.68-11.58,0-8.94-1.57-12.62-7.89-15.25l-6.31-2.63c-3.68-1.58-4.21-2.63-4.21-7.37,0-2.1.53-4.21,1.58-5.26a4.77,4.77,0,0,1,3.68-1.58c1.58,0,3.16.53,3.69,1.58,1,1.58,1,3.16,1,5.79h8.41c0-5.26-1-8.95-3.68-11.58q-3.15-3.15-9.47-3.15c-4.73,0-7.89,1.05-10,3.15C493.07,30.09,492,33.78,492,39c0,8.41,2.1,11.05,7.36,13.68l6.32,2.63c4.21,1.57,5.26,3.15,5.26,8.94,0,2.63-.53,4.73-1.58,5.79a5.19,5.19,0,0,1-4.21,1.57c-2.1,0-3.16-.52-3.68-1.57a9.48,9.48,0,0,1-1.58-5.79h-8.42c0,5.79,1.05,8.94,3.69,11.57,2.1,2.11,5.78,3.68,10.52,3.68C509.91,79,513.59,77.44,515.69,75.34ZM113.77,100.06h2.11V3.26h-2.11ZM44.86,8.53A43.14,43.14,0,1,0,88,51.66C87.47,28,68.53,8.53,44.86,8.53Zm0,81.54a38.41,38.41,0,1,1,38.4-38.41C82.74,72.71,65.9,90.07,44.86,90.07ZM33.29,35.36H24.87a.51.51,0,0,0-.53.52l15.79,38.4c0,.53.52.53,1,.53H48c1,.53,1,0,1-.53L33.29,35.36Zm31,0H56.43a.51.51,0,0,0-.52.52L49.59,51.14v1.58l3.69,8.94c0,.52,1,.52,1,0L64.85,36.41C64.85,35.88,64.85,35.36,64.32,35.36ZM526.74,24.83a4.65,4.65,0,0,0-4.21,4.74,4.74,4.74,0,0,0,9.47,0C532,26.94,529.37,24.83,526.74,24.83Zm0,8.42c-2.1,0-3.68-1.58-3.68-4.21s1.58-4.21,3.68-4.21,3.68,1.58,3.68,4.21S529.37,33.25,526.74,33.25Zm2.1-4.73a1.39,1.39,0,0,0-1.57-1.58h-1.58V32.2h.52V30.09h1.06l1.05,2.11h.52l-1.05-2.63A1.13,1.13,0,0,0,528.84,28.52Zm-2.63,1.05V27.46h1.06a1.06,1.06,0,0,1,0,2.11ZM274.75,90.07,270,102.69h2.63l1.05-2.63H279l1.05,2.63h2.63l-5.26-12.62Zm0,7.36,1.58-4.73,1.58,4.73Zm22.62,1-5.26-8.41h-2.63v12.62h2.11V94.27l5.26,8.42h2.63V90.07h-2.11Zm8.42-1.57h6.31V94.8h-6.31V92.17h6.84v-2.1h-9.47v12.62h9.47v-2.1h-6.84Zm16.31,1.57L320,90.07h-3.68v12.62h2.11v-10l2.63,10h2.63l2.63-10v10h1.58V90.07H324.2Zm12.1-1.57h6.31V94.8H334.2V92.17H341v-2.1h-9.47v12.62H341v-2.1H334.2Zm8.94-4.74h3.68v10.52h2.63V92.17h3.69v-2.1h-10Zm20,3.68c-.52-.52-1.58-.52-2.63-1s-2.1-.53-2.1-1l-.53-.53c0-.52,0-.52.53-.52a2.61,2.61,0,0,1,3.15,0c.53.52.53.52.53,1.57h2.63a4.06,4.06,0,0,0-1-2.63,7.68,7.68,0,0,0-3.68-1,4.7,4.7,0,0,0-2.63.53c-.53.52-1.06.52-1.58,1a1.93,1.93,0,0,0-.53,1.58c0,1,.53,1.58,1.05,2.63a4,4,0,0,0,2.63,1.05c1.06,0,1.58.53,2.11.53s.52.52,1.05.52V99c0,.53,0,1-.53,1-.52.53-1.05.53-2.1.53-.53,0-1.58,0-1.58-.53-.53-.52-.53-1-1.05-1.58h-2.63a3.18,3.18,0,0,0,1.58,3.16,7.54,7.54,0,0,0,3.68,1c1.05,0,2.1,0,2.63-.52s1.05-.53,1.58-1.58c.52-.53.52-1,.52-2.11s0-1.57-.52-2.1C364.18,96.38,363.66,95.85,363.13,95.85Zm12.1,4.21a1.92,1.92,0,0,1-1.58.53,2.73,2.73,0,0,1-2.1-1,5.28,5.28,0,0,1,0-6.32,4,4,0,0,1,2.1-1,1.92,1.92,0,0,1,1.58.53c.53.52.53,1,1,1.57l2.63-.52c-.52-1-.52-1.58-1.05-2.11a4.77,4.77,0,0,0-3.68-1.57A6,6,0,0,0,370,91.64a6.46,6.46,0,0,0-1.58,4.74,6.43,6.43,0,0,0,1.58,4.73,5.94,5.94,0,0,0,4.21,1.58,4.44,4.44,0,0,0,3.16-1c1.05-.53,1.57-1.58,2.1-3.16L376.28,98C375.76,99,375.76,99.54,375.23,100.06Zm14.21-5.26H384.7V90.07h-2.63v12.62h2.63V97.43h4.74v5.26h2.63V90.07h-2.63Zm8.41,2.11h6.32V94.8h-6.32V92.17h6.84v-2.1h-9.47v12.62h9.47v-2.1h-6.84Zm21-6.84h-3.16l-5.26,5.78V90.07h-2.63v12.62h2.63V99l2.1-2.1,3.68,5.78h3.16l-4.73-7.89Zm15.25,10a1.92,1.92,0,0,1-1.58.53,2.73,2.73,0,0,1-2.1-1,5.28,5.28,0,0,1,0-6.32,4,4,0,0,1,2.1-1,1.93,1.93,0,0,1,1.58.53c.53.52.53,1,1.05,1.57l2.63-.52c-.52-1-.52-1.58-1.05-2.11a4.77,4.77,0,0,0-3.68-1.57,6,6,0,0,0-4.21,1.57,6.46,6.46,0,0,0-1.58,4.74,6.43,6.43,0,0,0,1.58,4.73,5.94,5.94,0,0,0,4.21,1.58,4.44,4.44,0,0,0,3.16-1c1.05-.53,1.57-1.58,2.1-3.16L435.2,98C434.68,99,434.68,99.54,434.15,100.06Zm12.1-10c-1.05,0-2.1,0-2.63.52-.53,0-1.05.53-1.58,1S441,92.7,441,93.22a6.64,6.64,0,0,0-.53,3.16,6.43,6.43,0,0,0,1.58,4.73,5.94,5.94,0,0,0,4.21,1.58,5.15,5.15,0,0,0,4.21-1.58A6.43,6.43,0,0,0,452,96.38a6.46,6.46,0,0,0-1.58-4.74A6,6,0,0,0,446.25,90.07Zm2.63,9.47a3.82,3.82,0,0,1-5.26,0,5.28,5.28,0,0,1,0-6.32,3.82,3.82,0,0,1,5.26,0,4.44,4.44,0,0,1,1.05,3.16C449.41,98,449.41,99,448.88,99.54ZM461,98.48l-2.1-8.41h-3.69v12.62h2.11v-10l2.63,10h2.63l2.1-10v10h2.11V90.07h-3.69Zm16.83-8.41h-7.36v12.62h2.63V98h4.21a1.85,1.85,0,0,0,1-.53l1.05-1.05c.53-.53.53-1,.53-2.11a4.73,4.73,0,0,0-.53-2.63Zm-.52,4.73c0,.53-.53.53-1.05.53h-3.69V91.64h2.63c.53,0,.53,0,1.06.53s.52.53.52,1C477.81,94.27,477.29,94.8,477.29,94.8Zm7.89-4.73-4.73,12.62h2.63l1.05-2.63h5.26l1.05,2.63h2.63l-5.26-12.62Zm0,7.36,1.58-4.73,1.58,4.73Zm17.89,1-5.26-8.41h-2.63v12.62h2.1V94.27l5.26,8.42h2.63V90.07h-2.1Zm10.52-3.15-3.16-4.74h-3.16L512,98v5.26h2.63V98l4.73-7.37h-3.15Z"/></svg>