<svg id="Layer_2" data-name="Layer 2" xmlns="http://www.w3.org/2000/svg" viewBox="0 0 256 256"><defs><style>.cls-1{fill:#fff;}</style></defs><title>VW-logo-monogram</title><path class="cls-1" d="M128,1.72A126.28,126.28,0,1,0,254.28,128,126.28,126.28,0,0,0,128,1.72Zm0,237.59A111.31,111.31,0,1,1,239.31,128,111.31,111.31,0,0,1,128,239.31Z"/><circle class="cls-1" cx="128" cy="128" r="98.41"/><path d="M128,16.69A111.31,111.31,0,1,0,239.31,128,111.31,111.31,0,0,0,128,16.69Zm0,209.72A98.41,98.41,0,1,1,226.41,128,98.41,98.41,0,0,1,128,226.41Z"/><path d="M137.17,187.56h-20a1.41,1.41,0,0,1-1.31-.87l-40.73-99a1.42,1.42,0,0,1,1.31-1.95h20a1.4,1.4,0,0,1,1.31.88l40.73,99A1.42,1.42,0,0,1,137.17,187.56Z"/><path d="M180.37,87.72,154,151.82a1.41,1.41,0,0,1-2.62,0l-10-24.26a1.44,1.44,0,0,1,0-1.08l16.4-39.84a1.43,1.43,0,0,1,1.31-.88h20A1.42,1.42,0,0,1,180.37,87.72Z"/></svg>