<svg id="Layer_1" data-name="Layer 1" xmlns="http://www.w3.org/2000/svg" viewBox="0 0 588.3 180.1"><defs><style>.cls-1{fill:#fff;}</style></defs><title>WHO</title><g id="Layer_2" data-name="Layer 2"><g id="Layer_1-2" data-name="Layer 1-2"><path class="cls-1" d="M250,42.7h-.1l-8,41.8h-11l-10.4-51h8.8l7.2,39.3h.1l7.7-39.3h11.4l7.6,39.3h.1l7.5-39.3h8.5l-10.5,51H257.7Z"/><path class="cls-1" d="M292.6,46.2c7.7,0,16.5,4,16.5,19.3,0,15.8-8.8,19.4-16.5,19.4S276,81.2,276,65.5C276.1,50.2,285,46.2,292.6,46.2Zm0,32.4c5.8,0,7.2-6.7,7.2-13s-1.3-12.9-7.2-12.9-7.2,6.6-7.2,12.9S286.8,78.6,292.6,78.6Z"/><path class="cls-1" d="M313.6,53c0-2.1-.1-4.1-.3-6.2h8.2c.1,2.3.3,4.6.3,6.9h.1c1.1-2.9,3.9-7.4,9.6-7.4a7.72,7.72,0,0,1,1.5.2V55a10.86,10.86,0,0,0-2.5-.4c-3.7,0-7.8,2.3-7.8,9.3V84.5h-9Z"/><path class="cls-1" d="M336.9,29.7H346V84.4h-9.1Z"/><path class="cls-1" d="M382.9,29.7V78c0,2.1.1,4.3.3,6.4h-8.5a56.33,56.33,0,0,1-.3-5.8h-.2a10.2,10.2,0,0,1-10,6.4c-9.3,0-13.2-8.9-13.2-19.3,0-12.3,4.9-19.4,13-19.4a10.08,10.08,0,0,1,9.7,6h.1V29.7ZM366.6,78.3c5.3,0,7.1-5.8,7.1-12.8,0-7.3-2-12.6-7-12.6s-6.8,4.9-6.8,12.4C360,74,361.4,78.3,366.6,78.3Z"/><path class="cls-1" d="M409.8,33.5h9.4V54.2h15.1V33.5h9.3v51h-9.3V61.9H419.2V84.4h-9.4Z"/><path class="cls-1" d="M476.7,82.6A27.18,27.18,0,0,1,465.5,85c-12.1,0-17.4-8.7-17.4-18.8,0-11.2,5.9-19.9,15.5-19.9,8.1,0,15,4.7,15,20.1v1.8H456.9c0,6.4,2.6,10.3,9.6,10.3,5.5,0,8.2-1.7,9.9-2.9Zm-6.9-20.2c0-6.6-2.2-10-6.3-10-4.8,0-6.7,5-6.7,10Z"/><path class="cls-1" d="M484.4,49a27.36,27.36,0,0,1,11.9-2.8c11.7,0,14.4,5.7,14.4,15.1V77.7a48.87,48.87,0,0,0,.5,6.6H503a17.68,17.68,0,0,1-.5-5.1h-.1c-2.3,3.1-5.1,5.7-10.5,5.7-5.8,0-11.2-4-11.2-11,0-10.2,8.3-12.8,19.8-12.8h1.8V59.7c0-3.7-1.8-7.2-7-7.2A17.74,17.74,0,0,0,485,56.2Zm17.8,17h-.8c-7.7,0-12.3,1.6-12.3,7.1a5.47,5.47,0,0,0,5.1,5.8h.7c5.4,0,7.4-4,7.4-10.7V66Z"/><path class="cls-1" d="M519,29.7h9V84.4h-9Z"/><path class="cls-1" d="M538.4,39.1l9-2.8V46.8h7.5v6.6h-7.5V73c0,4,1.5,5.2,4.1,5.2a7.73,7.73,0,0,0,3.4-.8v6.4a15.8,15.8,0,0,1-6.1,1.2c-6.7,0-10.5-3.1-10.5-11V53.5h-6V46.9h6V39.1Z"/><path class="cls-1" d="M557.8,29.7h9v22h.2c1.6-2.3,3.7-5.4,9.3-5.4,8.5,0,11.1,6.3,11.1,13.9V84.4h-9V61.9c0-5.8-1.5-8.2-5.2-8.2-4.7,0-6.4,4-6.4,8.8V84.4h-9Z"/><path class="cls-1" d="M241.2,98c10.6,0,20.3,7.9,20.3,26.2s-9.7,26.2-20.3,26.2-20.3-7.9-20.3-26.2S230.6,98,241.2,98Zm0,45.3c5.9,0,10.7-5,10.7-19.1s-4.8-19-10.7-19-10.7,5-10.7,19,4.8,19.1,10.7,19.1Z"/><path class="cls-1" d="M265.3,118.3c0-2.1-.1-4.1-.3-6.2h8.2c.1,2.3.3,4.6.3,6.9h.1c1.1-2.9,4-7.4,9.6-7.4a7.72,7.72,0,0,1,1.5.2v8.5a10.87,10.87,0,0,0-2.6-.4c-3.7,0-7.8,2.3-7.8,9.3v20.6h-9Z"/><path class="cls-1" d="M289.1,155.6a23,23,0,0,0,11.1,3.2c8.5,0,9.9-5.9,9.9-11.8v-3.6H310c-1.5,2.9-4,6.4-9.9,6.4-5.2,0-13.1-3.5-13.1-18.7,0-10.4,3.7-19.5,13.6-19.5,5.5,0,8,3.1,9.9,6.4h.3c0-2,.2-3.9.3-5.8h8.2c-.1,2-.3,3.9-.3,5.9v27.7c0,11.8-3.6,20.1-17.4,20.1a37.71,37.71,0,0,1-12.9-2.3Zm13.1-12.5c5.7,0,8-4.1,8-12.6,0-7.9-3-12.1-7.3-12-4.8.1-6.6,4.5-6.6,12.1C296.3,139.4,299.1,143.1,302.2,143.1Z"/><path class="cls-1" d="M327,114.3a26,26,0,0,1,11.9-2.8c11.7,0,14.4,5.7,14.4,15.1V143a48.87,48.87,0,0,0,.5,6.6h-8.2a17.68,17.68,0,0,1-.5-5.1H345c-2.3,3.1-5.1,5.7-10.5,5.7-5.8,0-11.2-4-11.2-11,0-10.2,8.3-12.8,19.8-12.8h1.8V125c0-3.7-1.8-7.2-7-7.2a17.74,17.74,0,0,0-10.3,3.7Zm17.8,17H344c-7.7,0-12.3,1.6-12.3,7.1a5.47,5.47,0,0,0,5.1,5.8h.7c5.4,0,7.4-4,7.4-10.7Z"/><path class="cls-1" d="M360.6,118.3c0-2.1-.1-4.1-.3-6.2h8.5c.1,1.9.3,3.9.3,5.8h.1c1.3-2.3,3.9-6.3,10-6.3,8.5,0,11.1,6.3,11.1,13.9v24.2h-9.1V127.1c0-5.8-1.5-8.2-5.2-8.2-4.7,0-6.4,4-6.4,8.8v21.9h-9Z"/><path class="cls-1" d="M397.2,96.1h9.4V105h-9.4Zm.2,16h9v37.6h-9Z"/><path class="cls-1" d="M413.5,141.9,429.6,119H414v-6.9h24.6v7.7l-15.8,23h16.3v6.9H413.4v-7.8Z"/><path class="cls-1" d="M446,114.3a26,26,0,0,1,11.9-2.8c11.7,0,14.4,5.7,14.4,15.1V143a48.87,48.87,0,0,0,.5,6.6h-8.2a17.68,17.68,0,0,1-.5-5.1H464c-2.3,3.1-5.1,5.7-10.5,5.7-5.8,0-11.2-4-11.2-11,0-10.2,8.3-12.8,19.8-12.8h1.8V125c0-3.7-1.8-7.2-7-7.2a17.74,17.74,0,0,0-10.3,3.7Zm17.8,17H463c-7.7,0-12.3,1.6-12.3,7.1a5.47,5.47,0,0,0,5.1,5.8h.7c5.4,0,7.4-4,7.4-10.7v-2.2Z"/><path class="cls-1" d="M482.1,104.4l9-2.8v10.5h7.5v6.6h-7.5v19.5c0,4,1.5,5.2,4.1,5.2a6.57,6.57,0,0,0,3.4-.8V149a12.82,12.82,0,0,1-6.1,1.2c-6.7,0-10.5-3.1-10.5-10.9V118.7h-6v-6.6h6Z"/><path class="cls-1" d="M504.1,96.1h9.3V105h-9.3Zm.2,16h9.1v37.6h-9Z"/><path class="cls-1" d="M534.9,111.5c7.7,0,16.5,4,16.5,19.3,0,15.8-8.8,19.4-16.5,19.4s-16.6-3.6-16.6-19.4C518.4,115.6,527.3,111.5,534.9,111.5Zm0,32.4c5.8,0,7.2-6.7,7.2-13s-1.3-12.9-7.2-12.9-7.2,6.6-7.2,12.9S529.1,143.9,534.9,143.9Z"/><path class="cls-1" d="M558.6,118.3c0-2.1-.1-4.1-.3-6.2h8.5c.1,1.9.3,3.9.3,5.8h.1c1.3-2.3,3.9-6.3,10-6.3,8.5,0,11.1,6.3,11.1,13.9v24.2h-9V127.1c0-5.8-1.5-8.2-5.2-8.2-4.7,0-6.4,4-6.4,8.8v21.9h-9Z"/><g id="g640"><path id="path642" class="cls-1" d="M165.9,33c3.9,4.7,10.7,7.4,14.7,12.1-2.9-13.8-13.5-25.1-26.1-27.8,6.2,4.6,7.5,11,11.4,15.7M14.7,68c8.7-18.9,21.6-14.9,27.1-32.8C38.6,40.6,24.5,42.9,18,57c3.4-8.4,1.7-21.2,7.3-28.2C8.4,41.4,15.6,61.6,14.7,68m15.6,45.2c1.6,7.3-3,18,4.3,28.1-7.5-8.4-23.5-10.6-30-23.4,8.1,31.3,29.3,24.9,38.8,31.7-7.8-11.3-1.4-18.8-13.1-36.4m-2.4,19.7c-4.7-17.5,3.6-23.6-2.7-40.4-.6,9.5-7,14.1-2.7,31.4C15,109.2,3.4,103.7,0,93.7c.2,27.5,22.3,31.6,27.9,39.2m33.9,29.3c-6.5-9-2.1-14.1-20.3-30.4,3.9,6-.1,13.5,12.2,25.1-12-7.1-28.7-4.1-36.7-13.6,13.8,26.4,38,15.6,44.8,18.9m88.5-5.3c12.3-11.7,8.3-19.2,12.2-25.1-18.3,16.3-13.8,21.4-20.4,30.4,6.9-3.3,31.1,7.5,44.8-18.9-7.9,9.6-24.6,6.5-36.6,13.6m19.1-15.6c7.3-10.1,2.7-20.7,4.2-28.1-11.7,17.6-5.3,25.1-13.1,36.4,9.6-6.8,30.7-.4,38.8-31.7-6.5,12.8-22.4,15-29.9,23.4m-29.2,22.2a89.51,89.51,0,0,0-20-3,49.11,49.11,0,0,0-18.2,3.1,49.11,49.11,0,0,0-18.2-3.1,89.51,89.51,0,0,0-20,3c-11,2.9-20.5,5.2-28.8,1,7.9,7,17.2,9.6,30.6,8.1,11.1-1.2,20.1-6.8,30.6-6.7h.4a55.51,55.51,0,0,0-17.3,13.5l5.1.7s5.3-10.7,17.6-13.5c12.3,2.8,17.6,13.5,17.6,13.5l5.1-.7a55.51,55.51,0,0,0-17.3-13.5h.4c10.5-.1,19.5,5.5,30.6,6.7,13.4,1.4,22.6-1.1,30.6-8.1-8.3,4.2-17.8,1.9-28.8-1M26,73.5c-4.5,8.7-11.6,10.7-10.8,28.6C11.4,86.2,2.3,80.2,2.4,70.1-3.9,96.7,12.9,99.8,17.3,111c-.7-16,9.5-19.2,8.7-37.5M32.3,53c-1.6,2.2-2.7,3.2-6.9,6.6a33.67,33.67,0,0,0-12.2,20c.4-9.8-5.6-23.8-1.6-34-15.5,21.9.9,35,1.5,43C17,73.3,26.3,73.2,32.3,53M190.8,79.6a34.16,34.16,0,0,0-12.2-20c-4.2-3.5-5.3-4.4-6.9-6.6,6,20.2,15.3,20.3,19.3,35.6.6-7.9,17-21,1.5-43,4,10.2-2,24.2-1.7,34M204,93.7c-3.4,10.1-15,15.5-22.5,30.2,4.3-17.3-2.1-21.9-2.7-31.4-6.3,16.8,2,22.9-2.7,40.4,5.6-7.6,27.7-11.7,27.9-39.2M178,73.5c-.9,18.3,9.4,21.5,8.7,37.5,4.3-11.1,21.2-14.3,14.9-40.9.1,10.2-9,16.1-12.8,32.1.8-18.1-6.2-20-10.8-28.7M38.1,33c3.9-4.7,5.2-11.1,11.4-15.7C36.8,20,26.2,31.2,23.3,45c4-4.7,10.9-7.4,14.8-12m124.2,2c5.5,18,18.4,14,27.1,32.8-.9-6.3,6.3-26.6-10.6-39,5.7,6.9,4,19.8,7.3,28.2-6.6-14.1-20.7-16.4-23.8-22m-44,10.3A41.41,41.41,0,0,0,108,42.5v2.3a43,43,0,0,1,9.5,2.6,6,6,0,0,0,.8-2.1M115.7,23l.7-.6-1.3-.6-3.5-.1-.9.6-2-.2v.5a32.91,32.91,0,0,1,3.6.4l1.7-.1Zm-6.6,74.6c0-.6-.8-1.2-1.9-1.7H107c0,.5-.1,2.8-.1,4,1.3-.7,2.2-1.3,2.2-2.3M69,53.7c.1-.4.2-.9.3-1.3a3.33,3.33,0,0,1-1.4.1ZM52.9,37.6l8.2,8.2A56.64,56.64,0,0,0,45.4,84.2H33.8A67.92,67.92,0,0,1,52.9,37.6m-5,63.8-.7-.1-.7-.7-3.3-.3,1,1.4-3-.6.8-.7-.7-.7-2.2.9-.8,1.4.3,3.3,2.5,6,1.2,1.9.7.2-1.9-3.6-.4-1.8.4-.4-.3-1,1.1.2,1.8,2.6.4.2v-1.9l.7.4.2,1,1.8.5.8-.6.3.2v1.4l.8,1,1,.2,2.2,3.6,1.3.4.4-1.7a56.89,56.89,0,0,0,8,10.3l-8.2,8.2A67.67,67.67,0,0,1,33.8,86.5H45.4a54.08,54.08,0,0,0,2.5,14.9m11.4-15a20.41,20.41,0,0,0,.3,3.4l-1.4.3-.3,1.4-3,3.8.1,5.2-3,1H50.3a55,55,0,0,1-2.6-15.1Zm2.6,32.7,2.6,1.5.5.4-1.9,1.9a33.29,33.29,0,0,1-2.5-2.8ZM72.5,57.2l8.2,8.2a27,27,0,0,0-4.3,6.3h-.6l-1.2.3h-.4L73,73.1l1.6-.2,1.4-.3-.3.4-1.2.8h-.6l-1.8,1.4L70.4,75l-2.5,4.7.5.9L67,82.2l-.2,2H61.6a39.81,39.81,0,0,1,10.9-27m8.4,33.9.6-.3L83,91.9l-.7.5L84,93.5l-.1-1.2.9-1.5,1,1,1,1.4-1.8.5.8,1.6,1.2-.7-.2-.5.9-.6.5-2.5a16.19,16.19,0,0,0,2.7,4.1l-8.2,8.2a27,27,0,0,1-7.2-15.4l1.7,1.8h1.6ZM69.1,82.4l.2-2.3,1.4-.8,2.5.4.4.4c-.2,1.3-.3,2.7-.4,4H70.4Zm-3.8,8-1.1,1.7H62.3l-.1-.1a51.36,51.36,0,0,1-.6-5.5h3.5l-.8,2.8ZM73,113c-.8-.9-1.7-1.8-2.4-2.7l.4-2.9-1.2-2.8-.3-4.4-1.4-2.7.3-1.7-1.7-3.2-1.4-.7.6-1.7-.6-1.3.6-1.5h1.6l.6-.9h2.7l.4.8L70.6,90l-.3.5,1,2.2-.7.4-.5-.6-.2.2.5,1.3.8,1.5h.4l.2-1.4-.4-.5v-.9l-.1-1.9.6-3.4-.6-.9h1.9a28.9,28.9,0,0,0,8,18.4Zm69.8,11.2a56,56,0,0,0,15.9-37.8h11.6a67.87,67.87,0,0,1-19.4,46Zm-3.2-3.2.9-1-.9-4.5-.6-.2.4-.8-1.9-.6-.4,1.6-.2,2-.4.4-3.5-3.5a42.63,42.63,0,0,0,11.9-28h11.6a53.86,53.86,0,0,1-15.3,36.2Zm-10.2,10.9,1.1-2.3-.4-1,1.6-1.4v-.8l-1.4-.9,1.1-2.3,1.7-2.2-1.7-1.8h-1.3l-.8-1.3c.7-.6,1.4-1.2,2-1.8l8.2,8.2a50.43,50.43,0,0,1-10.1,7.6m-1.6-22.6-1.1-1.1.8-1.1,1.1-2.2-.4-.6.7-1.6-.1-1.5-.4-1.5-1-.3-.4.8-.6-.2a35,35,0,0,0,2.4-4.2l1-.4.6-.8.3.3.7-.8-.6-.7.5-.1.9.4H134l1.1-.6,2.8-.8-.5-.9-.2-1.1,1.5.7.6-.3-.3-1.2-1.9.7-2-.4-1.6-3.2h8.9A40.55,40.55,0,0,1,131.2,113l-1.2-1.2.5-1.6-.9-3.6Zm-4.2-43.6,8.2-8.2a48.26,48.26,0,0,1,5.1,6.8l-1,.3.1,1.8,3,1.9a32.38,32.38,0,0,1,1.9,5.2l-.5.8-1.1.8-.3,1.7-.8.4-.6.8-.6-.3h-1.1l.6-.9.5-2.3.8-.5-2.2-2.1-1.6.6-.4,1.6-1,1.1-1.1-.9-.4-1,.6-.4.3.6.5-.2-.2-1h-.7v.4l-.5.1-2.5-3-.9-.7.3-.3.8-.3-.8-.3s-.9.2-1,.2l.5.7h-1.3a18,18,0,0,0-2.6-3.4m1.3,44.7-2.5-.7-.8.3-1.4-1.1-1.3-.5c.7-.5,1.3-1,1.9-1.5l2.1,1.5,1.6.8.8.8Zm-4.4-38.5,1-.2v-.2l-1-.7.3-2.2,1.2-1.3a30.13,30.13,0,0,1,2.2,2.8l-.4,1.3-1.1-.8-.9.2.4.8h.4l-.5,1.2-.3-.5Zm13.9,8,2.1-1.1,2.1-.3.5-1,1.2-.7.5-1,.4-1.7c.2.6.3,1.2.5,1.8l-1.1,3.3v1.1L142,78c.3,2,.5,4.1.6,6.1H132.4l-.2-.9,1.2-.9.2-.6.5-.4,1.4-.2.1-.6Zm2.3-27.2,2.8.1.7.8-.3,1.2,3.9,2.4.8-.1,4.9,5.7,2-.7a54.45,54.45,0,0,1,5,22.1H144.9a37.21,37.21,0,0,0-1.1-8.8l.5-.7L145,71l-.5-3.9-1.4-4.5-3.2-4.7.8.4.4-.4-2.6-1.8-.2.6,2.6,3.7,1.5,3,1,3,.3,2,.5,3.4-1,.1s-1.1-2.1-1.5-3l.5-.8-1-1.4V65.4l-.7-.9-.9.1a9.5,9.5,0,0,0-1-1.7l.6.3.2-.2-.3-.7.8-.4-.3-.4-1.1.4.4-1.8-.7-.4-.6,1.4a55.64,55.64,0,0,0-4.2-5.4Zm14.8-14.9a68.07,68.07,0,0,1,18.9,46.4H158.8a56.3,56.3,0,0,0-6-24.8l.1-.2.8.4.2-.6-2.1-3.6L149.3,52l-2.9-2.4c-1-1.2-2-2.4-3.1-3.6Zm-34.2,68.9h0m-15.2,48.7a70.64,70.64,0,0,0,7.1-140.9l-.1.4c-.1.7-.3,1.3-.4,1.9A68,68,0,0,1,149.8,36L142,43.8l.3-1.4-1-.5L140,42l.3-.9-.9-3.2-1.9-2.1-6.1-3.2-.5.6-1.1.3A17.86,17.86,0,0,1,133,43.7v1.4l3,3.8-1.4.3.9,1.4-2.7,2.7-1.1-2a18.7,18.7,0,0,1-2,4l.6.5L122,64c-.5-.5-1-.9-1.5-1.4a24.43,24.43,0,0,1-2.4,1l.7.5-.4.4-1,.5-.4,1-.6-.6-1.7.6.5.8,1.2-.3.8.1.1-.4.6-.3.2-.3,1.1-.3h.8l.5.4L117.3,69l-.2-.3-3.4.6-.8.8-.7.1,2.1-2-.8-.4-2,2.6.6-.1v1l.7.3.1,1-1.2-.2-1.2.2-3-1.5s-.2,8-.2,12c7,2.4,14.5,5.8,14.5,14.8a11.14,11.14,0,0,1-5.1,9.5h0l-.2.1h0l-.2.2c-2.8,1.9-6.5,2.9-9.7,3.9l-.1,6.3c5.1,2.5,11.2,6.2,10.6,16.6-.1,2.6-1.1,3.3-1.9,3.5h0a57.27,57.27,0,0,1-9.1,1.4v2.3a56.74,56.74,0,0,0,35.2-15.5l8.2,8.2a68.19,68.19,0,0,1-94.4.2l8.2-8.2a57.37,57.37,0,0,0,34.8,15.3v-2.3a53.81,53.81,0,0,1-33-14.7l2.1-2.2,3,.3,1.6-1.7,4.2.2.6-1.5-.2-.6a42.72,42.72,0,0,0,21.4,8.5v-2.3a40.68,40.68,0,0,1-23-10.5l8.2-8.2a28.09,28.09,0,0,0,6.7,4.5,8.26,8.26,0,0,1,.8-2.2,29.43,29.43,0,0,1-5.8-3.9l8.2-8.2a15.23,15.23,0,0,0,4.3,2.4V96.8a12,12,0,0,1-2.7-1.6l2.3-2.3a22.5,22.5,0,0,1-2.4-.8l-1.6,1.6a13.67,13.67,0,0,1-2-2.9,23.21,23.21,0,0,1-4.1-2.2,15.88,15.88,0,0,1-7.6-13.9,16.72,16.72,0,0,1,3.3-10.6l-8.2-8.2A40.62,40.62,0,0,1,96.1,45.1V42.8A42.84,42.84,0,0,0,72.6,54.3l-1.4-1.4A19,19,0,0,0,70.1,55l.9.9A42.59,42.59,0,0,0,59.4,84.4H47.7a54.47,54.47,0,0,1,15-36.8l3.7,3.7h.5a7.27,7.27,0,0,0,2.1-.6L64.3,46a56.27,56.27,0,0,1,8.1-6.5,8.51,8.51,0,0,1,.6-1.7,18.76,18.76,0,0,1,1.8-2.4,55,55,0,0,0-12,8.9l-8.2-8.2a68.43,68.43,0,0,1,40.7-19,1.21,1.21,0,0,0-.1-.5c-.1-.6-.2-1.1-.3-1.8a70.48,70.48,0,0,0,7.2,140.6M136.8,33.3l-.7-1.1-1.5-.8-1.2.9,1.5.8,1.7,1.2Zm-7,32.8.1.9,2-.6.6-1.2-1.4-1.8.7-1.1,1.9,1.3.3-.3-.4-.3-.4-.8.8-.4-.8-1-1.8.9-.6,1.1-.4,1,.8,1.3-.3.6ZM46,118.1l.1-.5-1-2.3-1.2-.5ZM93.3,74.5c0,2,1.2,3.3,3.3,4.5v-.9l-1.3-1.4.7-1.3.6-.2c-.1-2.3-.1-4.8-.1-5.2h-.1c-2,1.2-3,2.6-3.1,4.5"/></g><g id="g644"><path id="path646" class="cls-1" d="M106.3,124.8c3.6,1.8,7,4.4,8.4,9.2.6-8-3.9-11.4-8.3-13.8l-.1,4.6"/></g><g id="g648"><path id="path650" class="cls-1" d="M130.5,43.7c0-7.3-5.3-15.3-18.2-18.1-1.3-.2-2.6-.4-3.9-.5,0,1.1-.1,3.6-.1,3.6,0,.8-.1,3.7-.1,4.3l2.5.3c7.5,1.8,10.2,6.1,10.2,10.3,0,6.9-5.9,9.5-13.1,11.5l-2.4.6c-2.2.5-4.5,1.1-6.7,1.7a21.72,21.72,0,0,0-2.4.7c-8,2.4-14.9,6.3-14.9,16.2S89.3,87.8,97,90.2c0-2.8-.1-5.7-.2-8.5C93.3,80.1,91,78,91,74.5s2.2-5.5,5.5-7q1.05-.45,2.4-.9c1.9-.7,4.1-1.2,6.3-1.8l2.4-.6c10.8-2.6,23-6,22.9-20.5"/></g><g id="g652"><path id="path654" class="cls-1" d="M91.6,113c0,4,2.9,6.1,5.8,7.8,0-.7-.1-6.8-.1-6.9a3.16,3.16,0,0,1,2.2-2.4,38,38,0,0,1,4.7-1.8c.9-.3,1.6-.6,2.4-.8,5.9-1.8,12.7-4,12.7-11.2s-5.8-10.1-12.2-12.3c-.1,2.3-.1,5.6-.2,7.9,2.7,1,4.5,2.3,4.5,4.4,0,2.6-2.7,4-4.7,4.8-.8.3-2,.7-2.4.8-1.6.5-3.2,1-4.8,1.6a24.43,24.43,0,0,0-2.4,1c-2.6,1.4-5.5,3.5-5.5,7.1"/></g><g id="g656"><path id="path658" class="cls-1" d="M95.6,26.2a48.12,48.12,0,0,0-7.1,2.9c-2.5.8-6.1,1-9.8,5-1.2,1.4-2.3,2.9-3.4,4.4s-1.2,4.2-2,5.5a4.65,4.65,0,0,0-.9,3.2h0a6,6,0,0,1-1.3,2.5,5.2,5.2,0,0,1-4.8,1.8c1.7.8,4-.3,4-.3a20.25,20.25,0,0,0-.9,3.3c1.9-4.3,3.6-5.8,4.2-6.3.8.2,2.5.1,5.6-1.7,3.5-2,8.8-5.3,10.3-7.4a13.73,13.73,0,0,1,6.2-4.7c0-3-.1-5.8-.1-8.2M80.8,39.5l-1.8.4,2.2-3.6,2.5.1-2.9,3.1"/></g><g id="g660"><path id="path662" class="cls-1" d="M102.9,112.5c-.3.1-1.2.5-1.8.7s-1.3.5-1.3.7c0,0,.6,30.8.6,31.4,0,6.3,3.2,6.4,3.2,0,0-.4.7-33.3.7-33.3s-.9.3-1.4.5"/></g><g id="g664"><path id="path666" class="cls-1" d="M99.5,102.3c1-.3,2-.7,2.9-.9.7-.2,1.3-.4,2-.6,0-1.9.6-28.7.7-33.5a63.21,63.21,0,0,0-6.2,1.8c.1,3.6.6,30.3.6,33.2"/></g><g id="g668"><path id="path670" class="cls-1" d="M102.2,0c-9,0-5.2,13.4-4.5,17.8,0,.2.7,30.3.9,37.2,1.4-.4,2.7-.7,4.1-1l2.7-.7c.1-6.7.8-35.4.8-35.6.6-4.6,5.3-17.7-4-17.7"/></g></g></g></svg>