<svg id="Layer_1" data-name="Layer 1" xmlns="http://www.w3.org/2000/svg" viewBox="0 0 223 180.1"><defs><style>.cls-1{fill:#fff;}.cls-2{fill:#ff7890;}</style></defs><title>WHO</title><polygon class="cls-1" points="8.71 18.43 109.55 18.43 122.9 76.27 69.58 170.85 12.3 170.84 7.63 156.92 8.71 18.43"/><polygon class="cls-1" points="151.09 60.33 87.46 173.32 216.3 173.32 151.09 60.33"/><path class="cls-2" d="M30.41,18.49a1.67,1.67,0,0,1,.09.34,10.82,10.82,0,0,0-.16,2.54A13.56,13.56,0,0,0,42,34.64a15,15,0,0,0,2.22.17q17.53,0,35.07,0a13.73,13.73,0,0,0,6.53-1.56,13.48,13.48,0,0,0,4.94-4.42A13.68,13.68,0,0,0,93,19.23c0-.14,0-.28,0-.42a1.48,1.48,0,0,1,.07-.26,3.38,3.38,0,0,1,.57-.11c.39,0,.78,0,1.17,0h14.77a17.68,17.68,0,0,1,6.24,1.09,11,11,0,0,1,5.34,4,9.22,9.22,0,0,1,1.67,4.64q.09,1.28.09,2.55V75.31c0,.32,0,.64,0,1a3.51,3.51,0,0,1-.6,2.11c-1.29,2.19-2.55,4.41-3.82,6.62-1.14,2-2.28,3.91-3.41,5.87l-2.65,4.6c-.82,1.42-1.63,2.83-2.45,4.23a3.4,3.4,0,0,1-.28.42c-.26,0-.19-.2-.2-.32a3,3,0,0,1,0-.42V83.63q0-16.86,0-33.71c0-.49,0-1,0-1.52a5,5,0,0,0-.75-.18c-.35,0-.7,0-1.06,0H15.72a3,3,0,0,0-1.69.22c0,.23-.06.48-.07.72-.15,6.45-.07,106.9.1,108.09a3.06,3.06,0,0,0,.56.14c.39,0,.78,0,1.17,0h59.4a3.81,3.81,0,0,1,1.32.1,2.79,2.79,0,0,1-.16.51l-2.28,3.95c-.57,1-1.14,2-1.7,2.94a8.33,8.33,0,0,1-.61,1,2.6,2.6,0,0,0-.57,1.67c0,.78,0,1.56,0,2.34,0,.27,0,.55-.08.87a6,6,0,0,1-.65.08c-.28,0-.57,0-.85,0H12.3a14.38,14.38,0,0,1-2.54-.15A10.62,10.62,0,0,1,1,163.13a12.68,12.68,0,0,1-.49-3.46c0-.25,0-.5,0-.75V30.14a14.34,14.34,0,0,1,.39-3.69,11.86,11.86,0,0,1,4.33-6.63,12.19,12.19,0,0,1,1.64-1,4.21,4.21,0,0,1,2-.43H29.55C29.83,18.43,30.11,18.47,30.41,18.49Z"/><path class="cls-2" d="M151.12,179.54H85.67a4.48,4.48,0,0,1-3.39-.94,8.6,8.6,0,0,1-2.61-2.76,1.63,1.63,0,0,1-.2-.71,18.34,18.34,0,0,1,0-3.92A2.43,2.43,0,0,1,79.9,170c.49-.73.92-1.51,1.36-2.28,1.54-2.67,3.06-5.35,4.59-8,1.21-2.09,2.43-4.16,3.64-6.24.82-1.41,1.62-2.83,2.43-4.24s1.78-3.06,2.66-4.59l2.48-4.33c.82-1.44,1.66-2.88,2.49-4.32l2.6-4.51,2.67-4.59q1.2-2.07,2.38-4.14l2.82-4.87,2.48-4.33c.86-1.5,1.74-3,2.61-4.5s1.55-2.7,2.33-4l2.88-5,3.38-5.9,2.71-4.68c.83-1.44,1.65-2.89,2.48-4.34s1.69-2.94,2.54-4.41,1.78-3.06,2.66-4.59,1.62-2.83,2.44-4.24,1.76-3.06,2.65-4.59l2.62-4.5c.8-1.38,1.58-2.76,2.37-4.14.46-.8.89-1.62,1.39-2.39a6.73,6.73,0,0,1,2.61-2.44l.74-.41a2.47,2.47,0,0,1,1.22-.32c.64,0,1.27,0,1.91,0a2.58,2.58,0,0,1,.83.14,7.81,7.81,0,0,1,4,3.35q2.64,4.61,5.3,9.2c1.27,2.21,2.57,4.4,3.84,6.61,1.5,2.61,3,5.23,4.48,7.84,1.16,2,2.35,4,3.52,6.06.84,1.43,1.66,2.88,2.5,4.32l2.76,4.78,3.33,5.8,3.6,6.26c.92,1.59,1.83,3.19,2.75,4.79l3.58,6.15,2.64,4.6q1.23,2.11,2.45,4.23l2.39,4.14,3.88,6.71c1.22,2.12,2.43,4.24,3.65,6.35s2.31,4,3.46,6,2.25,3.93,3.39,5.9l3.93,6.8c1.19,2,2.36,4.11,3.54,6.17a3.24,3.24,0,0,0,.33.54,2.58,2.58,0,0,1,.62,1.65,18.14,18.14,0,0,1,0,3.61,2.25,2.25,0,0,1-.42,1.07,8.49,8.49,0,0,1-3.49,3,2.88,2.88,0,0,1-1.32.34H151.12Zm0-106.8a3.63,3.63,0,0,0-.4.43c-.28.45-.54.91-.81,1.37L147.36,79c-.8,1.38-1.61,2.75-2.4,4.13-1.24,2.15-2.45,4.31-3.69,6.45s-2.36,4-3.53,6.06c-1.61,2.79-3.2,5.58-4.81,8.37-1.11,1.94-2.24,3.86-3.36,5.79-.92,1.6-1.82,3.2-2.74,4.79s-1.7,2.94-2.55,4.41l-2.54,4.42q-2.3,4-4.58,7.91c-1.2,2.08-2.38,4.18-3.59,6.26s-2.43,4.16-3.63,6.25c-2.19,3.8-4.36,7.61-6.56,11.41-1.87,3.25-3.77,6.49-5.64,9.75a6.66,6.66,0,0,0-.82,1.67,4.57,4.57,0,0,0,1.5.11H204.78a.43.43,0,0,0,.48-.31c-.28-.52-.56-1.12-.91-1.69-.92-1.55-1.81-3.12-2.71-4.69q-1.23-2.12-2.44-4.23l-2.55-4.41L194.11,147q-1.32-2.3-2.66-4.59L188.9,138l-2.7-4.7q-1.12-2-2.27-4c-1-1.65-1.92-3.3-2.87-5q-1.74-3-3.46-6l-2.45-4.22-1.79-3.13q-1.77-3.09-3.55-6.17-1.29-2.26-2.6-4.5c-.79-1.35-1.58-2.69-2.35-4s-1.68-3-2.52-4.43c-1-1.66-1.92-3.31-2.87-5-.78-1.35-1.55-2.71-2.33-4-.88-1.53-1.78-3.06-2.66-4.59l-2.94-5A4.17,4.17,0,0,0,151.11,72.74Z"/><path class="cls-2" d="M61.7,29.16c-5.88,0-11.76,0-17.64,0a7.87,7.87,0,0,1-5.81-2.43A8.09,8.09,0,0,1,42,13.27a11.05,11.05,0,0,1,2.3-.29c1.31-.05,2.62,0,3.93,0a4.1,4.1,0,0,0,4.08-4,11,11,0,0,1,.26-2.43A9.24,9.24,0,0,1,56.45,1,2.18,2.18,0,0,1,57.74.54c2.65,0,5.31,0,8,0A2.2,2.2,0,0,1,67,1a9.09,9.09,0,0,1,4,6.16A17,17,0,0,1,71.15,9a4.13,4.13,0,0,0,2.92,3.78,3.29,3.29,0,0,0,.94.14c1.41,0,2.83,0,4.25,0a8.22,8.22,0,0,1,4.61,1.37,7.86,7.86,0,0,1,3.5,5.58,7.73,7.73,0,0,1-2.44,7,7.86,7.86,0,0,1-5.59,2.21C73.46,29.17,67.58,29.16,61.7,29.16Zm0-16.23a4.13,4.13,0,1,0,.1-8.26,4.13,4.13,0,1,0-.1,8.26Z"/><path class="cls-2" d="M74.08,62.05H95.21a5,5,0,0,1,1.16.06,2.61,2.61,0,0,1,2,2.37,28.77,28.77,0,0,1,0,3.08A2.63,2.63,0,0,1,95.94,70c-.31,0-.63,0-1,0h-42c-.28,0-.57,0-.85,0a2.65,2.65,0,0,1-2.5-2.55c0-1,0-1.91,0-2.87a2.58,2.58,0,0,1,2.51-2.52h22Z"/><path class="cls-2" d="M74,94.49H53.14c-.31,0-.63,0-1,0A2.57,2.57,0,0,1,49.59,92c0-.92,0-1.84,0-2.76A2.64,2.64,0,0,1,52,86.56a8,8,0,0,1,.85,0H95.11a4.81,4.81,0,0,1,1.26.12,2.51,2.51,0,0,1,2,2.35,26.2,26.2,0,0,1,0,3.07,2.58,2.58,0,0,1-2.53,2.4c-.31,0-.63,0-.95,0Z"/><path class="cls-2" d="M67.17,108.37h14c.36,0,.71,0,1.07,0a2.57,2.57,0,0,1,2.46,2.36,24.1,24.1,0,0,1,0,3.18,2.66,2.66,0,0,1-2.43,2.42c-.32,0-.64,0-1,0H52.23a2.69,2.69,0,0,1-2.64-2.65q0-1.38,0-2.76a2.6,2.6,0,0,1,2.49-2.56c.39,0,.78,0,1.17,0Z"/><path class="cls-2" d="M64.42,140.86H52.21a2.65,2.65,0,0,1-2.62-2.65c0-.89,0-1.77,0-2.66a2.69,2.69,0,0,1,2.72-2.67c.81,0,1.63,0,2.44,0H76.19a3.46,3.46,0,0,1,1.35.16,2.44,2.44,0,0,1,1.7,2.22,28.29,28.29,0,0,1,0,3.19,2.53,2.53,0,0,1-2.4,2.39c-.32,0-.64,0-1,0Z"/><path class="cls-2" d="M32,137.07c.28-.26.5-.44.68-.64q3.7-4.19,7.4-8.36a3.93,3.93,0,0,1,1.48-1.17,2.13,2.13,0,0,1,2.43.55,2.16,2.16,0,0,1,.62,2.42,4,4,0,0,1-.87,1.32L38.62,137l-4.09,4.61c-.19.21-.38.43-.59.62a2.36,2.36,0,0,1-2.85.24,4.19,4.19,0,0,1-.6-.44q-2.82-2.25-5.63-4.53a3.78,3.78,0,0,1-.62-.58,2.25,2.25,0,0,1,0-2.93,2.3,2.3,0,0,1,2.76-.75,4.34,4.34,0,0,1,1,.61c1.06.83,2.1,1.68,3.16,2.52C31.37,136.58,31.66,136.79,32,137.07Z"/><path class="cls-2" d="M32,90.44a1.63,1.63,0,0,0,.85-.68q3.68-4.12,7.34-8.24a5.91,5.91,0,0,1,.74-.76,2.14,2.14,0,0,1,2.37-.38,2.48,2.48,0,0,1,1.51,2,2.1,2.1,0,0,1-.38,1.41,7.42,7.42,0,0,1-.65.83l-9.3,10.48a3.33,3.33,0,0,1-1.54,1.09,1.94,1.94,0,0,1-1.44-.11,5.59,5.59,0,0,1-.89-.57q-2.91-2.31-5.8-4.64a3.2,3.2,0,0,1-.47-.43,2.38,2.38,0,0,1,3-3.63,9,9,0,0,1,.93.69l3.24,2.58A5.91,5.91,0,0,0,32,90.44Z"/><path class="cls-2" d="M32.06,113.73c.3-.3.52-.52.73-.75l7.26-8.19a6.43,6.43,0,0,1,.83-.82,2.37,2.37,0,0,1,3.87,1.42,2.14,2.14,0,0,1-.34,1.63,5.19,5.19,0,0,1-.58.75l-9.45,10.65a2.57,2.57,0,0,1-1.79,1A2.42,2.42,0,0,1,31,119l-.76-.58L25,114.27A3.73,3.73,0,0,1,23.89,113a2.19,2.19,0,0,1,.4-2.47,2.23,2.23,0,0,1,2.38-.77,3.49,3.49,0,0,1,1.37.79l3.15,2.53Z"/><path class="cls-2" d="M32,66.24a2.64,2.64,0,0,0,1-.87l7.11-8a7.69,7.69,0,0,1,.75-.76A2.37,2.37,0,0,1,44.73,58a2.27,2.27,0,0,1-.07,1,3.08,3.08,0,0,1-.81,1.35L34.38,71a3.35,3.35,0,0,1-.61.58,2.24,2.24,0,0,1-2.5.21,4.55,4.55,0,0,1-.79-.53c-1.85-1.47-3.71-3-5.56-4.44a4.83,4.83,0,0,1-.76-.74,2.3,2.3,0,0,1,.16-3,2.33,2.33,0,0,1,2.91-.48,7.47,7.47,0,0,1,.85.63c1,.81,2,1.64,3.07,2.46C31.42,65.86,31.7,66.05,32,66.24Z"/><path class="cls-2" d="M144.77,117.73V98c0-.64.06-1.28,0-1.92a4.9,4.9,0,0,1,1.33-3.49A6.14,6.14,0,0,1,152,90.22a6.41,6.41,0,0,1,5.37,4.69,2.57,2.57,0,0,1,.1.73c0,.28,0,.57,0,.85v42.74a5.55,5.55,0,0,1-.3,2,6.55,6.55,0,0,1-8.47,3.68,6.27,6.27,0,0,1-3.69-4,4.52,4.52,0,0,1-.17-1c0-.64,0-1.28,0-1.91Z"/><path class="cls-2" d="M151.12,147a7.62,7.62,0,1,1-7.66,7.58A7.65,7.65,0,0,1,151.12,147Z"/></svg>