<svg id="Layer_1" data-name="Layer 1" xmlns="http://www.w3.org/2000/svg" viewBox="0 0 190.17 180.1"><defs><style>.cls-1{fill:#fff;fill-rule:evenodd;}</style></defs><title>WHO</title><path class="cls-1" d="M99.91,2c4.08,5.1-1,9.87-1,15.31l-.34,36.08a41.56,41.56,0,0,0-6.13,1.7v-.68L91.06,16.59c-.68-5.44-2.72-12.93,3.4-16C96.17.26,98.55.26,99.91,2ZM24.35,43.14c1-4.08,4.43-7.83,6.47-11.91,4.08-4.43,8.51-8.51,14-10.21l1.36-1C41.71,28.51,32.52,37.35,24.35,43.14ZM157.77,29.87a39.77,39.77,0,0,1,7.49,12.59l-10.89-9.53c-3.75-3.74-7.49-7.83-9.87-12.25,5.1,1.7,9.18,5.1,13.27,9.19Zm-47-6.81a3.39,3.39,0,0,1-1.7,1.36c-1.36,0-3.06-.68-4.43-.68,1.37-.34,2.73-1.36,4.09-1.36C109.44,21.7,110.46,22.38,110.8,23.06Z"/><path class="cls-1" d="M121,36.67c2.72,5.11,2,12.26-1.36,17-6.13,9.19-17.7,8.85-27.23,11.91-3.74.69-7.83,3.75-8.85,7.83-.34,3.41,2.05,5.79,4.43,7.49l1.36.68.34,7.15c-5.79-1-12.59-5.11-14-11.23A17.57,17.57,0,0,1,77.11,68c6.8-12.94,22.8-9.19,33.35-16a31.9,31.9,0,0,0,3.06-4.08,11.84,11.84,0,0,0-5.1-2.39c-2-1-4.43-1.36-6.81-2v-2c4.43,1,8.51,2,12.25,4.42a5.79,5.79,0,0,0,0-3.4c-.34-4.76-5.1-8.17-9.53-9.19a3.61,3.61,0,0,0-2.72-.34V25.78c7.83.34,15.32,3.75,19.4,10.89Zm53.78,23.49c-.35,1-.35,2.38-.68,3.4-5.45-8.51-16-14-20.43-23.14,4.77,2.38,10.89,5.44,14.3,10.89a80,80,0,0,1,4.42,7.15c0-3.41-1.36-6.47-2-9.53-2-5.11-2.38-10.9-4.08-16,7.14,7.15,10.21,16.68,8.51,27.23ZM128.5,34.63l1,1c-1.36,0-3.06-.34-3.74-1.7C126.8,34,128.16,33.27,128.5,34.63ZM17.21,56.41c1,0,1-1,1.7-1.7,1.36-3.4,4.08-6.12,7.14-8.51L37,38.38c-2.05,6.12-8.17,11.91-13.62,16a98.07,98.07,0,0,0-7.83,8.85C14.14,53,13.8,41.78,20.61,34c1,8.17-1.7,15-3.4,22.46Z"/><path class="cls-1" d="M181.93,70.37l-4.42,15.31V86c-1.36-3.06-2-6.12-4.09-8.84L166.28,67c-1.7-3.41-3.41-6.81-3.41-10.56l7.83,9.53c3.06,4.09,4.09,9.19,6.47,13.62,1-6.81,0-14.64,1-21.44.34-3.41,1.36-6.13,1-9.53C182.28,55.05,183.64,63.22,181.93,70.37Zm-169.83,1c.34,3.06-.68,6.47.68,9.19a18.14,18.14,0,0,1,1-4.09c2-7.14,6.47-13.61,12.25-19.73C25,68.33,14.14,75.81,12.78,87.05,8.7,75.81,1.89,61.52,9.72,49.61c.34,7.48,1.36,14.63,2.38,21.78Zm112-9.53-.34.34c-.68-.34-.33-1-.33-1.36C123.73,61.18,124.07,61.18,124.07,61.86Zm.35,3.74c0,.34-.35.34-.35.69h-1.36a1.94,1.94,0,0,1,1.36-2.39C124.07,64.58,125.44,65.26,124.42,65.6ZM97.19,101c-1.7.34-3.07,1-4.77,1l-.68-33.35c1.7-1,4.09-1,5.79-1.7l-.34,25.18V101Zm26.2-32a.65.65,0,0,1-1,.34c0-.34-1-.68-.34-1A1.77,1.77,0,0,1,123.39,69Z"/><path class="cls-1" d="M1.55,71.39c2,9.87,9.19,17.7,11.57,27.57.68,1.7,1,3.74,2,5.44.68-2.72.34-5.78.68-8.85.68-6.8,2.05-13.61,6.13-19.4,2,12.26-5.45,21.45-5.11,33.36L6.65,96.23c-4.76-7.14-7.14-16-5.1-24.84Zm87.81,1.36v5.11c-1.36-1-2.72-2.39-2.72-4.09a2.5,2.5,0,0,1,.68-2Zm96,17.7-3.41,6.13-7.82,10.88-2.73,4.77c.68-12.93-6.46-23.82-4.42-37.1,4.42,9.19,7.48,19.06,6.46,30,1.37-1.36,1.37-2.72,2.05-4.08l4.76-10.89c2.38-5.45,4.77-11.23,6.81-17,2,5.79,0,11.91-1.7,17.36Zm-77.26-1.36c2.72,2,3.74,5.44,3.06,9.19-.68,2.72-2.38,5.78-5.1,7.14-3.75,1.71-7.83,2.39-11.92,3.75-1.36,1-3.74,2-3.74,4.08v6.13A6.67,6.67,0,0,1,86,113.93a7,7,0,0,1,2.38-7.48c5.1-3.75,11.91-3.07,16-8.17a3.72,3.72,0,0,0-.34-3.75c-1-1.36-2.38-1.7-3.74-2.72V85.68a16.2,16.2,0,0,1,7.83,3.41ZM65.53,91.81c-.68,0-1.36-.34-1.36-1,.34-.68.34-1.7.68-2.38C66.22,88.75,65.19,90.79,65.53,91.81Zm24.17,1.7c-.34,0,0,1-.68.68-.34-.34-.68-.68-.34-1S89.7,92.83,89.7,93.51ZM65.53,95.89a.7.7,0,0,1-1-.68c0-.68.34-1,.68-1.7C65.88,94.19,65.19,95.21,65.53,95.89Z"/><path class="cls-1" d="M101.27,95.89a4.37,4.37,0,0,1,.34,2,3.09,3.09,0,0,1-2.38,1c-.34-1,1.7-1.7,1-3.07C100.59,96.23,100.93,95.89,101.27,95.89Zm64.67,29.27c3.4-2.72,4.42-6.46,6.8-9.53l7.49-8.84c1.7-2.39,3.41-4.09,5.11-6.47-1.36,12.59-11.23,22.46-21.44,30.29l-3.07,3.07c3.07-7.49,3.4-17.36,1.7-25.53-.34-3.75,1-7.49,2.05-10.89,1.7,8.5,4.08,19.06,1.36,27.9ZM14.14,113.59c2.38,3.41,4.77,6.81,7.49,10.21-.34-8.51-1.7-18.38,1.36-26.2,1.7,2.38,1.7,5.44,2.38,8.17l.34,4.08v16.34c0,2,1,3.74,1.36,5.78l-10.21-7.83c-8.16-7.48-13.95-16-15.31-26.54l12.59,16ZM89.7,101.68c0,.34-.34.68-.68.34.34-.68.34-1.7,1-2.38A2.25,2.25,0,0,1,89.7,101.68Zm-1.36,1L88,103c-.34-.34,0-1.36-.34-1.7C88.34,101.34,88,102.36,88.34,102.7Zm-52.76,2c.34.68,0,1.36-.34,2.05-.34-.69-1-1-.68-2.05C34.56,104.06,35.58,104.4,35.58,104.74Zm60.93,41.87c-.68.68-.34,1-1,1.36-1,.68-1.71-.68-2-1.36l-.34-22.47-.34-11.23c1-1,2.73-1,4.09-1.7V122.1Z"/><path class="cls-1" d="M152.32,141.84c-.34,1-1,1.7-1,2.38a203.31,203.31,0,0,0,30.29-21.44c-5.1,17.36-24.16,20.76-37.43,27.57,7.82-10.21,6.12-24.51,14.29-34.72-.34,9.53-1.7,18.72-6.13,26.21Zm-118.44-18c3.07,8.51,3.75,18,8.85,25.53C32.86,145.24,22,142.52,13.8,134A31,31,0,0,1,7,123.12c.35-.34.69,0,.69.34,7.48,6.81,16,9.87,23.48,16.34,2,1.36,3.4,3.4,5.45,4.08-1-3.74-3.41-7.14-4.77-10.89-1.7-5.1-3.06-10.89-2.38-17,2,2,3.06,5.1,4.42,7.82Zm55.14-2a1,1,0,0,1-1.36,0l-.34-.68H87A5.48,5.48,0,0,1,86,118C86.64,119.38,88.34,120.4,89,121.76Z"/><path class="cls-1" d="M88.68,17.61C73,19,59.75,25.78,48.18,37.35L56,44.84C64.85,36,75.4,31.57,86.64,28.16l2-.68v6.81c-4.43,2.38-7.49,7.83-11.92,9.53a61,61,0,0,1-7.82,4.77c-1-.68-2,.34-2.73,1l-1.36,3.06a2.25,2.25,0,0,1,.34-2c-.68,0-1.7.34-2.38.34,1.7-1,4.42-1.7,4.08-4.08.34-3.75,2.73-6.81,4.09-10.21a1.19,1.19,0,0,1,.34-.69c-5.11,2.39-9.53,6.13-14,10.22,1,1.36,2.39,2.38,3.41,3.74l-.68.68-3.41-3.4c-9.53,9.87-14,22.46-14.29,36.07H52.94c0-11.23,4.09-20.76,11.23-28.93L63.83,54l.34-.68.68.34C71.66,46.55,79.83,42.8,89,41.1v2A40.22,40.22,0,0,0,65.87,55.05l9.19,9.19c1.71-2,3.75-3.06,5.79-4.42.68.68,0,1.7-.68,2A25.28,25.28,0,0,0,69.62,76.5c.68.34,1-1.71,2.38-1.36.68,0,0-1,1-.69a10.58,10.58,0,0,1,.34,3.41,15.78,15.78,0,0,0,8.51,11.23l2.38.68c-.34.34-1.7.68-1.7,1.7,0,.34-.34.68-.34,1,.68.68-.68,1.71,0,2.38,1-.68,2.72-1.7,2.72-3.06a5.93,5.93,0,0,1,3.75-2c.34.34.68.34,1,1,0,.34-.34.34-.68.68l-2.73,2.38-.68-.34L76.08,103c2.39,2.73,5.45,4.09,8.51,5.45-.34.34-.34,1.36-.68,1a23.67,23.67,0,0,1-8.51-5.79l-7.82,7.83c1,.68,1,3.06,2.72,3.4,1,.68,1,1.37,1,2.39a40.16,40.16,0,0,0,19.06,7.48v1.36c-7.15-.34-14-3.06-20.08-7.14-3.07-1-4.77,2-7.83,1.7a6.75,6.75,0,0,0-3.74-.34l-1.37,1.36c9.19,9.53,20.43,14.29,33,15.32l-.34,1.7a52.48,52.48,0,0,1-32.68-14.64l-1.36-1-7.48,7.49a62.89,62.89,0,0,0,43.22,20.08c18.38,0,34.37-6.13,47.65-18.72a1.19,1.19,0,0,1,.34-.68l-7.83-7.83a60.53,60.53,0,0,1-14.29,10.21c-2.39,1.36-4.09,3.41-6.81,4.09l-1-1c-3.41.68-6.81,1.7-10.21,2l-.34-1.7a59.4,59.4,0,0,0,7.48-1.36c0-1.37-2-2.05-3.06-2.73-1-1-2-2.38-1.36-4.08,1.36,1.7,2.38,4.08,4.42,4.42,2.39-2,1-5.78,1-8.51-.69-.68-1.71,0-2.39,0,.69.69.69,2,1,3.07.34.68,0,1.36.34,2-1-.34-1.7-1.7-2.38-2.72-.68-.68-1-1.71-2-1.71l-2.38.68v-1.7a2.57,2.57,0,0,0,1.36-.34c-2.72,0-1-2.72-1.36-4.08a11,11,0,0,1,4.42,3.4c.68-.34,2-.34,1.71-1a16.76,16.76,0,0,0-6.13-4.77v-7.14c5.44-1.7,11.23-4.09,13.61-9.87,1-4.43.68-9.53-2.72-12.59a26,26,0,0,0-10.55-5.45V69.69l2-1c1,1.36-1.36,3.4,1,4.08,1.36,0,1.36-1.36,1.7-2a2.8,2.8,0,0,1,1.36-2c1.37,0,1.71-2,3.41-1.37l12.59-12.59c-.68-.68.34-1.7.34-2.38l1.36,1c.34-1.36,3.75-2.38,1.7-4.08l-1-1a15.28,15.28,0,0,0-1-12.26c0-.34.34-.68.68-1,1.36,1,2.72,2.73,4.77,2.39,1,1.36,2.72,2.72,2.38,4.76a2.3,2.3,0,0,0,2,1.36l6.81-6.81c-10.55-11.57-23.82-17-38.46-19.06V14.55c23.48,2,47.65,21.1,55.82,43.91C168.32,86,160.15,117.34,138,137.08c-11.91,9.87-25.19,15.65-41.18,16A65.22,65.22,0,0,1,50.9,137.42C29.12,118.36,20.61,88.07,30.82,60.84,36.6,41.78,55,23.06,74,17.61a70.54,70.54,0,0,1,14.64-3.4v3.4ZM75.41,36.67c-.69.34-1,.69-1,1.37.34.34.34,1.36,1.37,1,.68-.34,1.36-.68,1-1.37S75.74,36.33,75.41,36.67Zm66,.68-6.81,6.81,1.71,2c1.7,1.36,1.7,4.43,4.42,4.77.68,3.06,3.74,5.1,5.45,7.83,1,2-1.71,1.36-2.39,2.72a46.24,46.24,0,0,1,4.43,21.78h10.89c-.34-17.36-6.13-33-17.7-45.95ZM47.5,38C35.92,51,30.14,66.28,29.46,83.3H40.35C41,69,45.79,56.41,55.32,45.86c-2.72-2.72-5.1-5.44-7.82-7.82Zm79.64,14-2.38,2c3.06,3.06,4.42,7.15,7.82,9.53,0,1.7.69,2.72,1,4.09-.69.68.34,1.36.34,2,.33-.68,0-2,.68-2.39,2.38,1.37,0,3.75.34,5.79,1,3.06,1,6.81,1.7,10.21h9.87a49.15,49.15,0,0,0-4.09-20.08c-.33,0-.68.34-1,.34-1.36-1.36-2-3.4-3.06-5.1a5.79,5.79,0,0,0-2.38-.34c-.34,0-1-1-1.36-.68-1-1-2.73-.35-3.75-1-.68-2-2.72-2.72-3.74-4.42ZM74.38,64.58l-9.19-8.85C58.05,63.56,55,72.75,54.3,83.3h7.49c.68-1,1.7-1.36,2.38-2,.34-2,2.73-1.7,3.75-3.74a37,37,0,0,1,6.46-12.6v-.34Zm48.67-8.85-8.51,8.85c.69,1,1.37,2.72,2.73,2.38a.74.74,0,0,1-.68.69c1,1.7,3.06,2,4.76,2,1,.34.68,1.36,1,2,1.71,1,0,2.72.68,4.08,1-.34,1.71-2,3.07-1.7,1.36.68.34,2.38,1,3.41,2.38.33,3.06-2,3.74-3.41,1,2-.68,4.09-2,5.45-.68.34-1.36.34-2,.68a3.44,3.44,0,0,1-2,3.06h9.87a22.45,22.45,0,0,0-.34-4.76c-.34.34-1,1.36-1.71,1a18.83,18.83,0,0,1,.34-7.49c-.34-.34-.34-1.7-1-1.36-.34-2.72-3.74-4.09-3.74-6.47h1.36l-1-1.7a1.25,1.25,0,0,1-.34,1c-2-.68-1.7-2.72-2.38-4.42-1.36-.68-1-2.73-2.73-3.41Zm-9.87,10.21h-.34c.68,0,.68.34,1,.34Zm-2,2-2,1.7c1,.68,2,0,3.4.34,1,.34-.34,1.7.68,2.38,0-.34.34,0,.34,0a2.25,2.25,0,0,0-.34-2c.68-.68,1.71-.68,2.38-1,.34-.68-.33-1-.33-1.36-1,.34-2.39,0-3.07.68C111.82,68.67,111.14,68.67,111.14,68Zm-3.4,1.7c-.34-.34.68-.68.68-1Zm-78.28,15c.68,17.36,6.12,32.68,18,45.27,2.72-2.72,5.44-5.11,7.82-7.83l-3.74-3.74c-.68-.34-1.36,0-2-.34a17.06,17.06,0,0,0-.68-4.09c-1.36-1.36-3.41-1.36-5.11-1.7-1-.68-2-2-1.7-3.06.68-2.73-2.38-2.73-3.4-4.43-1.37,0-1.71-1-2.39-1.7-.68.34-1.36,1-2,.68a2.88,2.88,0,0,1,0-2.38C35.24,99,37.28,100,39,100a12.08,12.08,0,0,1,3.06-1.36,62.76,62.76,0,0,1-1.7-14Zm23.14,0H42.39a46.19,46.19,0,0,0,2,14,10.79,10.79,0,0,1,3.41,1.7c0-1-.68-1.7-.34-2.38,1-1,.68-2.38.68-3.75.34-2.38,3.06-3.4,4.76-4.76l-.34-4.77Zm1.7,0L55,89.43a10.79,10.79,0,0,0,3.41,1.7c1.36-.68,2-2.38,2.38-4.08,1-4.09-4.08-1.37-6.47-2.39ZM65.53,85c-1.36.34-1,2.38-2.72,2.73a4.72,4.72,0,0,1-1.7,3.4c-.34.68-.68,1.36,0,1.7,1.36.68,1,2.38,1,3.75,2,1.36,1.36,4.08.68,5.78,2,1.36,2.38,3.75,3.06,5.79a1.51,1.51,0,0,0-.68,2c0,.68.68.68,1.37.68,2.38-2.72,5.44-5.1,7.82-7.83a30,30,0,0,1-7.14-18c-.68-.34-1,0-1.71,0Zm58.2-.34c-.33,1.7.69,3.41.69,4.77,0,.34.34,1,.68,1,.68,0,.34-.68,1-1,1.36,0,2.38,1,3.4,1.7l-.68,1c-1.36.34-2,1.7-3.4,1.7-1,2-4.09,1.36-4.77,3.75-.34.34-.68,1.36-1.36.68.68,3.06-3.4,2.72-4.42,4.76,1-1.7,3.4,0,3.74-2,.68-.68,1-.34,1.7,0a26.24,26.24,0,0,0-.68,5.11c-.34.34-.68,1.7-1.36,1.7a.33.33,0,0,0,.34.34,7.42,7.42,0,0,1,1.36-1.7c3.06.34.68,4.42,2.72,5.78a41.66,41.66,0,0,0,11.92-27.57Zm12.6,0c-.68,11.23-4.43,21.1-11.91,28.93l1.36,1.7V115a1,1,0,0,1,1.36,0c-.34,2.73,3.06,4.09,4.42,6.13,9.53-10.21,14.3-22.12,15-36.42Zm11.91,0a55.38,55.38,0,0,1-15.32,37.78l7.83,7.83,2-2.38a68,68,0,0,0,16.34-43.23ZM68.6,85l.34,2.73a5.11,5.11,0,0,0,.34-2.39Zm1,6.13a24.63,24.63,0,0,0,5.79,10.55l4.76-4.77c0-.33-.34-.68-.68-1-2.38-.68-2-3.4-4.43-4.42-.34.68-1.36,0-2,.34-.68-1.36-2.38,0-3.4-.68Zm47.31,17a5.56,5.56,0,0,1-4.09.34l-.34.68c1.71.68,3.41,0,5.11-.34Zm6.46,6.46L120.67,117c0,1.36,1.36,2,2.38,2.72-.34,1.36-.34,2.72-1.7,3.74.34,2.38-1.7,4.09-1,6.81a38.4,38.4,0,0,0,10.21-8.17l-2.38-2.38a2.6,2.6,0,0,1-.68,1.7c-1.36-.34-1.7-1.7-2-3.06,1.37-1.7-1.36-2.38-2-3.75ZM57,120.74h-.34l-.34-.34A1.19,1.19,0,0,0,57,120.74Zm78.28,35.74a13.34,13.34,0,0,0,3.4-1c10.89-3.07,22.8-4.09,32-11.24l1.36-1.36c-.34,1.7-1.36,3.07-2,4.77-4.42,5.44-10.55,7.83-16.34,9.53-7.48,2.72-16.67,1-24.5,2.72l3.4-5.44,7.83-16,7.15-7.49c-2.05,9.19-7.15,17.36-12.25,25.53Zm-90.2-20.09A52.46,52.46,0,0,1,54,153.07a26.66,26.66,0,0,1,3.75,6.81,6.3,6.3,0,0,1-2.38-.68l-12.6-.68c-5.78-.34-10.55-2.73-15.65-4.43-4.09-2.38-8.17-5.78-10.55-9.87,3.4,1.71,7.14,3.75,11.23,4.77l14.29,3.74c2,0,3.4,1.36,5.11,2,2.38.69,4.42,1.71,6.8,2-5.44-7.49-11.91-15-12.93-24.17a10.55,10.55,0,0,1,4.08,3.74Zm44.25,25.53c-1.7,1.36-3.75,2.38-5.45,3.75-4.08-.34-8.16.68-11.91,1.36-10.89,2.72-25.18,5.44-35-1.36l-4.43-2.73c3.06.68,6.13,2,9.87,2,3.75.34,8.17.34,11.57-1l12.94-4.08C74.38,158.52,82.89,158.52,89.36,161.92Zm50.71,2.38c5.79.34,11.23.34,16-2-6.81,6.13-15.66,8.17-25.19,7.83-10.89-2-21.1-6.13-32.67-4.42-5.45,1.7-10.89,2.72-15.32,6.8-2.38,1.7-4.76,4.43-7.14,6.81a6.62,6.62,0,0,0-3.07-1.7c12.6-12.25,27.23-20.42,45.27-17.36,7.49,1,14.29,4.08,22.12,4.08Z"/><path class="cls-1" d="M115.57,178.26a11,11,0,0,1-3.07,1c-4.08-4.09-7.83-7.83-12.25-10.89,1-.68,2-.34,3.06-1C107.4,170.77,112.16,174.17,115.57,178.26Z"/></svg>