<?xml version="1.0" encoding="utf-8"?>
<!-- Generator: Adobe Illustrator 24.0.2, SVG Export Plug-In . SVG Version: 6.00 Build 0)  -->
<svg version="1.1" id="Layer_1" xmlns="http://www.w3.org/2000/svg" xmlns:xlink="http://www.w3.org/1999/xlink" x="0px" y="0px"
	 viewBox="0 0 356.5 272.3" style="enable-background:new 0 0 356.5 272.3;" xml:space="preserve">
<style type="text/css">
	.st0{fill:#5ECAF0;}
	.st1{fill:#19B4E9;}
	.st2{fill:#FFFFFF;}
	.st3{fill:#13B5EA;}
</style>
<title>xero-payroll-certified</title>
<g id="Layer_2_1_">
	<g id="Layer_1-2">
		<path class="st0" d="M288.7,0H178.3v272.3c17-9.1,31.3-16.2,44.1-22.5c56.8-27.9,67-32.9,69.6-107.7c0.6-17.1,0.7-37.6,0.7-57.3
			V3.9C292.6,1.8,290.8,0,288.7,0z"/>
		<path class="st1" d="M67.8,0c-2.2,0-3.9,1.8-3.9,3.9v80.9c0,19.6,0.1,40.1,0.7,57.3c2.6,74.8,12.8,79.8,69.6,107.7
			c12.7,6.2,27.1,13.3,44.1,22.4V0H67.8z"/>
		<circle class="st2" cx="178.3" cy="116.8" r="68.1"/>
		<path class="st3" d="M203.5,149.8c-2.3,0-4.6-0.9-6.2-2.6l-19.1-18.3L159,147.3c-1.6,1.6-3.8,2.4-6.1,2.4c-4.8,0-8.7-3.8-8.7-8.6
			c0-2.4,1-4.6,2.8-6.2l18.8-18.1l-18.9-18.2c-1.7-1.6-2.6-3.8-2.6-6.1c0.1-4.8,3.9-8.6,8.7-8.6c2.3,0,4.4,0.8,6.1,2.4l19.2,18.5
			l19.1-18.4c1.6-1.6,3.8-2.5,6.1-2.5c4.8,0,8.7,3.8,8.7,8.6c0,2.3-0.9,4.5-2.6,6.1l-18.9,18.3l18.9,18.3c1.7,1.6,2.6,3.8,2.6,6.1
			C212.2,146,208.3,149.8,203.5,149.8z"/>
		<path class="st1" d="M52.9,153.8L4,171.6c-3.2,1.2-4.8,4.7-3.7,7.9c0,0,0,0,0,0c0.2,0.5,0.4,1,0.8,1.4L25,214.5l4.2,43.7
			c0.3,3.4,3.3,5.8,6.7,5.5c0.5-0.1,1-0.2,1.5-0.3l56.7-20.6C66,225.6,55.8,207.5,52.9,153.8z"/>
		<path class="st1" d="M356.2,177.2c-0.6-1.8-2-3.3-3.8-3.9l-48.9-17.8c-3.1,53.4-13.7,71-42.9,88.3l58.4,21.3
			c0.7,0.3,1.4,0.4,2.1,0.4c3.2,0,5.8-2.4,6.1-5.5l4.2-43.7l23.9-33.6C356.5,181,356.8,179,356.2,177.2z"/>
	</g>
</g>
</svg>
