<?xml version="1.0" encoding="utf-8"?>
<!-- Generator: Adobe Illustrator 24.0.2, SVG Export Plug-In . SVG Version: 6.00 Build 0)  -->
<svg version="1.1" id="Layer_1" xmlns="http://www.w3.org/2000/svg" xmlns:xlink="http://www.w3.org/1999/xlink" x="0px" y="0px"
	 viewBox="0 0 45.1 45.1" style="enable-background:new 0 0 45.1 45.1;" xml:space="preserve">
<style type="text/css">
	.st0{fill:#13B5EA;}
	.st1{fill:#FFFFFF;}
</style>
<title>Xero</title>
<path class="st0" d="M22.5,45C34.9,45,45,35,45,22.5C45,10.1,34.9,0,22.5,0S0.1,10.1,0.1,22.5C0.1,35,10.1,45,22.5,45"/>
<path class="st1" d="M10.8,22.5l3.8-3.9c0.2-0.3,0.2-0.7-0.1-1c-0.3-0.2-0.7-0.2-0.9,0l-3.8,3.8L6,17.7c-0.3-0.3-0.7-0.3-1,0
	c-0.3,0.3-0.3,0.7,0,1l3.8,3.8L5,26.3c-0.3,0.3-0.3,0.7,0,1c0.3,0.3,0.7,0.3,1,0c0,0,0,0,0,0l3.8-3.8l3.8,3.8c0.3,0.3,0.7,0.3,1,0
	c0.1-0.1,0.2-0.3,0.2-0.5c0-0.2-0.1-0.4-0.2-0.5L10.8,22.5 M33.6,22.5c0,0.7,0.6,1.2,1.2,1.2c0.7,0,1.2-0.6,1.2-1.3
	s-0.6-1.2-1.3-1.2C34.2,21.2,33.6,21.8,33.6,22.5 M31.2,22.5c0-2,1.6-3.6,3.6-3.6c2,0,3.6,1.6,3.6,3.6s-1.6,3.6-3.6,3.6
	C32.9,26.1,31.2,24.5,31.2,22.5 M29.8,22.5c0,2.8,2.3,5,5,5s5-2.3,5-5c0-2.8-2.3-5-5-5C32.1,17.4,29.8,19.7,29.8,22.5 M29.5,17.5
	h-0.2c-0.6,0-1.2,0.2-1.8,0.6c-0.1-0.3-0.4-0.5-0.7-0.5c-0.4,0-0.7,0.3-0.7,0.7c0,0,0,0,0,0l0,8.5c0,0.4,0.3,0.7,0.7,0.6
	c0.4,0,0.6-0.3,0.6-0.6v-5.2c0-1.7,0.2-2.4,1.6-2.6c0.1,0,0.3,0,0.3,0c0.4,0,0.7-0.3,0.7-0.7C30.2,17.8,29.8,17.5,29.5,17.5
	 M16.3,21.6C16.3,21.6,16.3,21.6,16.3,21.6c0.5-2,2.5-3.2,4.4-2.7c1.3,0.3,2.3,1.4,2.6,2.7L16.3,21.6L16.3,21.6z M24.8,21.5
	c-0.3-1.4-1.1-2.6-2.2-3.3c-1.7-1.1-3.9-1-5.6,0.1c-1.7,1.2-2.5,3.3-2,5.4c0.5,2,2.2,3.5,4.3,3.8c0.6,0.1,1.2,0,1.8-0.1
	c0.5-0.1,1-0.3,1.5-0.6c0.5-0.3,0.9-0.7,1.3-1.2c0,0,0,0,0,0c0.3-0.3,0.2-0.8-0.1-1.1c-0.3-0.2-0.7-0.3-1,0.2
	c-0.1,0.1-0.2,0.2-0.2,0.3c-0.3,0.3-0.6,0.6-1,0.8c-0.5,0.3-1.1,0.4-1.7,0.4c-2,0-3.1-1.4-3.4-2.4c-0.1-0.2-0.1-0.4-0.2-0.6l0-0.1
	h7.2C24.4,23,24.9,22.3,24.8,21.5L24.8,21.5z"/>
</svg>
