<svg id="Layer_1" data-name="Layer 1" xmlns="http://www.w3.org/2000/svg" viewBox="0 0 600.94 150.94"><defs><style>.cls-1{fill:#fff;}.cls-2{fill:#5ecaf0;}.cls-3{fill:#19b4e9;}.cls-4{fill:#19b3e8;}</style></defs><title>xero-advisor-certified</title><path class="cls-1" d="M273.37,44.23h-.1l-9.54,14.55h-8.06l13.54-20.41L256.43,18.93h8.35l8.63,13.66h.12l8.7-13.66h8.12L277.64,38.2l13.54,20.58h-8.41Z"/><path class="cls-1" d="M315.14,49.24l6.08,2c-1.6,5.84-6.62,8.29-12.16,8.29-8.64,0-14.13-5.62-14.13-15.52s5.48-15.93,14.18-15.93c8.18,0,12.41,5.76,12.41,13a13.94,13.94,0,0,1-.59,4H302c.17,5.54,2.79,8.82,7.2,8.82A5.62,5.62,0,0,0,315.14,49.24ZM314.48,41a11.53,11.53,0,0,0,0-1.44c0-3.34-1.9-6.15-5.54-6.15-3.94,0-6.45,2.88-6.92,7.64Z"/><path class="cls-1" d="M346.34,35.81a11.55,11.55,0,0,0-3-.42c-4.18,0-7.39,3-7.39,8.9V58.78h-7.34v-30h6.2l.83,7.29c1.26-5.26,5.49-8.84,11.16-7.76Z"/><path class="cls-1" d="M364.83,59.51c-8.46,0-14.25-5.67-14.25-15.74s5.76-15.7,14.25-15.7,14.26,5.67,14.26,15.7S373.36,59.51,364.83,59.51Zm0-25.9c-4.59,0-6.85,3.57-6.85,10.2s2.26,10.25,6.85,10.25,6.92-3.57,6.92-10.25S369.43,33.61,364.83,33.61Z"/><path class="cls-1" d="M423.12,51.5c0,1.72.84,2.33,2.09,2.33a2.68,2.68,0,0,0,1.72-.61l.31,5a8.2,8.2,0,0,1-4.32,1.14,6.26,6.26,0,0,1-5.53-2.75,10,10,0,0,1-.89-2.2c-1.19,3.15-4.78,4.89-8.63,4.89-5.5,0-9.43-3.1-9.43-8.53,0-6,5-9.54,14.39-9.54a32.6,32.6,0,0,1,3.28.17V38.14a4.17,4.17,0,0,0-3.75-4.55,5.54,5.54,0,0,0-5.66,3.91,5.47,5.47,0,0,0,0,.81l-6.92-1.07c.61-5.76,5.31-9.13,12-9.13,7.45,0,11.34,3.34,11.34,9.67Zm-7-5.76c-.66,0-1.55-.17-2.44-.17-5.25,0-8.06,1.55-8.06,4.82,0,2.4,1.67,4,4.53,4s6-1.84,6-6.56Z"/><path class="cls-1" d="M452.59,53.16c-1.37,4.32-5.12,6.34-9.37,6.34-6.67,0-12.16-5.26-12.16-15.16,0-10.37,5-16.29,12.65-16.29,4.54,0,7.46,2.16,8.52,4.65v-17h7.34V58.78h-6.2ZM452.23,41c0-5.2-3.51-7.34-6.56-7.34-4.17,0-7.09,3.28-7.09,10.5,0,6.25,2.69,9.6,7,9.6,3.34,0,6.68-2.44,6.68-8.23Z"/><path class="cls-1" d="M480.28,50.88l7.39-22.11h7.1l-11,30h-7.33l-11.09-30h7.75l7,22.11Z"/><path class="cls-1" d="M504.21,24.41a4.32,4.32,0,0,1-4.6-4c0-.13,0-.26,0-.39a4.31,4.31,0,0,1,4.21-4.42h.4a4.42,4.42,0,1,1,.5,8.82A4.17,4.17,0,0,1,504.21,24.41Zm3.69,4.32V58.78h-7.28v-30Z"/><path class="cls-1" d="M520.61,49.71a5.75,5.75,0,0,0,6.14,4.72c3.16,0,5.26-1.27,5.26-3.77,0-6.62-16.65-1.44-16.65-13.06,0-6.08,5.12-9.55,11.62-9.55,6.87,0,10.93,3.06,11.65,8.54l-6.39.77c-.23-2.56-2-4.31-5.2-4.31-3,0-4.76,1.44-4.76,3.88,0,6.56,16.71,1,16.71,13.07,0,6.14-5.2,9.48-12.29,9.48-6.39,0-11.4-2.88-12.48-8.23Z"/><path class="cls-1" d="M558.18,59.51c-8.47,0-14.26-5.67-14.26-15.74s5.76-15.7,14.26-15.7,14.25,5.67,14.25,15.7S566.71,59.51,558.18,59.51Zm0-25.9c-4.6,0-6.86,3.57-6.86,10.2s2.26,10.25,6.86,10.25,6.91-3.57,6.91-10.25S562.79,33.61,558.18,33.61Z"/><path class="cls-1" d="M597.38,35.81a11.15,11.15,0,0,0-3-.42c-4.17,0-7.39,3-7.39,8.9V58.78h-7.34v-30h6.2l.83,7.29c1.26-5.26,5.5-8.84,11.17-7.76Z"/><path class="cls-1" d="M271.11,97.54c6.81,0,11.27,3.87,11.87,9.66l-6.44,1.44c-.23-3-2-5.49-5.37-5.49-4.53,0-6.79,4.12-6.79,10.21s2.26,10.07,6.85,10.07c3.1,0,5.08-2.28,5.36-5.56l6.51,1.75c-1,5.84-5.49,9.35-11.87,9.35-8.64,0-14.19-5.9-14.19-15.69S262.58,97.54,271.11,97.54Z"/><path class="cls-1" d="M308,118.71l6.08,2c-1.61,5.84-6.62,8.29-12.17,8.29-8.63,0-14.13-5.6-14.13-15.51S293.24,97.54,302,97.54c8.17,0,12.42,5.76,12.42,12.95a13.5,13.5,0,0,1-.61,4H294.85c.18,5.55,2.81,8.83,7.2,8.83A5.63,5.63,0,0,0,308,118.71Zm-.67-8.23a9.93,9.93,0,0,0,.08-1.44c0-3.34-1.92-6.15-5.56-6.15-3.94,0-6.44,2.88-6.92,7.63Z"/><path class="cls-1" d="M339.17,105.3a10.36,10.36,0,0,0-3-.42c-4.18,0-7.4,3-7.4,8.89v14.49H321.4v-30h6.2l.84,7.28c1.25-5.25,5.5-8.82,11.16-7.74Z"/><path class="cls-1" d="M363.28,126.82a12.5,12.5,0,0,1-7.2,2.15c-6,0-9.84-2.88-9.84-9.18V103.74h-4.06V98.25h4.06V91.87l7.39-1v7.33H362v5.49h-8.41V118.9c0,2.87,1.44,4,3.82,4a8.25,8.25,0,0,0,4.82-1.56Z"/><path class="cls-1" d="M373.19,93.9a4.42,4.42,0,1,1,0-8.83h0a4.42,4.42,0,1,1,0,8.83Zm3.7,4.32v30h-7.34v-30Z"/><path class="cls-1" d="M387.09,128.26V103.8H383V98.25h4.12V97.07c0-7.82,5-12.59,12.76-12.59a13.61,13.61,0,0,1,9.54,3.39l-2.74,5.2a7.5,7.5,0,0,0-6.26-3c-4.32,0-6,2.62-6,7v1.13H412.5v30h-7.39V103.8H394.43v24.46Z"/><path class="cls-1" d="M439.77,118.71l6.07,2c-1.59,5.84-6.62,8.29-12.16,8.29-8.63,0-14.14-5.6-14.14-15.51s5.5-15.92,14.2-15.92c8.17,0,12.4,5.76,12.4,12.95a13.48,13.48,0,0,1-.59,4h-19c.17,5.55,2.79,8.83,7.19,8.83A5.64,5.64,0,0,0,439.77,118.71Zm-.66-8.23q0-.72,0-1.44c0-3.34-1.9-6.15-5.54-6.15-3.94,0-6.45,2.88-6.92,7.63Z"/><path class="cls-1" d="M472.77,122.65c-1.44,4.32-5.14,6.32-9.37,6.32-6.69,0-12.18-5.24-12.18-15.15,0-10.38,5-16.28,12.65-16.28,4.54,0,7.46,2.15,8.54,4.65v-17h7.33v43.06h-6.21Zm-.36-12.23c0-5.18-3.53-7.34-6.57-7.34-4.17,0-7.1,3.28-7.1,10.51,0,6.26,2.69,9.59,7,9.59,3.34,0,6.7-2.44,6.7-8.23Z"/><path class="cls-2" d="M156,4H96.43V151c9.18-4.94,16.92-8.74,23.79-12.11,30.65-15.06,36.17-17.77,37.57-58.14.32-9.22.37-20.32.37-30.95V6.07A2.12,2.12,0,0,0,156,4Z"/><path class="cls-3" d="M36.82,4A2.12,2.12,0,0,0,34.7,6.07V49.74c0,10.59,0,21.67.37,31,1.4,40.37,6.92,43.08,37.57,58.14,6.87,3.37,14.61,7.17,23.79,12.11V4Z"/><path class="cls-1" d="M96.43,23.65A43.37,43.37,0,1,0,139.8,67h0A43.42,43.42,0,0,0,96.43,23.65Z"/><path class="cls-4" d="M110.08,84.8a4.75,4.75,0,0,1-3.36-1.39L96.43,73.52l-10.37,10a4.81,4.81,0,0,1-3.29,1.32,4.66,4.66,0,0,1-4.69-4.62,4.52,4.52,0,0,1,1.48-3.36l10.16-9.81L79.5,57.16a4.55,4.55,0,0,1-1.42-3.31,4.66,4.66,0,0,1,4.69-4.62,4.76,4.76,0,0,1,3.28,1.29l10.39,10,10.33-9.94a4.73,4.73,0,0,1,3.31-1.34,4.67,4.67,0,0,1,4.71,4.62,4.52,4.52,0,0,1-1.43,3.3L103.21,67l10.22,9.88a4.55,4.55,0,0,1,1.41,3.29,4.67,4.67,0,0,1-4.72,4.62Z"/><path class="cls-3" d="M28.74,87,2.39,96.6a3.31,3.31,0,0,0-1.57,5L13.7,119.73,16,143.31a3.26,3.26,0,0,0,1.53,2.48,3.2,3.2,0,0,0,1.76.51,3.36,3.36,0,0,0,1.13-.2L51,135C35.83,125.74,30.33,116,28.74,87Z"/><path class="cls-3" d="M192.5,99.61a3.31,3.31,0,0,0-2-2.13l-26.4-9.6c-1.69,28.85-7.41,38.34-23.16,47.65L172.47,147a3.31,3.31,0,0,0,4.43-2.8l2.31-23.58L192,102.52A3.31,3.31,0,0,0,192.5,99.61Z"/><path class="cls-4" d="M110.08,84.8a4.75,4.75,0,0,1-3.36-1.39L96.43,73.52l-10.37,10a4.81,4.81,0,0,1-3.29,1.32,4.66,4.66,0,0,1-4.69-4.62,4.52,4.52,0,0,1,1.48-3.36l10.16-9.81L79.5,57.16a4.55,4.55,0,0,1-1.42-3.31,4.66,4.66,0,0,1,4.69-4.62,4.76,4.76,0,0,1,3.28,1.29l10.39,10,10.33-9.94a4.73,4.73,0,0,1,3.31-1.34,4.67,4.67,0,0,1,4.71,4.62,4.52,4.52,0,0,1-1.43,3.3L103.21,67l10.22,9.88a4.55,4.55,0,0,1,1.41,3.29,4.67,4.67,0,0,1-4.72,4.62Z"/></svg>