<svg id="Layer_1" data-name="Layer 1" xmlns="http://www.w3.org/2000/svg" viewBox="0 0 795.79 279.45"><defs><style>.cls-1{fill:#fff;}.cls-2{fill:#5ecaf0;}.cls-3{fill:#19b4e9;}.cls-4{fill:#13b5ea;}</style></defs><title>xero-payroll-certified</title><g id="Layer_2" data-name="Layer 2"><g id="Layer_1-2" data-name="Layer 1-2"><path class="cls-1" d="M389.76,36.7h-.23L377.24,55.44H366.87L384.3,29.18,368,4.15h10.7l11.13,17.58H390L401.2,4.15h10.44L395.28,29l17.43,26.49H401.88Z"/><path class="cls-1" d="M443.51,43.16l7.84,2.53c-2.07,7.52-8.53,10.67-15.67,10.67-11.13,0-18.19-7.22-18.19-20s7.06-20.5,18.27-20.5c10.52,0,16,7.37,16,16.73a17,17,0,0,1-.77,5.15H426.54c.24,7.14,3.61,11.36,9.22,11.36C439.68,49.14,442.44,47.38,443.51,43.16Zm-.84-10.61a15.18,15.18,0,0,0,.08-1.91c0-4.3-2.46-7.91-7.14-7.91-5.07,0-8.3,3.68-8.91,9.82Z"/><path class="cls-1" d="M483.68,25.88a14,14,0,0,0-3.92-.54c-5.37,0-9.52,3.92-9.52,11.44V55.44H460.8V16.82h8l1.08,9.37c1.61-6.76,7.06-11.37,14.36-10Z"/><path class="cls-1" d="M507.49,56.36c-10.9,0-18.35-7.29-18.35-20.27s7.45-20.19,18.35-20.19,18.35,7.29,18.35,20.19S518.47,56.36,507.49,56.36Zm0-33.4c-5.91,0-8.83,4.61-8.83,13.13s2.92,13.21,8.83,13.21,8.91-4.61,8.91-13.21S513.4,23,507.49,23Z"/><path class="cls-1" d="M562.4,24c1.38-4.38,6-8.14,12-8.14,10.36,0,15.89,8.44,15.89,20,0,12.13-6.45,20.5-16.51,20.5-5.37,0-9.21-2.61-10.75-5.84V70.64h-9.44V16.82h7.76Zm.6,15.77c0,6.61,4.15,9.53,8.3,9.53,5.52,0,9.29-4.46,9.29-13.14s-3.46-12.74-9.14-12.74c-4.3,0-8.45,3.38-8.45,10.67Z"/><path class="cls-1" d="M628.37,46.07c0,2.23,1.07,3,2.68,3a3.59,3.59,0,0,0,2.23-.77l.38,6.45a10.53,10.53,0,0,1-5.53,1.46c-3.22,0-5.68-1.23-7.14-3.46a13.74,13.74,0,0,1-1.15-2.84c-1.53,4.07-6.14,6.3-11.13,6.3-7.06,0-12.13-4-12.13-11,0-7.68,6.45-12.28,18.5-12.28,1.15,0,2.84.07,4.23.22V28.88c0-3.69-2-5.92-6-5.92s-6,2.31-6.06,6.06l-8.91-1.38c.77-7.44,6.84-11.74,15.44-11.74,9.59,0,14.59,4.3,14.59,12.44Zm-9.06-7.44c-.85-.08-2-.24-3.15-.24-6.76,0-10.37,2-10.37,6.22,0,3.08,2.15,5.15,5.84,5.15,3.84,0,7.68-2.38,7.68-8.45Z"/><path class="cls-1" d="M665.46,16.82h9.21L660.47,57C656.55,67.88,652,71.56,645,71.56a13.62,13.62,0,0,1-6.91-1.84l1.61-7.22a7.25,7.25,0,0,0,4.53,1.62c3.23,0,4.76-1.54,6.84-7.3l-14.13-40h10L656,46.15h.16Z"/><path class="cls-1" d="M705.09,25.88a14,14,0,0,0-3.92-.54c-5.37,0-9.52,3.92-9.52,11.44V55.44h-9.44V16.82h8l1.08,9.37c1.61-6.76,7.06-11.37,14.36-10Z"/><path class="cls-1" d="M728.9,56.36c-10.9,0-18.35-7.29-18.35-20.27S718,15.9,728.9,15.9s18.35,7.29,18.35,20.19S739.88,56.36,728.9,56.36Zm0-33.4c-5.91,0-8.83,4.61-8.83,13.13S723,49.3,728.9,49.3s8.91-4.61,8.91-13.21S734.81,23,728.9,23Z"/><path class="cls-1" d="M772.21,54.52a14.46,14.46,0,0,1-7.06,1.69c-5.14,0-9.37-2.46-9.37-9.22V0h9.44V45.23c0,2.38,1.08,3.45,3.15,3.45a5.63,5.63,0,0,0,3.15-1Z"/><path class="cls-1" d="M795.79,54.52a14.57,14.57,0,0,1-7.06,1.69c-5.15,0-9.37-2.46-9.37-9.22V0h9.44V45.23c0,2.38,1.08,3.45,3.15,3.45a5.63,5.63,0,0,0,3.15-1Z"/><path class="cls-1" d="M386.84,105.34c8.75,0,14.51,5,15.28,12.43l-8.3,1.77c-.3-3.91-2.61-7.06-6.91-7.06-5.83,0-8.75,5.29-8.75,13.13s2.92,13,8.83,13c4,0,6.53-2.92,6.91-7.14l8.37,2.23c-1.27,7.57-7.07,12.1-15.27,12.1-11.13,0-18.27-7.6-18.27-20.19S375.86,105.34,386.84,105.34Z"/><path class="cls-1" d="M434.29,132.59l7.84,2.54c-2.07,7.53-8.53,10.67-15.67,10.67-11.13,0-18.19-7.21-18.19-20,0-12.59,7.06-20.5,18.27-20.5,10.52,0,16,7.37,16,16.74a16.9,16.9,0,0,1-.77,5.14H417.33c.23,7.14,3.61,11.37,9.21,11.37C430.46,138.59,433.22,136.82,434.29,132.59ZM433.45,122a17.61,17.61,0,0,0,.08-1.92c0-4.3-2.46-7.91-7.14-7.91-5.07,0-8.29,3.69-8.91,9.83Z"/><path class="cls-1" d="M474.46,115.32a14.36,14.36,0,0,0-3.91-.54c-5.38,0-9.52,3.92-9.52,11.45v18.65h-9.45V106.26h8l1.07,9.37c1.62-6.76,7.06-11.36,14.36-10Z"/><path class="cls-1" d="M505.49,143a16.23,16.23,0,0,1-9.21,2.76c-7.68,0-12.68-3.68-12.68-11.82V113.32h-5.22v-7.06h5.22V98.05l9.53-1.24v9.45H504v7.06H493.13v19.51c0,3.68,1.91,5.22,4.91,5.22a10.43,10.43,0,0,0,6.14-2Z"/><path class="cls-1" d="M518.24,100.66a5.69,5.69,0,0,1-.48-11.37,3.84,3.84,0,0,1,.48,0,5.69,5.69,0,0,1,.48,11.37A3.84,3.84,0,0,1,518.24,100.66Zm4.76,5.6v38.62h-9.44V106.26Z"/><path class="cls-1" d="M536.13,144.88V113.32h-5.29v-7.06h5.29v-1.53c0-10.07,6.45-16.21,16.43-16.21,5.07,0,9.22,1.53,12.29,4.38l-3.53,6.68a9.63,9.63,0,0,0-8.06-3.84c-5.53,0-7.68,3.38-7.68,9.06v1.46h23.27v38.62h-9.53V113.32H545.58v31.56Z"/><path class="cls-1" d="M603.94,132.59l7.84,2.54c-2.08,7.53-8.53,10.67-15.67,10.67-11.13,0-18.19-7.21-18.19-20,0-12.59,7.06-20.5,18.27-20.5,10.52,0,16,7.37,16,16.74a16.9,16.9,0,0,1-.77,5.14H587c.23,7.14,3.61,11.37,9.22,11.37C600.11,138.59,602.87,136.82,603.94,132.59ZM603.1,122a17.61,17.61,0,0,0,.08-1.92c0-4.3-2.46-7.91-7.14-7.91-5.07,0-8.3,3.69-8.91,9.83Z"/><path class="cls-1" d="M646.42,137.66c-1.77,5.61-6.61,8.14-12.06,8.14-8.6,0-15.66-6.75-15.66-19.5,0-13.36,6.45-21,16.27-21,5.84,0,9.6,2.76,11,6V89.45h9.45v55.43h-8ZM646,121.92c0-6.68-4.53-9.44-8.44-9.44-5.38,0-9.14,4.22-9.14,13.51,0,8.06,3.46,12.36,9,12.36,4.3,0,8.6-3.15,8.6-10.59Z"/><path class="cls-2" d="M288.65,7.17H178.23V279.45c17-9.15,31.34-16.19,44.07-22.45,56.78-27.88,67-32.91,69.6-107.68.59-17.08.67-37.65.67-57.33V11.09a3.93,3.93,0,0,0-3.92-3.92Z"/><path class="cls-3" d="M67.82,7.17a3.93,3.93,0,0,0-3.92,3.92V92c0,19.61.08,40.13.67,57.33,2.6,74.77,12.83,79.8,69.6,107.69,12.73,6.25,27.07,13.29,44.06,22.44V7.17Z"/><circle class="cls-1" cx="178.23" cy="123.99" r="68.08"/><path class="cls-4" d="M203.51,156.93a8.82,8.82,0,0,1-6.21-2.58L178.23,136,159,154.49a8.85,8.85,0,0,1-6.09,2.43,8.64,8.64,0,0,1-8.7-8.55,8.36,8.36,0,0,1,2.76-6.23L165.8,124l-18.93-18.24a8.45,8.45,0,0,1-2.64-6.13,8.65,8.65,0,0,1,8.7-8.56A8.82,8.82,0,0,1,159,93.45l19.25,18.49,19.14-18.43A8.81,8.81,0,0,1,203.51,91a8.65,8.65,0,0,1,8.72,8.56,8.31,8.31,0,0,1-2.64,6.11L190.7,124l18.93,18.3a8.43,8.43,0,0,1,2.6,6.09A8.65,8.65,0,0,1,203.51,156.93Z"/><path class="cls-3" d="M52.84,161,4,178.79a6.12,6.12,0,0,0-3.65,7.86,6,6,0,0,0,.75,1.44L25,221.67l4.24,43.68a6.14,6.14,0,0,0,8.2,5.17l56.71-20.64C66,232.77,55.8,214.65,52.84,161Z"/><path class="cls-3" d="M356.19,184.36a6.13,6.13,0,0,0-3.75-3.94l-48.9-17.79c-3.13,53.45-13.73,71-42.9,88.27l58.41,21.26a6,6,0,0,0,2.1.37,6.11,6.11,0,0,0,6.09-5.53l4.25-43.69,23.85-33.58A6.11,6.11,0,0,0,356.19,184.36Z"/></g></g></svg>