<svg id="Layer_1" data-name="Layer 1" xmlns="http://www.w3.org/2000/svg" viewBox="0 0 1122.52 279.44"><defs><style>.cls-1{fill:#fff;}.cls-2{fill:#5ecaf0;}.cls-3{fill:#19b4e9;}.cls-4{fill:#13b5ea;}</style></defs><title>xero-payroll-certified</title><path class="cls-1" d="M513,80.46h-.35l-18.42,28.1H478.65l26.13-39.37L480.35,31.67h16L513.07,58h.26l16.79-26.35h15.65L521.24,68.92l26.13,39.71H531.13Z"/><path class="cls-1" d="M593.54,90.15l11.75,3.79c-3.1,11.27-12.78,16-23.49,16-16.68,0-27.26-10.83-27.26-30s10.58-30.73,27.38-30.73c15.77,0,24,11.05,24,25.08A25.57,25.57,0,0,1,604.75,82H568.1c.36,10.71,5.41,17,13.82,17C587.8,99.11,591.94,96.47,593.54,90.15Zm-1.26-15.91a22.72,22.72,0,0,0,.12-2.86c0-6.45-3.69-11.86-10.7-11.86-7.6,0-12.44,5.52-13.36,14.72Z"/><path class="cls-1" d="M653.76,64.24a21.22,21.22,0,0,0-5.88-.8c-8,0-14.27,5.87-14.27,17.14v28H619.46V50.66h12l1.62,14c2.41-10.13,10.58-17,21.53-15Z"/><path class="cls-1" d="M689.45,109.94c-16.34,0-27.51-10.93-27.51-30.39s11.17-30.27,27.51-30.27S717,60.21,717,79.55,705.91,109.94,689.45,109.94Zm0-50.07c-8.86,0-13.24,6.91-13.24,19.68s4.38,19.8,13.24,19.8,13.36-6.91,13.36-19.8-4.5-19.62-13.36-19.62Z"/><path class="cls-1" d="M771.77,61.43c2.06-6.57,9-12.21,18-12.21,15.53,0,23.82,12.66,23.82,30,0,18.18-9.66,30.73-24.75,30.73-8.05,0-13.8-3.92-16.11-8.76v30.16H758.56V50.66h11.63Zm.89,23.64c0,9.91,6.23,14.28,12.45,14.28,8.27,0,13.92-6.68,13.92-19.7s-5.18-19.09-13.7-19.09c-6.44,0-12.67,5.06-12.67,16Z"/><path class="cls-1" d="M870.66,94.51c0,3.34,1.6,4.5,4,4.5A5.34,5.34,0,0,0,878,97.85l.57,9.67a15.79,15.79,0,0,1-8.29,2.19c-4.83,0-8.52-1.84-10.7-5.19a20.94,20.94,0,0,1-1.73-4.25c-2.29,6.1-9.2,9.44-16.68,9.44-10.59,0-18.19-6-18.19-16.49,0-11.51,9.67-18.41,27.74-18.41,1.72,0,4.25.11,6.34.33v-6.4c0-5.53-3-8.87-9-8.87s-9,3.46-9.08,9.08l-13.36-2.07c1.16-11.15,10.25-17.6,23.15-17.6,14.37,0,21.87,6.45,21.87,18.65ZM857.08,83.36c-1.28-.12-3-.36-4.73-.36-10.13,0-15.54,3-15.54,9.32,0,4.62,3.22,7.72,8.75,7.72,5.76,0,11.52-3.57,11.52-12.66Z"/><path class="cls-1" d="M926.26,50.66h13.81L918.78,110.9c-5.88,16.31-12.7,21.82-23.19,21.82A20.38,20.38,0,0,1,885.23,130l2.41-10.82a10.93,10.93,0,0,0,6.79,2.43c4.85,0,7.14-2.31,10.26-10.94l-21.18-60h15l13.58,44h.24Z"/><path class="cls-1" d="M985.67,64.24a21.22,21.22,0,0,0-5.88-.8c-8,0-14.27,5.87-14.27,17.14v28H951.37V50.66h12l1.62,14c2.41-10.13,10.58-17,21.53-15Z"/><path class="cls-1" d="M1021.36,109.94c-16.34,0-27.51-10.93-27.51-30.39s11.17-30.27,27.51-30.27,27.51,10.93,27.51,30.27S1037.82,109.94,1021.36,109.94Zm0-50.07c-8.86,0-13.24,6.91-13.24,19.68s4.4,19.8,13.24,19.8,13.36-6.91,13.36-19.8-4.5-19.62-13.36-19.62Z"/><path class="cls-1" d="M1086.28,107.18a21.64,21.64,0,0,1-10.58,2.53c-7.7,0-14-3.69-14-13.82V25.45h14.16v67.8c0,3.57,1.61,5.17,4.72,5.17a8.32,8.32,0,0,0,4.72-1.5Z"/><path class="cls-1" d="M1121.63,107.18a21.66,21.66,0,0,1-10.58,2.53c-7.72,0-14-3.69-14-13.82V25.45h14.15v67.8c0,3.57,1.62,5.17,4.73,5.17a8.34,8.34,0,0,0,4.72-1.5Z"/><path class="cls-1" d="M508.59,183.36c13.12,0,21.75,7.5,22.9,18.63l-12.44,2.66c-.45-5.86-3.91-10.59-10.36-10.59-8.74,0-13.11,7.93-13.11,19.69s4.37,19.48,13.23,19.48c6,0,9.79-4.37,10.36-10.7l12.55,3.34c-1.9,11.35-10.6,18.14-22.89,18.14-16.69,0-27.39-11.39-27.39-30.26S492.13,183.36,508.59,183.36Z"/><path class="cls-1" d="M579.72,224.21,591.47,228c-3.1,11.29-12.78,16-23.49,16-16.68,0-27.27-10.81-27.27-30,0-18.87,10.59-30.73,27.39-30.73,15.77,0,24,11,24,25.09a25.46,25.46,0,0,1-1.16,7.71H554.3c.34,10.7,5.41,17,13.8,17C574,233.2,578.12,230.55,579.72,224.21Zm-1.26-15.88a22.88,22.88,0,0,0,.12-2.87c0-6.45-3.69-11.86-10.7-11.86-7.6,0-12.43,5.53-13.36,14.73Z"/><path class="cls-1" d="M639.94,198.32a21.53,21.53,0,0,0-5.86-.81c-8.07,0-14.28,5.88-14.28,17.17v27.95H605.64V184.74h12l1.6,14c2.43-10.14,10.59-17,21.53-15Z"/><path class="cls-1" d="M686.45,239.82a24.28,24.28,0,0,1-13.8,4.13c-11.52,0-19-5.51-19-17.72V195.32h-7.83V184.74h7.83V172.43l14.28-1.86v14.17h16.3v10.58h-16.3v29.25c0,5.52,2.87,7.82,7.37,7.82a15.7,15.7,0,0,0,9.2-3Z"/><path class="cls-1" d="M705.57,176.34a8.53,8.53,0,1,1-.72-17q.36,0,.72,0a8.53,8.53,0,1,1,.71,17Zm7.13,8.4v57.89H698.55V184.74Z"/><path class="cls-1" d="M732.38,242.63V195.32h-7.93V184.74h7.93v-2.29c0-15.1,9.67-24.3,24.63-24.3,7.6,0,13.83,2.29,18.43,6.56l-5.29,10A14.42,14.42,0,0,0,758.06,169c-8.29,0-11.51,5.07-11.51,13.58v2.19h34.88v57.89H767.15V195.32h-20.6v47.31Z"/><path class="cls-1" d="M834,224.21,845.79,228c-3.12,11.29-12.79,16-23.49,16C805.61,244,795,233.2,795,214c0-18.87,10.58-30.73,27.39-30.73,15.77,0,24,11,24,25.09a25.77,25.77,0,0,1-1.15,7.71H808.64c.35,10.7,5.41,17,13.82,17C828.29,233.2,832.43,230.55,834,224.21Zm-1.26-15.88a27.43,27.43,0,0,0,.12-2.87c0-6.45-3.69-11.86-10.71-11.86-7.6,0-12.44,5.53-13.35,14.73Z"/><path class="cls-1" d="M897.72,231.81c-2.66,8.41-9.91,12.2-18.08,12.2-12.89,0-23.48-10.12-23.48-29.23,0-20,9.67-31.48,24.39-31.48,8.76,0,14.39,4.14,16.49,9V159.54h14.17v83.09h-12Zm-.63-23.6c0-10-6.79-14.15-12.66-14.15-8.06,0-13.7,6.33-13.7,20.26,0,12.08,5.19,18.52,13.49,18.52,6.45,0,12.9-4.72,12.9-15.87Z"/><g id="Layer_2" data-name="Layer 2"><g id="Layer_1-2" data-name="Layer 1-2"><path class="cls-2" d="M288.65,7.16H178.23V279.44c17-9.15,31.34-16.19,44.07-22.45,56.78-27.88,67-32.91,69.6-107.68.59-17.08.67-37.65.67-57.33V11.08a3.93,3.93,0,0,0-3.92-3.92Z"/><path class="cls-3" d="M67.82,7.16a3.93,3.93,0,0,0-3.92,3.92V92c0,19.61.08,40.13.67,57.33,2.6,74.77,12.83,79.8,69.6,107.69,12.73,6.25,27.07,13.29,44.06,22.44V7.16Z"/><circle class="cls-1" cx="178.23" cy="123.98" r="68.08"/><path class="cls-4" d="M203.51,156.92a8.78,8.78,0,0,1-6.21-2.58L178.23,136,159,154.48a8.85,8.85,0,0,1-6.09,2.43,8.64,8.64,0,0,1-8.7-8.55,8.38,8.38,0,0,1,2.76-6.23L165.8,124l-18.93-18.24a8.45,8.45,0,0,1-2.64-6.13,8.66,8.66,0,0,1,8.7-8.56A8.82,8.82,0,0,1,159,93.44l19.25,18.49L197.39,93.5A8.81,8.81,0,0,1,203.51,91a8.66,8.66,0,0,1,8.72,8.56,8.31,8.31,0,0,1-2.64,6.11L190.7,124l18.93,18.3a8.43,8.43,0,0,1,2.6,6.09A8.64,8.64,0,0,1,203.51,156.92Z"/><path class="cls-3" d="M52.84,161,4,178.78a6.13,6.13,0,0,0-3.65,7.87,5.91,5.91,0,0,0,.75,1.43L25,221.66l4.24,43.68a6.14,6.14,0,0,0,8.2,5.17l56.71-20.64C66,232.76,55.8,214.64,52.84,161Z"/><path class="cls-3" d="M356.19,184.35a6.15,6.15,0,0,0-3.75-3.94l-48.9-17.79c-3.13,53.45-13.73,71-42.9,88.27l58.41,21.26a5.77,5.77,0,0,0,2.1.37,6.11,6.11,0,0,0,6.09-5.53l4.25-43.69,23.85-33.58A6.1,6.1,0,0,0,356.19,184.35Z"/></g></g></svg>