<?xml version="1.0" encoding="utf-8"?>
<!-- Generator: Adobe Illustrator 24.0.2, SVG Export Plug-In . SVG Version: 6.00 Build 0)  -->
<svg version="1.1" id="Layer_1" xmlns="http://www.w3.org/2000/svg" xmlns:xlink="http://www.w3.org/1999/xlink" x="0px" y="0px"
	 viewBox="0 0 192.4 147" style="enable-background:new 0 0 192.4 147;" xml:space="preserve">
<style type="text/css">
	.st0{fill:#5ECAF0;}
	.st1{fill:#19B4E9;}
	.st2{fill:#FFFFFF;}
	.st3{fill:#19B3E8;}
</style>
<title>xero-advisor-certified</title>
<path class="st0" d="M155.8,0H96.2v147c9.2-4.9,16.9-8.7,23.8-12.1c30.7-15.1,36.2-17.8,37.6-58.1c0.3-9.2,0.4-20.3,0.4-31V2.1
	C157.9,0.9,156.9,0,155.8,0z"/>
<path class="st1" d="M36.6,0c-1.2,0-2.1,0.9-2.1,2.1v43.7c0,10.6,0,21.7,0.4,31c1.4,40.4,6.9,43.1,37.6,58.1
	c6.9,3.4,14.6,7.2,23.8,12.1V0H36.6z"/>
<path class="st2" d="M96.2,19.7c-24,0-43.4,19.4-43.4,43.4s19.4,43.4,43.4,43.4S139.6,87,139.6,63c0,0,0,0,0,0l0,0
	C139.5,39.1,120.1,19.7,96.2,19.7z"/>
<path class="st3" d="M109.9,80.8c-1.3,0-2.5-0.5-3.4-1.4l-10.3-9.9l-10.4,10c-0.9,0.8-2.1,1.3-3.3,1.3c-2.6,0-4.7-2.1-4.7-4.6
	c0-1.3,0.5-2.5,1.5-3.4l10.2-9.8l-10.2-9.9c-0.9-0.9-1.4-2.1-1.4-3.3c0-2.6,2.1-4.6,4.7-4.6c1.2,0,2.4,0.5,3.3,1.3l10.4,10l10.3-9.9
	c0.9-0.9,2.1-1.3,3.3-1.3c2.6,0,4.7,2,4.7,4.6c0,1.3-0.5,2.4-1.4,3.3L103,63l10.2,9.9c0.9,0.9,1.4,2,1.4,3.3
	C114.6,78.7,112.5,80.8,109.9,80.8C109.9,80.8,109.9,80.8,109.9,80.8L109.9,80.8z"/>
<path class="st1" d="M28.5,83L2.2,92.6c-1.7,0.6-2.6,2.5-2,4.3c0.1,0.3,0.2,0.5,0.4,0.7l12.9,18.1l2.3,23.6c0.1,1,0.7,1.9,1.5,2.5
	c0.5,0.3,1.1,0.5,1.8,0.5c0.4,0,0.8-0.1,1.1-0.2L50.8,131C35.6,121.7,30.1,112,28.5,83z"/>
<path class="st1" d="M192.3,95.6c-0.3-1-1-1.8-2-2.1l-26.4-9.6c-1.7,28.8-7.4,38.3-23.2,47.6l31.5,11.5c1.7,0.6,3.6-0.3,4.2-2
	c0.1-0.3,0.2-0.5,0.2-0.8l2.3-23.6l12.8-18.1C192.4,97.7,192.6,96.6,192.3,95.6z"/>
<path class="st3" d="M109.9,80.8c-1.3,0-2.5-0.5-3.4-1.4l-10.3-9.9l-10.4,10c-0.9,0.8-2.1,1.3-3.3,1.3c-2.6,0-4.7-2.1-4.7-4.6
	c0-1.3,0.5-2.5,1.5-3.4l10.2-9.8l-10.2-9.9c-0.9-0.9-1.4-2.1-1.4-3.3c0-2.6,2.1-4.6,4.7-4.6c1.2,0,2.4,0.5,3.3,1.3l10.4,10l10.3-9.9
	c0.9-0.9,2.1-1.3,3.3-1.3c2.6,0,4.7,2,4.7,4.6c0,1.3-0.5,2.4-1.4,3.3L103,63l10.2,9.9c0.9,0.9,1.4,2,1.4,3.3
	C114.6,78.7,112.5,80.8,109.9,80.8C109.9,80.8,109.9,80.8,109.9,80.8L109.9,80.8z"/>
</svg>
